<?xml version="1.0" encoding="UTF-8" standalone="no"?>
<!-- Generator: Adobe Illustrator 19.0.0, SVG Export Plug-In . SVG Version: 6.00 Build 0)  -->

<svg
   xmlns:dc="http://purl.org/dc/elements/1.1/"
   xmlns:cc="http://creativecommons.org/ns#"
   xmlns:rdf="http://www.w3.org/1999/02/22-rdf-syntax-ns#"
   xmlns:svg="http://www.w3.org/2000/svg"
   xmlns="http://www.w3.org/2000/svg"
   xmlns:sodipodi="http://sodipodi.sourceforge.net/DTD/sodipodi-0.dtd"
   xmlns:inkscape="http://www.inkscape.org/namespaces/inkscape"
   version="1.1"
   id="Layer_1"
   x="0px"
   y="0px"
   viewBox="0 0 51.905998 51.913399"
   xml:space="preserve"
   sodipodi:docname="IconUndo.svg"
   width="51.905998"
   height="51.913399"
   inkscape:version="0.92.2 (5c3e80d, 2017-08-06)"><metadata
     id="metadata39"><rdf:RDF><cc:Work
         rdf:about=""><dc:format>image/svg+xml</dc:format><dc:type
           rdf:resource="http://purl.org/dc/dcmitype/StillImage" /><dc:title /></cc:Work></rdf:RDF></metadata><defs
     id="defs37" /><sodipodi:namedview
     pagecolor="#ffffff"
     bordercolor="#666666"
     borderopacity="1"
     objecttolerance="10"
     gridtolerance="10"
     guidetolerance="10"
     inkscape:pageopacity="0"
     inkscape:pageshadow="2"
     inkscape:window-width="3840"
     inkscape:window-height="2035"
     id="namedview35"
     showgrid="false"
     fit-margin-top="0"
     fit-margin-left="0"
     fit-margin-right="0"
     fit-margin-bottom="0"
     inkscape:pagecheckerboard="true"
     inkscape:zoom="13.721432"
     inkscape:cx="34.982728"
     inkscape:cy="25.772086"
     inkscape:window-x="3827"
     inkscape:window-y="-13"
     inkscape:window-maximized="1"
     inkscape:current-layer="Layer_1" /><g
     id="g4"
     transform="translate(1329.8174,509.75331)" /><g
     id="g6"
     transform="translate(1329.8174,509.75331)" /><g
     id="g8"
     transform="translate(1329.8174,509.75331)" /><g
     id="g10"
     transform="translate(1329.8174,509.75331)" /><g
     id="g12"
     transform="translate(1329.8174,509.75331)" /><g
     id="g14"
     transform="translate(1329.8174,509.75331)" /><g
     id="g16"
     transform="translate(1329.8174,509.75331)" /><g
     id="g18"
     transform="translate(1329.8174,509.75331)" /><g
     id="g20"
     transform="translate(1329.8174,509.75331)" /><g
     id="g22"
     transform="translate(1329.8174,509.75331)" /><g
     id="g24"
     transform="translate(1329.8174,509.75331)" /><g
     id="g26"
     transform="translate(1329.8174,509.75331)" /><g
     id="g28"
     transform="translate(1329.8174,509.75331)" /><g
     id="g30"
     transform="translate(1329.8174,509.75331)" /><g
     id="g32"
     transform="translate(1329.8174,509.75331)" /><path
     style="fill:#4654e4;stroke:none;stroke-width:1.81974399;stroke-miterlimit:4;stroke-dasharray:none;stroke-opacity:1;fill-opacity:1"
     d="m 13.081554,14.65055 c -0.953559,-0.89004 -2.499984,-0.89004 -3.453817,0 C 5.3233634,18.66811 2.953,24.00931 2.953,29.69054 c 0,11.72819 10.22299,21.26986 22.788632,21.26986 12.565552,0 22.788268,-9.54167 22.788268,-21.26986 0,-7.3864 -4.055615,-13.90435 -10.196829,-17.71899 l 1.766196,-8.2869895 c 0.192699,-0.90419 -0.217219,-1.82782 -1.038424,-2.33993 -0.821478,-0.51231 -1.892444,-0.51231 -2.71374,0 l -11.962386,7.46042 c -8.21e-4,4.9e-4 0,10e-4 0,0.002 -0.0556,0.0347 -0.108109,0.0724 -0.159884,0.11075 -0.01094,0.008 -0.02188,0.0147 -0.03281,0.0227 -0.06107,0.0471 -0.119503,0.0967 -0.17538,0.14863 -0.01732,0.0159 -0.0319,0.0337 -0.04922,0.0502 -0.03737,0.0374 -0.07566,0.0744 -0.110661,0.11416 -0.01367,0.0158 -0.02552,0.033 -0.0392,0.0492 -0.03555,0.0424 -0.0711,0.085 -0.102822,0.12959 -0.0091,0.0112 -0.01458,0.0234 -0.02279,0.0348 -0.03555,0.0512 -0.07019,0.10303 -0.100634,0.15664 0,0.006 -0.0091,0.0126 -0.01003,0.0188 -0.03373,0.0599 -0.06472,0.1207 -0.09279,0.1833 0,0.003 0,0.006 0,0.009 -0.02917,0.0656 -0.05469,0.13252 -0.07748,0.2008795 0,0.006 0,0.0126 -0.0091,0.0191 -0.02097,0.065 -0.03829,0.13095 -0.05287,0.19804 -1.82e-4,10e-4 -5.47e-4,0.002 -8.2e-4,0.003 0,0.0208 -0.0091,0.0419 -0.01003,0.0629 -0.01003,0.0519 -0.01914,0.10381 -0.02461,0.15576 -0.0091,0.0661 -0.01003,0.13311 -0.01094,0.20078 -2.73e-4,0.008 0,0.0167 0,0.0254 0,3e-4 0,4.9e-4 0,5.9e-4 1.82e-4,0.0766 0,0.15244 0.01185,0.22715 0.0091,0.0464 0.01367,0.0921 0.02188,0.13779 0.0091,0.0273 0.0091,0.0553 0.01367,0.0823 0.01276,0.0585 0.02917,0.11612 0.04649,0.17354 0,0.0137 0.0091,0.0281 0.01185,0.0416 0.02005,0.0601 0.04284,0.11933 0.06837,0.17783 0,0.0104 0.0091,0.0216 0.01276,0.0319 0.02643,0.0587 0.0556,0.11612 0.08751,0.17276 0.0091,0.01 0.01003,0.0199 0.0155,0.0295 0.03282,0.058 0.07019,0.11445 0.109111,0.16992 0.0091,0.007 0.0091,0.0145 0.01367,0.0214 v 0.003 l 0.0091,0.009 7.984526,11.15329 c 0.458686,0.64082 1.225198,1.01308 2.030359,1.01308 0.158061,0 0.317854,-0.0145 0.476826,-0.0439 0.968783,-0.17989 1.726179,-0.88672 1.918787,-1.79101 l 1.148174,-5.38778 c 3.891355,3.06786 6.367366,7.65281 6.367366,12.76832 0,9.21443 -8.031652,16.71099 -17.903882,16.71099 -9.872413,0 -17.9042475,-7.49656 -17.9042475,-16.71099 0,-4.46356 1.8623635,-8.66003 5.2441695,-11.81627 0.953742,-0.89053 0.953742,-2.33379 -9.1e-5,-3.22411 z"
     id="path2"
     inkscape:connector-curvature="0" /></svg>