<?xml version="1.0" encoding="UTF-8" standalone="no"?>
<!-- Created with Inkscape (http://www.inkscape.org/) -->
<svg
   xmlns:dc="http://purl.org/dc/elements/1.1/"
   xmlns:cc="http://web.resource.org/cc/"
   xmlns:rdf="http://www.w3.org/1999/02/22-rdf-syntax-ns#"
   xmlns:svg="http://www.w3.org/2000/svg"
   xmlns="http://www.w3.org/2000/svg"
   xmlns:sodipodi="http://sodipodi.sourceforge.net/DTD/sodipodi-0.dtd"
   xmlns:inkscape="http://www.inkscape.org/namespaces/inkscape"
   width="48px"
   height="48px"
   id="svg5498"
   sodipodi:version="0.32"
   inkscape:version="0.44"
   sodipodi:docbase="/home/luca/Artwork/blackwhite-icon-theme/scalable/devices"
   sodipodi:docname="input-mouse_alt.svg">
  <defs
     id="defs5500" />
  <sodipodi:namedview
     id="base"
     pagecolor="#ffffff"
     bordercolor="#666666"
     borderopacity="1.0"
     inkscape:pageopacity="0.0"
     inkscape:pageshadow="2"
     inkscape:zoom="15.25"
     inkscape:cx="24"
     inkscape:cy="24"
     inkscape:current-layer="layer2"
     showgrid="true"
     inkscape:grid-bbox="true"
     inkscape:document-units="px"
     inkscape:window-width="1274"
     inkscape:window-height="946"
     inkscape:window-x="0"
     inkscape:window-y="25"
     showguides="true"
     inkscape:guide-bbox="true"
     inkscape:grid-points="true">
    <sodipodi:guide
       orientation="vertical"
       position="24.016393"
       id="guide2766" />
  </sodipodi:namedview>
  <metadata
     id="metadata5503">
    <rdf:RDF>
      <cc:Work
         rdf:about="">
        <dc:format>image/svg+xml</dc:format>
        <dc:type
           rdf:resource="http://purl.org/dc/dcmitype/StillImage" />
        <dc:title>Mouse</dc:title>
        <dc:creator>
          <cc:Agent>
            <dc:title>Luca Ferretti &lt;elle.uca@libero.it&gt;</dc:title>
          </cc:Agent>
        </dc:creator>
        <dc:subject>
          <rdf:Bag>
            <rdf:li>mouse input device</rdf:li>
          </rdf:Bag>
        </dc:subject>
        <dc:description>A stylized mouse</dc:description>
        <cc:license
           rdf:resource="http://creativecommons.org/licenses/LGPL/2.1/" />
      </cc:Work>
      <cc:License
         rdf:about="http://creativecommons.org/licenses/LGPL/2.1/">
        <cc:permits
           rdf:resource="http://web.resource.org/cc/Reproduction" />
        <cc:permits
           rdf:resource="http://web.resource.org/cc/Distribution" />
        <cc:requires
           rdf:resource="http://web.resource.org/cc/Notice" />
        <cc:permits
           rdf:resource="http://web.resource.org/cc/DerivativeWorks" />
        <cc:requires
           rdf:resource="http://web.resource.org/cc/ShareAlike" />
        <cc:requires
           rdf:resource="http://web.resource.org/cc/SourceCode" />
      </cc:License>
    </rdf:RDF>
  </metadata>
  <g
     id="layer1"
     inkscape:label="Layer 1"
     inkscape:groupmode="layer"
     style="display:none">
    <path
       sodipodi:type="arc"
       style="fill:black;fill-opacity:1;fill-rule:evenodd;stroke:none;stroke-width:1px;stroke-linecap:butt;stroke-linejoin:miter;stroke-opacity:1"
       id="path5587"
       sodipodi:cx="23.641304"
       sodipodi:cy="21.717392"
       sodipodi:rx="13.532609"
       sodipodi:ry="11.673913"
       d="M 37.173913 21.717392 A 13.532609 11.673913 0 1 1  10.108695,21.717392 A 13.532609 11.673913 0 1 1  37.173913 21.717392 z" />
    <path
       d="M 37.173913 21.717392 A 13.532609 11.673913 0 1 1  10.108695,21.717392 A 13.532609 11.673913 0 1 1  37.173913 21.717392 z"
       sodipodi:ry="11.673913"
       sodipodi:rx="13.532609"
       sodipodi:cy="21.717392"
       sodipodi:cx="23.641304"
       id="path6474"
       style="fill:black;fill-opacity:1;fill-rule:evenodd;stroke:none;stroke-width:1px;stroke-linecap:butt;stroke-linejoin:miter;stroke-opacity:1"
       sodipodi:type="arc"
       transform="translate(0,11.6087)" />
    <rect
       style="fill:black;fill-opacity:1;fill-rule:evenodd;stroke:none;stroke-width:1px;stroke-linecap:butt;stroke-linejoin:miter;stroke-opacity:1"
       id="rect6476"
       width="27.173914"
       height="12.043478"
       x="10"
       y="22"
       rx="0"
       ry="0" />
    <path
       sodipodi:type="arc"
       style="fill:white;fill-opacity:1;fill-rule:evenodd;stroke:none;stroke-width:1px;stroke-linecap:butt;stroke-linejoin:miter;stroke-opacity:1"
       id="path7363"
       sodipodi:cx="23.086956"
       sodipodi:cy="22.043478"
       sodipodi:rx="8.73913"
       sodipodi:ry="8.73913"
       d="M 14.347826,22.043478 A 8.73913,8.73913 0 0 1 23.086956,13.304348 L 23.086956,22.043478 z"
       sodipodi:start="3.1415927"
       sodipodi:end="4.712389"
       transform="translate(-1.086956,0)" />
    <path
       sodipodi:end="4.712389"
       sodipodi:start="3.1415927"
       d="M 14.347826,22.043478 A 8.73913,8.73913 0 0 1 23.086956,13.304348 L 23.086956,22.043478 z"
       sodipodi:ry="8.73913"
       sodipodi:rx="8.73913"
       sodipodi:cy="22.043478"
       sodipodi:cx="23.086956"
       id="path8250"
       style="fill:white;fill-opacity:1;fill-rule:evenodd;stroke:none;stroke-width:1px;stroke-linecap:butt;stroke-linejoin:miter;stroke-opacity:1"
       sodipodi:type="arc"
       transform="matrix(-1,0,0,1,48.34783,0)" />
    <path
       style="fill:white;fill-opacity:1;fill-rule:evenodd;stroke:none;stroke-width:1px;stroke-linecap:butt;stroke-linejoin:miter;stroke-opacity:1"
       d="M 13,24 L 34,24 L 34,34 C 34,34 33.863828,41 24,41 C 14.055145,41 13,34 13,34 L 13,24"
       id="path8252"
       sodipodi:nodetypes="ccczcc" />
  </g>
  <g
     inkscape:groupmode="layer"
     id="layer2"
     inkscape:label="new"
     style="display:inline">
    <path
       sodipodi:nodetypes="ccczccz"
       id="path4555"
       d="M 24.043478,4.0543481 C 10.065065,4.0543481 10.043478,15.054348 10.043478,15.054348 L 10.043478,33.054348 C 10.043478,33.054348 9.8899483,44 24,44 C 37.980695,44 38.043478,33.054348 38.043478,33.054348 L 38.043478,15.054348 C 38.043478,15.054348 38.152324,4.0543481 24.043478,4.0543481 z "
       style="fill:white;fill-opacity:1;fill-rule:evenodd;stroke:white;stroke-width:8;stroke-linecap:butt;stroke-linejoin:miter;stroke-opacity:1;stroke-miterlimit:4;stroke-dasharray:none" />
    <path
       style="fill:black;fill-opacity:1;fill-rule:evenodd;stroke:none;stroke-width:1px;stroke-linecap:butt;stroke-linejoin:miter;stroke-opacity:1"
       d="M 24.043478,4.0543481 C 10.065065,4.0543481 10.043478,15.054348 10.043478,15.054348 L 10.043478,33.054348 C 10.043478,33.054348 9.8899483,44 24,44 C 37.980695,44 38.043478,33.054348 38.043478,33.054348 L 38.043478,15.054348 C 38.043478,15.054348 38.152324,4.0543481 24.043478,4.0543481 z "
       id="path1875"
       sodipodi:nodetypes="ccczccz" />
    <path
       transform="matrix(-1,0,0,1,48.36957,1.021739)"
       style="fill:white;fill-opacity:1;fill-rule:evenodd;stroke:none;stroke-width:1px;stroke-linecap:butt;stroke-linejoin:miter;stroke-opacity:1"
       d="M 14.36957,15.978261 C 14.36957,10.978261 17.36957,6.978261 22.36957,6.978261 L 22.36957,15.978261 L 14.36957,15.978261 z "
       id="path3663"
       sodipodi:nodetypes="cccc" />
    <path
       style="fill:white;fill-opacity:1;fill-rule:evenodd;stroke:none;stroke-width:1px;stroke-linecap:butt;stroke-linejoin:miter;stroke-opacity:1"
       d="M 14,21 L 34,21 L 34,32 C 34,32 34.980004,40 24,40 C 13.085203,40 14,32 14,32 L 14,21 z "
       id="path3665"
       sodipodi:nodetypes="ccczcc" />
    <path
       sodipodi:nodetypes="cccc"
       id="path4553"
       d="M 14,17 C 14,12 17,8 22,8 L 22,17 L 14,17 z "
       style="fill:white;fill-opacity:1;fill-rule:evenodd;stroke:none;stroke-width:1px;stroke-linecap:butt;stroke-linejoin:miter;stroke-opacity:1" />
  </g>
</svg>
