<?xml version="1.0" encoding="utf-8"?>
<!-- Generator: Adobe Illustrator 16.0.0, SVG Export Plug-In . SVG Version: 6.00 Build 0)  -->
<!DOCTYPE svg PUBLIC "-//W3C//DTD SVG 1.1//EN" "http://www.w3.org/Graphics/SVG/1.1/DTD/svg11.dtd">
<svg version="1.1" id="Layer_1" xmlns="http://www.w3.org/2000/svg" xmlns:xlink="http://www.w3.org/1999/xlink" x="0px" y="0px"
	 width="512px" height="512px" viewBox="0 0 512 512" enable-background="new 0 0 512 512" xml:space="preserve">
<g>
	<path fill="#020202" d="M284.5,182c0,15.74-12.76,28.5-28.5,28.5l0,0c-15.74,0-28.5-12.76-28.5-28.5v-49
		c0-15.74,12.76-28.5,28.5-28.5l0,0c15.74,0,28.5,12.76,28.5,28.5V182z"/>
	<g>
		<path fill="#020202" d="M274,88.035c15.071,6.217,25.557,19.987,25.557,35.988v67.953c0,16.001-10.485,29.771-25.557,35.988V264.5
			h147V141.806C421,72.325,362.797,16,291,16h-17V88.035z"/>
		<path fill="#020202" d="M91,275v95.193C91,439.675,149.203,496,221,496h70c71.797,0,130-56.325,130-125.807V275H91z"/>
		<path fill="#020202" d="M238,264.5v-36.535c-15.071-6.217-25.557-19.987-25.557-35.988v-67.953
			c0-16.001,10.485-29.771,25.557-35.988V16h-17C149.203,16,91,72.325,91,141.806V264.5H238z"/>
	</g>
</g>
</svg>
