<?xml version="1.0" encoding="UTF-8" standalone="no"?>
<svg
   width="128"
   height="128"
   viewBox="0 0 128 128"
   version="1.1"
   id="svgMonitorSize"
   xmlns="http://www.w3.org/2000/svg">
  <!-- Monitor body from MonitorInfo.svg: full black swaps to the theme foreground. -->
  <rect
     style="fill:#0078d7;fill-opacity:1;stroke-width:2.79044;stroke-linecap:round;stroke-linejoin:round"
     width="112"
     height="63"
     x="8"
     y="25" />
  <path
     style="color:#000000;fill:#000000;stroke-width:4;stroke-linejoin:round"
     d="m 8,17 c -4,0 -8,4 -8,8 v 67 c 0,4 4,8 8,8 h 112 c 4,0 8,-4 8,-8 V 25 c 0,-4 -4,-8 -8,-8 z m 2,8 h 108 c 1,0 2,1 2,2 v 59 c 0,1 -1,2 -2,2 H 10 C 9,88 8,87 8,86 V 27 c 0,-1 1,-2 2,-2 z" />
  <rect
     style="fill:#0078d7;stroke:#000000;stroke-width:0;stroke-linejoin:round"
     width="16"
     height="4"
     x="56"
     y="92"
     ry="0.5" />
  <rect
     style="fill:#000000;stroke-width:6.19844;stroke-linecap:round;stroke-linejoin:round"
     width="40"
     height="8"
     x="44"
     y="104"
     ry="1" />
  <!-- Size glyph: horizontal resize arrows, white at 0.75 opacity over the screen. -->
  <path
     style="fill:#ffffff;fill-opacity:1;stroke:none;stroke-linejoin:round;opacity:0.75"
     d="M 80,86 116,58 80,28 Z" />
  <path
     style="fill:#ffffff;fill-opacity:1;stroke:none;stroke-linejoin:round;opacity:0.75"
     d="M 12,58 48,28 v 58 z" />
  <rect
     style="fill:#ffffff;fill-opacity:1;stroke:none;stroke-linecap:round;stroke-linejoin:round;opacity:0.75"
     width="16"
     height="20"
     x="56"
     y="48"
     ry="2" />
</svg>
