<?xml version="1.0" encoding="UTF-8" standalone="no"?>
<!-- Created with Inkscape (http://www.inkscape.org/) -->

<svg
   width="128"
   height="128"
   viewBox="0 0 128 128"
   version="1.1"
   id="svg5"
   inkscape:version="1.2.2 (732a01da63, 2022-12-09)"
   sodipodi:docname="MonitorSize.svg"
   xmlns:inkscape="http://www.inkscape.org/namespaces/inkscape"
   xmlns:sodipodi="http://sodipodi.sourceforge.net/DTD/sodipodi-0.dtd"
   xmlns="http://www.w3.org/2000/svg"
   xmlns:svg="http://www.w3.org/2000/svg">
  <sodipodi:namedview
     id="namedview7"
     pagecolor="#505050"
     bordercolor="#eeeeee"
     borderopacity="1"
     inkscape:pageshadow="0"
     inkscape:pageopacity="0"
     inkscape:pagecheckerboard="0"
     inkscape:document-units="mm"
     showgrid="true"
     units="px"
     inkscape:zoom="11.313709"
     inkscape:cx="59.573746"
     inkscape:cy="51.265242"
     inkscape:window-width="3840"
     inkscape:window-height="2071"
     inkscape:window-x="-9"
     inkscape:window-y="-9"
     inkscape:window-maximized="1"
     inkscape:current-layer="layer1"
     inkscape:blackoutopacity="0.0"
     inkscape:showpageshadow="2"
     inkscape:deskcolor="#505050">
    <inkscape:grid
       type="xygrid"
       id="grid824"
       originx="0"
       originy="0"
       empspacing="4" />
  </sodipodi:namedview>
  <defs
     id="defs2" />
  <g
     inkscape:label="Calque 1"
     inkscape:groupmode="layer"
     id="layer1">
    <rect
       style="fill:#0078d7;fill-opacity:1;stroke:none;stroke-width:14.8783;stroke-linecap:round;stroke-linejoin:round;stroke-dasharray:none;stroke-opacity:1"
       id="rect2354"
       width="112"
       height="63"
       x="8"
       y="26"
       ry="0" />
    <path
       style="fill:#ffffff;fill-opacity:1;stroke:none;stroke-width:4;stroke-linecap:butt;stroke-linejoin:round;stroke-miterlimit:4;stroke-dasharray:none;stroke-opacity:1"
       d="M 80,86 116,58 80,28 Z"
       id="path1093"
       sodipodi:nodetypes="cccc" />
    <path
       style="fill:#ffffff;fill-opacity:1;stroke:none;stroke-width:4;stroke-linecap:butt;stroke-linejoin:round;stroke-miterlimit:4;stroke-dasharray:none;stroke-opacity:1"
       d="M 12,58 48,28 v 58 z"
       id="path1093-9"
       sodipodi:nodetypes="cccc" />
    <path
       style="color:#000000;fill:#000000;stroke-linejoin:round;-inkscape-stroke:none"
       d="m 8,17.999826 c -4.0000429,0 -8,4 -8,8 v 64 c 0,4 3.9999571,8 8,8 h 112 c 4,0 8,-4 8,-8 v -64 c 0,-4 -4,-8 -8,-8 z m 2,8 h 108 c 1,0 2,1 2,2 v 59 c 0,1 -1,2 -2,2 H 10 c -1,0 -2,-1 -2,-2 v -59 c 0,-1 1,-2 2,-2 z"
       id="rect1032"
       sodipodi:nodetypes="ssssssssssssssssss" />
    <rect
       style="fill:#0078d7;stroke:#000000;stroke-width:0;stroke-linejoin:round;stroke-miterlimit:4;stroke-dasharray:none"
       id="rect1032-2-8"
       width="16"
       height="4.999999"
       x="56"
       y="90.999825"
       ry="1.2499998" />
    <rect
       style="fill:#000000;fill-opacity:1;stroke:none;stroke-width:3.57771;stroke-linecap:round;stroke-linejoin:round;stroke-dasharray:none;stroke-opacity:1"
       id="rect2352"
       width="32"
       height="8"
       x="48"
       y="101.99982"
       ry="2" />
    <rect
       style="fill:#ffffff;fill-opacity:1;stroke:none;stroke-width:4;stroke-linecap:round;stroke-linejoin:round;stroke-dasharray:none;stroke-opacity:1"
       id="rect2477"
       width="16"
       height="20"
       x="56"
       y="48"
       ry="2" />
  </g>
</svg>
