<?xml version="1.0" encoding="utf-8"?>
<!-- Svg Vector Icons : http://www.onlinewebfonts.com/icon -->
<!DOCTYPE svg PUBLIC "-//W3C//DTD SVG 1.1//EN" "http://www.w3.org/Graphics/SVG/1.1/DTD/svg11.dtd">
<svg version="1.1" xmlns="http://www.w3.org/2000/svg" xmlns:xlink="http://www.w3.org/1999/xlink" x="0px" y="0px" viewBox="0 0 1000 1000" enable-background="new 0 0 1000 1000" xml:space="preserve">
<metadata> Svg Vector Icons : http://www.onlinewebfonts.com/icon </metadata>
<g><path d="M49.1,9.9h1.3h309.7c21.4,0,39.3,17.7,39.3,39.3v1.1v550h551.2c21.8,0,39.3,17.4,39.3,39.8v1.1v309.6c0,21.3-17.5,39.3-39.3,39.3h-1.3H49.1c-21.8,0-39.1-18-39.1-39.3v-1V49.2C10,27.5,27.3,9.9,49.1,9.9L49.1,9.9z M207.1,588.2L207.1,588.2c-12.8,0-23.3-11-23.3-23.9c0-12.3,10.5-23.6,23.3-23.6h113.6v-51h-62.8c-12.8,0-23.5-10.2-23.5-23.3s10.7-23.9,23.5-23.9h62.8v-50.4H207.1c-12.8,0-23.3-11-23.3-23.9c0-13.2,10.5-23.8,23.3-23.8h113.6v-50.8h-62.8c-12.8,0-23.5-10.4-23.5-23.3c0-13.4,10.7-24.1,23.5-24.1h62.8v-50.5H207.1c-12.8,0-23.3-11-23.3-24.1c0-13.3,10.5-23.6,23.3-23.6h113.6V88.8H89v821.9h821.8V678.8H852v113.6c0,12.9-11.1,23.9-24.1,23.9c-13.2,0-23.5-11-23.5-23.9V678.8h-51v63.4c0,12.9-10.3,23.3-23.7,23.3c-13,0-23.9-10.4-23.9-23.3v-63.4h-50.8v113.6c0,12.9-10.7,23.9-23.9,23.9c-13,0-23.3-11-23.3-23.9V678.8h-51v63.4c0,12.9-10.7,23.3-23.7,23.3c-12.8,0-23.7-10.4-23.7-23.3v-63.4h-50.8v113.6c0,12.9-10.5,23.9-23.7,23.9c-13.2,0-23.5-11-23.5-23.9V678.8h-50.4h-0.9c-22.2,0-39.5-17.1-39.5-38.7v-51.8H207.1L207.1,588.2z"/></g>
</svg>