<?xml version="1.0" encoding="utf-8"?>
<!-- Svg Vector Icons : http://www.onlinewebfonts.com/icon -->
<!DOCTYPE svg PUBLIC "-//W3C//DTD SVG 1.1//EN" "http://www.w3.org/Graphics/SVG/1.1/DTD/svg11.dtd">
<svg version="1.1" xmlns="http://www.w3.org/2000/svg" xmlns:xlink="http://www.w3.org/1999/xlink" x="0px" y="0px" viewBox="0 0 1000 1000" enable-background="new 0 0 1000 1000" xml:space="preserve">
<metadata> Svg Vector Icons : http://www.onlinewebfonts.com/icon </metadata>
<g><g transform="translate(0.000000,511.000000) scale(0.100000,-0.100000)"><path d="M157.8,4952.1l-57.8-57.8V99.8v-4792.6l49.8-47.8l47.8-49.8h4802.5h4802.5l47.8,49.8c61.7,59.8,65.7,163.3,11.9,231.1C9810.7-4445.8,390.8,4970,355,4991.9C301.2,5027.8,217.5,5009.9,157.8,4952.1z M1474.4,2886.5c-229.1-231.1-239-245-239-324.7c0-111.6,65.7-181.3,171.3-181.3c67.7,0,93.6,19.9,320.7,243l245,243l249-247l247-247L2321,2219.2c-155.4-159.4-171.3-197.2-129.5-306.8c23.9-59.8,141.4-117.5,205.2-97.6c23.9,6,109.6,75.7,189.2,153.4l143.4,143.4l249-249l249-249l-237-239c-129.5-131.5-241-259-247-284.8c-15.9-71.7,23.9-161.3,87.6-193.2c117.5-61.8,147.4-45.8,410.3,213.1l245,243l249-247l247-247l-147.4-153.4c-127.5-131.5-149.4-163.3-149.4-221.1c0-103.6,73.7-175.3,181.3-175.3c75.7,0,93.6,12,229.1,143.4l149.4,143.4l237-237c131.5-131.5,239-249,239-260.9c0-10-101.6-119.5-227.1-239c-247-237-278.9-294.8-223.1-402.4c35.9-69.7,129.5-113.5,205.2-93.6c31.9,7.9,153.4,109.6,290.8,245l233.1,231.1l243-241l243-243l-143.4-149.4c-129.5-137.4-143.4-159.4-143.4-231.1c0-111.6,67.7-179.3,179.3-179.3c71.7,0,93.6,13.9,231.1,143.4l149.4,143.4l243-243l241-243l-231.1-233.1c-245-249-276.9-302.8-233.1-406.4c27.9-71.7,135.5-127.5,203.2-105.6c23.9,6,151.4,119.5,282.9,249l239,237l249-249l247-247l-143.4-149.4c-123.5-125.5-143.4-157.4-143.4-217.1c0-97.6,15.9-129.5,81.7-163.3c107.6-57.8,151.4-39.8,314.7,119.5L7263-2422l247-247l247-249l-243-245c-258.9-262.9-274.9-292.8-213.1-410.4c33.9-65.7,65.7-81.7,163.3-81.7c65.7,0,95.6,23.9,312.7,239l243,239l625.5-627.5l627.4-627.5H4864.7H458.5V-25.7v4408.1L1086,3755l627.5-625.5L1474.4,2886.5z"/><path d="M2121.8,95.8c-21.9-6-59.8-27.9-83.7-51.8l-45.8-39.8v-1400.3v-1400.3l47.8-55.8l47.8-55.8h1394.4h1394.4l51.8,47.8c65.7,61.7,81.7,143.4,43.8,215.1C4936.4-2577.4,2269.2,89.8,2237.3,89.8c-11.9,0-33.9,4-49.8,7.9C2173.6,101.8,2143.7,99.8,2121.8,95.8z M3360.8-1527.6c539.8-539.8,982-988,982-996c0-8-448.2-15.9-996-15.9h-996v996c0,547.8,6,996,14,996C2372.8-547.6,2821-987.8,3360.8-1527.6z"/></g></g>
</svg>