<?xml version="1.0" encoding="utf-8"?>
<!-- Generator: Adobe Illustrator 19.1.1, SVG Export Plug-In . SVG Version: 6.00 Build 0)  -->
<svg version="1.1" xmlns="http://www.w3.org/2000/svg" xmlns:xlink="http://www.w3.org/1999/xlink" x="0px" y="0px"
	 viewBox="12 -96 275 300" style="enable-background:new 12 -96 275 300;" xml:space="preserve">
<style type="text/css">
	.st0{fill:#0A5A97;}
	.st1{fill:#FFFFFF;}
</style>
<g id="Layer_1">
	<circle class="st0" cx="148.4" cy="56.9" r="134.6"/>
</g>
<g id="Layer_2">
	<path class="st1" d="M82.8-8.2h34.1v34.1H82.8V-8.2z M156.7-8.2l11.4,0l0,17h5.7l0-17l11.4,0l0,22.7h5.7V-8.2l11.4,0l0,17h5.7l0-17
		h11.4v34.1l-96.6,0V-8.2H134v17h5.7v-17l11.4,0l0,22.7h5.7L156.7-8.2z M82.8,94.1l0-11.4l17,0V77l-17,0l0-11.4h22.7V60l-22.7,0
		V48.6l17,0V43l-17,0V31.6l34.1,0v96.6H82.8l0-11.4h17v-5.7l-17,0V99.8l22.7,0v-5.7H82.8z"/>
</g>
</svg>
