<?xml version="1.0" encoding="utf-8"?>
<!-- Generator: Adobe Illustrator 12.0.1, SVG Export Plug-In . SVG Version: 6.00 Build 51448)  -->
<!DOCTYPE svg PUBLIC "-//W3C//DTD SVG 1.0//EN" "http://www.w3.org/TR/2001/REC-SVG-20010904/DTD/svg10.dtd" [
	<!ENTITY ns_svg "http://www.w3.org/2000/svg">
	<!ENTITY ns_xlink "http://www.w3.org/1999/xlink">
]>
<svg  version="1.0" id="レイヤー_1" xmlns="&ns_svg;" xmlns:xlink="&ns_xlink;" width="156.405" height="43.221"
	 viewBox="0 0 156.405 43.221" overflow="visible" enable-background="new 0 0 156.405 43.221" xml:space="preserve">
<g id="XMLID_8_">
	<g>
		<path fill="#1514A0" d="M156.155,34.658c0,2.133,0,4.269,0,6.403c-4.229,1.159-8.926,1.847-14.251,1.909c-0.474,0-0.947,0-1.421,0
			c-8.101-0.051-15.716-0.524-21.756-2.6c-4.331-1.492-7.807-3.801-10.088-7.312c-1.832-2.821-2.814-6.442-2.907-11.023
			c-0.044-2.335,0.188-4.459,0.626-6.338c0.548-2.365,1.444-4.366,2.633-6.061c1.197-1.712,2.707-3.101,4.443-4.262
			c0.694-0.461,1.441-0.873,2.222-1.266c0.771-0.387,1.597-0.715,2.448-1.033c5.918-2.213,13.519-2.734,21.539-2.827
			c0.905,0,1.809,0,2.711,0c4.815,0.092,9.113,0.7,13.021,1.695c0,1.858,0,3.717,0,5.575c0.003,0.012,0,0.018-0.009,0.021
			c-1.68-0.384-3.512-0.557-5.399-0.721c-0.938-0.083-1.897-0.137-2.865-0.197c-2.851-0.173-6.02-0.217-8.891-0.039
			c-3.817,0.238-7.231,0.932-9.766,2.466c-1.274,0.771-2.341,1.716-3.208,2.907c-0.852,1.173-1.474,2.588-1.879,4.229
			c-0.202,0.81-0.343,1.688-0.44,2.621c-0.194,1.843-0.155,4.023,0.106,5.772c0.402,2.665,1.264,4.807,2.681,6.489
			c0.706,0.84,1.504,1.546,2.448,2.145c2.782,1.77,6.66,2.49,11.053,2.692c1.951,0.09,3.991,0.077,5.975,0
			c1.924-0.077,3.859-0.217,5.712-0.399C152.754,35.322,154.557,35.132,156.155,34.658z"/>
		<path fill="#1514A0" d="M103.416,35.213c0,2.061,0,4.121,0,6.18c0,0.012-0.003,0.018-0.013,0.021
			c-9.408,0.015-18.956,0.009-28.413,0.009c-0.438,0-0.867-0.029-1.295-0.047c-2.546-0.119-4.962-0.396-7.244-0.811
			c-1.513-0.277-2.945-0.635-4.229-1.141c-0.655-0.259-1.257-0.539-1.775-0.917c-0.519-0.376-0.926-0.85-1.326-1.364
			c-1.158-1.504-2.001-3.378-2.213-5.847c-0.068-0.822-0.026-1.71-0.026-2.612c0-8.949-0.009-17.896-0.012-26.855
			c0-0.012,0-0.027,0.012-0.03c15.031,0,30.241,0,45.333,0c0.128,0,0.271-0.018,0.351,0c0.03,0.009,0.042-0.009,0.057,0
			c0.021,0.012,0.013,0.077,0.013,0.119c-0.003,1.996,0.009,4.172-0.013,6.1c-0.006,0-0.012,0-0.018,0c-9.816,0-19.63,0-29.446,0
			c0,3.104,0,6.207,0,9.31c9.03,0.021,18.099,0.003,27.147,0.009c0,1.918-0.003,4.107,0,6.025c0,0.047,0.006,0.107,0,0.155
			c-0.003,0.018,0.015,0.048-0.03,0.039c-8.702,0-17.494,0-26.239,0c-0.283,0-0.575-0.027-0.84,0c-0.012,0-0.042-0.015-0.039,0.021
			c0,1.772,0,3.606,0,5.361c0,0.217-0.021,0.426-0.021,0.631c0,0.632,0.078,1.228,0.197,1.767c0.235,1.045,0.664,1.956,1.257,2.65
			c0.11,0.128,0.199,0.232,0.331,0.321c0.128,0.084,0.265,0.155,0.429,0.224c0.593,0.253,1.332,0.414,2.088,0.527
			c0.372,0.057,0.769,0.131,1.167,0.137c1.277,0.019,2.603,0,3.91,0c6.904,0,13.947,0,20.878,0
			C103.413,35.191,103.413,35.2,103.416,35.213z"/>
		<path fill="#1514A0" d="M8.015,12.908c0.003-0.003,0.003-0.006,0.003-0.006S8.015,12.905,8.015,12.908z M8.077,12.974
			c-0.006-0.003-0.021-0.018-0.048-0.042c-0.009-0.009-0.012-0.015-0.015-0.021c0,0.006-0.003,0.012-0.006,0.021
			c-0.012,0.027,0,0.086,0,0.116c0,9.423,0,18.889,0,28.336c-0.003,0.054-0.039,0.026-0.06,0.029c-0.149,0.015-0.315,0-0.476,0
			c-2.383,0-4.882,0-7.223,0c0-13.206,0-26.409,0-39.614c3.035,0,6.052,0,9.075,0c0.733,0,1.427,0.068,2.115,0.128
			c1.709,0.149,3.342,0.405,4.873,0.742c0.325,0.071,0.646,0.125,0.878,0.253c0.227,0.123,0.447,0.292,0.665,0.459
			c0.208,0.161,0.42,0.336,0.613,0.506c1.209,1.045,2.302,2.225,3.41,3.333c0.375,0.373,0.739,0.766,1.093,1.15
			c0.36,0.393,0.735,0.771,1.09,1.161c0.715,0.784,1.43,1.561,2.145,2.347c1.427,1.566,2.826,3.166,4.232,4.756
			c4.214,4.78,8.345,9.632,12.456,14.504c0.024,0.045,0.018,0.003,0.021-0.018c0.018-0.131,0-0.298,0-0.449
			c0-9.584,0-19.359,0-28.872c2.585,0,5.17,0,7.758,0c0,13.072,0,26.146,0,39.233c0,0.113,0.018,0.235,0,0.313
			c-0.018,0.068,0.015,0.065-0.039,0.068c-0.054,0-0.104,0-0.167,0c-0.732,0-1.468,0-2.213,0c-0.739,0-1.486,0.024-2.222,0
			c-1.111-0.038-2.234,0.054-3.285-0.038c-3.077-0.274-6.097-0.593-8.87-1.123c-0.307-0.057-0.628-0.122-0.896-0.206
			c-0.268-0.08-0.5-0.244-0.711-0.398c-0.417-0.304-0.819-0.652-1.209-1.013c-1.552-1.433-2.987-2.949-4.414-4.456
			c-1.445-1.519-2.838-3.085-4.241-4.637c-2.112-2.338-4.167-4.703-6.228-7.089c-1.367-1.578-2.731-3.145-4.104-4.765
			c-1.161-1.37-2.406-2.809-3.568-4.202c-0.125-0.146-0.292-0.36-0.426-0.509C8.08,12.974,8.08,12.974,8.077,12.974z M8.068,12.961
			C8.062,12.953,8.056,12.947,8.068,12.961L8.068,12.961z"/>
		<path fill="#242424" d="M8.077,12.974c0.003,0,0.003,0,0.003,0.003C8.08,12.977,8.08,12.977,8.077,12.974z"/>
	</g>
	<g>
	</g>
</g>
</svg>
