<?xml version="1.0" encoding="UTF-8" standalone="no"?>
<svg
   inkscape:version="1.1 (c68e22c387, 2021-05-23)"
   sodipodi:docname="Aorus.GBT.svg"
   viewBox="0 0 848.57258 200.21285"
   height="200.21284"
   width="848.57257"
   xml:space="preserve"
   id="svg2"
   version="1.1"
   xmlns:inkscape="http://www.inkscape.org/namespaces/inkscape"
   xmlns:sodipodi="http://sodipodi.sourceforge.net/DTD/sodipodi-0.dtd"
   xmlns="http://www.w3.org/2000/svg"
   xmlns:svg="http://www.w3.org/2000/svg"
   xmlns:rdf="http://www.w3.org/1999/02/22-rdf-syntax-ns#"
   xmlns:cc="http://creativecommons.org/ns#"
   xmlns:dc="http://purl.org/dc/elements/1.1/"><metadata
     id="metadata8"><rdf:RDF><cc:Work
         rdf:about=""><dc:format>image/svg+xml</dc:format><dc:type
           rdf:resource="http://purl.org/dc/dcmitype/StillImage" /></cc:Work></rdf:RDF></metadata><defs
     id="defs6" /><sodipodi:namedview
     inkscape:current-layer="g10"
     inkscape:window-maximized="1"
     inkscape:window-y="1609"
     inkscape:window-x="-11"
     inkscape:cy="109.70728"
     inkscape:cx="329.56963"
     inkscape:zoom="2.2332155"
     fit-margin-bottom="0"
     fit-margin-right="0"
     fit-margin-left="0"
     fit-margin-top="0"
     showgrid="false"
     id="namedview4"
     inkscape:window-height="2054"
     inkscape:window-width="3840"
     inkscape:pageshadow="2"
     inkscape:pageopacity="0"
     guidetolerance="10"
     gridtolerance="10"
     objecttolerance="10"
     borderopacity="1"
     bordercolor="#666666"
     pagecolor="#ffffff"
     inkscape:pagecheckerboard="0" /><g
     transform="matrix(1.3333333,0,0,-1.3333333,-137.35146,383.94884)"
     inkscape:label="aorus-seeklogo.com"
     inkscape:groupmode="layer"
     id="g10"><path
       id="path14"
       style="fill:#000000;fill-opacity:1;fill-rule:evenodd;stroke:none"
       d="m 465.5271,232.2692 h 51.063 c 2.2615,0 3.7417,-1.7808 2.9319,-3.8588 l -10.2479,-26.2905 c -0.9697,-2.4888 -2.2864,-2.5379 -5.1448,-2.5458 l -21.6825,-0.0632 c -4.8385,-0.0142 -5.6855,1.6475 -4.3387,4.9288 l 5.9836,14.5806 c 0.7886,1.9213 1.023,4.3141 -2.2034,4.3141 h -16.3669 c -2.3601,-0.2594 -3.568,-0.6588 -5.0491,-4.3674 l -21.5461,-53.9518 c -1.5625,-3.9124 0.7021,-5.1537 2.6311,-5.1537 H 456.41 c 3.3627,0 4.5745,-0.0192 6.6441,5.4905 l 8.0895,21.5342 c 2.3267,6.1934 8.0802,6.7283 10.5401,0.6333 l 9.559,-23.6846 c 1.1483,-2.8449 1.3666,-3.9714 4.3367,-3.9734 l 40.375,-0.0306 c 0.0156,0.1372 -0.0632,0.5097 -0.5315,0.7271 -0.5766,0.2685 -1.7838,0.5338 -2.569,1.1183 l -5.7589,4.2874 c -2.4174,1.406 -2.7476,1.5797 -4.9306,1.5797 h -5.6027 c -2.9497,0 -3.6011,1.5075 -4.7891,4.3175 l -6.5305,15.4457 c -1.4473,3.424 -0.6868,4.1655 3.295,4.1655 h 8.1848 c 8.1504,0 14.0698,4.087 17.1411,12.2485 l 9.5142,23.9777 c 1.8014,4.5405 -0.0309,11.4934 -8.8628,11.4934 h -77.6775 c 3.5572,-2.0699 6.5591,-4.4178 8.6902,-6.9225 z m 80.0376,6.9225 c -0.0459,-0.58 0.2557,-0.8669 0.8169,-1.0038 3.5691,-0.8699 14.6588,-9.0065 13.1661,-12.7916 l -20.1591,-51.1121 c -5.2855,-13.2434 4.4149,-14.4303 7.1725,-14.4227 h 53.3137 c 7.6728,0 14.3674,2.6717 18.7571,13.9068 l 23.1699,59.3022 c 1.7586,4.5012 3.1909,6.1212 -3.1099,6.1212 h -37.2977 c -0.0579,-0.5922 0.1726,-0.9715 0.5162,-1.0945 5.2602,-1.8836 14.04,-8.066 13.3588,-13.4838 l -20.992,-53.2398 c -1.1435,-2.901 -3.1487,-3.9679 -6.101,-3.9263 h -23.7036 c -3.0325,0 -2.8241,2.8301 -1.9491,5.0981 l 24.1739,62.6627 c 1.1905,3.0864 1.1582,3.9836 -3.2017,3.9836 z m -251.6253,-36.2058 31.1148,26.0461 c 3.9447,3.3021 11.4735,5.6271 8.2525,-2.2898 l -9.0099,-22.142 c -1.8686,-4.2078 -2.5234,-4.6967 -5.8263,-4.6879 l -23.8031,0.0643 c -2.4962,0.007 -2.7193,1.3425 -0.728,3.0093 z m 3.9524,-43.1244 h 30.899 c 3.3611,0 4.6715,2.6368 5.5678,4.9522 l 27.6874,70.8468 c 0.5715,1.7082 0.6084,3.5312 -4.1864,3.5312 h -34.4742 c -7.5325,0.2032 -9.4787,-1.5458 -11.4905,-3.142 l -81.4651,-68.4442 c -2.9997,-2.52 -8.0915,-6.3139 -10.5942,-7.2351 -0.3323,-0.1225 -0.5029,-0.2503 -0.5287,-0.4842 l 21.8171,-0.0315 c 3.4648,-0.005 6.3686,1.9083 10.7637,5.62 l 26.5706,22.441 c 3.8744,3.2724 6.5035,3.6497 9.5729,3.6097 h 28.4377 c 1.6081,0 4.8714,-1.5066 3.3078,-4.9198 l -6.7179,-14.6636 c -2.1021,-4.5891 -8.9722,-8.7594 -12.9523,-10.5945 -1.04,-0.4794 -2.1847,-1.135 -2.2147,-1.486 z m 76.5436,13.9114 21.3251,53.6142 c 1.4967,3.7627 3.6918,4.3367 7.74,4.3367 h 20.3173 c 4.4266,0 5.0814,-1.2529 3.9682,-4.0887 l -21.8832,-55.7354 c -1.1809,-3.0084 -2.2702,-4.4388 -6.728,-4.4388 h -22.4682 c -3.3455,0 -4.0176,1.9211 -2.2712,6.312 z m 76.7447,52.9812 c 1.684,4.3118 2.5092,13.0442 -10.5322,13.0442 h -49.729 c -12.568,0 -16.5572,-5.9888 -18.7486,-11.6258 l -21.6848,-55.7696 c -2.5086,-6.4525 -1.2878,-12.9459 9.3152,-12.9459 h 46.3816 c 16.566,0 21.2077,6.3913 25.0608,16.2559 z m 227.4499,4.9725 48.223,-0.0734 c 4.769,-0.007 7.3415,6.0007 11.7681,6.8077 0.3498,0.064 0.8438,0.5102 0.8212,0.7308 l -67.8906,0.0479 c -16.9637,0.0119 -18.1653,-3.8994 -27.597,-28.1929 -2.1257,-5.4773 -6.5407,-13.6672 -0.2064,-18.0212 5.5826,-3.8387 38.2385,0.8081 46.6971,-2.1722 0.4315,-5.5103 -4.962,-18.4017 -8.9617,-22.3855 l -4.2188,-1.1044 -46.9721,0.004 c -6.7666,6e-4 -4.9892,-4.737 -12.2153,-6.6645 -0.3328,-0.0887 -0.6253,-0.5017 -0.6268,-0.86 l 71.896,0.0439 c 8.2502,0.005 14.3955,3.9121 16.8769,10.0706 l 7.3497,18.241 c 1.6625,4.1267 -0.6304,11.4335 -9.3288,11.3972 l -37.7737,-0.1579 c -3.3933,-0.0138 -3.1912,3.3169 -2.2391,5.6895 l 9.1338,22.7537 c 0.762,1.8983 3.0376,3.8494 5.2645,3.846 z m -493.5279,-19.0372 -41.6962,-42.4695 -2.2405,-10.0086 30.5671,-22.4093 69.6855,56.8781 -8.2049,11.743 -20.8046,-4.3755 13.5332,-5.3827 -45.5471,-24.126 -6.7601,4.4037 z m 66.5093,56.7366 4.0807,10.3722 c 1.9647,4.9938 -0.9221,9.7047 -5.8958,7.6839 l -18.1536,-7.378 -11.8746,-13.29 -12.6862,3.5516 23.7427,9.8787 -8.8188,2.2788 c -1.8567,0.4793 -3.9221,0.1995 -5.7354,-0.4252 -9.0944,-3.1331 -106.1002,-42.1727 -105.0372,-43.5373 0.5658,-0.7263 7.2505,1.1749 11.4778,-2.6504 -6.3482,-2.0129 -13.464,-4.8836 -19.6974,-8.3503 13.9033,0.1717 18,-0.7101 29.253,-6.4245 -5.9128,-1.8204 -12.0048,-4.2922 -17.2333,-6.9874 6.4395,-0.3815 13.0116,-2.4344 18.9162,-5.7583 0.489,-13.9581 0.3081,-30.3902 -1.5435,-44.4827 l 113.4831,112.6622 c 3.0997,3.0773 5.1324,2.9103 5.2333,0.034 l 0.2523,-7.1977 c 0.0147,-0.3677 0.1222,-0.2702 0.2367,0.0204" /></g></svg>
