<?xml version="1.0" encoding="UTF-8" standalone="no"?>
<!-- Created with Inkscape (http://www.inkscape.org/) -->

<svg
   width="179.16"
   height="64.099998"
   id="svg3064"
   version="1.1"
   inkscape:version="1.1 (c68e22c387, 2021-05-23)"
   sodipodi:docname="AUO.svg"
   xmlns:inkscape="http://www.inkscape.org/namespaces/inkscape"
   xmlns:sodipodi="http://sodipodi.sourceforge.net/DTD/sodipodi-0.dtd"
   xmlns="http://www.w3.org/2000/svg"
   xmlns:svg="http://www.w3.org/2000/svg"
   xmlns:rdf="http://www.w3.org/1999/02/22-rdf-syntax-ns#"
   xmlns:cc="http://creativecommons.org/ns#"
   xmlns:dc="http://purl.org/dc/elements/1.1/">
  <defs
     id="defs3066">
    <inkscape:perspective
       sodipodi:type="inkscape:persp3d"
       inkscape:vp_x="0 : 526.18109 : 1"
       inkscape:vp_y="0 : 1000 : 0"
       inkscape:vp_z="744.09448 : 526.18109 : 1"
       inkscape:persp3d-origin="372.04724 : 350.78739 : 1"
       id="perspective3072" />
    <inkscape:perspective
       id="perspective3058"
       inkscape:persp3d-origin="0.5 : 0.33333333 : 1"
       inkscape:vp_z="1 : 0.5 : 1"
       inkscape:vp_y="0 : 1000 : 0"
       inkscape:vp_x="0 : 0.5 : 1"
       sodipodi:type="inkscape:persp3d" />
  </defs>
  <sodipodi:namedview
     id="base"
     pagecolor="#ffffff"
     bordercolor="#666666"
     borderopacity="1.0"
     inkscape:pageopacity="0.0"
     inkscape:pageshadow="2"
     inkscape:zoom="4.3702703"
     inkscape:cx="88.552875"
     inkscape:cy="25.627705"
     inkscape:document-units="px"
     inkscape:current-layer="g242"
     showgrid="false"
     inkscape:window-width="4608"
     inkscape:window-height="2486"
     inkscape:window-x="5749"
     inkscape:window-y="1609"
     inkscape:window-maximized="1"
     inkscape:pagecheckerboard="0" />
  <metadata
     id="metadata3069">
    <rdf:RDF>
      <cc:Work
         rdf:about="">
        <dc:format>image/svg+xml</dc:format>
        <dc:type
           rdf:resource="http://purl.org/dc/dcmitype/StillImage" />
      </cc:Work>
    </rdf:RDF>
  </metadata>
  <g
     inkscape:label="Layer 1"
     inkscape:groupmode="layer"
     id="layer1"
     transform="translate(-208.56036,-465.02647)">
    <g
       id="g242"
       transform="matrix(1.25,0,0,-1.25,355.30814,514.22237)">
      <path
         d="M 0,0 C -6.863,0 -8.325,7.795 -8.325,14.298 -8.325,20.8 -6.863,28.59 0,28.59 6.864,28.59 8.322,20.8 8.322,14.298 8.322,7.795 6.864,0 0,0 m 0,38.672 c -10.835,0 -20.455,-4.807 -23.807,-15.513 l -0.386,0 0,13.667 -16.408,0 0,-25.044 c 0,-6.147 -1.672,-8.969 -6.523,-8.969 -5.116,0 -6.511,3.021 -6.511,8.969 l 0,25.044 -16.233,0 0,-23.316 c 0,-0.882 0.031,-1.745 0.079,-2.563 l -0.339,-0.099 -10.667,25.978 -16.242,0 -19.629,-47.834 18.149,0 9.377,29.096 0.213,0 0.034,0 0.205,0 9.379,-29.096 18.151,0 -3.427,8.36 0.281,0.138 c 3.755,-3.202 9.455,-4.483 17.248,-4.483 13.603,0 20.62,3.976 22.392,14.403 l 0.328,0 C -21.598,-4.678 -11.48,-10.084 0,-10.084 c 13.478,0 25.066,7.424 25.066,24.382 0,16.955 -11.588,24.374 -25.066,24.374"
         style="fill:#000000;fill-opacity:1;fill-rule:nonzero;stroke:none"
         id="path244" />
    </g>
  </g>
</svg>
