<?xml version="1.0" encoding="UTF-8" standalone="no"?>
<!-- Generator: Adobe Illustrator 14.0.0, SVG Export Plug-In . SVG Version: 6.00 Build 43363)  -->

<svg
   version="1.1"
   id="Layer_1"
   x="0px"
   y="0px"
   width="179.85201"
   height="24.551348"
   viewBox="0 0 179.85201 24.551348"
   enable-background="new 0 0 612 792"
   xml:space="preserve"
   sodipodi:docname="Hyundai.HEI.svg"
   inkscape:version="1.1 (c68e22c387, 2021-05-23)"
   xmlns:inkscape="http://www.inkscape.org/namespaces/inkscape"
   xmlns:sodipodi="http://sodipodi.sourceforge.net/DTD/sodipodi-0.dtd"
   xmlns="http://www.w3.org/2000/svg"
   xmlns:svg="http://www.w3.org/2000/svg"><defs
   id="defs29">
	
	
	
	
	
	
	
	
	
	
	
</defs><sodipodi:namedview
   id="namedview27"
   pagecolor="#505050"
   bordercolor="#eeeeee"
   borderopacity="1"
   inkscape:pageshadow="0"
   inkscape:pageopacity="0"
   inkscape:pagecheckerboard="0"
   showgrid="false"
   fit-margin-top="0"
   fit-margin-left="0"
   fit-margin-right="0"
   fit-margin-bottom="0"
   inkscape:zoom="12.470792"
   inkscape:cx="93.498469"
   inkscape:cy="22.131713"
   inkscape:window-width="3840"
   inkscape:window-height="2054"
   inkscape:window-x="-11"
   inkscape:window-y="1609"
   inkscape:window-maximized="1"
   inkscape:current-layer="Layer_1" />
<path
   fill-rule="evenodd"
   clip-rule="evenodd"
   fill="#000000"
   d="m 26.725,0.001 v 7.635 c 0,0 0,0 0.137,0 2.59,0 4.636,2.046 4.636,4.637 0,2.727 -2.045,4.771 -4.636,4.771 -0.137,0 -0.137,0 -0.137,0 v 7.5 h 7.636 V 0 h -7.636 z"
   id="path4"
   style="fill:#000000" /><path
   fill-rule="evenodd"
   clip-rule="evenodd"
   fill="#000000"
   d="M 23.18,9.41 V 0.002 h -7.772 v 7.635 c 0.136,0 0.136,0 0.136,0 2.591,0 4.772,2.046 4.772,4.637 0,2.727 -2.182,4.771 -4.772,4.771 0,0 0,0 -0.136,0 v 7.5 h 7.772 v -9.273 c 0.818,1.092 2.182,1.773 3.545,1.773 V 7.636 C 25.361,7.637 23.998,8.319 23.18,9.41 Z"
   id="path6"
   style="fill:#000000" /><path
   fill-rule="evenodd"
   clip-rule="evenodd"
   fill="#000000"
   d="m 10.771,12.274 c 0,2.59 2.182,4.771 4.636,4.771 V 7.636 c -2.454,10e-4 -4.636,2.047 -4.636,4.638 z"
   id="path8"
   style="fill:#000000" /><polygon
   fill-rule="evenodd"
   clip-rule="evenodd"
   fill="#000000"
   points="365.146,409.066 367.873,394.204 370.6,409.066 377.554,409.066 373.054,384.522 362.827,384.522 358.191,409.066 "
   id="polygon10"
   transform="translate(-212.292,-384.521)"
   style="fill:#000000" /><polygon
   fill-rule="evenodd"
   clip-rule="evenodd"
   fill="#000000"
   points="385.326,384.522 392.144,384.522 392.144,409.066 385.326,409.066 "
   id="polygon12"
   transform="translate(-212.292,-384.521)"
   style="fill:#000000" /><path
   fill-rule="evenodd"
   clip-rule="evenodd"
   fill="#000000"
   d="m 9.544,12.274 c 0,2.727 -2.182,4.771 -4.772,4.771 C 2.181,17.045 0,15 0,12.274 0,9.683 2.182,7.637 4.772,7.637 c 2.59,0 4.772,2.046 4.772,4.637 z"
   id="path14"
   style="fill:#000000" /><polygon
   fill-rule="evenodd"
   clip-rule="evenodd"
   fill="#000000"
   points="260.016,398.977 260.016,409.066 266.97,409.066 266.97,398.977 274.06,384.522 266.97,384.522 263.424,391.749 260.016,384.522 252.925,384.522 "
   id="polygon16"
   transform="translate(-212.292,-384.521)"
   style="fill:#000000" /><path
   fill-rule="evenodd"
   clip-rule="evenodd"
   fill="#000000"
   d="M 84.54,18.409 V 0.002 H 77.45 V 18.409 H 73.905 V 0.002 h -6.954 v 18.407 c 0,0 -0.409,5.592 5.317,6.137 h 6.954 C 84.812,24 84.54,18.409 84.54,18.409 Z"
   id="path18"
   style="fill:#000000" /><polygon
   fill-rule="evenodd"
   clip-rule="evenodd"
   fill="#000000"
   points="306.513,409.066 313.467,409.066 313.467,400.066 316.876,408.793 316.876,409.066 323.83,409.066 323.83,384.522 316.876,384.522 316.876,393.794 312.239,384.522 306.513,384.522 "
   id="polygon20"
   transform="translate(-212.292,-384.521)"
   style="fill:#000000" /><path
   fill-rule="evenodd"
   clip-rule="evenodd"
   fill="#000000"
   d="m 132.536,0.001 v 0 0 c -0.409,0 -0.682,0 -0.682,0 h -10.499 v 24.544 h 10.499 c 0,0 6.682,0.408 6.954,-5.318 v 0 -13.908 c -0.272,-4.5 -4.499,-5.181 -6.272,-5.318 z m -4.226,6.136 h 3.682 v 12.271 h -3.682 z"
   id="path22"
   style="fill:#000000" />
</svg>
