<?xml version="1.0" encoding="UTF-8" standalone="no"?>
<!-- Created with Inkscape (http://www.inkscape.org/) -->

<svg
   version="1.0"
   width="800"
   height="159.842"
   viewBox="0 0 800 159.842"
   id="Layer_1"
   xml:space="preserve"
   sodipodi:docname="Philips.PCA.PHS.PHL.PHE.PSC.svg"
   inkscape:version="1.1 (c68e22c387, 2021-05-23)"
   xmlns:inkscape="http://www.inkscape.org/namespaces/inkscape"
   xmlns:sodipodi="http://sodipodi.sourceforge.net/DTD/sodipodi-0.dtd"
   xmlns="http://www.w3.org/2000/svg"
   xmlns:svg="http://www.w3.org/2000/svg"><sodipodi:namedview
   id="namedview13"
   pagecolor="#505050"
   bordercolor="#eeeeee"
   borderopacity="1"
   inkscape:pageshadow="0"
   inkscape:pageopacity="0"
   inkscape:pagecheckerboard="0"
   showgrid="false"
   inkscape:zoom="2.6392761"
   inkscape:cx="376.61843"
   inkscape:cy="71.610546"
   inkscape:window-width="3840"
   inkscape:window-height="2054"
   inkscape:window-x="-11"
   inkscape:window-y="1609"
   inkscape:window-maximized="1"
   inkscape:current-layer="Layer_1" /><defs
   id="defs22" />
<path
   id="path3"
   style="fill:#000000"
   d="M 609.19336 1.796875 C 600.46734 1.8339531 591.18855 2.2864063 558.0918 2.7851562 L 558.0918 29.435547 L 558.0918 36.654297 L 558.0918 156.10547 L 597.92773 156.11133 L 597.92773 123.31055 C 605.86164 123.3457 614.4666 123.4752 618.96094 123.07422 C 673.05994 120.29722 680.52942 75.799125 680.73242 63.703125 C 681.07742 42.695125 673.64353 28.221469 664.26953 18.730469 C 654.54453 8.8834682 641.0207 2.4781094 618.5957 1.9121094 C 614.9482 1.8181094 612.10203 1.7845156 609.19336 1.796875 z M 606.39258 36.054688 C 607.31773 36.034264 608.23656 36.039856 609.14648 36.070312 C 624.91852 36.598244 638.09425 44.841016 637.28906 63.345703 C 636.38406 83.632703 619.37831 90.395375 597.94531 88.609375 L 597.92773 88.675781 L 597.92773 36.90625 L 597.95117 36.90625 C 600.78336 36.404781 603.61712 36.115954 606.39258 36.054688 z " />

<path
   id="path7"
   style="fill:#000000"
   d="M 747.24023 0.00390625 C 721.69491 0.13738373 696.83973 16.854188 695.25195 48.90625 C 694.44495 65.28225 701.91434 83.666672 721.27734 90.638672 L 751.43164 101.57617 C 758.92164 104.77817 759.17214 107.97333 759.36914 110.48633 C 759.72714 115.11833 755.22678 118.64703 749.30078 120.95703 C 741.46678 124.01103 718.26513 124.25227 698.32812 118.19727 L 698.32812 156.09961 C 704.88212 157.16461 724.38131 161.38409 749.57031 159.24609 C 771.72331 157.36109 799.51414 144.30456 799.99414 109.47656 C 800.20314 94.460563 795.5785 77.025594 773.8125 68.433594 L 741.11523 56.787109 L 741.11719 56.736328 C 737.55719 55.319328 734.67431 52.153625 734.57031 49.265625 C 734.35431 43.567625 738.98578 38.232984 749.30078 36.958984 C 758.52178 35.812984 766.90434 35.745344 784.77734 39.902344 L 784.77734 2.3515625 C 768.82534 0.1455625 757.85684 0.33796875 749.71484 0.04296875 C 748.89013 0.01271875 748.06428 -0.0003994751 747.24023 0.00390625 z " />
<path
   id="polyline9"
   style="fill:#000000"
   d="M 142.03516 2.9277344 L 142.03516 156.13672 L 181.91992 156.13672 L 181.92578 94.628906 L 224.82227 94.628906 L 224.82227 156.13672 L 264.65234 156.13672 L 264.65234 2.9277344 L 224.81055 2.9277344 L 224.82227 59.921875 L 181.92578 59.921875 L 181.91992 2.9277344 L 142.03516 2.9277344 z " />
<path
   id="rect11"
   style="fill:#000000"
   d="M 302.17773 2.9277344 L 302.17773 156.13672 L 342.04492 156.13672 L 342.04492 2.9277344 L 302.17773 2.9277344 z " />
<path
   id="rect13"
   style="fill:#000000"
   d="M 480.31055 2.9277344 L 480.31055 156.13672 L 520.18359 156.13672 L 520.18359 2.9277344 L 480.31055 2.9277344 z " />
<path
   id="polyline15"
   style="fill:#000000"
   d="M 379.55859 2.9277344 L 379.55859 156.13672 L 460.54297 156.12305 L 460.54297 121.35156 L 419.4375 121.35156 L 419.4375 2.9277344 L 379.55859 2.9277344 z " />
<path
   id="path17"
   style="fill:#000000"
   d="M 51.105469 1.796875 C 42.378094 1.8339531 33.1005 2.2864063 0 2.7851562 L 0 32.064453 L 0 36.654297 L 0 156.10547 L 39.896484 156.11133 L 39.886719 123.30859 C 47.774304 123.34144 56.317881 123.48055 60.867188 123.07422 C 114.96619 120.29722 122.43844 75.799125 122.64844 63.703125 C 122.99344 42.695125 115.55255 28.221469 106.18555 18.730469 C 96.454538 8.883468 82.929719 2.4781094 60.511719 1.9121094 C 56.862719 1.8181094 54.014594 1.7845156 51.105469 1.796875 z M 48.298828 36.054688 C 49.22353 36.034246 50.141141 36.03986 51.050781 36.070312 C 66.820549 36.598244 80.000501 44.841016 79.195312 63.345703 C 78.309314 83.632703 61.317906 90.395375 39.878906 88.609375 L 39.876953 88.619141 L 39.861328 36.90625 C 42.692053 36.404962 45.524723 36.116013 48.298828 36.054688 z " />

</svg>
