<?xml version="1.0" encoding="UTF-8" standalone="no"?>
<svg
   width="2500"
   height="442"
   viewBox="0 0.026 1024 180.947"
   version="1.1"
   id="svg4"
   sodipodi:docname="Wacom.svg"
   inkscape:version="1.1 (c68e22c387, 2021-05-23)"
   xmlns:inkscape="http://www.inkscape.org/namespaces/inkscape"
   xmlns:sodipodi="http://sodipodi.sourceforge.net/DTD/sodipodi-0.dtd"
   xmlns="http://www.w3.org/2000/svg"
   xmlns:svg="http://www.w3.org/2000/svg">
  <defs
     id="defs8" />
  <sodipodi:namedview
     id="namedview6"
     pagecolor="#505050"
     bordercolor="#eeeeee"
     borderopacity="1"
     inkscape:pageshadow="0"
     inkscape:pageopacity="0"
     inkscape:pagecheckerboard="0"
     showgrid="false"
     inkscape:zoom="0.5972"
     inkscape:cx="1249.1628"
     inkscape:cy="221.03148"
     inkscape:window-width="4608"
     inkscape:window-height="2486"
     inkscape:window-x="5749"
     inkscape:window-y="1609"
     inkscape:window-maximized="1"
     inkscape:current-layer="svg4" />
  <path
     d="M309.097.026c-20.241 0-29.766 2.1-40.324 6.151l-1.88.684 11.448 20.333 1.367-.513c7.786-3.188 16.384-4.27 32.465-4.27h17.086c24.988 0 39.3 12.44 39.3 34.343v67.321c0 21.888-14.312 34.345-39.3 34.345h-27.851c-25.61 0-38.104-10.265-38.104-31.61 0-21.177 12.493-31.439 38.104-31.439h38.786V72.816h-39.982c-38.012 0-59.803 19.772-59.803 54.165 0 33.254 22.918 53.993 59.803 53.993h30.072c41.976 0 61.17-28.017 61.17-53.993v-73.13c0-25.973-19.194-53.824-61.17-53.824h-21.187zm169.158 0c-41.981 0-61.171 27.852-61.171 53.823v73.131c0 25.977 19.189 53.993 61.17 53.993h25.973c21.384 0 35.398-3.123 46.646-10.423l1.366-1.025-12.985-18.966-1.367.854c-8.393 5.085-19.014 7.006-36.565 7.006h-22.043c-25.343 0-39.3-12.135-39.3-34.345v-67.32c0-22.222 13.963-34.345 39.3-34.345h22.042c17.529 0 28.14 2.086 36.565 7.176l1.367.854 12.985-19.137-1.366-.854C539.624 3.154 525.63.025 504.226.025h-25.971zm149.849 0c-42.117 0-61.34 27.852-61.34 53.823v73.131c0 25.977 19.188 53.993 61.17 53.993h30.072c41.986 0 60.999-28.017 60.999-53.993V53.85c0-25.968-19.196-53.824-61.341-53.824h-29.56zm177.53.342c-36.224 0-59.632 20.562-59.632 52.285V180.12h22.896V55.56c0-22.042 12.315-32.807 37.762-32.807 24.134 0 37.419 10.99 37.419 30.756V180.12h22.896V53.51c0-19.767 13.285-30.757 37.42-30.757 25.457 0 37.932 10.766 37.932 32.806V180.12h22.726V52.653c0-31.724-23.425-52.285-59.632-52.285-24.168 0-38.761 5.975-49.894 20.333C844.41 6.343 829.773.368 805.634.368zM0 1.222v127.466c0 31.718 23.409 52.285 59.633 52.285 24.14 0 38.777-5.958 49.893-20.333 11.12 14.375 25.748 20.333 49.894 20.333 36.207 0 59.632-20.566 59.632-52.285V1.222h-22.726v124.562c0 22.03-12.485 32.636-37.932 32.636-24.13 0-37.42-10.836-37.42-30.586V1.222H98.248v126.611c0 19.744-13.285 30.586-37.42 30.586-25.446 0-37.932-10.606-37.932-32.636V1.223H0zm1006.572 0c-4.801 0-8.912 1.73-12.303 5.126-3.406 3.412-5.125 7.485-5.125 12.302 0 4.861 1.758 9.062 5.125 12.473 3.379 3.417 7.464 5.126 12.303 5.126 4.828 0 8.896-1.708 12.303-5.126 3.417-3.434 5.125-7.634 5.125-12.473 0-4.828-1.708-8.902-5.125-12.302-3.406-3.395-7.475-5.126-12.303-5.126zm0 2.392c4.155 0 7.663 1.484 10.594 4.443 2.908 2.936 4.442 6.598 4.442 10.764 0 4.183-1.534 7.641-4.442 10.594s-6.422 4.443-10.594 4.443c-4.161 0-7.686-1.49-10.594-4.443-2.898-2.953-4.442-6.41-4.442-10.594 0-4.16 1.528-7.829 4.442-10.764 2.93-2.958 6.46-4.443 10.594-4.443zm-7.006 5.468V28.22h3.247V20.7h2.733c1.805 0 3.043.28 3.76.684 1.202.711 1.708 2.052 1.708 4.271v1.538l.17.684c.023.087-.02.105 0 .171.023.065-.026.1 0 .171h3.247l-.17-.17c-.088-.17-.14-.513-.172-1.026-.038-.503 0-.919 0-1.367v-1.538c0-.973-.32-1.888-1.024-2.905-.694-1.022-1.75-1.644-3.247-1.879 1.197-.19 2.089-.434 2.734-.854 1.258-.815 1.879-2.219 1.879-3.93 0-2.427-1.102-3.964-3.075-4.785-1.104-.465-2.747-.683-5.126-.683h-6.664zm3.247 2.221h2.904c1.87 0 3.248.362 4.1.854.855.465 1.362 1.345 1.368 2.733 0 1.477-.711 2.546-2.051 3.076-.705.28-1.813.342-3.246.342h-3.075v-7.005zM628.959 22.41h27.85c24.988 0 39.3 12.44 39.3 34.344v67.321c0 21.888-14.312 34.345-39.3 34.345h-27.85c-25.354 0-39.3-12.135-39.3-34.345v-67.32c0-21.905 14.318-34.345 39.3-34.345z"
     id="path2" />
</svg>
