<?xml version="1.0" encoding="UTF-8" standalone="no"?>
<!-- Created with Inkscape (http://www.inkscape.org/) -->

<svg
   xmlns:dc="http://purl.org/dc/elements/1.1/"
   xmlns:cc="http://creativecommons.org/ns#"
   xmlns:rdf="http://www.w3.org/1999/02/22-rdf-syntax-ns#"
   xmlns:svg="http://www.w3.org/2000/svg"
   xmlns="http://www.w3.org/2000/svg"
   xmlns:sodipodi="http://sodipodi.sourceforge.net/DTD/sodipodi-0.dtd"
   xmlns:inkscape="http://www.inkscape.org/namespaces/inkscape"
   id="svg2"
   version="1.1"
   inkscape:version="0.47 r22583"
   width="542.12848"
   height="157.43527"
   xml:space="preserve"
   sodipodi:docname="logo_iiyama.eps"><metadata
     id="metadata8"><rdf:RDF><cc:Work
         rdf:about=""><dc:format>image/svg+xml</dc:format><dc:type
           rdf:resource="http://purl.org/dc/dcmitype/StillImage" /><dc:title></dc:title></cc:Work></rdf:RDF></metadata><defs
     id="defs6"><inkscape:perspective
       sodipodi:type="inkscape:persp3d"
       inkscape:vp_x="0 : 0.5 : 1"
       inkscape:vp_y="0 : 1000 : 0"
       inkscape:vp_z="1 : 0.5 : 1"
       inkscape:persp3d-origin="0.5 : 0.33333333 : 1"
       id="perspective10" /></defs><sodipodi:namedview
     pagecolor="#ffffff"
     bordercolor="#666666"
     borderopacity="1"
     objecttolerance="10"
     gridtolerance="10"
     guidetolerance="10"
     inkscape:pageopacity="0"
     inkscape:pageshadow="2"
     inkscape:window-width="923"
     inkscape:window-height="1054"
     id="namedview4"
     showgrid="false"
     inkscape:zoom="0.89691211"
     inkscape:cx="309.11225"
     inkscape:cy="21.489937"
     inkscape:window-x="398"
     inkscape:window-y="1"
     inkscape:window-maximized="0"
     inkscape:current-layer="g12" /><g
     id="g12"
     inkscape:groupmode="layer"
     inkscape:label="ink_ext_XXXXXX"
     transform="matrix(1.25,0,0,-1.25,-62.76275,863.355)"><path
       id="path18"
       style="fill:#254aa5;fill-opacity:1;fill-rule:nonzero;stroke:none"
       d="m 178.004,581.435 -9.638,-16.697 -26.966,0 12.365,19.58 -12.16,65.461 26.282,0 3.547,-36.741 0.264,0 18.399,36.741 27.07,0 -39.163,-68.344" /><path
       id="path20"
       style="fill:#254aa5;fill-opacity:1;fill-rule:nonzero;stroke:none"
       d="m 419.216,624.27 c 6.547,25.386 16.348,27.939 35.451,27.93 22.087,-0.011 29.246,-5.568 29.246,-17.729 0,-3.439 -0.574,-7.403 -1.551,-11.911 -3.058,-14.113 -8.492,-37.824 -11.408,-50.249 -0.566,-2.399 -0.8,-5.299 -0.875,-7.573 0,0 -31.017,-0.005 -37.85,0 -18.996,0.007 -28.195,6.924 -23.996,26.652 4.051,19.043 20.192,21.928 31.407,23.719 7.242,1.157 17.869,3.023 19.76,10.461 0.791,3.115 1.103,7.395 -6.593,7.4 -4.717,10e-4 -8.238,-2.293 -10.155,-8.7 l -23.436,0 z m 21.732,-42.411 c 3.247,-0.002 7.729,0.048 7.729,0.048 l 4.494,18.767 c -13.441,-2.327 -19.99,-5.635 -20.625,-12.199 -0.505,-5.202 2.443,-6.614 8.402,-6.616" /><path
       id="path22"
       style="fill:#254aa5;fill-opacity:1;fill-rule:nonzero;stroke:none"
       d="m 216.481,624.27 c 6.546,25.386 16.346,27.939 35.448,27.93 22.092,-0.011 29.248,-5.568 29.248,-17.729 0,-3.439 -0.578,-7.403 -1.555,-11.911 -3.056,-14.113 -8.491,-37.824 -11.404,-50.249 -0.563,-2.399 -0.803,-5.299 -0.876,-7.573 0,0 -31.015,-0.005 -37.851,0 -18.996,0.007 -28.194,6.924 -23.996,26.652 4.054,19.043 20.195,21.928 31.405,23.719 7.245,1.157 17.874,3.023 19.762,10.461 0.793,3.115 1.105,7.395 -6.591,7.4 -4.716,10e-4 -8.239,-2.293 -10.158,-8.7 l -23.432,0 z m 21.728,-42.411 c 3.248,-0.002 7.735,0.048 7.735,0.048 l 4.493,18.767 c -13.442,-2.327 -19.993,-5.635 -20.629,-12.199 -0.502,-5.202 2.447,-6.614 8.401,-6.616" /><path
       id="path24"
       style="fill:#254aa5;fill-opacity:1;fill-rule:nonzero;stroke:none"
       d="m 299.667,649.914 c 0,0 65.547,0 74.615,0 22.277,0 36.848,-2.225 30.866,-28.771 -0.864,-3.843 -12.705,-56.405 -12.705,-56.405 l -26.017,0 c 0,0 12.751,56.192 13.263,58.598 1.155,5.431 -2.405,8.166 -6.607,8.166 -5.124,0 -8.596,0 -8.596,0 l -15.018,-66.764 -26.018,0 c 0,0 12.796,56.684 13.293,58.926 1.178,5.315 -1.902,7.838 -6.111,7.838 -6.434,0 -9.112,0 -9.112,0 l -15.025,-66.764 -26.018,0 19.19,85.176" /><path
       id="path26"
       style="fill:#254aa5;fill-opacity:1;fill-rule:nonzero;stroke:none"
       d="m 69.3918,649.779 26.0215,0 -19.1824,-85.041 -26.0207,0 19.1816,85.041" /><path
       id="path28"
       style="fill:#254aa5;fill-opacity:1;fill-rule:nonzero;stroke:none"
       d="m 110.784,649.77 26.02,0 -19.182,-85.032 -26.0193,0 19.1813,85.032" /><path
       id="path30"
       style="fill:#254aa5;fill-opacity:1;fill-rule:nonzero;stroke:none"
       d="m 131.928,690.684 c -4.706,10e-4 -9.333,-1.77 -13.101,-4.688 l -12.67,-9.853 c -0.13,8.131 -6.2308,14.54 -15.1898,14.541 -9.668,0 -19.0012,-7.475 -21.2395,-17.015 -2.3582,-10.058 4.2227,-18.852 14.718,-18.852 4.7059,-10e-4 9.3328,1.769 13.1004,4.687 l 12.6709,9.854 c 0.13,-8.132 6.231,-14.54 15.19,-14.541 9.668,0 19.002,7.476 21.239,17.015 2.359,10.058 -4.222,18.852 -14.718,18.852 z M 97.4691,672.748 c -1.2511,-5.337 -6.6379,-9.664 -12.0285,-9.664 -5.3926,0.002 -8.748,4.328 -7.4961,9.666 1.2512,5.338 6.6387,9.664 12.0274,9.664 5.3945,0 8.75,-4.326 7.4972,-9.666 z m 40.9599,0.002 c -1.25,-5.338 -6.639,-9.664 -12.027,-9.664 -5.395,0 -8.75,4.328 -7.497,9.666 1.25,5.338 6.638,9.664 12.028,9.664 5.392,-0.001 8.749,-4.328 7.496,-9.666" /></g></svg>