<?xml version="1.0" encoding="UTF-8" standalone="no"?>
<!-- Created with Inkscape (http://www.inkscape.org/) -->
<svg
   xmlns:svg="http://www.w3.org/2000/svg"
   xmlns="http://www.w3.org/2000/svg"
   version="1.0"
   width="800"
   height="159.842"
   viewBox="0 0 800 159.842"
   id="Layer_1"
   xml:space="preserve"><defs
   id="defs22" />
<path
   d="M 558.091,36.654 L 558.091,2.786 C 602.22,2.121 604.006,1.536 618.596,1.912 C 641.021,2.478 654.545,8.884 664.27,18.731 C 673.644,28.222 681.078,42.696 680.733,63.704 C 680.53,75.8 673.059,120.298 618.96,123.075 C 612.616,123.641 598.051,123.142 588.8,123.358 L 597.946,88.61 C 619.379,90.396 636.384,83.633 637.289,63.346 C 638.28,40.571 618.092,33.34 597.952,36.906 L 558.091,36.654"
   style="fill:#0081c4"
   id="path3" />
<polyline
   fill="#0081C4"
   points="597.927,156.111 558.091,156.105 558.091,29.436 597.927,29.694 597.927,156.111 "
   id="polyline5"
   style="fill:#0081c4" />
<path
   d="M 741.115,56.787 L 773.812,68.433 C 795.578,77.025 800.203,94.46 799.994,109.476 C 799.514,144.304 771.724,157.361 749.571,159.246 C 724.382,161.384 704.883,157.165 698.329,156.1 L 698.329,118.198 C 718.266,124.253 741.466,124.012 749.3,120.958 C 755.226,118.648 759.728,115.119 759.37,110.487 C 759.173,107.974 758.921,104.778 751.431,101.576 L 721.278,90.638 C 701.915,83.666 694.444,65.282 695.251,48.906 C 696.89,15.82 723.323,-0.926 749.714,0.042 C 757.856,0.337 768.825,0.146 784.777,2.352 L 784.777,39.902 C 766.904,35.745 758.522,35.813 749.301,36.959 C 738.986,38.233 734.354,43.567 734.57,49.265 C 734.674,52.153 737.557,55.319 741.117,56.736"
   style="fill:#0081c4"
   id="path7" />
<polyline
   fill="#0081C4"
   points="181.926,59.922 224.823,59.922 224.811,2.928 264.653,2.928 264.653,156.136 224.823,156.136   224.823,94.628 181.926,94.628 181.92,156.136 142.036,156.136 142.036,2.928 181.92,2.928 181.926,59.922 "
   id="polyline9"
   style="fill:#0081c4" />
<rect
   width="39.866001"
   height="153.20799"
   x="302.17801"
   y="2.928"
   style="fill:#0081c4"
   id="rect11" />
<rect
   width="39.873001"
   height="153.20799"
   x="480.311"
   y="2.928"
   style="fill:#0081c4"
   id="rect13" />
<polyline
   fill="#0081C4"
   points="419.437,121.351 460.542,121.351 460.542,156.124 379.558,156.136 379.558,2.928 419.437,2.928   419.437,121.351 "
   id="polyline15"
   style="fill:#0081c4" />
<path
   d="M 0,36.654 L 0,2.786 C 44.134,2.121 45.915,1.536 60.511,1.912 C 82.929,2.478 96.454,8.884 106.185,18.731 C 115.552,28.222 122.993,42.696 122.648,63.704 C 122.438,75.8 114.967,120.298 60.868,123.075 C 54.531,123.641 40.42,123.142 31.17,123.358 L 39.878,88.61 C 61.317,90.396 78.31,83.633 79.196,63.346 C 80.187,40.571 59.993,33.34 39.86,36.906 L 0,36.654"
   style="fill:#0081c4"
   id="path17" />
<polyline
   fill="#0081C4"
   points="39.897,156.111 0,156.105 0,32.065 39.86,32.318 39.897,156.111 "
   id="polyline19"
   style="fill:#0081c4" />
</svg>