<?xml version="1.0" encoding="UTF-8" standalone="no"?>
<svg
   xmlns:dc="http://purl.org/dc/elements/1.1/"
   xmlns:cc="http://creativecommons.org/ns#"
   xmlns:rdf="http://www.w3.org/1999/02/22-rdf-syntax-ns#"
   xmlns:svg="http://www.w3.org/2000/svg"
   xmlns="http://www.w3.org/2000/svg"
   viewBox="0 0 258.66666 258.66666"
   height="258.66666"
   width="258.66666"
   xml:space="preserve"
   id="svg2"
   version="1.1"><metadata
     id="metadata8"><rdf:RDF><cc:Work
         rdf:about=""><dc:format>image/svg+xml</dc:format><dc:type
           rdf:resource="http://purl.org/dc/dcmitype/StillImage" /></cc:Work></rdf:RDF></metadata><defs
     id="defs6" /><g
     transform="matrix(1.3333333,0,0,-1.3333333,0,258.66667)"
     id="g10"><g
       transform="scale(0.1)"
       id="g12"><path
         id="path14"
         style="fill:#ffffff;fill-opacity:1;fill-rule:evenodd;stroke:none"
         d="M 2.59766,5.66797 H 1930.1577 V 1933.228 H 2.59766 Z" /><path
         id="path16"
         style="fill:#1c1c21;fill-opacity:1;fill-rule:evenodd;stroke:none"
         d="m 1892.54,1086.38 c 2.42,0 4.83,-1 6.54,-2.72 1.72,-1.71 2.73,-4.13 2.73,-6.56 V 858.477 c 0,-2.422 -1.01,-4.84 -2.73,-6.555 -1.71,-1.723 -4.12,-2.719 -6.54,-2.719 h -281.8 c -2.41,0 -4.84,0.996 -6.55,2.719 -1.71,1.715 -2.71,4.133 -2.71,6.555 V 1077.1 c 0,2.43 1,4.85 2.71,6.56 1.71,1.72 4.14,2.72 6.55,2.72 z m -323.1,0.31 h -285.49 c -2.42,0 -4.83,-1.01 -6.56,-2.73 -1.72,-1.71 -2.73,-4.14 -2.73,-6.57 v -30.98 c 0,-2.43 1.01,-4.86 2.73,-6.58 1.73,-1.72 4.14,-2.72 6.56,-2.72 h 167.98 L 1276.28,859.344 c -1.08,-1.168 -1.67,-2.785 -1.62,-4.352 0.07,-1.586 0.77,-3.144 1.89,-4.254 1.14,-1.093 2.74,-1.738 4.31,-1.738 h 285.5 c 2.43,0 4.85,1.008 6.57,2.73 1.72,1.715 2.71,4.133 2.71,6.567 v 30.988 c 0,2.426 -0.99,4.852 -2.71,6.567 -1.72,1.722 -4.14,2.722 -6.57,2.722 h -168 l 175.69,177.766 c 1.07,1.17 1.65,2.77 1.59,4.36 -0.06,1.59 -0.74,3.14 -1.88,4.25 -1.15,1.09 -2.72,1.74 -4.32,1.74 z m 261.86,-49.77 h -159.34 c -1.62,0 -3.23,-0.68 -4.37,-1.82 -1.15,-1.14 -1.82,-2.75 -1.82,-4.37 V 904.848 c 0,-1.618 0.67,-3.223 1.82,-4.368 1.14,-1.136 2.75,-1.816 4.37,-1.816 h 159.34 c 1.63,0 3.25,0.68 4.39,1.816 1.15,1.145 1.81,2.75 1.81,4.368 v 125.882 c 0,1.62 -0.66,3.23 -1.81,4.37 -1.14,1.14 -2.76,1.82 -4.39,1.82" /><path
         id="path18"
         style="fill:#1c1c21;fill-opacity:1;fill-rule:evenodd;stroke:none"
         d="m 1183.04,1076.95 c 0,2.44 1,4.85 2.71,6.57 1.73,1.71 4.14,2.72 6.56,2.72 h 45.76 c 2.43,0 4.84,-1.01 6.56,-2.72 1.72,-1.72 2.71,-4.13 2.71,-6.57 V 858.336 c 0,-2.434 -0.99,-4.848 -2.71,-6.566 -1.72,-1.719 -4.13,-2.708 -6.56,-2.708 h -45.76 c -2.42,0 -4.83,0.989 -6.56,2.708 -1.71,1.718 -2.71,4.132 -2.71,6.566 v 218.614" /><path
         id="path20"
         style="fill:#1c1c21;fill-opacity:1;fill-rule:evenodd;stroke:none"
         d="m 919.086,908.48 v 34.657 h 226.774 c 2.42,0 4.83,0.988 6.54,2.707 1.72,1.715 2.73,4.14 2.73,6.57 v 30.906 c 0,2.438 -1.01,4.848 -2.73,6.563 -1.71,1.715 -4.12,2.715 -6.54,2.715 H 919.086 v 30.392 l -0.07,7.51 c 0,1.62 0.664,3.23 1.808,4.36 1.145,1.15 2.746,1.82 4.367,1.82 l 7.039,0.09 h 213.63 c 2.42,0 4.83,1 6.54,2.71 1.72,1.72 2.73,4.13 2.73,6.56 v 30.91 c 0,2.44 -1.01,4.85 -2.73,6.57 -1.71,1.71 -4.12,2.72 -6.54,2.72 H 864.062 c -2.433,0 -4.847,-1.01 -6.566,-2.72 -1.699,-1.72 -2.707,-4.13 -2.707,-6.57 V 858.336 c 0,-2.434 1.008,-4.848 2.707,-6.566 1.719,-1.719 4.133,-2.708 6.566,-2.708 h 281.798 c 2.42,0 4.83,0.989 6.54,2.708 1.72,1.718 2.73,4.132 2.73,6.566 v 30.91 c 0,2.438 -1.01,4.852 -2.73,6.57 -1.71,1.715 -4.12,2.707 -6.54,2.707 H 931.695 l -6.41,0.141 c -1.625,0 -3.226,0.668 -4.375,1.797 -1.152,1.156 -1.812,2.762 -1.812,4.387 l -0.012,3.632" /><path
         id="path22"
         style="fill:#ed1639;fill-opacity:1;fill-rule:evenodd;stroke:none"
         d="M 87.0273,1005.16 30.9453,949.078 355.383,624.652 411.457,680.727 87.0273,1005.16" /><path
         id="path24"
         style="fill:#00a650;fill-opacity:1;fill-rule:evenodd;stroke:none"
         d="m 390.836,589.191 -35.473,35.477 400.532,400.522 35.48,-35.483 v -57.203 h -57.227 v -57.227 h -57.214 v -57.226 h -57.215 v -57.203 h -57.223 v -57.227 h -57.223 v -57.226 h -57.218 v -57.204 h -57.219" /><path
         id="path26"
         style="fill:#254aa5;fill-opacity:1;fill-rule:evenodd;stroke:none"
         d="m 499.637,1201.47 39.984,39.99 40.035,-40.03 -39.996,-39.99 40.067,-40.06 39.992,40 40.062,-40.08 -39.988,-39.98 40.039,-40.05 39.988,39.99 40.059,-40.04 L 411.438,712.777 103.113,1021.1 c -0.734,8.65 0.879,17.35 4.672,25.15 3.805,7.81 9.641,14.45 16.906,19.21 7.266,4.75 15.684,7.47 24.352,7.83 12.059,0.52 23.477,5.53 32.004,14.06 8.539,8.53 13.547,19.95 14.062,32.01 0.508,12.05 5.528,23.47 14.055,32 8.539,8.53 19.953,13.54 32,14.07 12.059,0.5 23.477,5.52 32.012,14.05 8.527,8.53 13.547,19.94 14.054,32 0.504,12.04 5.524,23.47 14.059,32 8.523,8.54 19.945,13.55 32.004,14.06 12.047,0.51 23.477,5.53 32.004,14.05 8.527,8.53 13.551,19.96 14.058,32.01 0.372,8.68 3.071,17.1 7.829,24.36 4.773,7.25 11.406,13.1 19.222,16.89 7.805,3.81 16.496,5.42 25.149,4.68 l 68.058,-68.05 -39.992,-40 40.016,-40.01 -40.125,-40.12 -40.012,40.02 -40.109,-40.12 40.015,-40.01 -40.121,-40.12 -40.019,40.02 -40.133,-40.15 40.008,-40.01 40.144,40.14 40.027,-40.04 -40.136,-40.13 40.066,-40.052 40.133,40.132 40.059,-40.061 -40.133,-40.149 40.043,-40.035 40.136,40.145 -40.046,40.039 40.117,40.111 40.054,-40.037 40.106,40.097 -40.043,40.06 -40.117,-40.12 -40.063,40.06 -40.113,-40.11 -40.063,40.05 40.126,40.13 40.05,-40.07 40.114,40.12 -40.063,40.05 -40.101,-40.1 -40.032,40.03 40.106,40.11 120.156,-120.15 40.125,40.12 -40.066,40.06 -40.125,-40.12 -40.063,40.05 40.121,40.13 -40.023,40.03" /></g></g></svg>