<?xml version="1.0" encoding="UTF-8" standalone="no"?>
<!-- Created with Inkscape (http://www.inkscape.org/) -->
<svg
   xmlns:dc="http://purl.org/dc/elements/1.1/"
   xmlns:cc="http://web.resource.org/cc/"
   xmlns:rdf="http://www.w3.org/1999/02/22-rdf-syntax-ns#"
   xmlns:svg="http://www.w3.org/2000/svg"
   xmlns="http://www.w3.org/2000/svg"
   xmlns:sodipodi="http://sodipodi.sourceforge.net/DTD/sodipodi-0.dtd"
   xmlns:inkscape="http://www.inkscape.org/namespaces/inkscape"
   width="1701.2324"
   height="324.4989"
   id="svg1925"
   sodipodi:version="0.32"
   inkscape:version="0.44"
   sodipodi:docbase="C:\Dokumente und Einstellungen\Andreas\Eigene Dateien\Eigene Bilder\sonstiges\Logos\Vektor\Computer, Electronics"
   sodipodi:docname="NVidia_new_Logo_2006_horiz.svg"
   version="1.0">
  <defs
     id="defs1927" />
  <sodipodi:namedview
     id="base"
     pagecolor="#ffffff"
     bordercolor="#666666"
     borderopacity="1.0"
     inkscape:pageopacity="0.0"
     inkscape:pageshadow="2"
     inkscape:zoom="0.35"
     inkscape:cx="772.62263"
     inkscape:cy="520"
     inkscape:document-units="px"
     inkscape:current-layer="layer1"
     inkscape:window-width="904"
     inkscape:window-height="574"
     inkscape:window-x="217"
     inkscape:window-y="257" />
  <metadata
     id="metadata1930">
    <rdf:RDF>
      <cc:Work
         rdf:about="">
        <dc:format>image/svg+xml</dc:format>
        <dc:type
           rdf:resource="http://purl.org/dc/dcmitype/StillImage" />
      </cc:Work>
    </rdf:RDF>
  </metadata>
  <g
     inkscape:label="Ebene 1"
     inkscape:groupmode="layer"
     id="layer1"
     transform="translate(486.0612,-508.1447)">
    <g
       id="g2100">
      <g
         transform="translate(0,-11.54035)"
         id="g2096">
        <path
           id="path14"
           class="ps01"
           d="M 1193.3294,768.12451 L 1193.3294,763.43623 L 1196.3422,763.43623 C 1198.0367,763.43623 1200.2962,763.56792 1200.2962,765.5639 C 1200.2962,767.72912 1198.9783,768.12451 1197.0954,768.12451 L 1193.3294,768.12451 z M 1193.3294,771.41983 L 1195.4007,771.41983 L 1199.9196,779.61038 L 1205.0035,779.61038 L 1199.9196,771.08085 C 1202.5559,770.89242 1204.8153,769.61228 1204.8153,766.01587 C 1204.8153,761.55324 1201.8025,760.12222 1196.5304,760.12222 L 1188.9989,760.12222 L 1188.9989,779.61038 L 1193.3294,779.61038 L 1193.3294,771.41983 z M 1215.1713,769.89468 C 1215.1713,758.44653 1206.3216,751.79982 1196.3422,751.79982 C 1186.3627,751.79982 1177.513,758.44653 1177.513,769.89468 C 1177.513,781.34266 1186.3627,788.00823 1196.3422,788.00823 C 1206.3216,788.00823 1215.1713,781.34266 1215.1713,769.89468 M 1209.8992,769.89468 C 1209.8992,778.23578 1203.6856,783.82817 1196.3422,783.82817 L 1196.3422,783.77159 C 1188.9989,783.82817 1182.9735,778.23578 1182.9735,769.89468 C 1182.9735,761.55324 1188.9989,755.97988 1196.3422,755.97988 C 1203.6856,755.97988 1209.8992,761.55324 1209.8992,769.89468"
           style="fill:black;fill-rule:nonzero;stroke:none" />
        <path
           id="path16"
           class="ps01"
           d="M 525.00972,576.14323 L 525.02856,781.60637 L 583.05984,781.60637 L 583.05984,576.14323 L 525.00972,576.14323 z M 68.5361,575.86084 L 68.5361,781.60637 L 127.07562,781.60637 L 127.07562,625.38137 L 172.43499,625.40021 C 187.46056,625.40021 198.15543,629.14715 205.40478,636.86707 C 214.57448,646.63942 218.32142,662.41816 218.32142,691.26426 L 218.32142,781.60637 L 275.03458,781.60637 L 275.03458,667.93513 C 275.03458,586.80041 223.32995,575.86084 172.73621,575.86084 L 68.5361,575.86084 z M 618.43961,576.16207 L 618.43961,781.60637 L 712.54749,781.60637 C 762.6893,781.60637 779.05185,773.26493 796.77,754.56772 C 809.27258,741.44371 817.35023,712.63532 817.35023,681.13417 C 817.35023,652.26923 810.51513,626.49227 798.57751,610.44979 C 777.07478,581.75439 746.10088,576.16207 699.87556,576.16207 L 618.43961,576.16207 z M 676.00011,620.8811 L 700.94877,620.8811 C 737.13821,620.8811 760.54287,637.14945 760.54287,679.30779 C 760.54287,721.50381 737.13821,737.75334 700.94877,737.75334 L 676.00011,737.75334 L 676.00011,620.8811 z M 441.35199,576.16207 L 392.9237,738.97723 L 346.50998,576.16207 L 283.88444,576.16207 L 350.14389,781.60637 L 433.78278,781.60637 L 500.56952,576.16207 L 441.35199,576.16207 z M 844.35112,781.60637 L 902.3824,781.60637 L 902.3824,576.16207 L 844.35112,576.16207 L 844.35112,781.60637 z M 1007.0156,576.21858 L 925.9941,781.53109 L 983.21571,781.53109 L 996.03836,745.24741 L 1091.8407,745.24741 L 1104.0796,781.53109 L 1166.2155,781.53109 L 1084.4974,576.21858 L 1007.0156,576.21858 z M 1044.6927,613.68846 L 1079.7901,709.86742 L 1008.4279,709.86742 L 1044.6927,613.68846 z "
           style="fill:black;fill-rule:nonzero;stroke:none" />
      </g>
      <path
         d="M -303.08679,604.97678 L -303.08679,575.65876 C -300.24664,575.4575 -297.37305,575.301 -294.4434,575.2115 C -214.27189,572.69566 -161.68532,644.10084 -161.68532,644.10084 C -161.68532,644.10084 -218.48737,722.99771 -279.39313,722.99771 C -288.15946,722.99771 -296.01998,721.57764 -303.08679,719.20712 L -303.08679,630.32521 C -271.87918,634.09343 -265.60631,647.88025 -246.84376,679.15498 L -205.11424,643.96671 C -205.11424,643.96671 -235.57278,604.01515 -286.91827,604.01515 C -292.50907,604.01515 -297.85375,604.40646 -303.08679,604.97678 M -303.08679,508.14474 L -303.08679,551.93165 C -300.21308,551.69684 -297.3283,551.51796 -294.4434,551.41727 C -182.95253,547.66024 -110.32853,642.83739 -110.32853,642.83739 C -110.32853,642.83739 -193.75388,744.28729 -280.66777,744.28729 C -288.62909,744.28729 -296.0871,743.54929 -303.08679,742.30821 L -303.08679,769.37865 C -297.10467,770.13891 -290.88774,770.58617 -284.41362,770.58617 C -203.53766,770.58617 -145.04717,729.28165 -88.401633,680.39606 C -79.020353,687.9212 -40.578243,706.20305 -32.661673,714.22019 C -86.523113,759.30412 -212.02443,795.64397 -283.17242,795.64397 C -290.02679,795.64397 -296.62386,795.23028 -303.08679,794.60414 L -303.08679,832.64363 L 4.3154971,832.64363 L 4.3154971,508.14474 L -303.08679,508.14474 z M -303.08679,719.20712 L -303.08679,742.30821 C -377.90232,728.97983 -398.66633,651.21228 -398.66633,651.21228 C -398.66633,651.21228 -362.74017,611.41734 -303.08679,604.97678 L -303.08679,630.32521 C -303.14261,630.32521 -303.16498,630.31402 -303.20973,630.31402 C -334.50684,626.55711 -358.97195,655.7967 -358.97195,655.7967 C -358.97195,655.7967 -345.26344,705.04017 -303.08679,719.20712 M -435.95674,647.84669 C -435.95674,647.84669 -391.62201,582.42363 -303.08679,575.65876 L -303.08679,551.93165 C -401.14872,559.79229 -486.06116,642.83739 -486.06116,642.83739 C -486.06116,642.83739 -437.96939,781.87952 -303.08679,794.60414 L -303.08679,769.37865 C -402.06561,756.92241 -435.95674,647.84669 -435.95674,647.84669"
         style="fill:#77b900;fill-opacity:1;fill-rule:nonzero;stroke:none"
         id="path2045" />
    </g>
  </g>
</svg>
