<?xml version="1.0" encoding="UTF-8" standalone="no"?>
<!-- Generator: Adobe Illustrator 12.0.0, SVG Export Plug-In . SVG Version: 6.00 Build 51448)  -->

<svg
   version="1.1"
   id="Layer_1"
   width="392"
   height="128"
   viewBox="0 0 391.99999 128"
   overflow="visible"
   enable-background="new 0 0 539.773 144.571"
   xml:space="preserve"
   sodipodi:docname="Acer.CHE.ALI.ACR.API.svg"
   inkscape:version="1.2.2 (732a01da63, 2022-12-09)"
   xmlns:inkscape="http://www.inkscape.org/namespaces/inkscape"
   xmlns:sodipodi="http://sodipodi.sourceforge.net/DTD/sodipodi-0.dtd"
   xmlns="http://www.w3.org/2000/svg"
   xmlns:svg="http://www.w3.org/2000/svg"><defs
   id="defs17" /><sodipodi:namedview
   id="namedview15"
   pagecolor="#505050"
   bordercolor="#eeeeee"
   borderopacity="1"
   inkscape:pageshadow="0"
   inkscape:pageopacity="0"
   inkscape:pagecheckerboard="0"
   showgrid="false"
   inkscape:zoom="2.7659775"
   inkscape:cx="138.28746"
   inkscape:cy="72.307168"
   inkscape:window-width="3840"
   inkscape:window-height="2071"
   inkscape:window-x="2391"
   inkscape:window-y="-9"
   inkscape:window-maximized="1"
   inkscape:current-layer="g12"
   inkscape:showpageshadow="2"
   inkscape:deskcolor="#505050" />
<g
   id="g12">
	
	
	
	
	<g
   id="g297"
   transform="matrix(0.66402427,0,0,0.66402427,16.788814,16.000684)"><path
     fill-rule="evenodd"
     clip-rule="evenodd"
     fill="#000000"
     d="m 428.544,4.731 h 44.145 l -5.218,25.661 C 480.956,9.295 496.399,3.215 515.319,1.908 c 6.524,-0.211 14.572,0.653 21.747,1.739 l -8.487,33.71 c -6.955,-1.74 -14.347,-3.044 -20.871,-3.044 -26.095,-0.432 -45.454,17.171 -52.198,42.394 l -15.223,57.855 H 394.619 C 405.927,91.286 420.936,44.1 428.544,4.731 Z"
     id="path2" /><path
     fill-rule="evenodd"
     clip-rule="evenodd"
     fill="#000000"
     d="m 303.025,62.396 c 7.611,-3.696 34.146,-3.293 51.325,-5.47 19.79,-2.391 47.399,-13.264 46.746,-29.793 C 400.012,9.518 384.362,5.525 369.792,7.484 c -34.362,5 -56.762,27.511 -66.767,54.912 z m -4.251,11.236 c -0.87,7.61 -1.837,15.696 -1.187,21.79 2.83,21.527 21.703,31.594 41.93,32.25 16.84,0.398 37.374,-9.68 48.542,-22.225 2.109,-2.373 4.535,-1.6 5.965,0.293 1.093,1.441 0.662,4.711 -0.346,5.707 -17.54,17.414 -35.569,27.24 -60.642,27.457 -28.488,0.217 -64.154,-10.646 -68.503,-40.219 -0.653,-3.48 -0.653,-7.4 -0.218,-11.531 5.654,-54.784 55.676,-84.379 104.824,-86.99 23.487,-1.304 57.413,4.787 55.456,30.23 -1.957,26.75 -42.407,36.103 -68.722,36.753 -22.183,0.654 -49.488,0.556 -57.099,6.485 z"
     id="path4" /><path
     fill-rule="evenodd"
     clip-rule="evenodd"
     fill="#000000"
     d="m 274.238,104.563 -7.386,28.266 c -12.397,2.613 -28.497,5.004 -43.286,4.57 -43.929,-0.867 -76.116,-21.1 -74.159,-62.856 2.389,-48.056 50.021,-72.633 95.909,-73.285 15.224,0 29.139,1.518 44.581,5.216 l -13.702,27.183 c -10.003,-2.827 -23.486,-5.436 -36.971,-4.131 -21.095,1.521 -40.45,12.829 -46.104,35.013 -7.393,27.836 8.698,47.418 37.189,47.418 15.004,0.001 29.578,-3.04 43.929,-7.394 z"
     id="path6" /><path
     fill-rule="evenodd"
     clip-rule="evenodd"
     fill="#000000"
     d="m 88.513,1.688 c 36.753,0 64.434,8.442 67.074,38.959 1.015,11.739 -3.259,22.208 -6.521,34.607 l -15.318,59.531 c -29.358,0 -53.281,0.65 -79.813,2.824 C 29.36,137.61 0,132.395 0,101.077 0.513,49.9 79.813,54.536 113.522,54.536 120.7,34.093 103.952,25.829 80.466,25.829 c -21.312,0 -38.864,6.089 -56.045,11.744 L 30.446,9.953 C 47.193,4.516 68.722,1.688 88.513,1.688 Z m 20.007,73.291 c -18.517,0 -70.849,-4.367 -70.849,23.924 0,14.133 14.789,16.242 27.186,16.242 32.573,0 37.653,-11.373 43.663,-40.166 z"
     id="path8" /><path
     fill-rule="evenodd"
     clip-rule="evenodd"
     fill="#000000"
     d="m 521.717,108.249 c -4.992,0 -9.343,1.957 -12.606,5.227 -3.472,3.697 -5.438,8.256 -5.438,13.037 0,4.793 1.966,9.141 5.227,12.621 3.475,3.48 8.039,5.438 12.817,5.438 4.784,0 9.357,-1.957 12.841,-5.438 3.486,-3.48 5.215,-7.828 5.215,-12.621 0,-4.992 -1.729,-9.557 -5.215,-12.82 -3.483,-3.487 -8.057,-5.444 -12.841,-5.444 z m 16.327,18.263 c 0,4.354 -1.743,8.273 -4.79,11.314 -3.044,3.047 -7.397,4.787 -11.537,4.787 -4.342,0 -8.476,-1.74 -11.52,-4.787 -3.041,-3.041 -4.775,-7.172 -4.775,-11.314 0,-4.336 1.734,-8.473 4.775,-11.742 3.044,-3.041 7.178,-4.775 11.52,-4.775 4.359,0 8.493,1.734 11.537,5.004 3.047,3.041 4.79,6.949 4.79,11.513 z m -15.881,-10.869 h -7.397 v 20.889 h 2.833 v -9.357 h 5.221 l 4.556,9.357 h 3.272 l -4.79,-9.574 c 3.047,-0.445 5.007,-2.619 5.007,-5.438 -10e-4,-4.131 -2.831,-5.877 -8.702,-5.877 z m -0.446,1.963 c 4.14,0 6.316,1.084 6.316,3.697 0,3.258 -1.957,4.131 -6.316,4.131 h -4.119 v -7.828 z"
     id="path10" /></g>
</g>
</svg>
