<?xml version="1.0" encoding="UTF-8" standalone="no"?>
<!-- Generator: Adobe Illustrator 12.0.0, SVG Export Plug-In . SVG Version: 6.00 Build 51448)  -->

<svg
   version="1.1"
   id="Layer_1"
   width="332"
   height="128"
   viewBox="0 0 332 128"
   overflow="visible"
   enable-background="new 0 0 748.344 239.197"
   xml:space="preserve"
   sodipodi:docname="AOpen_logo_20060707.svg"
   inkscape:version="1.2.2 (732a01da63, 2022-12-09)"
   xmlns:inkscape="http://www.inkscape.org/namespaces/inkscape"
   xmlns:sodipodi="http://sodipodi.sourceforge.net/DTD/sodipodi-0.dtd"
   xmlns="http://www.w3.org/2000/svg"
   xmlns:svg="http://www.w3.org/2000/svg"><defs
   id="defs21">
	
	
	
	
	
	
	
</defs><sodipodi:namedview
   id="namedview19"
   pagecolor="#ffffff"
   bordercolor="#000000"
   borderopacity="0.25"
   inkscape:showpageshadow="2"
   inkscape:pageopacity="0.0"
   inkscape:pagecheckerboard="0"
   inkscape:deskcolor="#d1d1d1"
   showgrid="false"
   inkscape:zoom="2.0111072"
   inkscape:cx="409.47593"
   inkscape:cy="105.41457"
   inkscape:window-width="3840"
   inkscape:window-height="2071"
   inkscape:window-x="2391"
   inkscape:window-y="-9"
   inkscape:window-maximized="1"
   inkscape:current-layer="Layer_1" />
<g
   id="g1282"
   transform="matrix(0.40134283,0,0,0.40134283,15.828751,16)"><path
     id="polygon10"
     d="M 0,0 V 225.61133 H 235.12109 V 0 Z m 126.39453,21.748047 h 53.00586 l 36.69336,180.753903 h -44.50977 l -6.45507,-43.49218 H 97.853516 L 73.390625,202.50195 H 21.744141 Z m 25.14258,43.148437 -37.71289,65.238286 h 46.88867 z"
     style="fill:#ed1b2d;fill-opacity:1" /><g
     id="g316"><path
       fill-rule="evenodd"
       clip-rule="evenodd"
       fill="#004677"
       d="m 294.771,112.805 c 2.924,-14.738 12.896,-55.223 40.328,-55.223 27.43,0 23.018,47.379 19.623,62.018 -5.436,23.441 -16.563,49.184 -43.832,46.207 -20.302,-2.219 -18.736,-39.805 -16.119,-53.002 z m 46.36,-85.621 c -36.816,0 -77.85,23.352 -90.203,85.621 -12.355,62.268 19.41,85.619 56.225,85.619 36.816,0 77.848,-23.352 90.203,-85.619 12.359,-62.27 -19.411,-85.621 -56.225,-85.621 z"
       id="path2"
       style="fill:#000000" /><path
       fill-rule="evenodd"
       clip-rule="evenodd"
       fill="#004677"
       d="m 450.535,171.924 c -16.188,-0.547 -10.66,-32.227 -9.512,-38.398 1.191,-6.391 6.117,-29.893 21.746,-28.875 16.965,1.107 13.93,22.086 12.23,32.273 -1.218,7.336 -4.417,35.68 -24.464,35 z M 448.156,77.469 H 415.879 L 387.34,239.197 h 33.977 l 8.832,-53.68 c 0,0 12.914,11.891 28.543,11.891 34.656,0 49.559,-40.633 53.004,-59.125 4.055,-21.748 1.121,-61.801 -27.859,-63.533 -18.645,-1.113 -38.055,19.029 -38.055,19.029 z"
       id="path4"
       style="fill:#000000" /><path
       fill-rule="evenodd"
       clip-rule="evenodd"
       fill="#004677"
       d="m 591.543,120.277 h -34.258 c 0,0 4.695,-23.781 18.43,-23.813 14.469,-0.032 15.828,23.813 15.828,23.813 z m 31.801,10.647 c 1.496,-38.846 -15.379,-55.721 -40.75,-55.721 -48.438,0 -58.313,37.357 -63.422,64.783 -5.34,28.664 8.617,55.688 46.957,55.688 27.688,0 44.047,-17.414 51.238,-38.695 h -35 c -1.27,6.813 -10.035,16.156 -19.707,15.625 -18.688,-1.016 -13.547,-20.047 -12.23,-28.539 h 69.66 z"
       id="path6"
       style="fill:#000000" /><path
       fill-rule="evenodd"
       clip-rule="evenodd"
       fill="#004677"
       d="m 676.145,95.137 c 0,0 15.633,-21.465 40.094,-20.387 23.105,1.02 23.988,27.664 20.883,44.314 l -11.027,74.266 h -35.34 l 9.176,-62.516 c 1.102,-5.922 5.641,-22.447 -6.453,-23.107 -11.91,-0.646 -19.328,7.559 -20.387,13.25 L 661.536,194.01 H 625.52 L 643.868,77.469 h 34.316 z"
       id="path8"
       style="fill:#000000" /><path
       fill-rule="evenodd"
       clip-rule="evenodd"
       fill="#004677"
       d="m 733.434,52.07 c -6.723,-0.037 -12.016,-5.457 -12.016,-12.123 0,-6.582 5.293,-12.002 12.016,-12.002 6.617,0 11.945,5.42 11.945,12.002 0,6.666 -5.328,12.086 -11.945,12.123 z m 0,2.762 c 8.25,0 14.91,-6.615 14.91,-14.885 0,-8.17 -6.66,-14.762 -14.91,-14.762 -8.285,0 -14.984,6.592 -14.984,14.762 -0.001,8.27 6.698,14.885 14.984,14.885 z m 3.504,-13.676 c 2.848,-0.189 4.402,-1.398 4.402,-4.326 0,-1.68 -0.453,-3.24 -1.895,-4.184 -1.211,-0.756 -3,-0.791 -4.371,-0.791 h -7.793 v 16.17 h 3.145 v -6.869 h 3.16 l 3.582,6.869 h 3.68 z m -6.512,-2.379 v -4.545 h 3.922 c 1.563,0 3.848,0 3.848,2.1 0,2.064 -1.258,2.482 -3.047,2.445 z"
       id="path14"
       style="fill:#000000" /></g></g>
</svg>
