<?xml version="1.0" encoding="UTF-8" standalone="no"?>
<svg
   width="128"
   height="128"
   version="1.1"
   id="svg9"
   sodipodi:docname="Apple.svg"
   inkscape:version="1.2.2 (732a01da63, 2022-12-09)"
   xmlns:inkscape="http://www.inkscape.org/namespaces/inkscape"
   xmlns:sodipodi="http://sodipodi.sourceforge.net/DTD/sodipodi-0.dtd"
   xmlns="http://www.w3.org/2000/svg"
   xmlns:svg="http://www.w3.org/2000/svg">
  <defs
     id="defs13" />
  <sodipodi:namedview
     id="namedview11"
     pagecolor="#ffffff"
     bordercolor="#000000"
     borderopacity="0.25"
     inkscape:showpageshadow="2"
     inkscape:pageopacity="0.0"
     inkscape:pagecheckerboard="0"
     inkscape:deskcolor="#d1d1d1"
     showgrid="false"
     inkscape:zoom="8.5058824"
     inkscape:cx="81.29668"
     inkscape:cy="85"
     inkscape:window-width="3840"
     inkscape:window-height="2071"
     inkscape:window-x="2391"
     inkscape:window-y="-9"
     inkscape:window-maximized="1"
     inkscape:current-layer="svg9" />
  <!-- Created with SVG-edit - http://svg-edit.googlecode.com/ -->
  <g
     id="g7"
     transform="matrix(0.59999904,0,0,0.59999904,13.516035,12.999994)"
     style="fill:#000000">
    <title
       id="title2">Layer 1</title>
    <g
       id="svg_1"
       style="fill:#000000">
      <path
         d="m 127.80597,90.003128 c 0.22484,24.213102 21.24129,32.270612 21.47412,32.373462 -0.1777,0.56826 -3.35808,11.48274 -11.07246,22.75662 -6.66875,9.74684 -13.59003,19.45798 -24.49309,19.6591 -10.71335,0.1974 -14.158289,-6.35304 -26.406679,-6.35304 -12.24469,0 -16.072174,6.1519 -26.213551,6.55044 C 50.57009,165.38797 42.556007,154.4498 35.83184,144.73866 22.091819,124.87421 11.5916,88.606376 25.69074,64.124999 32.694892,51.967448 45.211841,44.268779 58.79787,44.071361 c 10.334515,-0.197132 20.089069,6.952717 26.406689,6.952717 6.313614,0 18.167471,-8.59832 30.629001,-7.335548 5.21682,0.217129 19.86052,2.1073 29.26364,15.871029 -0.75766,0.469692 -17.47293,10.200527 -17.29123,30.443592 m -20.1345,-59.456692 c 5.58738,-6.7633 9.34801,-16.178439 8.32207,-25.546439 -8.05379,0.32369 -17.792628,5.36682 -23.56943,12.126399 -5.177124,5.985922 -9.711121,15.566772 -8.48777,24.749359 8.976891,0.69453 18.14748,-4.561718 23.73513,-11.329308"
         id="path4"
         style="fill:#000000" />
    </g>
  </g>
</svg>
