<?xml version="1.0" encoding="UTF-8" standalone="no"?>
<!-- Created with Inkscape (http://www.inkscape.org/) -->

<svg
   version="1.1"
   width="588"
   height="128"
   id="svg36565"
   sodipodi:docname="ASRock Logo.svg"
   inkscape:version="1.2.2 (732a01da63, 2022-12-09)"
   xmlns:inkscape="http://www.inkscape.org/namespaces/inkscape"
   xmlns:sodipodi="http://sodipodi.sourceforge.net/DTD/sodipodi-0.dtd"
   xmlns="http://www.w3.org/2000/svg"
   xmlns:svg="http://www.w3.org/2000/svg"
   xmlns:rdf="http://www.w3.org/1999/02/22-rdf-syntax-ns#"
   xmlns:cc="http://creativecommons.org/ns#"
   xmlns:dc="http://purl.org/dc/elements/1.1/">
  <defs
     id="defs16" />
  <sodipodi:namedview
     id="namedview14"
     pagecolor="#ffffff"
     bordercolor="#000000"
     borderopacity="0.25"
     inkscape:showpageshadow="2"
     inkscape:pageopacity="0.0"
     inkscape:pagecheckerboard="0"
     inkscape:deskcolor="#d1d1d1"
     showgrid="false"
     inkscape:zoom="3.547319"
     inkscape:cx="310.7981"
     inkscape:cy="10.712315"
     inkscape:window-width="3840"
     inkscape:window-height="2071"
     inkscape:window-x="2391"
     inkscape:window-y="-9"
     inkscape:window-maximized="1"
     inkscape:current-layer="svg36565" />
  <title
     id="title37446">ASRock Logo</title>
  <metadata
     id="metadata36570">
    <rdf:RDF>
      <cc:Work
         rdf:about="">
        <dc:format>image/svg+xml</dc:format>
        <dc:type
           rdf:resource="http://purl.org/dc/dcmitype/StillImage" />
        <dc:title>ASRock Logo</dc:title>
      </cc:Work>
    </rdf:RDF>
  </metadata>
  <g
     id="logo"
     style="fill:#000000"
     transform="matrix(1.8517876,0,0,1.8517876,16.231861,15.853522)">
    <path
       d="m 252.04646,13.1539 v 9.2249 h -6.34117 c -3.07173,0 -5.62267,0.2218 -7.68174,0.6751 -2.03497,0.4484 -3.87704,1.1766 -5.4973,2.2037 -3.08137,1.9289 -4.64376,4.3062 -4.64376,7.1417 0,2.657 1.48523,4.9524 4.45088,6.8716 1.74563,1.1236 3.68415,1.9048 5.82038,2.3677 2.12658,0.4581 4.88969,0.6896 8.28933,0.6896 h 5.60338 v 9.2296 h -8.45329 c -7.60459,0 -13.84932,-0.8776 -18.70043,-2.6666 -6.13383,-2.2617 -10.43521,-5.5359 -12.9524,-9.7987 -1.27787,-2.1507 -1.92887,-4.3593 -1.92887,-6.6064 0,-2.956 1.07053,-5.8108 3.20675,-8.5883 1.64437,-2.117 3.76613,-3.9832 6.4328,-5.5697 3.88186,-2.3098 8.51598,-3.8047 13.87343,-4.528 3.15853,-0.434 6.72695,-0.6462 10.71007,-0.6462 z"
       id="path33148"
       style="fill:#000000;fill-opacity:1;fill-rule:evenodd;stroke:none" />
    <path
       d="m 269.59779,0.0791 v 22.182 l 0.12538,0.4485 c 5.75287,0.7378 11.9542,-0.6799 14.82822,-5.859 1.49005,-2.17 1.84207,-3.6986 1.85654,-3.6986 h 12.70164 c 2.23749,6.5871 -3.4334,12.3689 -9.11876,14.645 9.14769,6.0325 10.32913,12.6052 9.94817,23.7589 h -15.07897 -0.0116 c 0.23146,-8.9355 -1.17662,-19.3466 -15.27187,-18.4931 l 0.0193,18.4931 H 253.76461 V 0.0791 h 15.83123 z"
       id="path33152"
       style="fill:#000000;fill-opacity:1;fill-rule:evenodd;stroke:none" />
    <path
       d="m 63.493721,51.9199 h 28.97651 l 2.30983,-0.067 c 9.620259,-0.2847 16.077169,-7.8456 16.154319,-16.1061 0.0822,-9.2007 -8.36167,-14.8812 -18.063909,-14.8812 h -16.40025 -0.79566 c -2.62809,0 -4.39301,-2.2327 -4.5425,-4.4654 -0.16395,-2.5654 1.91441,-5.2803 4.93792,-5.2803 H 108.22913 V 0.1591 H 75.515431 c -12.49911,0 -17.83245,6.9681 -18.07355,15.3587 -0.23648,8.1881 6.45208,16.2363 16.08198,16.2363 h 17.82762 l 1.99639,0.1396 c 2.38216,0.159 3.91561,2.0302 4.05546,4.0555 0.17823,2.575 -2.38698,4.9427 -5.41049,4.9427 l -35.54916,0.1397 0.24111,-40.9404 -21.85414,-0.01 c -6.84751,-0.1014 -10.41592,4.0603 -12.96686,9.8614 L 5.6998147e-7,51.7814 1.2441206,51.8534 17.427381,51.7087 c 5.71911,-11.8481 11.42858,-23.6962 17.13805,-35.5588 2.17962,-3.7806 3.40928,-4.34 7.36347,-3.9108 l -0.008,39.6818 h 21.57446 z"
       id="path33156"
       style="fill:#000000;fill-opacity:1;fill-rule:evenodd;stroke:none" />
    <path
       d="m 125.12511,20.053 h 11.63593 c 2.76794,0 4.42195,-0.5256 5.25136,-1.3791 0.67993,-0.6896 1.00784,-1.6444 1.00784,-2.5654 0,-1.249 -0.46775,-2.1748 -1.38397,-2.7728 -0.93068,-0.6028 -2.49307,-1.0416 -4.48945,-1.0416 l -12.02171,0.01 v 7.7493 z M 137.53259,0.0795 c 4.21941,0.13 7.53226,-0.2507 10.26161,0.5594 5.83485,1.6251 8.97891,4.2098 10.50755,7.3731 0.86317,1.7457 1.1525,3.5974 1.1525,5.5407 0,3.5588 -1.05606,6.6016 -3.4334,8.8777 -1.09463,1.0415 -2.18445,1.8517 -3.49126,2.4159 -1.31163,0.5593 -3.3466,1.2634 -5.69018,1.7118 9.50453,5.2996 11.9976,11.1779 11.9976,24.8729 h -16.49188 c -0.027,-13.9072 -5.54551,-19.3563 -17.22002,-19.2213 V 51.5564 H 112.76585 V 0.0795 Z"
       id="path33160"
       style="fill:#000000;fill-opacity:1;fill-rule:evenodd;stroke:none" />
    <path
       d="m 183.84583,24.2556 c 4.80289,0 8.72333,3.6359 8.72333,8.1012 0,4.4606 -3.92044,8.0965 -8.72333,8.0965 -4.79325,0 -8.71851,-3.6359 -8.71851,-8.0965 0,-4.4653 3.92526,-8.1012 8.71851,-8.1012"
       id="path33164"
       style="fill:#000000;fill-opacity:1;fill-rule:evenodd;stroke:none" />
    <path
       d="m 183.84583,21.5388 c 6.4135,0 11.64558,4.8607 11.64558,10.8209 0,5.9506 -5.23208,10.8162 -11.64558,10.8162 -6.40869,0 -11.63594,-4.8656 -11.63594,-10.8162 0,-5.9602 5.22725,-10.8209 11.63594,-10.8209 m 0,-8.3858 c 13.9554,0 25.34058,8.6269 25.34058,19.2067 0,10.5703 -11.38518,19.1972 -25.34058,19.1972 -13.95541,0 -25.33577,-8.6269 -25.33577,-19.1972 0,-10.5798 11.38036,-19.2067 25.33577,-19.2067"
       id="path33168"
       style="fill:#000000;fill-opacity:1;fill-rule:evenodd;stroke:none" />
    <path
       d="m 292.99986,1.6776 c 2.29536,0 4.16154,1.871 4.16154,4.1568 0,2.2905 -1.86618,4.1567 -4.16154,4.1567 -2.28572,0 -4.1519,-1.8662 -4.1519,-4.1567 0,-2.2858 1.86618,-4.1568 4.1519,-4.1568 m 0,0.8005 c 1.85654,0 3.36588,1.5094 3.36588,3.3563 0,1.8565 -1.50934,3.361 -3.36588,3.361 -1.8469,0 -3.36107,-1.5045 -3.36107,-3.361 0,-1.8469 1.51417,-3.3563 3.36107,-3.3563"
       id="path33172"
       style="fill:#000000;fill-opacity:1;fill-rule:evenodd;stroke:none" />
    <path
       d="m 292.16851,5.5108 h 0.63653 c 0.40989,0 0.67029,-0.015 0.77155,-0.053 0.10609,-0.039 0.17823,-0.092 0.24111,-0.1833 0.0529,-0.082 0.0822,-0.1878 0.0822,-0.3136 0,-0.1493 -0.0347,-0.2554 -0.11573,-0.3522 -0.0721,-0.087 -0.18324,-0.1397 -0.32328,-0.1686 -0.0721,0 -0.27467,-0.01 -0.62206,-0.01 h -0.67029 v 1.0802 z m -0.85835,2.4496 V 3.7121 h 1.80832 c 0.44847,0 0.77638,0.039 0.98855,0.1111 0.20253,0.082 0.36649,0.2168 0.49186,0.4099 0.12538,0.1975 0.18325,0.4243 0.18325,0.6751 0,0.3132 -0.0918,0.5738 -0.27969,0.786 -0.18324,0.2122 -0.46293,0.3376 -0.83906,0.3906 0.18324,0.1111 0.33755,0.2315 0.45811,0.3568 0.12036,0.1351 0.28431,0.3615 0.48704,0.6944 l 0.5208,0.8246 h -1.02713 l -0.61724,-0.9258 c -0.21681,-0.3279 -0.37613,-0.5353 -0.45329,-0.6221 -0.0822,-0.087 -0.16897,-0.1447 -0.25538,-0.1736 -0.0918,-0.027 -0.23648,-0.053 -0.43882,-0.053 h -0.16858 v 1.7746 h -0.85835 z"
       id="path33176"
       style="fill:#000000;fill-opacity:1;fill-rule:evenodd;stroke:none" />
  </g>
</svg>
