<?xml version="1.0" encoding="UTF-8" standalone="no"?>
<svg
   viewBox="0 0 128 128.00001"
   version="1.1"
   id="svg4"
   sodipodi:docname="Compaq.CPQ.svg"
   width="128"
   height="128"
   inkscape:version="1.2.2 (732a01da63, 2022-12-09)"
   xmlns:inkscape="http://www.inkscape.org/namespaces/inkscape"
   xmlns:sodipodi="http://sodipodi.sourceforge.net/DTD/sodipodi-0.dtd"
   xmlns="http://www.w3.org/2000/svg"
   xmlns:svg="http://www.w3.org/2000/svg">
  <defs
     id="defs8" />
  <sodipodi:namedview
     id="namedview6"
     pagecolor="#505050"
     bordercolor="#eeeeee"
     borderopacity="1"
     inkscape:pageshadow="0"
     inkscape:pageopacity="0"
     inkscape:pagecheckerboard="0"
     showgrid="false"
     fit-margin-top="0"
     fit-margin-left="0"
     fit-margin-right="0"
     fit-margin-bottom="0"
     inkscape:zoom="2.2745276"
     inkscape:cx="92.54669"
     inkscape:cy="157.83497"
     inkscape:window-width="3840"
     inkscape:window-height="2071"
     inkscape:window-x="2391"
     inkscape:window-y="-9"
     inkscape:window-maximized="1"
     inkscape:current-layer="svg4"
     inkscape:showpageshadow="2"
     inkscape:deskcolor="#505050" />
  <path
     d="M 102.71375,81.340858 C 99.94276,77.773668 95.616036,75.468876 90.760259,75.468876 H 33.821415 c -1.136681,0 -2.058598,-0.921917 -2.058598,-2.058598 V 38.052671 c 0,-1.131444 0.921917,-2.058599 2.058598,-2.058599 H 85.36495 c 1.131443,0 2.058598,0.921917 2.058598,2.058599 v 15.766873 c 0,13.058744 20.009782,13.058744 20.009782,0 V 38.052671 c 0,-12.100159 -9.952507,-22.05267 -22.052666,-22.05267 H 33.83713 c -12.100159,0 -22.05267,9.952511 -22.05267,22.05267 v 35.357607 c 0,12.100158 9.952511,22.05267 22.05267,22.05267 h 53.795945 c 0.45572,0 0.864297,0.209526 1.126205,0.544769 l 9.428695,12.100153 c 8.035345,10.30347 23.838875,-1.96954 15.819255,-12.262536 z"
     fill="#000000"
     id="path2"
     sodipodi:nodetypes="csssssssssssssssscccc"
     style="fill:#000000;stroke-width:0.523816" />
</svg>
