<?xml version="1.0" encoding="utf-8"?>
<!-- Generator: Adobe Illustrator 21.0.2, SVG Export Plug-In . SVG Version: 6.00 Build 0)  -->
<svg version="1.1" id="Calque_1" xmlns="http://www.w3.org/2000/svg" xmlns:xlink="http://www.w3.org/1999/xlink" x="0px" y="0px"
	 viewBox="0 0 135.5 19.8" style="enable-background:new 0 0 135.5 19.8;" xml:space="preserve">
<style type="text/css">
	.st0{fill:#E75300;}
	.st1{fill:#555759;}
</style>
<g>
	<g>
		<g>
			<path class="st0" d="M135.5,9.9c0,5.4-4.4,9.9-9.9,9.9h-9.8c-5.4,0-9.9-4.4-9.9-9.9c0-5.4,4.4-9.9,9.9-9.9h9.8
				C131,0.1,135.5,4.5,135.5,9.9 M123.7,13.6h-7.9v-6h7.9c1.7,0,3,1.3,3,3C126.7,12.3,125.3,13.6,123.7,13.6 M112.4,5.7v4.9
				c0.1,3.5,2.9,6.4,6.4,6.4h4.9c3.5,0,6.4-2.9,6.4-6.4s-2.8-6.4-6.4-6.4h-7.9V0C113.7,1.1,112.4,3.3,112.4,5.7"/>
			<path class="st1" d="M20.8,18.8L20.8,18.8c-3.4,0-6-1.9-6.4-4.9v-0.3h2.8v0.2c0.3,1.4,1.7,2.4,3.6,2.4c1,0,1.8-0.3,2.4-0.6
				c0.5-0.4,0.8-0.9,0.8-1.4s-0.1-0.7-0.5-1.1c-0.4-0.3-1.4-0.6-3-0.8c-1.7-0.2-3-0.6-4-1.2c-1-0.6-1.5-1.6-1.5-2.9
				c0-1.1,0.5-2.1,1.4-3c0.9-0.8,2.3-1.4,4.2-1.4c3.2,0,5.5,1.7,5.8,4.5v0.3h-2.8V8.4c-0.3-1.3-1.4-2-3.1-2c-0.9,0-1.6,0.2-2.1,0.5
				s-0.8,0.7-0.8,1.2c0,0.4,0.1,0.6,0.6,0.9c0.5,0.2,1.3,0.4,2.7,0.6c1.5,0.2,2.9,0.5,4,1.1s1.8,1.7,1.7,3.3c0,1.4-0.6,2.6-1.7,3.5
				C23.9,18.4,22.4,18.8,20.8,18.8"/>
			<path class="st1" d="M7.3,18.8c-2,0-3.9-0.8-5.2-2.1C0.8,15.4,0,13.5,0,11.4C0,7.3,3.2,4,7.1,3.9c1.8,0,3.6,0.8,5,2.1
				c1.3,1.4,2.2,3.4,2.2,5.9V12v0.2H2.8c0.4,2.6,2.4,4,4.5,4c1.2,0,2.1-0.3,2.8-1l0.1-0.1l2.2,1.6l-0.2,0.2
				C11,18.1,9.3,18.8,7.3,18.8L7.3,18.8z M7.1,6.5C5.4,6.5,3.6,7.7,3,9.7h8.2C10.6,7.7,8.9,6.5,7.1,6.5"/>
			<path class="st1" d="M47.7,18.8c-2,0-3.9-0.8-5.2-2.1c-1.3-1.3-2.1-3.2-2.1-5.3c0-4.1,3.2-7.4,7.1-7.5c1.8,0,3.6,0.8,5,2.1
				c1.3,1.4,2.2,3.4,2.2,5.9V12v0.2H43.2c0.4,2.6,2.4,4,4.5,4c1.2,0,2.1-0.3,2.8-1l0.1-0.1l2.2,1.6l-0.2,0.2
				C51.4,18.1,49.7,18.8,47.7,18.8L47.7,18.8z M47.5,6.5c-1.7,0-3.5,1.2-4.2,3.2h8.2C51,7.7,49.3,6.5,47.5,6.5"/>
			<path class="st1" d="M88.6,18.8c-2,0-3.9-0.8-5.2-2.1c-1.3-1.3-2.1-3.2-2.1-5.3c0-4.1,3.2-7.4,7.1-7.5c1.8,0,3.6,0.8,5,2.1
				c1.3,1.4,2.2,3.4,2.2,5.8v0.1v0.3H84.1c0.4,2.6,2.4,4,4.5,4c1.2,0,2.1-0.3,2.8-1l0.1-0.1l2.2,1.6l-0.2,0.2
				C92.3,18.1,90.6,18.8,88.6,18.8L88.6,18.8L88.6,18.8z M88.5,6.5c-1.7,0-3.5,1.2-4.1,3.2h8.2C91.9,7.7,90.3,6.5,88.5,6.5"/>
			<path class="st1" d="M33.8,18.8L33.8,18.8c-3.4,0-6-1.9-6.4-4.9v-0.3h2.8v0.2c0.3,1.4,1.7,2.4,3.6,2.4c1,0,1.8-0.3,2.4-0.6
				c0.5-0.4,0.8-0.9,0.8-1.4s-0.1-0.7-0.5-1.1c-0.4-0.3-1.4-0.6-3-0.8c-1.7-0.2-3-0.6-4-1.2c-1-0.6-1.5-1.6-1.5-2.9
				c0-1.1,0.5-2.1,1.4-3c0.9-0.8,2.3-1.4,4.2-1.4c3.2,0,5.5,1.7,5.8,4.5v0.3h-2.8V8.4c-0.3-1.3-1.4-2-3.1-2c-0.9,0-1.6,0.2-2.1,0.5
				s-0.8,0.7-0.8,1.2c0,0.4,0.1,0.6,0.6,0.9c0.5,0.2,1.3,0.4,2.7,0.6c1.5,0.2,2.9,0.5,4,1.1s1.8,1.7,1.8,3.3c0,1.4-0.6,2.6-1.7,3.5
				C37,18.4,35.5,18.8,33.8,18.8"/>
			<path class="st1" d="M70.6,17.1c-0.8-0.9-1.3-2.2-1.3-3.9V1.4H72v3.3h3.1v2.6H72v5.9c0,1.1,0.3,1.7,0.7,2.1
				c0.4,0.4,1.1,0.6,1.8,0.6c0.1,0,1.2,0,1.2,0v2.5c0,0-1,0.1-1.6,0.1l0,0C72.7,18.5,71.5,18,70.6,17.1"/>
			<path class="st1" d="M98,17.1c-0.9-0.9-1.3-2.2-1.3-3.9V1.4h2.7v11.8c0,1.1,0.3,1.7,0.7,2.1c0.4,0.4,1.1,0.6,1.8,0.6
				c0.1,0,1.2,0,1.2,0v2.5c0,0-1.1,0.1-1.6,0.1l0,0C100.1,18.5,98.9,18,98,17.1"/>
			<rect x="77.1" y="1.4" class="st1" width="2.7" height="2.5"/>
			<rect x="77.1" y="4.7" class="st1" width="2.7" height="13.7"/>
			<path class="st1" d="M66.2,5.5c-1.1-1-2.5-1.6-4.2-1.6h-6v14.5h2.7v-12c3.2,0,3.2,0,3.2,0c2,0,3.2,1.4,3.2,3.3v8.6h2.7V9.7
				C67.9,8,67.3,6.5,66.2,5.5"/>
		</g>
	</g>
</g>
</svg>
