<?xml version="1.0" encoding="UTF-8" standalone="no"?>
<!-- Generator: Adobe Illustrator 25.0.0, SVG Export Plug-In . SVG Version: 6.00 Build 0)  -->

<svg
   version="1.1"
   id="Ebene_1"
   x="0px"
   y="0px"
   viewBox="0 0 607 128"
   xml:space="preserve"
   sodipodi:docname="HANNspree.svg"
   width="607"
   height="128"
   inkscape:version="1.2.2 (732a01da63, 2022-12-09)"
   xmlns:inkscape="http://www.inkscape.org/namespaces/inkscape"
   xmlns:sodipodi="http://sodipodi.sourceforge.net/DTD/sodipodi-0.dtd"
   xmlns="http://www.w3.org/2000/svg"
   xmlns:svg="http://www.w3.org/2000/svg"><defs
   id="defs14544" /><sodipodi:namedview
   id="namedview14542"
   pagecolor="#ffffff"
   bordercolor="#000000"
   borderopacity="0.25"
   inkscape:showpageshadow="2"
   inkscape:pageopacity="0.0"
   inkscape:pagecheckerboard="0"
   inkscape:deskcolor="#d1d1d1"
   showgrid="false"
   inkscape:zoom="2.7793167"
   inkscape:cx="264.99319"
   inkscape:cy="46.054485"
   inkscape:window-width="3840"
   inkscape:window-height="2071"
   inkscape:window-x="2391"
   inkscape:window-y="-9"
   inkscape:window-maximized="1"
   inkscape:current-layer="Ebene_1" />
<style
   type="text/css"
   id="style14535">
	.st0{fill-rule:evenodd;clip-rule:evenodd;}
</style>
<g
   id="g14539"
   transform="matrix(1.0666667,0,0,1.0666667,15.019991,14.506665)">
	<path
   class="st0"
   d="m 40.2,2.9 c 0,0 0,22.9 0,23 -0.1,0 -22.1,0 -22.2,0 0,-0.1 0,-23 0,-23 H 0.7 V 65.6 H 18 c 0,0 0,-24.6 0,-24.7 0.1,0 22.1,0 22.2,0 0,0.1 0,24.7 0,24.7 H 57.6 V 2.9 Z m 66.2,0 H 83.1 L 63.9,65.6 H 82 c 0,0 3.8,-14.9 3.8,-14.9 0.1,0 17.2,0 17.3,0 0,0.1 4.4,14.9 4.4,14.9 h 19.1 z m -5.8,35 c -0.1,0 -12.2,0 -12.3,0 0,-0.1 3.8,-14.9 4.3,-17 0.5,-2 0.9,-4.2 1.4,-6 0,0 0.1,0 0.1,0 0.5,1.6 1,3.5 1.5,5.4 0.6,2.3 4.7,16.8 5,17.6 z m 74.2,-35 v 15.8 c 0,9.2 0.2,17.1 1.2,25.7 -0.1,0 -0.1,0 -0.2,0 -3.2,-8.4 -7,-16.7 -10.5,-23 L 155.1,2.9 h -21.2 v 62.7 h 16 c 0,0 -0.2,-36.2 -0.6,-44.3 0.1,0 0.2,0 0.3,0 2.8,6.8 6.7,14.7 11.4,23.6 l 11,20.7 h 18.7 V 2.9 Z m 84.8,0 h -15.9 v 15.8 c 0,9.2 0.2,17.1 1.2,25.7 -0.1,0 -0.1,0 -0.2,0 -3.2,-8.4 -7.1,-16.7 -10.5,-23 L 224,2.9 h -21.2 v 62.7 h 16 c 0,0 -0.2,-36.2 -0.6,-44.3 0.1,0 0.2,0 0.3,0 2.8,6.8 6.7,14.7 11.4,23.6 L 241,65.7 h 18.7 z m 34.7,27.3 c -9.4,-3.1 -13.9,-5.7 -13.9,-11.8 0,-2.8 1.1,-5.3 3.1,-7 2.2,-1.9 5.3,-3 9,-3 6.8,0 11.7,2.5 14.1,4 h 0.1 l 2.7,-6.9 v 0 c -4.1,-2.6 -9.9,-4.1 -15.9,-4.1 -6.7,0 -12.3,1.9 -16.2,5.5 -3.6,3.3 -5.6,7.7 -5.6,12.6 0,7.8 6,13.8 17.5,17.4 5.1,1.6 8.3,3.1 10.4,5 2.3,2 3.4,4.4 3.4,7.6 0,3 -1.2,5.6 -3.4,7.5 -2.5,2.1 -6.3,3.2 -11,3.2 -6.2,0 -12.4,-2.4 -16.2,-4.8 h -0.1 l -2.6,7.3 v 0 c 5.2,3 11.8,4.6 18.4,4.6 7.3,0 13.3,-1.9 17.6,-5.4 4,-3.3 6.2,-7.9 6.2,-13.2 -0.2,-9.1 -5.3,-14.5 -17.6,-18.5 z m 77.6,-19.8 c -2.3,-2.8 -5.1,-5 -8.2,-6.5 -3.2,-1.5 -6.7,-2.3 -10.5,-2.3 -9.7,0 -17.3,4.3 -21.9,12.4 0,0 -0.1,0 -0.2,0 0,-0.1 -0.5,-11 -0.5,-11 h -8 v 0.1 c 0.4,6.9 0.5,13.1 0.5,20.1 v 68.2 h 8.7 c 0,0 0,-34.6 0,-34.7 0.1,0 0.1,0 0.2,0 1.9,3.2 4.6,5.9 8,7.7 3.4,1.8 7.3,2.8 11.5,2.8 7.5,0 14.3,-3 19.3,-8.4 5.5,-6 8.4,-14.8 8.4,-25.3 0,-4.7 -0.6,-9 -1.9,-13 -1.2,-4 -3,-7.3 -5.4,-10.1 z m -1.5,23.3 c 0,7.7 -1.8,14.2 -5.2,18.9 -3.5,4.8 -8.6,7.4 -14.8,7.4 -4.2,0 -8.1,-1.3 -11.3,-3.8 -3.3,-2.6 -5.7,-6.3 -6.8,-10.6 -0.3,-1.5 -0.5,-3.1 -0.5,-4.8 v -12 c 0,-1.6 0.4,-3.4 0.8,-5 1.1,-4.4 3.5,-8.3 6.9,-11 3.3,-2.7 7.3,-4.1 11.3,-4.1 6,0 11,2.6 14.6,7.5 3.2,4.5 5,10.7 5,17.5 z M 416.9,1.4 c -4.3,0 -8.3,1.4 -11.6,4.1 -3.3,2.6 -5.8,6.3 -7.4,10.8 -0.1,0 -0.2,0 -0.3,0 C 397.6,16.2 397.3,3 397.3,3 H 389 v 0 c 0.4,6 0.5,12.3 0.5,20.4 l -0.1,42.2 h 9.1 V 32.1 c 0,-1.9 0.2,-3.9 0.6,-5.7 1,-4.9 3,-9.1 5.9,-12 3,-3 6.8,-4.6 10.9,-4.6 1.6,0 2.8,0.1 4.2,0.3 h 0.1 v -8.3 0 c -1,-0.3 -2.1,-0.4 -3.3,-0.4 z m 47.8,3.1 c -3.5,-2 -7.8,-3.1 -12.6,-3.1 -4.2,0 -8.2,0.8 -11.8,2.5 -3.5,1.6 -6.5,4 -9.1,7 -2.6,3 -4.5,6.6 -5.9,10.7 -1.4,4.2 -2.1,8.8 -2.1,13.7 0,9.2 2.8,17.1 8,22.7 5.4,5.8 13,8.8 22,8.8 10.6,0 17.3,-2.5 20.3,-4 v 0 l -1.8,-6.5 h -0.1 c -3.9,1.7 -8.7,3.4 -17.4,3.4 -6.5,0 -11.9,-2 -15.8,-5.8 -4.4,-4.3 -6.7,-10.7 -6.8,-19 0.1,0 45.1,0.1 45.1,0.1 v 0 c 0.2,-1.2 0.3,-2.5 0.3,-4.7 0,-3.2 -0.5,-11.3 -4.9,-18.3 -1.8,-3.2 -4.4,-5.7 -7.4,-7.5 z m -13.5,3.7 c 4.9,0 8.9,1.5 11.8,4.5 1.9,2 3.4,4.5 4.3,7.6 0.9,2.9 1.1,5.7 1.1,7.6 0,0.1 0,0.3 0,0.4 -0.1,0 -36.2,0 -36.3,0 0.6,-5 2.5,-9.9 5.2,-13.4 3.5,-4.5 8.2,-6.7 13.9,-6.7 z m 76.7,-3.7 c -3.5,-2 -7.8,-3.1 -12.6,-3.1 -4.2,0 -8.2,0.8 -11.8,2.5 -3.5,1.6 -6.6,4 -9.1,7 -2.5,3 -4.5,6.6 -5.9,10.7 -1.4,4.2 -2.1,8.8 -2.1,13.7 0,9.2 2.8,17.1 8,22.7 5.4,5.8 13,8.8 22,8.8 10.6,0 17.3,-2.5 20.3,-4 v 0 l -1.8,-6.5 h -0.1 c -3.9,1.7 -8.7,3.4 -17.4,3.4 -6.5,0 -11.9,-2 -15.8,-5.8 -4.4,-4.3 -6.7,-10.7 -6.8,-19 0.1,0 45.1,0.1 45.1,0.1 v 0 c 0.2,-1.2 0.3,-2.5 0.3,-4.7 0,-3.2 -0.5,-11.3 -4.9,-18.3 -1.8,-3.2 -4.3,-5.7 -7.4,-7.5 z m -13.4,3.7 c 4.9,0 8.9,1.5 11.8,4.5 1.9,2 3.4,4.5 4.3,7.6 0.9,2.9 1.1,5.7 1.1,7.6 0,0.1 0,0.3 0,0.4 -0.1,0 -36.2,0 -36.3,0 0.6,-5 2.5,-9.9 5.2,-13.4 3.4,-4.5 8.1,-6.7 13.9,-6.7 z"
   id="path14537" />
</g>
</svg>
