<?xml version="1.0" encoding="UTF-8" standalone="no"?>
<!-- Created with Inkscape (http://www.inkscape.org/) -->

<svg
   version="1.0"
   width="632"
   height="128"
   id="svg2508"
   sodipodi:docname="Hitachi.HIT.HCP.HCE.HEC.HIC.HTC.MXL.HEL.svg"
   inkscape:version="1.2.2 (732a01da63, 2022-12-09)"
   xmlns:inkscape="http://www.inkscape.org/namespaces/inkscape"
   xmlns:sodipodi="http://sodipodi.sourceforge.net/DTD/sodipodi-0.dtd"
   xmlns="http://www.w3.org/2000/svg"
   xmlns:svg="http://www.w3.org/2000/svg">
  <sodipodi:namedview
     id="namedview13"
     pagecolor="#505050"
     bordercolor="#eeeeee"
     borderopacity="1"
     inkscape:pageshadow="0"
     inkscape:pageopacity="0"
     inkscape:pagecheckerboard="0"
     showgrid="false"
     inkscape:zoom="3.7325006"
     inkscape:cx="322.70591"
     inkscape:cy="-35.365032"
     inkscape:window-width="3840"
     inkscape:window-height="2071"
     inkscape:window-x="2391"
     inkscape:window-y="-9"
     inkscape:window-maximized="1"
     inkscape:current-layer="g7548"
     inkscape:showpageshadow="2"
     inkscape:deskcolor="#505050" />
  <defs
     id="defs2510" />
  <g
     transform="translate(-383.30556,-449.20726)"
     id="layer1">
    <g
       transform="matrix(1.7328422,0,0,-1.7328422,-45.565953,1168.4684)"
       id="g7548">
      <g
         id="g302"
         style="fill:#000000"
         transform="matrix(3.1402882,0,0,3.1402882,-528.57525,-896.50086)">
        <path
           d="m 338.49498,414.27337 c 0,0 0,-6.74566 0,-6.69782 h 9.02157 c 0,-0.0239 -0.008,6.69882 0,6.69782 -0.008,10e-4 4.42199,0 4.46814,0 0,0 0.015,-16.7326 0,-16.74954 -0.006,-10e-4 -4.46312,-10e-4 -4.46814,0 0,0 0,7.34966 0,7.37059 0,-0.0209 -9.02157,0 -9.02157,0 0.007,-0.0279 0,-7.37558 0,-7.37059 h -4.46513 c 0,0 0.0241,16.74954 0,16.74954 z"
           id="path3621"
           style="fill:#000000;fill-opacity:1;fill-rule:nonzero;stroke:#000000;stroke-width:0.0600027;stroke-linecap:butt;stroke-linejoin:miter;stroke-miterlimit:4;stroke-dasharray:none;stroke-opacity:1" />
        <path
           d="m 296.10234,414.27337 c 10e-4,-0.0488 0,-2.84956 0,-2.84956 h -6.82914 v -13.89998 h -4.46714 v 13.89998 h -6.82713 c 0,0 0.008,2.84557 0,2.84956 0.008,-0.004 18.12341,0 18.12341,0 z"
           id="path3623"
           style="fill:#000000;fill-opacity:1;fill-rule:nonzero;stroke:#000000;stroke-width:0.0600027;stroke-linecap:butt;stroke-linejoin:miter;stroke-miterlimit:4;stroke-dasharray:none;stroke-opacity:1" />
        <path
           d="m 313.46517,397.52383 c 0.014,-10e-4 -5.00596,0 -4.97385,0 0.007,0 -1.46095,3.60108 -1.46095,3.60108 H 298.659 c 0,0 -1.43988,-3.60607 -1.46095,-3.60108 0.004,-0.005 -4.97285,0 -4.97285,0 l 7.8797,16.74954 c 0,-0.01 5.47756,0 5.47756,0 z m -10.62199,13.89998 -3.10753,-7.61778 h 6.22007 l -3.11254,7.61778"
           id="path3625"
           style="fill:#000000;fill-opacity:1;fill-rule:nonzero;stroke:#000000;stroke-width:0.0600027;stroke-linecap:butt;stroke-linejoin:miter;stroke-miterlimit:4;stroke-dasharray:none;stroke-opacity:1" />
        <path
           d="m 355.52168,414.27337 h 4.47014 v -16.74954 h -4.47014 z"
           id="path3627"
           style="fill:#000000;fill-opacity:1;fill-rule:nonzero;stroke:#000000;stroke-width:0.0600027;stroke-linecap:butt;stroke-linejoin:miter;stroke-miterlimit:4;stroke-dasharray:none;stroke-opacity:1" />
        <path
           d="m 254.88567,414.27337 c 0,0 -0.005,-6.74566 0,-6.69782 h 9.01656 c 0,-0.0239 -0.005,6.69882 0,6.69782 -0.005,10e-4 4.42198,0 4.46814,0 0,0 0.0151,-16.7326 0,-16.74954 -0.004,-10e-4 -4.46413,-10e-4 -4.46814,0 0,0 0,7.34966 0,7.37059 0,-0.0209 -9.01656,0 -9.01656,0 0.003,-0.0279 -0.005,-7.37558 0,-7.37059 h -4.46814 c -0.001,0 0.0241,16.74954 0,16.74954 z"
           id="path3629"
           style="fill:#000000;fill-opacity:1;fill-rule:nonzero;stroke:#000000;stroke-width:0.0600027;stroke-linecap:butt;stroke-linejoin:miter;stroke-miterlimit:4;stroke-dasharray:none;stroke-opacity:1" />
        <path
           d="m 271.91237,414.27337 h 4.46513 v -16.74954 h -4.46513 z"
           id="path3631"
           style="fill:#000000;fill-opacity:1;fill-rule:nonzero;stroke:#000000;stroke-width:0.0600027;stroke-linecap:butt;stroke-linejoin:miter;stroke-miterlimit:4;stroke-dasharray:none;stroke-opacity:1" />
        <path
           d="m 313.30563,402.16646 c -0.39233,1.12328 -0.60003,2.31134 -0.60003,3.56619 0,1.75818 0.31306,3.46353 1.16093,4.87685 0.87396,1.46017 2.2145,2.58644 3.83299,3.18944 1.54523,0.57211 3.20787,0.89205 4.95178,0.89205 2.00579,0 3.90523,-0.43755 5.6361,-1.18109 1.61045,-0.68673 2.82657,-2.12995 3.18679,-3.87019 0.0732,-0.34685 0.12744,-0.70167 0.15854,-1.06148 h -4.68688 c -0.0161,0.44652 -0.0883,0.88806 -0.24282,1.28873 -0.3542,0.92594 -1.13084,1.64854 -2.0951,1.93759 -0.6201,0.18837 -1.27733,0.29004 -1.95663,0.29004 -0.77663,0 -1.52015,-0.13556 -2.2115,-0.37875 -1.14488,-0.40067 -2.0369,-1.32063 -2.43926,-2.45786 -0.39032,-1.10036 -0.61007,-2.29142 -0.61007,-3.52533 0,-1.02261 0.16356,-2.00636 0.42544,-2.94326 0.33815,-1.21896 1.26128,-2.19872 2.44027,-2.64424 0.74553,-0.27808 1.55025,-0.44154 2.39512,-0.44154 0.71944,0 1.41278,0.10864 2.06399,0.31894 0.87396,0.27509 1.58437,0.91398 1.95362,1.73925 0.24483,0.54718 0.36725,1.15517 0.36725,1.79505 h 4.70594 c -0.0281,-0.5432 -0.10335,-1.08241 -0.22576,-1.58774 -0.40237,-1.65652 -1.57032,-3.04691 -3.12258,-3.69477 -1.768,-0.73855 -3.70456,-1.16514 -5.74246,-1.16514 -1.58036,0 -3.10452,0.24818 -4.53236,0.6937 -2.17738,0.68374 -4.06377,2.23859 -4.81331,4.36356 z"
           id="path3633"
           style="fill:#000000;fill-opacity:1;fill-rule:nonzero;stroke:#000000;stroke-width:0.0600027;stroke-linecap:butt;stroke-linejoin:miter;stroke-miterlimit:4;stroke-dasharray:none;stroke-opacity:1" />
      </g>
    </g>
  </g>
</svg>
