<?xml version="1.0" encoding="UTF-8" standalone="no"?>
<svg
   version="1.1"
   width="272"
   height="128"
   id="svg4"
   sodipodi:docname="IBM.CDT.svg"
   inkscape:version="1.2.2 (732a01da63, 2022-12-09)"
   xmlns:inkscape="http://www.inkscape.org/namespaces/inkscape"
   xmlns:sodipodi="http://sodipodi.sourceforge.net/DTD/sodipodi-0.dtd"
   xmlns="http://www.w3.org/2000/svg"
   xmlns:svg="http://www.w3.org/2000/svg">
  <defs
     id="defs8" />
  <sodipodi:namedview
     id="namedview6"
     pagecolor="#505050"
     bordercolor="#eeeeee"
     borderopacity="1"
     inkscape:pageshadow="0"
     inkscape:pageopacity="0"
     inkscape:pagecheckerboard="0"
     showgrid="false"
     inkscape:zoom="1.493"
     inkscape:cx="488.61353"
     inkscape:cy="200.26792"
     inkscape:window-width="3840"
     inkscape:window-height="2071"
     inkscape:window-x="2391"
     inkscape:window-y="-9"
     inkscape:window-maximized="1"
     inkscape:current-layer="svg4"
     inkscape:showpageshadow="2"
     inkscape:deskcolor="#505050" />
  <path
     d="m 16,16 v 6.56808 H 62.715626 V 16 Z m 53.334377,0 v 6.56808 H 135.90625 C 135.90625,22.56808 129.1063,16 120.1,16 Z m 79.631253,0 v 6.56808 h 40.275 L 186.85,16 Z m 69.15,0 -2.39063,6.56808 h 39.90937 V 16 Z M 16,28.77333 v 6.568078 H 62.715626 V 28.77333 Z m 53.334377,0.0093 v 6.558774 h 74.296873 c 0,3e-6 -0.86775,-5.055075 -2.38125,-6.558774 z m 79.631253,0 v 6.558774 h 44.69062 l -2.2125,-6.558774 z m 64.36874,0 -2.2125,6.558774 h 44.5125 v -6.55877 z M 29.424999,41.546661 v 6.57738 h 20.23125 v -6.57738 z m 53.334378,0 v 6.57738 h 20.231243 v -6.57738 z m 39.909373,0 v 6.57738 H 142.9 c 0,0 1.28437,-3.473525 1.28437,-6.57738 z m 39.72188,0 v 6.57738 h 35.86875 l -2.39063,-6.57738 z m 46.5375,0 -2.4,6.57738 H 242.575 v -6.57738 z M 29.424999,54.329296 v 6.568075 h 20.23125 v -6.568075 z m 53.334378,0 v 6.568075 h 51.675003 c 0,-2e-6 4.32269,-3.370147 5.69999,-6.568075 z m 79.631253,0 v 6.568075 h 20.23124 v -3.656167 l 1.28438,3.656167 h 37.05938 l 1.37812,-3.656167 v 3.656167 H 242.575 v -6.568075 h -37.97813 l -2.01562,5.563327 -2.025,-5.563327 z M 29.424999,67.102626 v 6.568076 h 20.23125 v -6.568076 z m 53.334378,0 v 6.568076 h 57.374993 c -1.37759,-3.187508 -5.69999,-6.568076 -5.69999,-6.568076 z m 79.631253,0 v 6.568076 h 20.23124 v -6.568076 z m 23.90624,0 2.44688,6.568076 h 27.7875 l 2.325,-6.568076 z m 36.04688,0 v 6.568076 H 242.575 V 67.102626 Z M 29.424999,79.875957 v 6.568075 h 20.23125 v -6.568075 z m 53.334378,0 v 6.568075 h 20.231243 v -6.568075 z m 39.909373,0 v 6.568075 h 21.51562 C 144.18438,83.344353 142.9,79.875957 142.9,79.875957 Z m 39.72188,0 v 6.568075 h 20.23124 v -6.568075 z m 28.49999,0 2.37188,6.568075 h 18.62812 l 2.39063,-6.568075 z m 31.45313,0 v 6.568075 H 242.575 V 79.875957 Z M 16.365623,92.649287 v 6.57738 h 46.715626 v -6.57738 z m 52.968754,0 v 6.57738 H 141.25 c 1.5135,-1.506079 2.38125,-6.57738 2.38125,-6.57738 z m 79.996873,0 v 6.57738 h 33.29062 v -6.57738 z m 46.1625,0 2.4375,6.57738 h 9.47812 l 2.2875,-6.57738 z m 26.85,0 v 6.57738 H 256 v -6.57738 z M 16.365623,105.43192 V 112 h 46.715626 v -6.56808 z m 52.968754,0 v 6.55878 H 120.1 c 9.0063,-1e-5 15.80625,-6.55878 15.80625,-6.55878 z m 79.996873,0 V 112 h 33.29062 v -6.56808 z m 50.78438,0 2.34375,6.54947 0.40312,0.009 2.38125,-6.55878 z m 22.22812,0 V 112 H 256 v -6.56808 z"
     fill="#000000"
     id="path2"
     style="fill:#000000;stroke-width:0.24" />
</svg>
