<?xml version="1.0" encoding="UTF-8" standalone="no"?>
<!-- Generator: Adobe Illustrator 26.5.0, SVG Export Plug-In . SVG Version: 6.00 Build 0)  -->

<svg
   version="1.1"
   id="LOGOS"
   x="0px"
   y="0px"
   viewBox="0 0 366 128"
   xml:space="preserve"
   sodipodi:docname="inovu.svg"
   inkscape:version="1.2.2 (732a01da63, 2022-12-09)"
   width="366"
   height="128"
   xmlns:inkscape="http://www.inkscape.org/namespaces/inkscape"
   xmlns:sodipodi="http://sodipodi.sourceforge.net/DTD/sodipodi-0.dtd"
   xmlns="http://www.w3.org/2000/svg"
   xmlns:svg="http://www.w3.org/2000/svg"><defs
   id="defs6272" /><sodipodi:namedview
   id="namedview6270"
   pagecolor="#ffffff"
   bordercolor="#000000"
   borderopacity="0.25"
   inkscape:showpageshadow="2"
   inkscape:pageopacity="0.0"
   inkscape:pagecheckerboard="0"
   inkscape:deskcolor="#d1d1d1"
   showgrid="false"
   inkscape:zoom="3.4975"
   inkscape:cx="208.86347"
   inkscape:cy="151.82273"
   inkscape:window-width="3840"
   inkscape:window-height="2071"
   inkscape:window-x="2391"
   inkscape:window-y="-9"
   inkscape:window-maximized="1"
   inkscape:current-layer="LOGOS" />
<style
   type="text/css"
   id="style6175">
	.st0{fill:#24B6CC;}
	.st1{fill:#585856;}
	.st2{fill:#FFFFFF;}
</style>


<g
   id="g6205"
   transform="matrix(0.33391081,0,0,0.33391081,-84.128648,-203.11227)">
	<path
   class="st1"
   d="m 1256.6,794.7 v 16.2 c 0,5.7 -0.1,11.5 -0.1,17.2 0,0.7 -0.1,1.4 -0.1,2 -1.2,7.3 -7,13.1 -14.2,14.5 -0.7,0.1 -1.4,0.2 -2.1,0.2 -6.5,0.2 -12.9,0 -19.4,0.1 -0.3,0 -0.6,0 -0.9,0 -0.5,0 -0.9,0 -1.4,0.1 -0.3,0 -0.7,-0.1 -1,-0.1 -4.6,0 -8.4,3.5 -8.9,8 0,0.3 0,0.5 0,0.8 0,0.3 0,0.5 0,0.8 v 46 c 0,2.3 -0.2,4.6 -0.5,6.9 v 0 c -1.6,9.1 -5.6,17.2 -12.7,24 -8.9,8.6 -19.8,12.4 -32.2,12.3 -19,-0.1 -38.1,0 -57.1,0 v 0 c -9.4,0 -18.7,0 -28.1,0 -9.4,0 -18.7,0 -28.1,-0.1 -3.4,0 -7,0.1 -10.3,-0.6 -12.1,-2.4 -22,-9 -28.3,-18.1 -7.8,11.4 -20.9,18.8 -35.8,18.8 h -632 c -24,0 -43.4,-19.4 -43.4,-43.4 V 782.5 c 0,-24 19.4,-43.4 43.4,-43.4 h 631.9 c 14.8,0 27.9,7.5 35.8,18.8 2.5,-3.7 5.3,-6.9 8.5,-9.5 7.4,-5.9 16.9,-9.5 27.2,-9.5 h 69.4 c 0.3,0 0.5,0 0.8,0 0.3,0 0.5,0 0.8,0 4.5,-0.4 8,-4.1 8.1,-8.7 v 0 -0.3 0 -0.3 c 0,-0.4 0.1,-0.8 0.1,-1.3 0,-3.5 0.1,-6.9 0,-10.4 0,-1.3 0.1,-2.5 0.3,-3.7 1,-4.6 3.8,-8.5 7.6,-11 v 0 c 3,-1.9 6.5,-2.9 10,-2.9 15.2,0.1 30.3,0 45.4,0 2.1,0 4,0.3 5.8,0.8 7.4,2.2 12.2,8.7 12.2,17.1 0,11.1 0,22.2 0,33.3 0,0.5 0,1 0.1,1.5 -0.1,0.5 -0.1,1 -0.1,1.5 0,4.6 3.4,8.3 7.8,8.8 0.3,0 0.5,0 0.8,0.1 h 0.5 c 0.3,0 0.5,0 0.8,-0.1 h 0.5 c 0.5,0 0.9,0.1 1.4,0.1 6.9,0.1 13.8,-0.1 20.8,0 1,0 1.9,0.1 2.9,0.3 7.2,1.5 12.7,7.4 13.8,14.7 0.1,0.5 0.1,1 0.1,1.5 -0.2,5.1 -0.1,9.9 -0.1,14.8 z"
   id="path6181"
   style="fill:#000000" />
	<path
   class="st2"
   d="m 364.2,777.8 v 0 c 8.2,0 14.9,6.7 14.9,14.9 v 106.7 c 0,8.2 -6.7,14.9 -14.9,14.9 v 0 c -8.2,0 -14.9,-6.7 -14.9,-14.9 V 792.7 c 0,-8.3 6.7,-14.9 14.9,-14.9 z"
   id="path6183" />
	<path
   class="st2"
   d="M 448.6,906.3 V 784.9 c 0,-3.9 3.2,-7.1 7.1,-7.1 v 0 c 1.9,0 3.7,0.7 5,2.1 l 91.7,78.5 v -72.7 c 0,-4.4 3.5,-7.9 7.9,-7.9 h 14.1 c 4.4,0 7.9,3.5 7.9,7.9 v 121.5 c 0,3.9 -3.2,7.1 -7.1,7.1 h -1 c -1.9,0 -3.7,-0.7 -5,-2.1 l -90.7,-77.5 v 71.7 c 0,4.4 -3.5,7.9 -7.9,7.9 h -14.1 c -4.3,-0.1 -7.9,-3.6 -7.9,-8 z"
   id="path6185" />
	<path
   class="st2"
   d="m 874.4,787.2 38.8,87 39.6,-87.1 c 2.2,-5.6 7.7,-9.3 13.7,-9.3 h 0.1 c 10.4,0 17.6,10.5 13.7,20.2 l -46.1,102.3 c -3.3,8.4 -11.5,13.9 -20.5,13.9 v 0 c -9,0 -17.2,-5.5 -20.5,-13.9 L 847,798.1 c -3.9,-9.7 3.3,-20.2 13.7,-20.2 v 0 c 6,-0.1 11.5,3.6 13.7,9.3 z"
   id="path6187" />
	<g
   id="g6197">
		<path
   class="st1"
   d="m 1270.4,713 v 29.2 c 0,5.5 -4.5,10 -10,10 h -29.2 c -5.5,0 -10,-4.5 -10,-10 V 713 c 0,-5.5 4.5,-10 10,-10 h 29.2 c 5.6,0 10,4.5 10,10 z"
   id="path6189"
   style="fill:#000000" />
		<path
   class="st1"
   d="M 1300,768.3 V 786 c 0,3.2 -2.6,5.8 -5.8,5.8 h -17.7 c -3.2,0 -5.8,-2.6 -5.8,-5.8 v -17.7 c 0,-3.2 2.6,-5.8 5.8,-5.8 h 17.7 c 3.2,0.1 5.8,2.7 5.8,5.8 z"
   id="path6191"
   style="fill:#000000" />
		<path
   class="st1"
   d="m 1296.7,681.7 v 13.9 c 0,2.5 -2,4.5 -4.5,4.5 h -13.9 c -2.5,0 -4.5,-2 -4.5,-4.5 v -13.9 c 0,-2.5 2,-4.5 4.5,-4.5 h 13.9 c 2.5,0.1 4.5,2.1 4.5,4.5 z"
   id="path6193"
   style="fill:#000000" />
		<path
   class="st1"
   d="m 1232,662.9 v 18.5 c 0,3.7 -3,6.7 -6.7,6.7 h -18.5 c -3.7,0 -6.7,-3 -6.7,-6.7 v -18.5 c 0,-3.7 3,-6.7 6.7,-6.7 h 18.5 c 3.7,0 6.7,3 6.7,6.7 z"
   id="path6195"
   style="fill:#000000" />
	</g>
	<path
   class="st0"
   d="m 1059,776.9 c 8,0 14.5,6.5 14.5,14.5 v 62.9 c 0,10.9 3.2,19 9.7,24.1 6.4,5.1 14.5,7.7 24.1,7.7 9.6,0 17.7,-2.6 24.1,-7.7 6.4,-5.1 9.7,-13.2 9.7,-24.1 v -62.9 c 0,-8 6.5,-14.5 14.5,-14.5 v 0 c 8,0 14.5,6.5 14.5,14.5 V 862 c 0,14.8 -6,27.4 -17.9,37.7 -11.9,10.3 -26.9,15.4 -44.9,15.4 -18,0 -33,-5.1 -44.9,-15.4 -11.9,-10.3 -17.9,-22.8 -17.9,-37.7 v -70.6 c 0,-8 6.5,-14.5 14.5,-14.5 z"
   id="path6199" />
	<g
   id="g6203">
		<path
   class="st2"
   d="M 668.7,899.3 C 654.4,885 647.3,867.2 647.3,846 c 0,-21.3 7.1,-39.1 21.4,-53.4 14.3,-14.3 32.1,-21.4 53.4,-21.4 21.3,0 39.1,7.1 53.4,21.4 14.3,14.3 21.4,32.1 21.4,53.4 0,21.3 -7.1,39.1 -21.4,53.4 -14.3,14.3 -32.1,21.4 -53.4,21.4 -21.3,0 -39.1,-7.2 -53.4,-21.5 z m 53.4,-6.4 c 13.2,0 24,-4.5 32.3,-13.5 8.3,-9 12.5,-20.1 12.5,-33.4 0,-13.3 -4.2,-24.4 -12.5,-33.4 -8.3,-9 -19.1,-13.5 -32.5,-13.5 -13.2,0 -24,4.5 -32.3,13.5 -8.3,9 -12.5,20.1 -12.5,33.4 0,13.3 4.2,24.4 12.5,33.4 8.3,9 19.2,13.5 32.5,13.5 z"
   id="path6201" />
	</g>
</g>



</svg>
