<?xml version="1.0" encoding="UTF-8" standalone="no"?>
<!-- Created with Inkscape (http://www.inkscape.org/) -->

<svg
   width="404"
   height="128"
   viewBox="0 0 378.75 120"
   id="svg2"
   version="1.1"
   inkscape:version="1.2.2 (732a01da63, 2022-12-09)"
   sodipodi:docname="Iolair.NTS.svg"
   xmlns:inkscape="http://www.inkscape.org/namespaces/inkscape"
   xmlns:sodipodi="http://sodipodi.sourceforge.net/DTD/sodipodi-0.dtd"
   xmlns="http://www.w3.org/2000/svg"
   xmlns:svg="http://www.w3.org/2000/svg"
   xmlns:rdf="http://www.w3.org/1999/02/22-rdf-syntax-ns#"
   xmlns:cc="http://creativecommons.org/ns#"
   xmlns:dc="http://purl.org/dc/elements/1.1/">
  <defs
     id="defs4" />
  <sodipodi:namedview
     id="base"
     pagecolor="#ffffff"
     bordercolor="#666666"
     borderopacity="1.0"
     inkscape:pageopacity="0.0"
     inkscape:pageshadow="2"
     inkscape:zoom="3.3828656"
     inkscape:cx="245.79753"
     inkscape:cy="28.969522"
     inkscape:document-units="px"
     inkscape:current-layer="layer1"
     showgrid="false"
     showguides="false"
     inkscape:guide-bbox="true"
     fit-margin-top="0"
     fit-margin-left="0"
     fit-margin-right="0"
     fit-margin-bottom="0"
     inkscape:window-width="3840"
     inkscape:window-height="2071"
     inkscape:window-x="2391"
     inkscape:window-y="-9"
     inkscape:window-maximized="1"
     inkscape:pagecheckerboard="0"
     inkscape:showpageshadow="2"
     inkscape:deskcolor="#d1d1d1">
    <sodipodi:guide
       position="-30.078533,95.85292"
       orientation="0,1"
       id="guide3347"
       inkscape:locked="false" />
    <sodipodi:guide
       position="106.50254,21.65069"
       orientation="0,1"
       id="guide3349"
       inkscape:locked="false" />
    <sodipodi:guide
       position="0.49930845,74.65228"
       orientation="1,0"
       id="guide3351"
       inkscape:locked="false" />
    <sodipodi:guide
       position="15.992089,48.559185"
       orientation="1,0"
       id="guide3353"
       inkscape:locked="false" />
    <sodipodi:guide
       position="40.046669,41.2205"
       orientation="1,0"
       id="guide3355"
       inkscape:locked="false" />
    <sodipodi:guide
       position="54.72403,107.67636"
       orientation="1,0"
       id="guide3357"
       inkscape:locked="false" />
    <sodipodi:guide
       position="62.87813,67.3136"
       orientation="1,0"
       id="guide3359"
       inkscape:locked="false" />
    <sodipodi:guide
       position="128.92629,55.897875"
       orientation="1,0"
       id="guide3361"
       inkscape:locked="false" />
    <sodipodi:guide
       position="140.34202,57.528695"
       orientation="1,0"
       id="guide3363"
       inkscape:locked="false" />
    <sodipodi:guide
       position="160.72725,119.4998"
       orientation="0,1"
       id="guide3365"
       inkscape:locked="false" />
    <sodipodi:guide
       position="282.63095,104.82243"
       orientation="0,1"
       id="guide3367"
       inkscape:locked="false" />
    <sodipodi:guide
       position="167.25053,64.867375"
       orientation="1,0"
       id="guide3369"
       inkscape:locked="false" />
    <sodipodi:guide
       position="257.76095,73.02146"
       orientation="1,0"
       id="guide3371"
       inkscape:locked="false" />
    <sodipodi:guide
       position="281.40783,69.75983"
       orientation="1,0"
       id="guide3373"
       inkscape:locked="false" />
    <sodipodi:guide
       position="295.6775,56.30557"
       orientation="1,0"
       id="guide3375"
       inkscape:locked="false" />
    <sodipodi:guide
       position="318.50896,44.48214"
       orientation="1,0"
       id="guide3377"
       inkscape:locked="false" />
    <sodipodi:guide
       position="348.6791,59.97491"
       orientation="1,0"
       id="guide3379"
       inkscape:locked="false" />
    <sodipodi:guide
       position="327.07076,64.86737"
       orientation="1,0"
       id="guide3381"
       inkscape:locked="false" />
    <sodipodi:guide
       position="176.22003,33.88183"
       orientation="1,0"
       id="guide3383"
       inkscape:locked="false" />
    <sodipodi:guide
       position="242.67589,6.9733202"
       orientation="1,0"
       id="guide3385"
       inkscape:locked="false" />
    <sodipodi:guide
       position="-14.178053,36.32805"
       orientation="0,1"
       id="guide3387"
       inkscape:locked="false" />
    <sodipodi:guide
       position="-34.563293,79.95244"
       orientation="0,1"
       id="guide3389"
       inkscape:locked="false" />
    <sodipodi:guide
       position="90.194341,0.45004019"
       orientation="1,0"
       id="guide3391"
       inkscape:locked="false" />
    <sodipodi:guide
       position="99.163841,-3.6269998"
       orientation="1,0"
       id="guide3393"
       inkscape:locked="false" />
    <sodipodi:guide
       position="272.71868,115.80297"
       orientation="0,1"
       id="guide3395"
       inkscape:locked="false" />
    <sodipodi:guide
       position="269.77587,100.68766"
       orientation="0,1"
       id="guide3397"
       inkscape:locked="false" />
    <sodipodi:guide
       position="291.57938,84.63601"
       orientation="1,0"
       id="guide3399"
       inkscape:locked="false" />
    <sodipodi:guide
       position="338.12917,65.37402"
       orientation="0,1"
       id="guide3401"
       inkscape:locked="false" />
    <sodipodi:guide
       position="323.95021,92.52807"
       orientation="0,1"
       id="guide3403"
       inkscape:locked="false" />
    <sodipodi:guide
       position="323.54892,75.54007"
       orientation="0,1"
       id="guide3405"
       inkscape:locked="false" />
  </sodipodi:namedview>
  <metadata
     id="metadata7">
    <rdf:RDF>
      <cc:Work
         rdf:about="">
        <dc:format>image/svg+xml</dc:format>
        <dc:type
           rdf:resource="http://purl.org/dc/dcmitype/StillImage" />
      </cc:Work>
    </rdf:RDF>
  </metadata>
  <g
     inkscape:label="Calque 1"
     inkscape:groupmode="layer"
     id="layer1"
     transform="translate(-202.94531,-434.18945)">
    <g
       id="g4236"
       transform="matrix(1.000664,0,0,0.90459386,14.534772,56.424339)">
      <path
         id="rect3407"
         d="m 203.44531,434.68945 v 14.67774 h 15.49219 v 68.49414 h -15.49219 v 14.67773 h 54.22461 v -14.67773 h -14.67773 v -68.49414 h 14.67773 V 434.68945 H 242.99219 218.9375 Z"
         style="fill:#000000;stroke:#000000;stroke-opacity:1"
         inkscape:connector-curvature="0" />
      <path
         id="rect3413"
         d="m 286.55859,453.50195 c -11.4873,0 -20.73437,9.24707 -20.73437,20.73438 v 37.5664 c 0,11.48731 9.24707,20.73633 20.73437,20.73633 h 24.57813 c 11.4873,0 20.73437,-9.24902 20.73437,-20.73633 v -37.5664 c 0,-11.48731 -9.24707,-20.73438 -20.73437,-20.73438 z m 12.28907,17.70703 c 2.48455,0 4.48437,1.99983 4.48437,4.48438 v 34.6543 c 0,2.48455 -1.99982,4.48437 -4.48437,4.48437 -2.48456,0 -4.48438,-1.99982 -4.48438,-4.48437 v -34.6543 c 0,-2.48455 1.99982,-4.48438 4.48438,-4.48438 z"
         style="fill:#000000;stroke:#000000;stroke-opacity:1"
         inkscape:connector-curvature="0" />
      <rect
         y="434.68964"
         x="343.28732"
         height="97.849121"
         width="26.90851"
         id="rect4215"
         style="fill:#000000;stroke:#000000;stroke-opacity:1" />
      <rect
         ry="0"
         y="438.38647"
         x="460.70627"
         height="15.11531"
         width="23.64687"
         id="rect4219"
         style="fill:#000000;stroke:#000000;stroke-opacity:1" />
      <rect
         ry="0"
         y="458.33652"
         x="460.70627"
         height="74.20224"
         width="23.64687"
         id="rect4221"
         style="fill:#000000;stroke:#000000;stroke-opacity:1" />
      <path
         id="path4227"
         d="m 419.8457,457.25195 c -8.33202,-0.014 -18.70464,0.6471 -23.69336,2.58203 -7.98195,3.0959 -9.8589,5.27739 -12.08789,10.90625 -2.22899,5.62886 0.34375,13.125 0.34375,13.125 l 21.1836,-2.41796 c 0,0 4.45159,-6.4043 9.55664,-6.4043 5.10506,0 1.38086,4.75781 1.38086,4.75781 0,0 -38.51563,9.85601 -38.51563,28.4707 0,18.61468 12.3849,23.30353 17.2168,24.72852 4.83191,1.42499 16.70366,-6.28324 21.29883,-5.04102 4.59517,1.24222 4.49023,4.58008 4.49023,4.58008 h 24.60156 v -58.30273 c -2.55471,-12.57563 -9.44902,-15.38667 -14.58593,-16.35938 -1.92635,-0.36476 -6.19024,-0.61659 -11.18946,-0.625 z m -7.57617,48.48633 a 4.0294456,4.7777715 0 0 1 4.0293,4.7793 4.0294456,4.7777715 0 0 1 -4.0293,4.77734 4.0294456,4.7777715 0 0 1 -4.0293,-4.77734 4.0294456,4.7777715 0 0 1 4.0293,-4.7793 z"
         style="fill:#000000;fill-rule:evenodd;stroke:#000000;stroke-width:1px;stroke-linecap:butt;stroke-linejoin:miter;stroke-opacity:1"
         inkscape:connector-curvature="0" />
      <path
         sodipodi:nodetypes="cccsccccczccccc"
         inkscape:connector-curvature="0"
         id="path4231"
         d="m 498.6228,532.53877 h 22.83146 l -0.0582,-50.65858 c 0,0 0.0587,-3.03542 4.5283,-3.14349 4.0725,-0.0985 4.20269,2.93108 4.0335,2.93976 l 0.0582,7.64563 21.60834,-0.50665 v -30.4789 h -21.60834 c 0,0 -1.31421,3.0808 -3.12055,3.32485 -1.80634,0.24405 -5.44125,-3.32485 -5.44125,-3.32485 h -26.92958 v 11.21691 l 4.09812,0.21402 z"
         style="fill:#000000;fill-rule:evenodd;stroke:#000000;stroke-width:1px;stroke-linecap:butt;stroke-linejoin:miter;stroke-opacity:1" />
    </g>
  </g>
</svg>
