<?xml version="1.0" encoding="UTF-8"?>
<svg xmlns="http://www.w3.org/2000/svg" xmlns:xlink="http://www.w3.org/1999/xlink" width="249pt" height="99pt" viewBox="0 0 249 99" version="1.1">
<g id="surface13">
<path style=" stroke:none;fill-rule:nonzero;fill:rgb(99.607843%,0.392157%,0%);fill-opacity:1;" d="M 112.03125 97.964844 L 138.898438 97.964844 L 169.914062 1.007812 L 145.558594 1.007812 L 125.46875 64.109375 L 105.371094 1.007812 L 81.042969 1.007812 Z M 112.03125 97.964844 "/>
<path style=" stroke:none;fill-rule:nonzero;fill:rgb(99.607843%,0.392157%,0%);fill-opacity:1;" d="M 248.660156 76.714844 L 248.660156 60.359375 L 225.6875 60.359375 L 225.6875 76.714844 L 197.230469 76.714844 L 197.230469 22.296875 L 225.6875 22.296875 L 225.6875 38.625 L 248.660156 38.625 L 248.660156 18.074219 L 248.640625 18.074219 C 248.640625 15.941406 248.492188 13.882812 248.191406 11.847656 C 247.375 6.046875 242.65625 1.539062 236.882812 0.691406 C 235.003906 0.429688 233.125 0.308594 231.1875 0.308594 L 191.71875 0.308594 C 189.78125 0.308594 187.886719 0.429688 186.03125 0.691406 C 180.25 1.539062 175.527344 6.046875 174.699219 11.847656 C 174.414062 13.882812 174.253906 15.941406 174.253906 18.074219 L 174.253906 80.929688 C 174.253906 83.046875 174.414062 85.109375 174.699219 87.140625 C 175.527344 92.960938 180.25 97.421875 186.03125 98.289062 C 187.886719 98.550781 189.78125 98.671875 191.71875 98.671875 L 231.1875 98.671875 C 233.125 98.671875 235.003906 98.550781 236.882812 98.289062 C 242.65625 97.421875 247.375 92.960938 248.191406 87.140625 C 248.492188 85.109375 248.640625 83.046875 248.640625 80.929688 L 248.660156 80.917969 Z M 248.660156 76.714844 "/>
<path style=" stroke:none;fill-rule:nonzero;fill:rgb(99.607843%,0.392157%,0%);fill-opacity:1;" d="M 0.214844 76.714844 L 0.214844 58.25 L 23.171875 58.25 L 23.171875 76.714844 L 51.65625 76.714844 L 51.65625 1.011719 L 74.617188 1.011719 L 74.617188 80.929688 C 74.617188 83.046875 74.445312 85.109375 74.164062 87.140625 C 73.332031 92.960938 68.605469 97.421875 62.832031 98.289062 C 60.996094 98.550781 59.082031 98.671875 57.136719 98.671875 L 17.671875 98.671875 C 15.734375 98.671875 13.84375 98.550781 11.988281 98.289062 C 6.234375 97.421875 1.5 92.960938 0.664062 87.140625 C 0.363281 85.109375 0.230469 83.046875 0.230469 80.929688 L 0.214844 80.917969 Z M 0.214844 76.714844 "/>
</g>
</svg>