<?xml version="1.0" encoding="UTF-8" standalone="no"?>
<!-- Created with Inkscape (http://www.inkscape.org/) -->

<svg
   width="901"
   height="128"
   viewBox="0 0 238.38958 33.866667"
   version="1.1"
   id="svg8890"
   inkscape:version="1.2.2 (732a01da63, 2022-12-09)"
   sodipodi:docname="KeepOut.svg"
   xmlns:inkscape="http://www.inkscape.org/namespaces/inkscape"
   xmlns:sodipodi="http://sodipodi.sourceforge.net/DTD/sodipodi-0.dtd"
   xmlns="http://www.w3.org/2000/svg"
   xmlns:svg="http://www.w3.org/2000/svg">
  <sodipodi:namedview
     id="namedview8892"
     pagecolor="#ffffff"
     bordercolor="#000000"
     borderopacity="0.25"
     inkscape:showpageshadow="2"
     inkscape:pageopacity="0.0"
     inkscape:pagecheckerboard="0"
     inkscape:deskcolor="#d1d1d1"
     inkscape:document-units="mm"
     showgrid="false"
     showguides="true"
     inkscape:zoom="1.2881734"
     inkscape:cx="269.76182"
     inkscape:cy="517.78743"
     inkscape:window-width="3840"
     inkscape:window-height="2071"
     inkscape:window-x="2391"
     inkscape:window-y="-9"
     inkscape:window-maximized="1"
     inkscape:current-layer="layer1">
    <sodipodi:guide
       position="78.465294,-67.924294"
       orientation="0,-1"
       id="guide9610"
       inkscape:locked="false" />
  </sodipodi:namedview>
  <defs
     id="defs8887">
    <clipPath
       clipPathUnits="userSpaceOnUse"
       id="clipPath7051">
      <path
         d="M 0,0 H 595.276 V 841.89 H 0 Z"
         id="path7049" />
    </clipPath>
    <clipPath
       clipPathUnits="userSpaceOnUse"
       id="clipPath7067">
      <path
         d="M 58.155,764.453 42.03,753.008 h -4.557 l 4.12,11.445 H 32.077 L 20.865,733.292 h 9.515 l 4.314,11.997 h 4.267 l 9.294,-11.997 h 13.541 l -12.948,15.953 22.232,15.208 z"
         id="path7065" />
    </clipPath>
    <clipPath
       clipPathUnits="userSpaceOnUse"
       id="clipPath7083">
      <path
         d="M 76.545,764.453 65.327,733.292 h 34.542 l 2.686,7.459 H 77.527 l 1.823,5.058 h 23.095 l 2.328,6.469 H 81.676 l 1.795,4.975 h 24.42 l 2.599,7.2 z"
         id="path7081" />
    </clipPath>
    <clipPath
       clipPathUnits="userSpaceOnUse"
       id="clipPath7099">
      <path
         d="m 116.762,764.453 -11.218,-31.161 h 34.545 l 2.686,7.459 h -25.024 l 1.817,5.058 h 23.102 l 2.331,6.469 h -23.104 l 1.792,4.975 h 24.426 l 2.595,7.2 z"
         id="path7097" />
    </clipPath>
    <clipPath
       clipPathUnits="userSpaceOnUse"
       id="clipPath7111">
      <path
         d="M 0,0 H 595.276 V 841.89 H 0 Z"
         id="path7109" />
    </clipPath>
    <clipPath
       clipPathUnits="userSpaceOnUse"
       id="clipPath7123">
      <path
         d="m 156.986,764.453 -11.214,-31.161 h 9.515 l 2.803,7.805 h 18.891 c 3.057,0 5.66,0.964 7.779,2.905 v 0 c 2.136,1.941 3.696,4.28 4.685,7.035 v 0 l 1.031,2.866 c 1.328,3.669 1.358,6.34 0.104,8.015 v 0 c -1.243,1.689 -3.799,2.535 -7.661,2.535 v 0 z m 6.733,-7.716 h 14.03 c 1.421,0 2.332,-0.279 2.733,-0.84 v 0 c 0.406,-0.544 0.323,-1.578 -0.217,-3.104 v 0 c -0.512,-1.411 -1.127,-2.433 -1.859,-3.065 v 0 c -0.705,-0.612 -1.693,-0.919 -2.946,-0.919 v 0 h -14.593 z"
         id="path7121" />
    </clipPath>
    <clipPath
       clipPathUnits="userSpaceOnUse"
       id="clipPath7135">
      <path
         d="M 0,0 H 595.276 V 841.89 H 0 Z"
         id="path7133" />
    </clipPath>
    <clipPath
       clipPathUnits="userSpaceOnUse"
       id="clipPath7155">
      <path
         d="M 0,0 H 595.276 V 841.89 H 0 Z"
         id="path7153" />
    </clipPath>
    <clipPath
       clipPathUnits="userSpaceOnUse"
       id="clipPath7167">
      <path
         d="m 77.915,726.629 c -4.966,0 -8.784,-0.892 -11.455,-2.682 v 0 c -2.648,-1.772 -4.707,-4.698 -6.171,-8.778 v 0 l -3.31,-9.195 c -1.477,-4.096 -1.447,-6.987 0.078,-8.677 v 0 c 1.528,-1.678 4.66,-2.51 9.396,-2.51 v 0 h 15.804 c 4.79,0 8.489,0.848 11.113,2.554 v 0 c 2.647,1.72 4.728,4.606 6.256,8.651 v 0 l 3.356,9.321 c 1.43,3.97 1.441,6.85 0.03,8.634 v 0 c -1.411,1.79 -4.539,2.682 -9.395,2.682 v 0 z M 67.261,704.013 c -0.475,0.852 -0.237,2.61 0.718,5.268 v 0 l 1.096,3.04 c 0.868,2.406 1.901,4.061 3.112,4.972 v 0 c 1.223,0.908 2.968,1.362 5.244,1.362 v 0 h 11.013 c 2.183,0 3.549,-0.448 4.102,-1.342 v 0 c 0.581,-0.881 0.419,-2.565 -0.477,-5.055 v 0 l -1.142,-3.168 c -0.868,-2.417 -1.827,-4.083 -2.885,-4.994 v 0 c -1.035,-0.896 -2.654,-1.343 -4.857,-1.343 v 0 h -11.79 c -2.276,0 -3.658,0.42 -4.134,1.26"
         id="path7165" />
    </clipPath>
    <clipPath
       clipPathUnits="userSpaceOnUse"
       id="clipPath7179">
      <path
         d="M 0,0 H 595.276 V 841.89 H 0 Z"
         id="path7177" />
    </clipPath>
    <clipPath
       clipPathUnits="userSpaceOnUse"
       id="clipPath7191">
      <path
         d="m 142.169,726.287 -6.445,-17.914 c -0.764,-2.126 -1.71,-3.594 -2.841,-4.401 v 0 c -1.115,-0.813 -2.664,-1.219 -4.65,-1.219 v 0 h -9.132 c -2.043,0 -3.293,0.427 -3.757,1.285 v 0 c -0.456,0.847 -0.327,2.294 0.409,4.335 v 0 l 6.448,17.914 h -9.514 l -7.175,-19.939 c -1.475,-4.11 -1.492,-7.058 -0.033,-8.863 v 0 c 1.477,-1.802 4.47,-2.698 8.975,-2.698 v 0 H 127.6 c 4.507,0 8.107,0.962 10.795,2.888 v 0 c 2.693,1.927 4.741,4.86 6.16,8.794 v 0 l 7.136,19.818 z"
         id="path7189" />
    </clipPath>
    <clipPath
       clipPathUnits="userSpaceOnUse"
       id="clipPath7207">
      <path
         d="m 155.912,726.287 -2.777,-7.718 h 13.416 l -8.441,-23.442 h 9.514 l 8.442,23.442 h 13.411 l 2.778,7.718 z"
         id="path7205" />
    </clipPath>
    <clipPath
       clipPathUnits="userSpaceOnUse"
       id="clipPath7223">
      <path
         d="M 0,0 H 595.276 V 841.89 H 0 Z"
         id="path7221" />
    </clipPath>
    <clipPath
       clipPathUnits="userSpaceOnUse"
       id="clipPath7251">
      <path
         d="M 0,0 H 595.276 V 841.89 H 0 Z"
         id="path7249" />
    </clipPath>
    <clipPath
       clipPathUnits="userSpaceOnUse"
       id="clipPath7279">
      <path
         d="M 0,0 H 595.276 V 841.89 H 0 Z"
         id="path7277" />
    </clipPath>
    <clipPath
       clipPathUnits="userSpaceOnUse"
       id="clipPath7295">
      <path
         d="M 0,0 H 595.276 V 841.89 H 0 Z"
         id="path7293" />
    </clipPath>
  </defs>
  <g
     inkscape:label="Calque 1"
     inkscape:groupmode="layer"
     id="layer1">
    <g
       id="g9716"
       transform="matrix(2.0412213,0,0,2.0412213,-58.929546,-203.54455)">
      <g
         id="g7033"
         transform="matrix(0.35277777,0,0,-0.35277777,38.249831,103.00029)">
        <path
           d="m 0,0 h -5.87 l -9.985,-27.733 h 5.873 l 4.316,12.001 h 6.312 l 9.3,-12.001 h 9.095 L 7.19,-13.127 26.383,0 H 19.549 L 3.419,-11.444 H -4.118 Z M 4.878,3.428 0.759,-8.015 H 2.33 L 18.454,3.428 H 37.471 L 12.198,-13.857 26.235,-31.156 H 8.267 l -9.305,11.999 H -3.255 L -7.573,-31.156 H -20.73 L -8.28,3.428 Z"
           style="fill:#73c52c;fill-opacity:1;fill-rule:nonzero;stroke:none"
           id="path7035" />
      </g>
      <g
         id="g7037"
         transform="matrix(0.35277777,0,0,-0.35277777,51.864019,103.00029)">
        <path
           d="m 0,0 -9.984,-27.733 h 30.905 l 1.446,4.031 H -2.664 l 3.058,8.484 h 23.097 l 1.102,3.046 H 1.487 l 3.025,8.397 H 28.94 L 30.298,0 Z M -2.413,3.428 H 35.179 L 31.351,-7.2 H 6.922 L 6.367,-8.743 h 23.107 l -3.569,-9.903 H 2.8 l -0.583,-1.625 h 25.025 l -3.91,-10.885 h -38.196 z"
           style="fill:#73c52c;fill-opacity:1;fill-rule:nonzero;stroke:none"
           id="path7039" />
      </g>
      <g
         id="g7041"
         transform="matrix(0.35277777,0,0,-0.35277777,66.053517,103.00029)">
        <path
           d="M 0,0 -9.983,-27.733 H 20.92 l 1.449,4.031 H -2.663 l 3.056,8.484 h 23.102 l 1.095,3.046 H 1.491 l 3.02,8.397 h 24.43 L 30.302,0 Z M -2.412,3.428 H 35.183 L 31.35,-7.2 H 6.923 L 6.364,-8.743 H 29.47 l -3.566,-9.903 H 2.8 l -0.582,-1.625 h 25.028 l -3.919,-10.885 h -38.189 z"
           style="fill:#73c52c;fill-opacity:1;fill-rule:nonzero;stroke:none"
           id="path7043" />
      </g>
      <g
         id="g7045"
         transform="matrix(0.35277777,0,0,-0.35277777,24.436641,372.07712)">
        <g
           id="g7047"
           clip-path="url(#clipPath7051)">
          <g
             id="g7053"
             transform="translate(158.4326,747.0905)">
            <path
               d="m 0,0 4.086,11.363 h 15.23 c 1.47,0 3.184,-0.262 4.114,-1.536 C 25.103,7.558 22.776,2.799 21.101,1.345 19.984,0.375 18.559,0 17.027,0 Z m 20.588,7.772 c -0.28,0.074 -0.752,0.157 -1.272,0.157 H 6.499 L 4.875,3.432 h 12.152 c 0.986,0 1.521,0.239 1.83,0.502 0.78,0.678 1.653,2.728 1.731,3.81 z m 3.898,7.875 h -24.73 l -9.978,-27.733 h 5.871 l 2.806,7.805 h 20.093 c 2.668,0 4.841,0.83 6.622,2.46 3.084,2.801 3.918,5.481 5.264,9.217 1.286,3.578 1.03,5.484 0.338,6.411 -0.735,0.995 -2.535,1.84 -6.286,1.84 m 0,3.428 c 3.969,0 7.282,-0.842 9.041,-3.23 3.772,-5.06 -2.11,-16.618 -6.045,-20.2 -2.46,-2.249 -5.47,-3.359 -8.934,-3.359 H 0.869 l -2.812,-7.795 h -13.156 l 12.447,34.584 z"
               style="fill:#73c52c;fill-opacity:1;fill-rule:nonzero;stroke:none"
               id="path7055" />
          </g>
        </g>
      </g>
      <g
         id="g7057"
         transform="matrix(0.35277777,0,0,-0.35277777,35.752729,102.39524)"
         style="fill:#000000">
        <path
           d="M 0,0 H 9.515 L 5.396,-11.446 H 9.953 L 26.078,0 H 39.003 L 16.771,-15.207 29.719,-31.16 H 16.179 L 6.883,-19.164 H 2.617 L -1.697,-31.16 h -9.515 z"
           style="fill:#000000;fill-opacity:1;fill-rule:nonzero;stroke:none"
           id="path7059" />
      </g>
      <g
         id="g7073"
         transform="matrix(0.35277777,0,0,-0.35277777,47.482272,113.38793)"
         style="fill:#000000">
        <path
           d="m 0,0 11.219,31.16 h 33.945 l -2.599,-7.2 H 18.144 L 16.35,18.986 H 39.448 L 37.119,12.517 H 14.024 L 12.2,7.459 H 37.229 L 34.544,0 Z"
           style="fill:#000000;fill-opacity:1;fill-rule:nonzero;stroke:none"
           id="path7075" />
      </g>
      <g
         id="g7089"
         transform="matrix(0.35277777,0,0,-0.35277777,61.670042,113.38793)"
         style="fill:#000000">
        <path
           d="m 0,0 11.219,31.16 h 33.948 l -2.596,-7.2 H 18.146 L 16.353,18.986 H 39.457 L 37.126,12.517 H 14.024 L 12.207,7.459 H 37.231 L 34.545,0 Z"
           style="fill:#000000;fill-opacity:1;fill-rule:nonzero;stroke:none"
           id="path7091" />
      </g>
      <g
         id="g7105"
         transform="matrix(0.35277777,0,0,-0.35277777,24.436641,372.07712)"
         style="fill:#000000">
        <g
           id="g7107"
           clip-path="url(#clipPath7111)"
           style="fill:#000000">
          <g
             id="g7113"
             transform="translate(163.719,756.7369)"
             style="fill:#000000">
            <path
               d="m 0,0 -2.852,-7.927 h 14.593 c 1.253,0 2.241,0.306 2.947,0.918 0.731,0.632 1.346,1.654 1.858,3.066 0.54,1.525 0.624,2.559 0.218,3.103 C 16.362,-0.279 15.452,0 14.03,0 Z M -6.733,7.716 H 19.2 c 3.862,0 6.419,-0.846 7.661,-2.535 1.254,-1.675 1.225,-4.345 -0.104,-8.015 l -1.031,-2.865 c -0.988,-2.755 -2.549,-5.094 -4.685,-7.035 -2.119,-1.942 -4.722,-2.906 -7.779,-2.906 h -18.89 l -2.804,-7.805 h -9.515 z"
               style="fill:#000000;fill-opacity:1;fill-rule:nonzero;stroke:none"
               id="path7115" />
          </g>
        </g>
      </g>
      <g
         id="g7129"
         transform="matrix(0.35277777,0,0,-0.35277777,74.905772,358.73443)">
        <g
           id="g7131"
           clip-path="url(#clipPath7135)">
          <g
             id="g7137"
             transform="translate(66.3679,709.8597)">
            <path
               d="m 0,0 c 1.076,2.985 2.126,6.798 4.788,8.809 1.634,1.211 3.801,1.706 6.274,1.706 h 11.014 c 2.175,0 4.445,-0.407 5.539,-2.125 2,-3.05 -2.32,-13.291 -4.818,-15.451 C 21.31,-8.345 19.194,-8.82 16.817,-8.82 H 5.027 c -1.933,0 -4.544,0.234 -5.632,2.13 C -1.656,-4.795 -0.646,-1.802 0,0 M 3.226,-1.161 C 2.901,-2.066 2.282,-3.843 2.377,-4.883 3.152,-5.411 4.103,-5.39 5.027,-5.39 h 11.79 c 2.026,0 3.156,0.42 3.735,0.926 1.263,1.091 4.974,9.794 4.188,10.994 -0.028,0.046 -0.496,0.553 -2.664,0.553 H 11.062 C 8.981,7.083 7.651,6.659 6.842,6.056 5.053,4.705 3.951,0.846 3.226,-1.161 M -4.467,4.73 c -0.358,-0.993 -6.042,-13.385 -3.577,-16.135 0.993,-1.089 3.429,-1.961 8.13,-1.961 h 15.803 c 4.619,0 7.95,0.834 10.182,2.28 2.237,1.455 4.131,3.977 5.574,7.801 0.441,1.229 6.024,13.305 3.654,16.313 -0.857,1.091 -3.205,2.026 -8.05,2.026 H 11.547 c -4.802,0 -8.229,-0.869 -10.499,-2.388 -2.254,-1.51 -4.13,-4.083 -5.515,-7.936 m -3.224,1.158 c 1.547,4.304 3.784,7.585 6.833,9.623 3.058,2.056 7.265,2.973 12.405,2.973 h 15.702 c 4.862,0 8.786,-0.851 10.746,-3.333 3.763,-4.789 -1.644,-15.487 -3.127,-19.608 -1.61,-4.268 -3.888,-7.522 -6.928,-9.501 -3.01,-1.958 -7.092,-2.831 -12.051,-2.831 H 0.086 c -4.767,0 -8.597,0.81 -10.668,3.071 -4.13,4.582 1.43,15.56 2.891,19.606"
               style="fill:#73c52c;fill-opacity:1;fill-rule:nonzero;stroke:none"
               id="path7139" />
          </g>
          <g
             id="g7141"
             transform="translate(119.7629,724.5671)">
            <path
               d="m 0,0 h -5.873 c -0.995,-2.759 -9.919,-22.471 -7.081,-25.997 0.947,-1.156 3.212,-2.076 7.645,-2.076 H 7.837 c 4.273,0 7.486,0.92 9.799,2.575 6.238,4.469 10.397,21.452 11.85,25.498 h -5.87 c -0.176,-0.491 -5.202,-18.902 -9.485,-21.983 -1.512,-1.1 -3.464,-1.545 -5.661,-1.545 h -9.132 c -1.897,0 -4.262,0.324 -5.259,2.181 C -8.002,-17.52 -0.218,-0.612 0,0 m 4.881,3.435 -7.277,-20.208 c -0.742,-2.061 -0.581,-2.823 -0.513,-2.944 0.482,-0.358 1.749,-0.38 2.247,-0.38 H 8.47 c 1.78,0 2.925,0.37 3.646,0.889 0.724,0.52 1.518,1.613 2.234,3.592 L 21.207,3.435 H 34.366 C 32.553,-1.609 27.493,-22.657 19.634,-28.287 16.562,-30.485 12.578,-31.496 7.837,-31.496 H -5.309 c -4.585,0 -8.303,0.888 -10.302,3.332 -2.078,2.566 -1.764,6.336 -0.256,10.523 l 7.586,21.076 z"
               style="fill:#73c52c;fill-opacity:1;fill-rule:nonzero;stroke:none"
               id="path7143" />
          </g>
        </g>
      </g>
      <g
         id="g7145"
         transform="matrix(0.35277777,0,0,-0.35277777,141.86962,103.12326)">
        <path
           d="m 0,0 h -32.703 l -1.544,-4.277 h 13.417 l -8.444,-23.453 h 5.875 l 8.439,23.453 H -1.548 Z M 4.878,3.435 0.862,-7.713 h -13.411 l -8.441,-23.443 h -13.161 l 8.443,23.443 h -13.414 l 4.011,11.148 z"
           style="fill:#73c52c;fill-opacity:1;fill-rule:nonzero;stroke:none"
           id="path7147" />
      </g>
      <g
         id="g7149"
         transform="matrix(0.35277777,0,0,-0.35277777,74.905772,358.73443)"
         style="fill:#000000">
        <g
           id="g7151"
           clip-path="url(#clipPath7155)"
           style="fill:#000000">
          <g
             id="g7157"
             transform="translate(69.0754,712.3213)"
             style="fill:#000000">
            <path
               d="m 0,0 -1.096,-3.041 c -0.955,-2.657 -1.193,-4.416 -0.719,-5.267 0.476,-0.841 1.859,-1.26 4.135,-1.26 h 11.79 c 2.203,0 3.821,0.446 4.857,1.343 1.057,0.911 2.016,2.576 2.885,4.994 l 1.142,3.168 c 0.895,2.489 1.057,4.174 0.477,5.055 -0.553,0.894 -1.919,1.342 -4.102,1.342 H 8.355 C 6.08,6.334 4.335,5.88 3.112,4.971 1.901,4.061 0.867,2.406 0,0 m -12.096,-6.348 3.31,9.196 c 1.464,4.08 3.522,7.006 6.171,8.778 2.67,1.79 6.488,2.682 11.454,2.682 h 15.703 c 4.855,0 7.983,-0.892 9.395,-2.682 1.41,-1.784 1.399,-4.665 -0.031,-8.634 l -3.355,-9.321 c -1.528,-4.045 -3.609,-6.932 -6.256,-8.652 -2.624,-1.705 -6.323,-2.553 -11.113,-2.553 H -2.622 c -4.737,0 -7.868,0.832 -9.396,2.509 -1.526,1.691 -1.555,4.581 -0.078,8.677"
               style="fill:#000000;fill-opacity:1;fill-rule:nonzero;stroke:none"
               id="path7159" />
          </g>
        </g>
      </g>
      <g
         id="g7173"
         transform="matrix(0.35277777,0,0,-0.35277777,74.905772,358.73443)"
         style="fill:#000000">
        <g
           id="g7175"
           clip-path="url(#clipPath7179)"
           style="fill:#000000">
          <g
             id="g7181"
             transform="translate(112.6876,726.2872)"
             style="fill:#000000">
            <path
               d="M 0,0 H 9.514 L 3.065,-17.914 C 2.33,-19.956 2.2,-21.402 2.656,-22.25 c 0.465,-0.857 1.714,-1.284 3.757,-1.284 h 9.133 c 1.985,0 3.534,0.406 4.65,1.218 1.13,0.808 2.076,2.276 2.84,4.402 L 29.482,0 h 9.522 L 31.868,-19.819 C 30.449,-23.752 28.4,-26.685 25.707,-28.612 23.019,-30.539 19.42,-31.5 14.913,-31.5 H 1.766 c -4.505,0 -7.498,0.896 -8.975,2.697 -1.458,1.806 -1.441,4.754 0.034,8.863 z"
               style="fill:#000000;fill-opacity:1;fill-rule:nonzero;stroke:none"
               id="path7183" />
          </g>
        </g>
      </g>
      <g
         id="g7197"
         transform="matrix(0.35277777,0,0,-0.35277777,129.90834,102.51645)"
         style="fill:#000000">
        <path
           d="M 0,0 H 36.343 L 33.564,-7.718 H 20.153 L 11.711,-31.161 H 2.198 l 8.44,23.443 H -2.778 Z"
           style="fill:#000000;fill-opacity:1;fill-rule:nonzero;stroke:none"
           id="path7199" />
      </g>
    </g>
  </g>
</svg>
