<?xml version="1.0" encoding="UTF-8" standalone="no"?>
<!-- Created with Inkscape (http://www.inkscape.org/) -->

<svg
   version="1.0"
   width="688"
   height="128"
   id="svg10140"
   sodipodi:docname="Lenovo.LEN.LNV.LIN.svg"
   inkscape:version="1.2.2 (732a01da63, 2022-12-09)"
   xmlns:inkscape="http://www.inkscape.org/namespaces/inkscape"
   xmlns:sodipodi="http://sodipodi.sourceforge.net/DTD/sodipodi-0.dtd"
   xmlns="http://www.w3.org/2000/svg"
   xmlns:svg="http://www.w3.org/2000/svg">
  <sodipodi:namedview
     id="namedview14"
     pagecolor="#505050"
     bordercolor="#eeeeee"
     borderopacity="1"
     inkscape:pageshadow="0"
     inkscape:pageopacity="0"
     inkscape:pagecheckerboard="0"
     showgrid="false"
     inkscape:zoom="1.316743"
     inkscape:cx="554.01851"
     inkscape:cy="113.158"
     inkscape:window-width="3840"
     inkscape:window-height="2071"
     inkscape:window-x="2391"
     inkscape:window-y="-9"
     inkscape:window-maximized="1"
     inkscape:current-layer="svg10140"
     inkscape:showpageshadow="2"
     inkscape:deskcolor="#505050" />
  <defs
     id="defs10142" />
  <g
     transform="matrix(0.61653077,0,0,0.61653077,-638.86327,-3807.0897)"
     id="layer1"
     style="fill:#000000">
    <g
       transform="matrix(1.6151785,0,0,1.6151785,-587.92098,-3847.6616)"
       id="g161995"
       style="fill:#000000">
      <path
         d="m 1680.0624,6302.6515 v 11.8481 h -1.9873 v -9.1315 h -0.1257 l -3.2954,9.1315 h -1.7106 l -3.27,-9.1315 v 9.1315 h -2.0126 v -11.8481 h 2.9937 l 3.2953,9.2822 3.119,-9.2822 h 2.9936"
         id="path151697"
         style="fill:#000000;fill-rule:nonzero;stroke:none" />
      <path
         d="m 1666.3782,6302.6515 v 1.7106 h -3.8488 v 10.1375 h -1.9873 v -10.1375 h -3.8488 v -1.7106 h 9.6849"
         id="path151699"
         style="fill:#000000;fill-rule:nonzero;stroke:none" />
      <path
         d="m 1616.6218,6284.9676 c 2.9933,-9.6847 2.9933,-15.3946 0.1258,-19.1177 -2.1382,-2.5659 -5.2575,-3.8485 -9.9865,-3.8485 -10.5398,0 -16.3759,5.9867 -21.0799,20.9791 -3.0185,9.8355 -3.0185,15.5455 -0.1508,19.2434 1.9872,2.4399 5.2826,3.7228 9.9865,3.7228 10.3889,0 16.401,-5.8608 21.1049,-20.9791 z m 41.2036,-21.6836 c 4.1253,5.1568 5.0057,11.6973 2.5658,19.6965 -6.8421,22.1111 -32.651,34.7889 -70.8864,34.7889 -22.8155,0 -38.3359,-4.4271 -45.2033,-12.9798 -4.1255,-5.1315 -4.8299,-11.8227 -2.4148,-19.822 6.8421,-22.111 32.651,-34.7891 70.8863,-34.7891 22.6645,0 38.3611,4.553 45.0524,13.1055"
         id="path151701"
         style="fill:#000000;fill-rule:nonzero;stroke:none" />
      <path
         d="m 1515.2225,6252.3165 c 1.283,0 36.4996,0 40.4992,0 -2.4398,3.2703 -46.4861,62.4596 -47.2155,63.466 -1.2829,0 -60.1704,0 -62.1577,0 -0.3019,-1.8615 -7.7226,-61.1767 -7.9993,-63.466 2.4148,0 36.223,0 38.0845,0 0.2767,1.8615 5.5592,44.4991 5.5592,44.4991 0,0 32.651,-43.6436 33.2296,-44.4991"
         id="path151703"
         style="fill:#000000;fill-rule:nonzero;stroke:none" />
      <path
         d="m 1389.5739,6284.9676 c 2.9935,-9.6847 3.1444,-15.3946 0.1511,-19.1177 -2.0124,-2.5659 -5.2826,-3.8485 -9.8357,-3.8485 -10.5649,0 -16.5518,5.9867 -21.105,20.9791 -3.1442,9.8355 -3.1442,15.5455 -0.1508,19.2434 1.9872,2.4399 5.2825,3.7228 9.8355,3.7228 10.5651,0 16.5521,-5.8608 21.1049,-20.9791 z m 41.3547,-21.6836 c 4.1504,5.1568 5.0059,11.6973 2.44,19.6965 -6.8421,22.1111 -32.6761,34.7889 -70.7355,34.7889 -22.8153,0 -38.361,-4.4271 -45.2286,-12.9798 -4.1253,-5.1315 -4.9806,-11.8227 -2.5655,-19.822 6.9929,-22.111 32.8019,-34.7891 70.8863,-34.7891 22.8154,0 38.3611,4.553 45.2033,13.1055"
         id="path151705"
         style="fill:#000000;fill-rule:nonzero;stroke:none" />
      <path
         d="m 1311.7194,6260.1658 c 1.5596,1.9872 2.4148,3.9744 1.9872,6.8421 l -15.8224,48.901 h -41.9332 l 14.8415,-45.6309 c 0.5534,-1.9873 -0.151,-3.6978 -1.2829,-4.9807 -2.0124,-2.44 -6.2887,-3.9995 -20.9792,-2.9934 0,0 -17.382,52.9006 -17.6838,53.605 h -41.908 c 0.4024,-1.132 19.671,-60.0195 19.9478,-60.5981 14.5647,-2.5658 33.8081,-4.9806 53.781,-4.9806 27.0918,0 43.6186,3.2701 49.052,9.8356"
         id="path151713"
         style="fill:#000000;fill-opacity:1" />
      <path
         d="m 1158.7024,6273.5733 c 0.8553,-3.9997 -0.4276,-6.9931 -1.8614,-8.7036 -1.5596,-2.0124 -5.0059,-4.5782 -12.1247,-4.5782 -10.1122,0 -17.6838,4.855 -20.2496,12.9799 l -4.9807,18.6901 z m 35.2168,-0.151 c 0,2.9934 -0.7043,5.5592 -1.2829,6.6913 -1.2829,0.3018 -74.4332,16.5518 -74.4332,16.5518 0,0 -0.7295,3.572 1.9873,5.4334 3.5719,2.5659 7.4206,3.2702 13.9609,3.547 16.1242,0.7043 37.9587,-8.7036 44.0713,-11.3952 -0.9811,3.1192 -7.2698,16.8286 -7.5465,17.5329 -2.7167,1.0062 -17.8348,5.836 -47.4923,5.9868 -11.2694,0.151 -31.3682,-1.2829 -39.6441,-11.6969 -4.1254,-5.1316 -4.8549,-12.4014 -2.0124,-21.5325 6.7164,-21.8094 31.8208,-34.3617 68.5973,-34.3617 20.5515,0 33.959,3.8487 40.0969,11.3952 2.4148,3.1444 3.6977,7.144 3.6977,11.8479"
         id="path151715"
         style="fill:#000000;fill-opacity:1" />
      <path
         d="m 1051.1657,6221.3762 c 1.7103,0 38.638,0 41.5055,0 -0.8552,2.6915 -28.8022,92.8214 -29.255,94.4063 -1.7107,0 -38.6381,0 -41.4805,0 0.8551,-2.7168 28.8023,-92.8468 29.23,-94.4063"
         id="path151717"
         style="fill:#000000;fill-rule:nonzero;stroke:none" />
    </g>
  </g>
</svg>
