<?xml version="1.0" encoding="UTF-8" standalone="no"?>
<!-- Generator: Adobe Illustrator 19.0.0, SVG Export Plug-In . SVG Version: 6.00 Build 0)  -->

<svg
   version="1.1"
   id="Layer_1"
   x="0px"
   y="0px"
   viewBox="0 0 778 128"
   xml:space="preserve"
   sodipodi:docname="monoprice-logo.svg"
   width="778"
   height="128"
   inkscape:version="1.2.2 (732a01da63, 2022-12-09)"
   xmlns:inkscape="http://www.inkscape.org/namespaces/inkscape"
   xmlns:sodipodi="http://sodipodi.sourceforge.net/DTD/sodipodi-0.dtd"
   xmlns="http://www.w3.org/2000/svg"
   xmlns:svg="http://www.w3.org/2000/svg"><defs
   id="defs46" /><sodipodi:namedview
   id="namedview44"
   pagecolor="#ffffff"
   bordercolor="#000000"
   borderopacity="0.25"
   inkscape:showpageshadow="2"
   inkscape:pageopacity="0.0"
   inkscape:pagecheckerboard="0"
   inkscape:deskcolor="#d1d1d1"
   showgrid="false"
   inkscape:zoom="2.5337993"
   inkscape:cx="347.50187"
   inkscape:cy="12.234592"
   inkscape:window-width="3840"
   inkscape:window-height="2071"
   inkscape:window-x="2391"
   inkscape:window-y="-9"
   inkscape:window-maximized="1"
   inkscape:current-layer="Layer_1" />
<style
   type="text/css"
   id="style2">
	.st0{fill:#FFFFFF;}
</style>
<g
   id="g26"
   style="fill:#000000"
   transform="matrix(1.871345,0,0,1.871345,-3.8888828,7.7660828)">
	<path
   class="st0"
   d="M 51.3,4.4 C 57.2,4.4 62,9.2 62,15.1 V 45 c 0,5.9 -4.8,10.7 -10.7,10.7 H 21.4 C 15.5,55.7 10.7,50.9 10.7,45 V 15.1 C 10.7,9.2 15.5,4.4 21.4,4.4 h 29.9 m 2,20.8 c 0,-2 -0.7,-3.7 -2.1,-5.1 -1.4,-1.4 -3.1,-2.1 -5.1,-2.1 -2,0 -3.7,0.7 -5.1,2.1 -1.4,1.4 -2.1,3.1 -2.1,5.1 v 7.3 c 0,1.6 -0.8,2.4 -2.4,2.4 -1.6,0 -2.4,-0.8 -2.4,-2.4 v -6.8 -0.4 c 0,-2 -0.7,-3.7 -2.1,-5.1 -1.4,-1.4 -3.1,-2.1 -5.1,-2.1 -2,0 -3.7,0.7 -5.1,2.1 -1.4,1.4 -2.1,3.1 -2.1,5.1 v 14.5 c 0,1.6 0.8,2.4 2.4,2.4 1.6,0 2.4,-0.8 2.4,-2.4 v -14.6 0 c 0,-1.6 0.8,-2.4 2.4,-2.4 1.6,0 2.4,0.8 2.4,2.4 v 7.3 c 0,2 0.7,3.7 2.1,5.1 1.4,1.4 3.1,2.1 5.1,2.1 2,0 3.7,-0.7 5.1,-2.1 1.4,-1.4 2.1,-3.1 2.1,-5.1 V 32 25.2 c 0,-1.6 0.8,-2.4 2.4,-2.4 1.6,0 2.4,0.8 2.4,2.4 v 0 14.5 c 0,1.6 0.8,2.4 2.4,2.4 1.6,0 2.4,-0.8 2.4,-2.4 z"
   id="path4"
   style="fill:#000000" />
	<path
   class="st0"
   d="m 146,12 c 5.4,0 9.9,1.7 13.5,5.1 3.6,3.4 5.4,7.7 5.4,12.9 0,5.2 -1.8,9.5 -5.5,12.8 -3.6,3.4 -8.2,5.1 -13.8,5.1 -5.3,0 -9.7,-1.7 -13.2,-5.1 -3.5,-3.4 -5.3,-7.6 -5.3,-12.7 0,-5.2 1.8,-9.6 5.3,-13 3.7,-3.4 8.2,-5.1 13.6,-5.1 z m 0.2,4.8 c -4,0 -7.3,1.3 -9.9,3.8 -2.6,2.5 -3.9,5.7 -3.9,9.6 0,3.8 1.3,6.9 3.9,9.4 2.6,2.5 5.8,3.8 9.7,3.8 3.9,0 7.2,-1.3 9.8,-3.8 2.6,-2.6 3.9,-5.8 3.9,-9.6 0,-3.7 -1.3,-6.8 -3.9,-9.4 -2.6,-2.6 -5.8,-3.8 -9.6,-3.8 z"
   id="path6"
   style="fill:#000000" />
	<path
   class="st0"
   d="m 202.8,12.3 h 4.8 v 35.4 h -4.4 L 179.5,20.4 v 27.3 h -4.8 V 12.3 h 4.1 l 23.9,27.5 V 12.3 Z"
   id="path8"
   style="fill:#000000" />
	<path
   class="st0"
   d="m 236.2,12 c 5.4,0 9.9,1.7 13.5,5.1 3.6,3.4 5.4,7.7 5.4,12.9 0,5.2 -1.8,9.4 -5.4,12.8 -3.6,3.4 -8.2,5.1 -13.7,5.1 -5.3,0 -9.7,-1.7 -13.2,-5.1 -3.5,-3.4 -5.3,-7.6 -5.3,-12.7 0,-5.2 1.8,-9.6 5.3,-13 3.5,-3.3 7.9,-5.1 13.4,-5.1 z m 0.2,4.8 c -4,0 -7.3,1.3 -9.9,3.8 -2.6,2.5 -3.9,5.7 -3.9,9.6 0,3.8 1.3,6.9 3.9,9.4 2.6,2.5 5.8,3.8 9.7,3.8 3.9,0 7.2,-1.3 9.8,-3.8 2.6,-2.6 3.9,-5.7 3.9,-9.5 0,-3.7 -1.3,-6.8 -3.9,-9.4 -2.6,-2.6 -5.8,-3.9 -9.6,-3.9 z"
   id="path10"
   style="fill:#000000" />
	<path
   class="st0"
   d="M 265.1,47.7 V 12.3 h 11.2 c 3.4,0 6.1,0.9 8.1,2.7 2,1.8 3,4.3 3,7.3 0,2.1 -0.5,3.9 -1.5,5.5 -1,1.6 -2.4,2.7 -4.2,3.5 -1.8,0.7 -4.4,1.1 -7.7,1.1 h -3.7 v 15.3 z m 10.3,-30.9 h -5.2 v 11.1 h 5.5 c 2.1,0 3.6,-0.5 4.8,-1.5 1.1,-1 1.7,-2.4 1.7,-4.2 0,-3.6 -2.3,-5.4 -6.8,-5.4 z"
   id="path12"
   style="fill:#000000" />
	<path
   class="st0"
   d="m 322.6,45.2 c -0.7,-1 -1.7,-2.5 -3,-4.5 -2,-3.2 -3.5,-5.4 -4.6,-6.7 -0.8,-0.9 -1.5,-1.6 -2.3,-2.3 0.4,-0.1 0.8,-0.2 1.1,-0.4 1.8,-0.7 3.2,-1.9 4.2,-3.5 1,-1.6 1.5,-3.4 1.5,-5.5 0,-3.1 -1,-5.5 -3,-7.3 -2,-1.8 -4.7,-2.7 -8.1,-2.7 h -11.2 v 35.4 h 5.1 V 32.4 h 2.4 c 1,0.1 1.7,0.2 2.2,0.5 0.7,0.4 1.5,1 2.4,1.9 0.9,0.9 1.8,2 2.9,3.5 l 1.7,2.8 1.6,2.6 1,1.4 c 0.2,0.2 0.3,0.3 0.3,0.4 l 1.5,2.3 h 6 z M 302.5,16.8 h 5.2 c 4.5,0 6.7,1.8 6.7,5.4 0,1.8 -0.6,3.2 -1.7,4.2 -1.1,1 -2.7,1.5 -4.8,1.5 h -5.5 V 16.8 Z"
   id="path14"
   style="fill:#000000" />
	<path
   class="st0"
   d="m 332.6,12.3 h 5.1 v 35.4 h -5.1 z"
   id="path16"
   style="fill:#000000" />
	<path
   class="st0"
   d="M 379,39.4 V 45 c -3.7,2 -7.9,3 -12.8,3 -3.9,0 -7.3,-0.8 -10,-2.4 -2.7,-1.6 -4.9,-3.7 -6.5,-6.5 -1.6,-2.8 -2.4,-5.8 -2.4,-9 0,-5.1 1.8,-9.4 5.5,-12.9 3.6,-3.5 8.1,-5.2 13.5,-5.2 3.7,0 7.8,1 12.3,2.9 v 5.4 c -4.1,-2.3 -8.1,-3.5 -12,-3.5 -4,0 -7.4,1.3 -10,3.8 -2.7,2.5 -4,5.7 -4,9.5 0,3.9 1.3,7 3.9,9.5 2.6,2.5 6,3.7 10,3.7 4.3,0.1 8.4,-1.2 12.5,-3.9 z"
   id="path18"
   style="fill:#000000" />
	<path
   class="st0"
   d="m 388.6,12.3 h 20.1 v 4.5 h -15 v 10.8 h 14.5 v 4.5 h -14.5 v 11 h 15.5 v 4.5 h -20.6 z"
   id="path20"
   style="fill:#000000" />
	<g
   id="g24"
   style="fill:#000000">
		<path
   class="st0"
   d="m 98.9,39.5 v 0 l 10.6,-27.2 h 7.7 v 35.4 h -5 V 18.1 h -0.1 L 100.3,47.7 H 97.1 L 85.5,18.1 H 85.4 V 47.7 H 80.6 V 12.3 h 7.7 z"
   id="path22"
   style="fill:#000000" />
	</g>
</g>
<g
   id="XMLID_235_">
</g>
<g
   id="XMLID_236_">
</g>
<g
   id="XMLID_237_">
</g>
<g
   id="XMLID_238_">
</g>
<g
   id="XMLID_239_">
</g>
<g
   id="XMLID_240_">
</g>
<g
   id="XMLID_241_">
</g>
<g
   id="XMLID_242_">
</g>
<g
   id="XMLID_243_">
</g>
<g
   id="XMLID_244_">
</g>
<g
   id="XMLID_245_">
</g>
<g
   id="XMLID_246_">
</g>
<g
   id="XMLID_247_">
</g>
<g
   id="XMLID_248_">
</g>
<g
   id="XMLID_249_">
</g>
</svg>
