<?xml version="1.0" encoding="UTF-8" standalone="no"?>
<!-- Generator: Adobe Illustrator 14.0.0, SVG Export Plug-In . SVG Version: 6.00 Build 43363)  -->

<svg
   version="1.1"
   id="Layer_1"
   x="0px"
   y="0px"
   width="444"
   height="128"
   viewBox="0 0 444 128"
   enable-background="new 0 0 415 100"
   xml:space="preserve"
   sodipodi:docname="MSI.MSG.svg"
   inkscape:version="1.2.2 (732a01da63, 2022-12-09)"
   xmlns:inkscape="http://www.inkscape.org/namespaces/inkscape"
   xmlns:sodipodi="http://sodipodi.sourceforge.net/DTD/sodipodi-0.dtd"
   xmlns="http://www.w3.org/2000/svg"
   xmlns:svg="http://www.w3.org/2000/svg"><defs
   id="defs21" /><sodipodi:namedview
   id="namedview19"
   pagecolor="#505050"
   bordercolor="#eeeeee"
   borderopacity="1"
   inkscape:pageshadow="0"
   inkscape:pageopacity="0"
   inkscape:pagecheckerboard="0"
   showgrid="false"
   inkscape:zoom="3.5975904"
   inkscape:cx="203.05258"
   inkscape:cy="50.033489"
   inkscape:window-width="3840"
   inkscape:window-height="2071"
   inkscape:window-x="2391"
   inkscape:window-y="-9"
   inkscape:window-maximized="1"
   inkscape:current-layer="Layer_1"
   inkscape:showpageshadow="2"
   inkscape:deskcolor="#505050" />
<g
   id="g16"
   style="fill:#000000"
   transform="matrix(1.0034913,0,0,1.0034913,14.005355,13.657854)">
	<g
   id="g8"
   style="fill:#000000">
		<path
   fill-rule="evenodd"
   clip-rule="evenodd"
   fill="#000000"
   d="M 350.529,98 376.72,25.773 c 0,0 -19.576,0 -39.154,3.928 L 312.807,98 Z m -4.465,-91.737 -5.027,13.874 c 19.697,-3.934 39.152,-3.934 39.152,-3.934 l 5.027,-13.869 c 10e-4,0 -19.573,0 -39.152,3.929 z"
   id="path2"
   style="fill:#000000" />
		<path
   fill-rule="evenodd"
   clip-rule="evenodd"
   fill="#000000"
   d="m 204.713,94.066 c 13.301,2.576 27.041,3.934 41.1,3.934 h 0.004 c 22.313,0 31.482,-2.219 43.059,-8.131 9.861,-5.043 16.344,-10.393 19.129,-19.609 2.387,-7.898 -0.664,-15.352 -7.742,-20.092 -7.08,-4.742 -13.939,-6.984 -22.084,-11.477 -7.123,-3.928 -11.008,-6.887 -10.533,-11.004 1.002,-8.641 10.24,-11.484 22.967,-11.484 v 0 c 12.4,0 24.539,1.123 36.316,3.27 L 331.718,6.264 C 318.415,3.691 304.669,2.335 290.613,2.335 v 0 c -22.313,0 -31.479,2.22 -43.055,8.13 -9.865,5.043 -16.348,10.393 -19.133,19.615 -2.387,7.896 0.664,15.346 7.748,20.088 7.074,4.74 13.93,6.984 22.082,11.482 7.119,3.926 11.008,6.881 10.525,11 -1.002,8.643 -10.24,11.475 -22.963,11.475 h -0.004 c -12.396,0 -24.535,-1.119 -36.314,-3.27 z"
   id="path4"
   style="fill:#000000" />
		<path
   fill-rule="evenodd"
   clip-rule="evenodd"
   fill="#000000"
   d="m 190.357,98 24.281,-66.971 c 1.973,-5.43 2.1,-15.213 -3.354,-20.561 C 205.825,5.1 199.325,2.334 187.313,2.334 175.301,2.33 165.549,5.485 157.711,8.555 c -4.213,1.642 -10.467,4.849 -17.545,9.134 -0.684,-2.714 -1.932,-5.26 -3.926,-7.221 C 130.779,5.1 124.279,2.334 112.27,2.334 100.254,2.331 90.51,5.486 82.667,8.555 78.455,10.197 72.199,13.404 65.122,17.689 64.439,14.975 63.191,12.429 61.197,10.468 55.738,5.1 49.24,2.334 37.225,2.334 L 2.542,98 H 40.27 L 57.612,50.168 C 60.756,41.49 69.313,33.229 74.008,29.6 79.985,24.987 106.719,17.641 99.437,37.733 L 77.587,98 h 37.727 0.002 L 132.66,50.158 c 3.146,-8.672 11.699,-16.93 16.393,-20.559 5.975,-4.613 32.711,-11.959 25.428,8.133 L 152.631,98 Z"
   id="path6"
   style="fill:#000000" />
	</g>
	<g
   id="g14"
   style="fill:#000000">
		<path
   fill="#000000"
   d="m 403.07,3.732 h -2.258 v 5.825 h -1.859 V 3.732 h -2.258 V 2.334 h 6.375 z"
   id="path10"
   style="fill:#000000" />
		<path
   fill="#000000"
   d="m 412,9.557 h -1.857 V 4.721 l -1.336,3.135 h -1.279 l -1.336,-3.135 v 4.835 h -1.75 V 2.334 h 2.154 l 1.621,3.621 1.613,-3.621 H 412 Z"
   id="path12"
   style="fill:#000000" />
	</g>
</g>
</svg>
