<?xml version="1.0" encoding="UTF-8" standalone="no"?>
<!-- Created with Inkscape (http://www.inkscape.org/) -->

<svg
   width="536"
   height="128"
   id="svg1925"
   sodipodi:version="0.32"
   inkscape:version="1.2.2 (732a01da63, 2022-12-09)"
   sodipodi:docname="Nvidia.svg"
   version="1.0"
   xmlns:inkscape="http://www.inkscape.org/namespaces/inkscape"
   xmlns:sodipodi="http://sodipodi.sourceforge.net/DTD/sodipodi-0.dtd"
   xmlns="http://www.w3.org/2000/svg"
   xmlns:svg="http://www.w3.org/2000/svg"
   xmlns:rdf="http://www.w3.org/1999/02/22-rdf-syntax-ns#"
   xmlns:cc="http://creativecommons.org/ns#"
   xmlns:dc="http://purl.org/dc/elements/1.1/">
  <defs
     id="defs1927" />
  <sodipodi:namedview
     id="base"
     pagecolor="#ffffff"
     bordercolor="#666666"
     borderopacity="1.0"
     inkscape:pageopacity="0.0"
     inkscape:pageshadow="2"
     inkscape:zoom="1.4"
     inkscape:cx="732.5"
     inkscape:cy="269.28571"
     inkscape:document-units="px"
     inkscape:current-layer="layer1"
     inkscape:window-width="3840"
     inkscape:window-height="2071"
     inkscape:window-x="2391"
     inkscape:window-y="-9"
     inkscape:pagecheckerboard="0"
     showgrid="false"
     inkscape:window-maximized="1"
     inkscape:showpageshadow="2"
     inkscape:deskcolor="#d1d1d1" />
  <metadata
     id="metadata1930">
    <rdf:RDF>
      <cc:Work
         rdf:about="">
        <dc:format>image/svg+xml</dc:format>
        <dc:type
           rdf:resource="http://purl.org/dc/dcmitype/StillImage" />
      </cc:Work>
    </rdf:RDF>
  </metadata>
  <g
     inkscape:label="Ebene 1"
     inkscape:groupmode="layer"
     id="layer1"
     transform="translate(486.0612,-508.1447)">
    <g
       id="g2100"
       transform="matrix(0.29584077,0,0,0.29584077,-325.91145,373.81477)">
      <g
         transform="translate(0,-11.54035)"
         id="g2096">
        <path
           id="path14"
           class="ps01"
           d="m 1193.3294,768.12451 v -4.68828 h 3.0128 c 1.6945,0 3.954,0.13169 3.954,2.12767 0,2.16522 -1.3179,2.56061 -3.2008,2.56061 z m 0,3.29532 h 2.0713 l 4.5189,8.19055 h 5.0839 l -5.0839,-8.52953 c 2.6363,-0.18843 4.8957,-1.46857 4.8957,-5.06498 0,-4.46263 -3.0128,-5.89365 -8.2849,-5.89365 h -7.5315 v 19.48816 h 4.3305 z m 21.8419,-1.52515 c 0,-11.44815 -8.8497,-18.09486 -18.8291,-18.09486 -9.9795,0 -18.8292,6.64671 -18.8292,18.09486 0,11.44798 8.8497,18.11355 18.8292,18.11355 9.9794,0 18.8291,-6.66557 18.8291,-18.11355 m -5.2721,0 c 0,8.3411 -6.2136,13.93349 -13.557,13.93349 v -0.0566 c -7.3433,0.0566 -13.3687,-5.53581 -13.3687,-13.87691 0,-8.34144 6.0254,-13.9148 13.3687,-13.9148 7.3434,0 13.557,5.57336 13.557,13.9148"
           style="fill:#000000;fill-rule:nonzero;stroke:none" />
        <path
           id="path16"
           class="ps01"
           d="m 525.00972,576.14323 0.0188,205.46314 H 583.0598 V 576.14323 Z M 68.5361,575.86084 v 205.74553 h 58.53952 v -156.225 l 45.35937,0.0188 c 15.02557,0 25.72044,3.74694 32.96979,11.46686 9.1697,9.77235 12.91664,25.55109 12.91664,54.39719 v 90.34211 h 56.71316 v -113.6712 c 0,-81.13472 -51.70463,-92.07429 -102.29837,-92.07429 z m 549.90351,0.30123 v 205.4443 h 94.10788 c 50.14181,0 66.50436,-8.34144 84.22251,-27.03865 12.50258,-13.12401 20.58023,-41.9324 20.58023,-73.43355 0,-28.86494 -6.8351,-54.6419 -18.77272,-70.68438 -21.50273,-28.6954 -52.47663,-34.28772 -98.70195,-34.28772 z m 57.5605,44.71903 h 24.94866 c 36.18944,0 59.5941,16.26835 59.5941,58.42669 0,42.19602 -23.40466,58.44555 -59.5941,58.44555 H 676.00011 Z M 441.35199,576.16207 392.9237,738.97723 346.50998,576.16207 h -62.62554 l 66.25945,205.4443 h 83.63889 l 66.78674,-205.4443 z m 402.99913,205.4443 H 902.3824 V 576.16207 H 844.35112 Z M 1007.0156,576.21858 925.9941,781.53109 h 57.22161 l 12.82265,-36.28368 h 95.80234 l 12.2389,36.28368 h 62.1359 l -81.7181,-205.31251 z m 37.6771,37.46988 35.0974,96.17896 h -71.3622 z"
           style="fill:#000000;fill-rule:nonzero;stroke:none" />
      </g>
      <path
         d="m -303.08679,604.97678 v -29.31802 c 2.84015,-0.20126 5.71374,-0.35776 8.64339,-0.44726 80.17151,-2.51584 132.75808,68.88934 132.75808,68.88934 0,0 -56.80205,78.89687 -117.70781,78.89687 -8.76633,0 -16.62685,-1.42007 -23.69366,-3.79059 v -88.88191 c 31.20761,3.76822 37.48048,17.55504 56.24303,48.82977 l 41.72952,-35.18827 c 0,0 -30.45854,-39.95156 -81.80403,-39.95156 -5.5908,0 -10.93548,0.39131 -16.16852,0.96163 m 0,-96.83204 v 43.78691 c 2.87371,-0.23481 5.75849,-0.41369 8.64339,-0.51438 111.49087,-3.75703 184.11487,91.42012 184.11487,91.42012 0,0 -83.42535,101.4499 -170.33924,101.4499 -7.96132,0 -15.41933,-0.738 -22.41902,-1.97908 v 27.07044 c 5.98212,0.76026 12.19905,1.20752 18.67317,1.20752 80.87596,0 139.36645,-41.30452 196.011987,-90.19011 9.38128,7.52514 47.82339,25.80699 55.73996,33.82413 -53.86144,45.08393 -179.362757,81.42378 -250.510747,81.42378 -6.85437,0 -13.45144,-0.41369 -19.91437,-1.03983 v 38.03949 H 4.3154971 V 508.14474 Z m 0,211.06238 v 23.10109 c -74.81553,-13.32838 -95.57954,-91.09593 -95.57954,-91.09593 0,0 35.92616,-39.79494 95.57954,-46.2355 v 25.34843 c -0.0558,0 -0.0782,-0.0112 -0.12294,-0.0112 -31.29711,-3.75691 -55.76222,25.48268 -55.76222,25.48268 0,0 13.70851,49.24347 55.88516,63.41042 m -132.86995,-71.36043 c 0,0 44.33473,-65.42306 132.86995,-72.18793 v -23.72711 c -98.06193,7.86064 -182.97437,90.90574 -182.97437,90.90574 0,0 48.09177,139.04213 182.97437,151.76675 V 769.37865 C -402.06561,756.92241 -435.95674,647.84669 -435.95674,647.84669"
         style="fill:#77b900;fill-opacity:1;fill-rule:nonzero;stroke:none"
         id="path2045" />
    </g>
  </g>
</svg>
