<?xml version="1.0" encoding="UTF-8" standalone="no"?>
<!-- Created with Inkscape (http://www.inkscape.org/) -->

<svg
   width="642"
   height="128"
   id="svg24499"
   sodipodi:version="0.32"
   inkscape:version="1.2.2 (732a01da63, 2022-12-09)"
   version="1.0"
   sodipodi:docname="Panasonic.MAT.MDO.PLF.MEI.svg"
   xmlns:inkscape="http://www.inkscape.org/namespaces/inkscape"
   xmlns:sodipodi="http://sodipodi.sourceforge.net/DTD/sodipodi-0.dtd"
   xmlns="http://www.w3.org/2000/svg"
   xmlns:svg="http://www.w3.org/2000/svg"
   xmlns:rdf="http://www.w3.org/1999/02/22-rdf-syntax-ns#"
   xmlns:cc="http://creativecommons.org/ns#"
   xmlns:dc="http://purl.org/dc/elements/1.1/">
  <defs
     id="defs24501" />
  <sodipodi:namedview
     id="base"
     pagecolor="#ffffff"
     bordercolor="#666666"
     borderopacity="1.0"
     inkscape:pageopacity="0.0"
     inkscape:pageshadow="2"
     inkscape:zoom="1.979899"
     inkscape:cx="384.61558"
     inkscape:cy="177.53431"
     inkscape:document-units="px"
     inkscape:current-layer="layer1"
     inkscape:window-width="2400"
     inkscape:window-height="1350"
     inkscape:window-x="2858"
     inkscape:window-y="444"
     width="212.42809mm"
     height="37.5mm"
     units="mm"
     inkscape:pagecheckerboard="0"
     showgrid="false"
     inkscape:window-maximized="0"
     inkscape:showpageshadow="2"
     inkscape:deskcolor="#d1d1d1" />
  <metadata
     id="metadata24504">
    <rdf:RDF>
      <cc:Work
         rdf:about="">
        <dc:format>image/svg+xml</dc:format>
        <dc:type
           rdf:resource="http://purl.org/dc/dcmitype/StillImage" />
      </cc:Work>
    </rdf:RDF>
  </metadata>
  <g
     inkscape:label="Ebene 1"
     inkscape:groupmode="layer"
     id="layer1"
     transform="translate(374.9204,-408.833)">
    <g
       id="g24516"
       transform="matrix(0.80877869,0,0,0.80877869,-55.075797,94.177606)"
       style="fill:#000000">
      <path
         style="font-size:3.4942px;font-family:fnt1, FranklinGothic, Arial;letter-spacing:0;word-spacing:0.10098;fill:#000000;fill-rule:nonzero;stroke:none;stroke-width:0.011;stroke-linecap:butt;stroke-linejoin:miter;stroke-miterlimit:4;stroke-dasharray:none"
         d="M -374.9204,524.95104 V 409.59078 h 48.38252 c 16.3218,0.17485 32.06069,1.03467 42.99051,15.70973 3.06033,4.13874 7.28649,11.7459 7.28649,24.51188 0,16.0595 -6.99503,25.72144 -11.80413,30.2245 -8.59812,8.61269 -20.11082,9.48706 -31.47781,10.01168 h -21.13092 v 34.90247 z m 47.36241,-61.6586 c 5.68347,-0.14571 12.09562,-0.45175 16.17609,-4.60506 1.16582,-1.22414 3.06033,-3.68699 3.06033,-7.69456 -0.14574,-3.97844 -1.89451,-6.45589 -2.91459,-7.68 -4.95484,-5.37746 -12.97002,-4.76542 -19.5279,-4.76542 h -9.47251 v 24.74504 h 12.67858"
         class="ps023 ps14 ps23"
         id="path23367" />
      <path
         style="font-size:3.4942px;font-family:fnt1, FranklinGothic, Arial;letter-spacing:0;word-spacing:0.10098;fill:#000000;fill-rule:nonzero;stroke:none;stroke-width:0.011;stroke-linecap:butt;stroke-linejoin:miter;stroke-miterlimit:4;stroke-dasharray:none"
         d="m -220.73755,525.08218 -1.31157,-7.68001 c -4.3719,3.42469 -12.38708,10.12829 -26.81442,10.12829 -2.4774,0 -13.26145,-0.33519 -20.69373,-6.52875 -3.20608,-2.78343 -8.7438,-9.48704 -8.7438,-20.57713 0,-2.62313 0.72862,-7.08248 4.95481,-12.63481 5.97495,-8.00062 13.11573,-10.17201 22.29678,-12.31423 l 15.44741,-1.92364 c 1.74876,-0.49552 3.64327,-0.9764 5.68352,-1.29702 0.43719,-0.17487 2.91459,-0.51006 4.22616,-1.48646 1.31156,-0.97638 2.3317,-4.73623 2.3317,-6.54331 0,-3.26432 -4.22621,-5.93119 -10.78407,-5.93119 -5.82921,0 -8.59809,2.11307 -10.05537,4.24071 -0.72868,1.13672 -1.02014,2.11312 -1.16588,4.73626 l -29.29182,-0.17488 c 1.31157,-6.68902 2.62316,-12.08106 7.43226,-17.63337 5.97495,-6.7036 15.44743,-10.94437 33.9552,-10.94437 3.49753,0 17.77911,-1.47186 28.27171,5.55233 4.22618,2.78346 6.99506,6.0624 8.88956,10.46346 3.20608,6.8639 2.33171,15.17053 2.33171,22.36963 v 23.02543 c -0.14574,14.36901 0.87437,16.97759 3.4975,25.15306 z m -3.06034,-37.04469 c -4.22621,1.47186 -8.59811,2.78343 -12.97001,4.25531 l -3.20607,0.9764 c -1.60303,0.32062 -6.55787,1.39902 -6.55787,7.60714 0,2.78345 1.60303,7.84032 8.01517,7.84032 0.87437,0 4.8091,-0.37891 6.84935,-1.03469 5.82918,-1.63218 6.26641,-5.4212 7.86943,-7.06793 v -12.57655"
         class="ps023 ps14 ps23"
         id="path23369" />
      <path
         style="font-size:3.4942px;font-family:fnt1, FranklinGothic, Arial;letter-spacing:0;word-spacing:0.10098;fill:#000000;fill-rule:nonzero;stroke:none;stroke-width:0.011;stroke-linecap:butt;stroke-linejoin:miter;stroke-miterlimit:4;stroke-dasharray:none"
         d="m -132.5706,525.16963 v -40.86284 c 0,4.86739 1.31157,-15.9575 -3.06033,-18.0123 -1.45731,-0.71408 -4.22621,-2.12767 -7.578,-2.05478 -3.78899,0.0729 -8.01518,1.90906 -9.47249,5.27543 -1.60305,4.1096 -2.18593,7.88401 -2.04024,16.43841 v 39.24521 h -31.47776 v -84.58198 h 29.72899 l 0.4372,9.82223 c 4.08047,-4.99852 8.88957,-11.45441 26.37722,-11.45441 12.8243,0 22.58824,4.47393 26.52297,17.45852 0.87437,3.27895 1.31156,6.45586 1.60302,13.18863 v 55.53788 h -31.04058"
         class="ps023 ps14 ps23"
         id="path23371" />
      <path
         style="font-size:3.4942px;font-family:fnt1, FranklinGothic, Arial;letter-spacing:0;word-spacing:0.10098;fill:#000000;fill-rule:nonzero;stroke:none;stroke-width:0.011;stroke-linecap:butt;stroke-linejoin:miter;stroke-miterlimit:4;stroke-dasharray:none"
         d="m 42.305975,465.05581 c -0.582913,-3.22065 -2.914617,-8.55439 -10.929791,-8.55439 -3.497531,0 -6.120666,0.94724 -7.432234,1.76334 -0.72868,0.30604 -1.894506,2.4191 -1.894506,4.83826 0,0.6412 0.582913,2.56484 2.477394,3.70154 1.165877,0.6558 3.934754,1.45728 7.140803,1.82163 l 12.3871,3.22063 c 8.743827,2.21512 16.321802,3.77446 22.442469,9.89512 3.060384,2.90002 4.663408,6.65987 5.100581,8.19005 1.457309,4.3719 0.728654,7.79656 0.728654,9.25387 0,9.96797 -4.809099,15.97208 -7.578,18.55148 -5.974926,5.47949 -15.447408,9.61825 -32.789322,9.61825 -14.427322,0 -23.462631,-3.78901 -28.8546685,-6.92222 -11.512704,-6.67447 -12.0956175,-18.95952 -12.8242719,-22.8214 l 30.0204954,-0.102 c 0.291457,2.90004 0.728629,5.07142 3.060333,7.15535 1.894507,1.77793 3.934704,3.00207 9.326741,3.00207 6.412149,0 10.055421,-3.08949 10.201137,-5.9021 0.14574,-0.33517 0.14574,-2.59398 -0.728655,-3.71612 -1.457309,-2.4191 -5.392012,-3.43924 -11.075506,-4.89655 0,0 -17.487655,-3.75985 -18.799223,-4.38648 -3.9347287,-1.80703 -19.8193592,-5.37746 -19.8193592,-23.09828 0,-9.96797 5.1005808,-15.28714 8.01517311,-18.02685 C 5.8733564,442.96304 14.7629,438.6203 30.647555,438.6203 c 3.497506,0 18.362025,-0.16032 29.437532,7.41768 3.060333,2.08393 5.537753,4.66336 7.432259,7.72369 2.623136,4.34277 3.060334,9.53077 3.351816,11.29414 H 42.305975"
         class="ps023 ps14 ps23"
         id="path23373" />
      <path
         style="font-size:3.4942px;font-family:fnt1, FranklinGothic, Arial;letter-spacing:0;word-spacing:0.10098;fill:#000000;fill-rule:nonzero;stroke:none;stroke-width:0.011;stroke-linecap:butt;stroke-linejoin:miter;stroke-miterlimit:4;stroke-dasharray:none"
         d="m 150.58372,515.49311 c -5.10056,5.17343 -15.59317,11.96448 -32.93509,11.96448 -5.53778,0 -20.839443,-0.32061 -32.06069,-13.58211 -4.663408,-5.65431 -10.346877,-15.03937 -10.346877,-31.87121 0,-2.91464 0,-9.54535 2.768876,-16.81732 6.266433,-18.43489 23.316891,-26.84355 41.241721,-26.68326 4.80912,0 19.81936,0.48091 30.60341,11.48357 5.39203,5.49404 12.24138,15.52031 12.09564,33.31397 0,4.35735 -0.29146,20.86861 -11.36699,32.19188 z m -23.31686,-51.06397 c -2.76888,-2.59398 -6.99509,-3.11863 -8.4524,-3.11863 -3.64322,0 -6.26641,2.11312 -7.14078,2.7543 -3.78899,3.07494 -6.55786,7.75288 -6.55786,18.26005 0,8.24834 1.8945,22.04901 13.55292,22.04901 3.35179,0 6.55787,-0.87437 8.59812,-3.2935 2.76885,-3.07491 5.68349,-8.62727 5.53775,-18.33292 0,-0.48091 0.14574,-12.50366 -5.53775,-18.31831"
         class="ps023"
         id="path23381" />
      <path
         style="font-size:3.4942px;font-family:fnt1, FranklinGothic, Arial;letter-spacing:0;word-spacing:0.10098;fill:#000000;fill-rule:nonzero;stroke:none;stroke-width:0.011;stroke-linecap:butt;stroke-linejoin:miter;stroke-miterlimit:4;stroke-dasharray:none"
         d="m 257.40416,440.33991 h 30.89486 v 84.97543 h -30.89486 z m 0,-31.50694 h 30.89486 v 22.10733 h -30.89486 z"
         class="ps023"
         id="path23383" />
      <path
         style="font-size:3.4942px;font-family:fnt1, FranklinGothic, Arial;letter-spacing:0;word-spacing:0.10098;fill:#000000;fill-rule:nonzero;stroke:none;stroke-width:0.011;stroke-linecap:butt;stroke-linejoin:miter;stroke-miterlimit:4;stroke-dasharray:none"
         d="m 347.75706,472.8378 c -2.3317,-10.20114 -7.2865,-10.71118 -12.82428,-10.71118 -4.51764,0 -5.97496,1.53015 -7.43224,2.79801 -3.93475,3.35181 -5.24632,7.50513 -5.24632,17.86656 0,0.78697 -0.43719,14.63135 7.1408,19.8922 2.18595,1.44276 3.20607,1.53018 5.82922,1.53018 0.87438,0 3.49752,0.0874 5.82922,-1.02013 3.06033,-1.42815 6.26641,-4.05129 6.84934,-11.2358 l 29.87474,-0.24772 c -0.29145,1.92361 -1.45731,8.70009 -4.3719,14.28158 -7.43225,14.82078 -22.58825,20.99974 -37.88992,20.99974 -6.26641,0 -10.63835,-0.94722 -13.2615,-1.42815 -12.09564,-3.0312 -22.73395,-11.48358 -27.39731,-23.59377 -1.31157,-3.65783 -3.06036,-9.23932 -3.06036,-18.49319 0,-3.81812 0.14574,-13.69869 5.53776,-23.57919 0.72865,-1.58847 3.2061,-5.58146 6.7036,-9.23934 11.36699,-11.16293 28.27173,-11.48354 32.35219,-11.48354 15.73887,0 25.50283,5.90208 30.31193,10.36145 1.45732,1.44271 4.37191,5.29001 6.70361,10.55086 1.8945,4.29906 2.91459,8.13178 3.64326,12.75143 h -29.29184"
         class="ps023"
         id="path23385" />
      <path
         style="font-size:3.4942px;font-family:fnt1, FranklinGothic, Arial;letter-spacing:0;word-spacing:0.10098;fill:#000000;fill-rule:nonzero;stroke:none;stroke-width:0.011;stroke-linecap:butt;stroke-linejoin:miter;stroke-miterlimit:4;stroke-dasharray:none"
         d="m -12.63441,500.38087 v -22.98172 c 0,-7.18451 0,-16.84642 -3.060358,-23.69577 -2.040222,-4.41564 -3.497531,-6.8639 -7.723691,-9.63278 -10.492619,-7.02419 -25.940026,-5.69807 -29.437582,-5.69807 -18.507766,0 -27.980248,4.88199 -33.955199,11.5856 -4.809099,5.55233 -5.82921,10.98806 -7.140803,17.69166 h 29.291841 c 0.145741,-2.62316 0.582938,-3.59953 1.165827,-4.75081 1.603049,-2.11311 3.934728,-4.77996 9.763938,-4.77996 6.55789,0 10.784075,3.33724 10.784075,6.6016 0,1.79245 -0.145716,4.72165 -1.457283,5.69805 -1.311568,0.99095 -4.663409,2.15683 -5.246322,2.31712 -1.457284,0.24775 -3.35179,0.68492 -5.683494,1.29699 l -15.301692,1.93822 c -9.181025,2.12767 -16.321803,3.99302 -22.296779,11.99362 -4.371901,5.55233 -4.371901,10.62375 -4.371901,13.23233 0,11.10467 4.809099,17.51679 8.015173,20.30025 7.43226,6.19356 18.070594,5.96039 20.693754,5.96039 14.427297,0 22.005272,-6.3393 26.522914,-9.76394 l 1.311568,8.01518 h 31.6235453 c -1.7487653,-5.55234 -3.6432723,-8.4524 -3.4975313,-25.32796 z m -38.618582,7.79656 c -2.040247,0.65581 -5.537778,0.51007 -6.412148,0.46634 -5.246297,-0.34975 -8.015173,-5.12972 -8.015173,-7.91317 0,-6.20812 4.95484,-7.21365 6.557889,-7.53424 l 3.35179,-0.93269 c 4.226186,-1.47186 8.598087,-2.71058 12.824272,-4.18247 l 0.145741,10.79863 c -1.311593,2.4337 -2.768902,7.66542 -8.452371,9.2976"
         class="ps023"
         id="path23387" />
      <path
         style="font-size:3.4942px;font-family:fnt1, FranklinGothic, Arial;letter-spacing:0;word-spacing:0.10098;fill:#000000;fill-rule:nonzero;stroke:none;stroke-width:0.011;stroke-linecap:butt;stroke-linejoin:miter;stroke-miterlimit:4;stroke-dasharray:none"
         d="m 220.09717,525.00933 v -41.12516 c 0,4.86739 1.45731,-15.69518 -2.91462,-17.76456 -1.45728,-0.68491 -4.22619,-2.11309 -7.43226,-2.04019 -3.78899,0.0728 -8.16091,1.90906 -9.47248,5.27543 -1.74877,4.1096 -2.62314,6.90761 -2.4774,15.44743 l -0.29148,40.36735 -30.74912,-0.13119 v -84.58198 h 29.5833 l 0.43717,9.82229 c 4.08047,-4.99858 8.88957,-11.45447 26.52296,-11.45447 12.67853,0 22.44247,5.39204 26.37723,18.37666 0.87437,3.27892 1.02008,5.42114 1.45728,12.15391 v 55.68359 l -31.04058,-0.0291"
         class="ps023 ps14 ps23"
         id="path23389" />
    </g>
  </g>
</svg>
