<?xml version="1.0" encoding="UTF-8" standalone="no"?>
<!-- Created with Inkscape (http://www.inkscape.org/) -->

<svg
   width="523"
   height="128"
   viewBox="0 0 138.37708 33.866666"
   version="1.1"
   id="svg5"
   xml:space="preserve"
   inkscape:version="1.2.2 (732a01da63, 2022-12-09)"
   sodipodi:docname="ProXtend.svg"
   xmlns:inkscape="http://www.inkscape.org/namespaces/inkscape"
   xmlns:sodipodi="http://sodipodi.sourceforge.net/DTD/sodipodi-0.dtd"
   xmlns="http://www.w3.org/2000/svg"
   xmlns:svg="http://www.w3.org/2000/svg"><sodipodi:namedview
     id="namedview7"
     pagecolor="#ffffff"
     bordercolor="#000000"
     borderopacity="0.25"
     inkscape:showpageshadow="2"
     inkscape:pageopacity="0.0"
     inkscape:pagecheckerboard="0"
     inkscape:deskcolor="#d1d1d1"
     inkscape:document-units="mm"
     showgrid="false"
     showguides="false"
     inkscape:lockguides="true"
     inkscape:zoom="1.8217523"
     inkscape:cx="565.93863"
     inkscape:cy="270.06965"
     inkscape:window-width="3840"
     inkscape:window-height="2071"
     inkscape:window-x="2391"
     inkscape:window-y="-9"
     inkscape:window-maximized="1"
     inkscape:current-layer="layer1"><sodipodi:guide
       position="51.921735,160.04281"
       orientation="0,-1"
       id="guide248"
       inkscape:locked="true" /><sodipodi:guide
       position="129.44125,141.92466"
       orientation="0,-1"
       id="guide250"
       inkscape:locked="true" /><sodipodi:guide
       position="137.64706,142.30591"
       orientation="0,-1"
       id="guide252"
       inkscape:locked="true" /><sodipodi:guide
       position="126.50023,150.22125"
       orientation="0,-1"
       id="guide254"
       inkscape:locked="true" /><sodipodi:guide
       position="124.79371,152.79918"
       orientation="0,-1"
       id="guide256"
       inkscape:locked="true" /><sodipodi:guide
       position="171.22173,155.97122"
       orientation="1,0"
       id="guide258"
       inkscape:locked="true" /><sodipodi:guide
       position="167.7557,157.04954"
       orientation="1,0"
       id="guide260"
       inkscape:locked="true" /><sodipodi:guide
       position="103.62137,149.32158"
       orientation="1,0"
       id="guide262"
       inkscape:locked="true" /><sodipodi:guide
       position="107.38907,154.98275"
       orientation="1,0"
       id="guide264"
       inkscape:locked="true" /><sodipodi:guide
       position="110.54246,159.53448"
       orientation="0,-1"
       id="guide266"
       inkscape:locked="true" /><sodipodi:guide
       position="110.1703,156.69331"
       orientation="0,-1"
       id="guide268"
       inkscape:locked="true" /><sodipodi:guide
       position="133.83463,147.15315"
       orientation="1,0"
       id="guide270"
       inkscape:locked="true" /><sodipodi:guide
       position="137.61075,146.02757"
       orientation="1,0"
       id="guide272"
       inkscape:locked="true" /><sodipodi:guide
       position="147.08738,145.30139"
       orientation="1,0"
       id="guide274"
       inkscape:locked="true" /><sodipodi:guide
       position="150.4278,144.06689"
       orientation="1,0"
       id="guide276"
       inkscape:locked="true" /><sodipodi:guide
       position="98.941768,166.65103"
       orientation="0,-1"
       id="guide278"
       inkscape:locked="true" /><sodipodi:guide
       position="98.433443,135.78846"
       orientation="0,-1"
       id="guide280"
       inkscape:locked="true" /><sodipodi:guide
       position="71.855324,165.05344"
       orientation="0,-1"
       id="guide282"
       inkscape:locked="true" /><sodipodi:guide
       position="72.508884,137.20451"
       orientation="0,-1"
       id="guide284"
       inkscape:locked="true" /><sodipodi:guide
       position="88.92051,151.25605"
       orientation="0,-1"
       id="guide286"
       inkscape:locked="true" /><sodipodi:guide
       position="113.22355,156.69331"
       orientation="1,0"
       id="guide288"
       inkscape:locked="true" /><sodipodi:guide
       position="100.54045,155.17532"
       orientation="1,0"
       id="guide290"
       inkscape:locked="true" /><sodipodi:guide
       position="107.38907,162.8776"
       orientation="0,-1"
       id="guide292"
       inkscape:locked="true" /><sodipodi:guide
       position="31.168568,145.111"
       orientation="1,0"
       id="guide294"
       inkscape:locked="true" /><sodipodi:guide
       position="34.762966,143.46785"
       orientation="1,0"
       id="guide296"
       inkscape:locked="true" /><sodipodi:guide
       position="17.971991,178.28216"
       orientation="0,-1"
       id="guide300"
       inkscape:locked="true" /><sodipodi:guide
       position="19.443419,165.79777"
       orientation="0,-1"
       id="guide302"
       inkscape:locked="true" /><sodipodi:guide
       position="19.062175,150.6388"
       orientation="0,-1"
       id="guide304"
       inkscape:locked="true" /><sodipodi:guide
       position="41.918631,147.33469"
       orientation="1,0"
       id="guide308"
       inkscape:locked="true" /><sodipodi:guide
       position="60.436173,146.37251"
       orientation="1,0"
       id="guide310"
       inkscape:locked="true" /><sodipodi:guide
       position="14.106011,162.31212"
       orientation="0,-1"
       id="guide1084"
       inkscape:locked="true" /><sodipodi:guide
       position="16.411625,154.06999"
       orientation="0,-1"
       id="guide1086"
       inkscape:locked="true" /><sodipodi:guide
       position="41.918632,159.8705"
       orientation="0,-1"
       id="guide1150"
       inkscape:locked="true" /><sodipodi:guide
       position="42.499572,159.39231"
       orientation="1,0"
       id="guide1152"
       inkscape:locked="true" /><sodipodi:guide
       position="42.426952,156.24853"
       orientation="0,-1"
       id="guide1154"
       inkscape:locked="true" /><sodipodi:guide
       position="52.503889,165.79777"
       orientation="1,0"
       id="guide1353"
       inkscape:locked="true" /><sodipodi:guide
       position="56.406378,165.05344"
       orientation="1,0"
       id="guide1355"
       inkscape:locked="true" /><sodipodi:guide
       position="71.708245,151.25605"
       orientation="1,0"
       id="guide1357"
       inkscape:locked="true" /><sodipodi:guide
       position="89.705911,151.25605"
       orientation="1,0"
       id="guide1359"
       inkscape:locked="true" /><sodipodi:guide
       position="87.523598,151.25605"
       orientation="1,0"
       id="guide1361"
       inkscape:locked="true" /><sodipodi:guide
       position="92.006766,152.79918"
       orientation="1,0"
       id="guide1392"
       inkscape:locked="true" /></sodipodi:namedview><defs
     id="defs2" /><g
     inkscape:label="Calque 1"
     inkscape:groupmode="layer"
     id="layer1"><g
       id="g1404"
       transform="matrix(0.80873536,0,0,0.80873536,-4.1649209,-100.74414)"><path
         style="opacity:1;fill:#000000;stroke-width:1.05833;stroke-linecap:round;stroke-linejoin:round"
         d="m 81.894735,156.49138 5.192173,4.71998 20.302162,1.8e-4 -15.382304,-13.85185 z"
         id="path1368-9" /><path
         id="path364"
         style="opacity:1;fill:#000000;stroke-width:1.05833;stroke-linecap:round;stroke-linejoin:round"
         d="m 51.177238,136.95701 a 9.25877,9.0590754 0 0 0 -9.25835,9.0594 9.25877,9.0590754 0 0 0 9.25835,9.05888 9.25877,9.0590754 0 0 0 9.258866,-9.05888 9.25877,9.0590754 0 0 0 -9.258866,-9.0594 z m 0,3.23185 a 5.7549629,5.8275838 0 0 1 5.755204,5.82755 5.7549629,5.8275838 0 0 1 -5.755204,5.82755 5.7549629,5.8275838 0 0 1 -5.754688,-5.82755 5.7549629,5.8275838 0 0 1 5.754688,-5.82755 z" /><path
         id="path974"
         style="opacity:1;fill:#000000;stroke-width:1.16412;stroke-linecap:round;stroke-linejoin:round"
         d="m 10.115662,131.20233 v 23.49159 h 3.990454 v -8.33283 h 7.533907 a 7.5340972,7.5794845 0 0 0 7.534424,-7.57938 7.5340972,7.5794845 0 0 0 -7.534424,-7.57938 h -7.533907 z m 11.195182,3.45818 a 4.1209998,4.1209998 0 0 1 4.120679,4.1212 4.1209998,4.1209998 0 0 1 -4.120679,4.1212 h -5.990849 a 7.5340972,7.5794845 0 0 0 0.0155,0.0222 l -1.229382,0.005 v -8.24188 l 1.199926,-0.005 a 7.5340972,7.5794845 0 0 0 -0.0031,0.005 h 5.558317 a 4.1209998,4.1209998 0 0 1 0.449585,-0.0274 z" /><path
         style="opacity:1;fill:#000000;stroke-width:1.05833;stroke-linecap:round;stroke-linejoin:round"
         d="m 31.168567,137.46552 h 3.594399 v 3.28595 c 1.909138,-2.85738 4.651272,-3.66246 7.736606,-3.62197 v 3.62197 c -5.306345,-0.16874 -7.531105,2.49311 -7.736606,8.92205 l -3e-6,5.02057 h -3.594399 z"
         id="path1148"
         sodipodi:nodetypes="ccccccccc" /><path
         style="opacity:1;fill:#000000;stroke-width:1.05833;stroke-linecap:round;stroke-linejoin:round"
         d="m 100.54045,140.30669 6.84862,-6.18429 v 3.34312 h 5.83448 v 2.84117 h -5.83448 v 6.47206 c 0,4.50793 1.41006,5.75756 5.83448,4.05761 l 1.02697,2.87552 c -5.31988,3.21397 -10.62915,0.63429 -10.62915,-5.44295 v -7.96224 z"
         id="path1319"
         sodipodi:nodetypes="cccccccccccc" /><path
         id="path1321"
         style="opacity:1;fill:#000000;stroke-width:1.06426;stroke-linecap:round;stroke-linejoin:round"
         d="m 122.85142,136.95701 a 8.986455,9.0727119 0 0 0 -8.98654,9.07284 8.986455,9.0727119 0 0 0 8.98654,9.07283 8.986455,9.0727119 0 0 0 8.26874,-5.52111 l -3.50211,-0.76998 a 5.4191041,5.8865519 0 0 1 -4.76663,3.10472 5.4191041,5.8865519 0 0 1 -5.3697,-5.13767 h 0.88935 9.84953 a 5.4191041,5.8865519 0 0 1 0,5.1e-4 l 3.58582,5.2e-4 a 8.986455,9.0727119 0 0 0 0.031,-0.74982 8.986455,9.0727119 0 0 0 -8.98601,-9.07284 z m 0,3.18637 a 5.4191041,5.8865519 0 0 1 5.1449,4.05764 h -10.29033 a 5.4191041,5.8865519 0 0 1 5.14543,-4.05764 z" /><path
         id="path1332"
         style="opacity:1;fill:#000000;stroke-width:1.07357;stroke-linecap:round;stroke-linejoin:round"
         d="m 142.13138,136.95701 a 8.2965851,7.2436237 0 0 0 -8.29666,7.24401 v 10.51202 l 3.81218,-0.0191 -0.0362,-9.78959 a 4.7383151,4.5976157 0 0 1 4.73821,-4.59765 4.7383151,4.5976157 0 0 1 4.73822,4.59765 v 5.10564 4.63899 l 3.41529,0.0641 -0.0744,-10.51202 a 8.2965851,7.2436237 0 0 0 -8.29665,-7.24401 z" /><path
         id="path1345"
         style="opacity:1;fill:#000000;stroke-width:1.0619;stroke-linecap:round;stroke-linejoin:round"
         d="m 167.75565,129.80448 v 9.70948 a 8.7686014,9.1204367 0 0 0 -6.1991,-2.67942 8.7686014,9.1204367 0 0 0 -8.76846,9.12038 8.7686014,9.1204367 0 0 0 8.76846,9.12037 8.7686014,9.1204367 0 0 0 6.1991,-2.67942 v 2.31717 h 3.53157 v -24.90856 z m -5.72885,10.25209 a 5.5878716,5.9028172 0 0 1 5.58778,5.90248 5.5878716,5.9028172 0 0 1 -5.58778,5.903 5.5878716,5.9028172 0 0 1 -5.58829,-5.903 5.5878716,5.9028172 0 0 1 5.58829,-5.90248 z" /><path
         id="path1363"
         style="opacity:1;fill:#000000;stroke-width:1.05833;stroke-linecap:round;stroke-linejoin:round"
         d="m 52.503772,130.34915 17.099215,15.39493 -17.099215,15.46727 h 20.231323 l 16.971057,-15.46727 -17.20205,-15.39493 z m 3.902604,1.59732 H 71.708285 L 87.52334,145.74408 71.708285,159.79541 H 56.406376 l 15.301909,-14.05133 z" /><path
         style="opacity:1;fill:#000000;stroke-width:1.05833;stroke-linecap:round;stroke-linejoin:round"
         d="m 81.894737,135.06913 5.192173,-4.71998 20.30216,-1.8e-4 -15.382302,13.85185 z"
         id="path1368" /></g></g></svg>
