<?xml version="1.0" encoding="UTF-8" standalone="no"?>
<!-- Generator: Adobe Illustrator 25.2.0, SVG Export Plug-In . SVG Version: 6.00 Build 0)  -->

<svg
   version="1.1"
   id="Layer_1"
   x="0px"
   y="0px"
   viewBox="0 0 1153.2 545.3"
   style="enable-background:new 0 0 1153.2 545.3;"
   xml:space="preserve"
   sodipodi:docname="sharkgaming logo.svg"
   inkscape:version="1.2.2 (732a01da63, 2022-12-09)"
   xmlns:inkscape="http://www.inkscape.org/namespaces/inkscape"
   xmlns:sodipodi="http://sodipodi.sourceforge.net/DTD/sodipodi-0.dtd"
   xmlns="http://www.w3.org/2000/svg"
   xmlns:svg="http://www.w3.org/2000/svg"><defs
   id="defs77">
	
	

		
		
		
		
		
	</defs><sodipodi:namedview
   id="namedview75"
   pagecolor="#ffffff"
   bordercolor="#000000"
   borderopacity="0.25"
   inkscape:showpageshadow="2"
   inkscape:pageopacity="0.0"
   inkscape:pagecheckerboard="0"
   inkscape:deskcolor="#d1d1d1"
   showgrid="false"
   inkscape:zoom="1.3050642"
   inkscape:cx="563.5738"
   inkscape:cy="272.78351"
   inkscape:window-width="3840"
   inkscape:window-height="2071"
   inkscape:window-x="2391"
   inkscape:window-y="-9"
   inkscape:window-maximized="1"
   inkscape:current-layer="Layer_1" />
<style
   type="text/css"
   id="style2">
	.st0{fill:#FFFFFF;}
	.st1{fill:#255BEE;}
	.st2{enable-background:new    ;}
</style>
<g
   id="g487"><g
     id="Layer_1_copy">
			<g
   id="g6">
				<path
   class="st0"
   d="m 777.3,313.7 c 3.9,28.2 9.6,52.2 48.3,46.6 -16.7,-11.3 -29.5,-37.1 -48.3,-46.6 z"
   id="path4" />
			</g>
		</g><g
     id="g11">
			<path
   class="st1"
   d="m 809,269.5 c 0,0 5.2,38.3 44.5,80.6 -3.7,5.6 -18.4,10 -18.4,10 14.8,-0.6 29.1,-5.4 41.3,-13.9 0,0 -53.3,-31.4 -67.4,-76.7 z"
   id="path9" />
		</g><g
     id="g429"><g
       class="st2"
       id="g27"
       style="fill:#000000">
			<path
   class="st0"
   d="m 224.8,327.9 h -95 l 7,-22.9 h 64 l 3.6,-11.9 h -64 l 13.6,-43.9 -9,-13.7 h 108.2 l -7,23 h -64 l -3.7,11.8 h 64 z"
   id="path17"
   style="fill:#000000" />
			<path
   class="st0"
   d="m 272.7,249.3 -9,-13.7 h 44.2 l -10.7,34.7 h 33.2 L 341,235.6 h 31 l -28.3,92.3 h -31 l 10.6,-34.7 h -33.1 l -10.7,34.7 h -31 z"
   id="path19"
   style="fill:#000000" />
			<path
   class="st0"
   d="m 490.9,235.5 -28.3,92.3 h -31 l 9,-29.6 h -33.2 l -9,29.6 h -31 l 24.2,-78.5 -9.1,-13.8 z m -71.2,23 -5.1,16.9 h 33.2 l 5.1,-16.9 z"
   id="path21"
   style="fill:#000000" />
			<path
   class="st0"
   d="M 609.6,235.5 591,295.8 h -17 l 7.1,32 H 550 l -7.6,-32 H 527 l -9.9,32 h -31 l 24.2,-78.5 -9,-13.7 z m -71.2,23 -4.6,14.4 H 567 l 4.6,-14.4 z"
   id="path23"
   style="fill:#000000" />
			<path
   class="st0"
   d="m 629,249.3 -9,-13.7 h 44.2 l -10.6,34.7 h 16.1 l 22.1,-16.7 5.4,-18 h 31 l -9.1,29.9 -21.6,16.3 11.6,16.1 -9.1,29.9 h -31 l 5.4,-18 -11.4,-16.7 h -16.5 l -10.6,34.7 h -31 z"
   id="path25"
   style="fill:#000000" />
		</g><g
       class="st2"
       id="g41"
       style="fill:#000000">
			<path
   class="st0"
   d="M 95,446.4 H 0 l 24.1,-78.6 -9,-13.7 h 108.2 l -7,23 h -64 L 38,423.5 h 33 l 3.6,-11.9 H 59.2 l 7,-22.9 h 46.6 z"
   id="path29"
   style="fill:#000000" />
			<path
   class="st0"
   d="m 242.1,354.1 -28.3,92.3 h -31 l 9,-29.6 h -33.1 l -9,29.6 h -31 l 24.1,-78.6 -9,-13.7 z m -71.1,23 -5.1,16.9 h 33.2 l 5.1,-16.9 z"
   id="path31"
   style="fill:#000000" />
			<path
   class="st0"
   d="m 261.6,367.8 -9,-13.7 h 146.9 l -28.3,92.3 h -31 L 361.6,377 h -20.4 l -21.4,69.4 h -31 L 310.2,377 h -20.4 l -21.3,69.4 h -31 z"
   id="path33"
   style="fill:#000000" />
			<path
   class="st0"
   d="m 419,367.8 -9,-13.7 h 44.2 l -28.3,92.3 h -31 z"
   id="path35"
   style="fill:#000000" />
			<path
   class="st0"
   d="m 473.8,367.8 -9,-13.7 h 43.7 l 20.9,41.3 12.7,-41.3 h 31 l -28.3,92.3 h -30.6 l -20.9,-41.3 -12.7,41.3 h -31 z"
   id="path37"
   style="fill:#000000" />
			<path
   class="st0"
   d="m 663.5,446.4 h -95 l 24.1,-78.6 -9,-13.7 h 108.2 l -7,23 h -64 l -14.3,46.4 h 33 l 3.6,-11.9 h -15.4 l 7,-22.9 h 46.6 z"
   id="path39"
   style="fill:#000000" />
		</g></g><g
     id="g448"><g
       id="g15">
			<path
   class="st1"
   d="m 1109.9,328.4 c -33.1,-22.3 -68.1,-45.6 -97.6,-73.3 C 892.5,142.5 761.5,103.8 643.1,100.3 620.8,79 514.6,-18 448.4,3 c 0,0 49.2,-9.3 42,108.2 73,-3.6 108.8,8.6 108.8,8.6 -108.3,-12.9 -225.4,28.9 -294.4,60 108.3,-29.5 375.4,-56.7 566.1,95.7 76.1,60.8 173,119.8 266.4,85.3 0.3,0.2 0.3,0.2 0.5,0.2 -39.9,59.1 -117.6,102.3 -192.8,106.7 -4.1,-0.5 -8.2,-1.3 -12.3,-2.2 C 915,461.2 897.6,455.4 881,448 l -28.7,-12 c -6.6,-2.7 -13.2,-5.4 -19.9,-7.9 l -0.5,-0.2 c -11.7,-4.4 -23.6,-8 -35.8,-10.8 -22.1,-4.7 -40.4,-4.4 -56.9,0.7 -10.3,3.4 -18.4,12.7 -26.7,24 -6.2,10.5 -14,20 -23,28.2 -23.4,20.4 -51.7,25 -82.1,20.1 58.4,25.5 109.6,41.9 154.8,49.7 73.3,12.8 131.1,3.2 178.2,-26 -17.5,8.3 -38.5,17.5 -62.7,21.1 -45.1,6.9 -88.5,2.5 -124.3,-5.2 -30.4,-6.4 -60,-16.3 -88.2,-29.4 16.7,-3.9 29.4,-15.9 40,-28.9 14.6,-18.1 25.5,-38.5 37.7,-42.4 24.5,-7.9 52.6,-1.2 75.7,6.6 l 0.2,-0.2 v 0.2 c 2.9,1 6.1,2.2 8.8,3.2 l 0.5,0.3 c 11,4.1 22.8,9.1 33.8,13.7 3.9,1.7 7.8,3.4 11.7,4.9 v -0.2 c 0.5,0.2 1.2,0.7 1.7,1 22.8,9.6 45.9,18.1 68.6,20.8 89.5,-4.9 171.8,-58.6 209.3,-121.6 -14.2,-10 -29.1,-19.8 -43.3,-29.3 z M 825.5,210.3 c 32.8,5.6 202.7,122.2 128.2,24.7 26.3,19.9 92.4,77.7 121.3,92.9 -35.4,48.1 -241.4,-112 -249.5,-117.6 z"
   id="path13" />
		</g><g
       id="Layer_32"
       style="fill:#000000">
		<g
   id="g46"
   style="fill:#000000">
			<path
   class="st0"
   d="m 812.1,518.2 c -10.4,-16.4 -15.2,-35.7 -13.6,-55.1 -16.8,10.5 -40.2,47.9 -40.2,47.9 18,4.4 36.2,7.3 54.6,8.8 z"
   id="path44"
   style="fill:#000000" />
		</g>
		<g
   id="g50"
   style="fill:#000000">
			<path
   class="st0"
   d="m 948.7,494.4 c -12,-0.1 -23.9,-1.8 -35.5,-4.9 3.6,5.8 7.9,11.3 12.8,16.1 7.8,-3.2 15.4,-7 22.7,-11.2 z"
   id="path48"
   style="fill:#000000" />
		</g>
		<g
   id="g54"
   style="fill:#000000">
			<path
   class="st0"
   d="m 854.8,475.5 4.7,-3.3 c -20.1,-7.5 -36,-14.6 -40.1,-15.9 l -0.5,-0.2 c -2.6,-0.9 -4.9,-1.6 -7.5,-2.6 l -0.5,1.4 c -4.4,15.9 -1.9,35.5 6.5,52.6 11.4,-11.9 23.9,-22.7 37.4,-32 z"
   id="path52"
   style="fill:#000000" />
		</g>
		<g
   id="g58"
   style="fill:#000000">
			<path
   class="st0"
   d="m 734.8,456.8 v -1.9 c -11.9,9.6 -23.1,36.7 -34.6,40.6 13.3,4.7 28.7,8.2 40.9,11.4 l 5.6,1.4 -0.7,-1.2 c -10.5,-15.8 -10.9,-34.9 -11.2,-50.3 z"
   id="path56"
   style="fill:#000000" />
		</g>
		<g
   id="g62"
   style="fill:#000000">
			<path
   class="st0"
   d="m 801.2,450.3 c -18.9,-5.8 -35.5,-11.4 -53.7,-4.7 -1.4,3.7 -3.5,35.5 3.3,49.2 12.4,-17.7 32.4,-35.7 50.4,-44.5 z"
   id="path60"
   style="fill:#000000" />
		</g>
		<g
   id="g66"
   style="fill:#000000">
			<path
   class="st0"
   d="m 916.3,509.1 c -3.7,-3.9 -7,-8 -10,-12.4 -10.7,9.6 -18.9,13.8 -33.6,19.6 l -4.9,1.8 -2.3,-4.4 c -4.2,-8.3 -7.6,-17 -10,-25.9 -12.5,9.1 -24,19.6 -34.1,31.3 l -0.9,1.2 c 39.5,2.3 71.2,-2.8 95.8,-11.2 z"
   id="path64"
   style="fill:#000000" />
		</g>
		<g
   id="g70"
   style="fill:#000000">
			<path
   class="st0"
   d="m 902.2,486.4 c -13.3,-3.7 -27.1,-8.8 -39.5,-13.1 l 0.9,5.4 c 1.8,9.4 4.7,18.6 8.8,27.3 11.3,-4.3 21.4,-11 29.8,-19.6 z"
   id="path68"
   style="fill:#000000" />
		</g>
	</g></g></g>
</svg>
