<?xml version="1.0" encoding="UTF-8" standalone="no"?>
<svg
   viewBox="0 0 600 128"
   version="1.1"
   id="svg12"
   sodipodi:docname="Sony.SNY.SON.SER.svg"
   inkscape:version="1.2.2 (732a01da63, 2022-12-09)"
   width="600"
   height="128"
   xmlns:inkscape="http://www.inkscape.org/namespaces/inkscape"
   xmlns:sodipodi="http://sodipodi.sourceforge.net/DTD/sodipodi-0.dtd"
   xmlns="http://www.w3.org/2000/svg"
   xmlns:svg="http://www.w3.org/2000/svg">
  <defs
     id="defs16" />
  <sodipodi:namedview
     id="namedview14"
     pagecolor="#505050"
     bordercolor="#eeeeee"
     borderopacity="1"
     inkscape:pageshadow="0"
     inkscape:pageopacity="0"
     inkscape:pagecheckerboard="0"
     showgrid="false"
     inkscape:zoom="0.84207558"
     inkscape:cx="867.49933"
     inkscape:cy="149.63027"
     inkscape:window-width="3840"
     inkscape:window-height="2071"
     inkscape:window-x="2391"
     inkscape:window-y="-9"
     inkscape:window-maximized="1"
     inkscape:current-layer="svg12"
     inkscape:showpageshadow="2"
     inkscape:deskcolor="#505050" />
  <g
     fill="#000000"
     transform="matrix(0.3199986,0,0,0.3199986,233.20989,-85.327557)"
     id="g10">
    <path
       d="m -366.55,330.09 h 34.06 v 90.09 h -34.06 c -16.96,-55.85 -101.35,-64.21 -154.25,-64.21 -46.28,0 -80.85,12.17 -80.85,35.67 0,27.17 65.1,27.93 117.74,35.06 67.77,9.18 166.63,7.61 166.63,96.19 0,69.91 -92.85,93.63 -151,93.76 -104.09,0.23 -136.4,-29.76 -160.22,-29.76 -6.6,0 -10.01,6.39 -10.01,19.16 h -34.04 V 504.97 h 34.04 c 12.79,60.93 106.48,74.21 145.95,74.21 27.99,0 99.99,-5.49 99.99,-38.76 0,-31.53 -46.2,-29.89 -102.34,-37.9 -61.52,-8.79 -182.85,-10.71 -182.85,-92.53 0,-63.12 70.73,-93.34 150.1,-93.34 92.19,0 137.77,29.94 151.44,29.94 6.44,0 9.67,-5.93 9.67,-16.5 z"
       id="path2" />
    <path
       d="m -47.105,316.65 c -124.84,0 -207.5,64.26 -207.5,150 0,85.74 82.67,150 207.5,150 124.83,0 207.5,-64.26 207.5,-150 0,-85.74 -82.661,-150 -207.5,-150 z m 0,40 c 71.591,0 119,47.12 119,110 0,62.87 -47.409,110 -119,110 -71.595,0 -119,-47.13 -119,-110 0,-62.88 47.41,-110 119,-110 z"
       id="path4" />
    <path
       d="M 578.51,600.02 H 523.62 L 304.53,412.58 v 139.38 c 0,9.35 4.68,14.02 14.02,14.02 h 40.06 v 34.04 H 194.79 v -34.04 h 40.06 c 9.34,0 14.02,-4.67 14.02,-14.02 V 381.33 c 0,-9.34 -4.68,-14.02 -14.02,-14.02 H 194.79 V 333.27 H 332.17 L 522.83,496.28 V 381.33 c 0,-9.34 -4.67,-14.02 -14.02,-14.02 h -40.06 v -34.04 h 163.82 v 34.04 h -40.04 c -9.35,0 -14.02,4.68 -14.02,14.02 z"
       id="path6" />
    <path
       d="m 934.22,333.27 h 160.98 v 34.04 h -31.6 c -13.4,0 -24.6,4.68 -33.6,14.02 L 922.21,496.28 v 55.68 c 0,9.35 4.67,14.02 14.02,14.02 h 40.05 v 34.04 H 782.02 v -34.04 h 40.05 c 9.35,0 14.02,-4.67 14.02,-14.02 V 499.89 L 725.54,381.33 c -9.07,-9.34 -20.29,-14.02 -33.63,-14.02 h -31.65 v -34.04 h 197.86 v 34.04 H 838.5 c -4.81,0 -7.88,1.67 -9.22,5.01 -1.33,3.34 -0.8,6.34 1.61,9.01 l 65.28,69.69 65.29,-69.69 c 2.4,-2.67 2.94,-5.67 1.6,-9.01 -1.33,-3.34 -4.4,-5.01 -9.21,-5.01 h -19.63 z"
       id="path8" />
  </g>
</svg>
