<?xml version="1.0" encoding="UTF-8" standalone="no"?>
<svg
   overflow="visible"
   version="1.1"
   id="svg23"
   sodipodi:docname="Spacedesk.svg"
   inkscape:version="1.2.2 (732a01da63, 2022-12-09)"
   height="128"
   width="522"
   xmlns:inkscape="http://www.inkscape.org/namespaces/inkscape"
   xmlns:sodipodi="http://sodipodi.sourceforge.net/DTD/sodipodi-0.dtd"
   xmlns="http://www.w3.org/2000/svg"
   xmlns:svg="http://www.w3.org/2000/svg">
  <defs
     id="defs27" />
  <sodipodi:namedview
     id="namedview25"
     pagecolor="#ffffff"
     bordercolor="#eeeeee"
     borderopacity="1"
     inkscape:pageshadow="0"
     inkscape:pageopacity="1"
     inkscape:pagecheckerboard="0"
     showgrid="false"
     inkscape:zoom="4.9766668"
     inkscape:cx="295.37842"
     inkscape:cy="43.000669"
     inkscape:window-width="3840"
     inkscape:window-height="2071"
     inkscape:window-x="2391"
     inkscape:window-y="-9"
     inkscape:window-maximized="1"
     inkscape:current-layer="svg23"
     inkscape:showpageshadow="2"
     inkscape:deskcolor="#505050" />
  <svg
     id="Calque_1"
     width="85.129997"
     height="16.620001"
     version="1.1" />
  <g
     id="g20">
    <defs
       id="defs2" />
    <g
       id="g331"
       transform="matrix(5.762251,0,0,5.762251,15.579655,16)">
      <g
         id="g318">
        <path
           id="path991"
           d="M 2.3300781,7.859375 A 2.83,2.83 0 0 0 1.3808594,8 2,2 0 0 0 0.66015625,8.3691406 1.54,1.54 0 0 0 0.2109375,8.9394531 1.51,1.51 0 0 0 0.05078125,9.6503906 1.5,1.5 0 0 0 0.52929688,10.839844 3.09,3.09 0 0 0 2.0292969,11.449219 l 0.6210937,0.101562 A 1.33,1.33 0 0 1 3.2890625,11.810547 0.69,0.69 0 0 1 3.4707031,12.320312 0.61,0.61 0 0 1 3.1796875,12.890625 1.23,1.23 0 0 1 2.4199219,13.099609 1.32,1.32 0 0 1 1.6601562,12.900391 0.65,0.65 0 0 1 1.3691406,12.330078 V 12.160156 H 0 l 0.06054687,0.150391 a 1.71,1.71 0 0 0 0.16992188,0.740234 1.66,1.66 0 0 0 0.48046875,0.580078 2.18,2.18 0 0 0 0.7597656,0.388672 3.42,3.42 0 0 0 1,0.140625 A 3.18,3.18 0 0 0 3.4492188,14.019531 2.37,2.37 0 0 0 4.2109375,13.630859 1.79,1.79 0 0 0 4.6894531,13.039062 1.65,1.65 0 0 0 4.859375,12.320312 1.71,1.71 0 0 0 4.4199219,11.080078 2.69,2.69 0 0 0 2.9296875,10.449219 L 2.3007812,10.339844 a 1.76,1.76 0 0 1 -0.6601562,-0.240235 0.62,0.62 0 0 1 0,-0.9394528 A 1,1 0 0 1 2.3203125,8.9609375 1,1 0 0 1 3,9.1601562 0.64,0.64 0 0 1 3.2304688,9.6503906 V 9.7695312 H 4.609375 V 9.6503906 A 1.56,1.56 0 0 0 4,8.3398438 2.61,2.61 0 0 0 2.3300781,7.859375 Z"
           style="fill:#000000" />
        <path
           id="path993"
           d="M 9.0507812,7.859375 A 1.78,1.78 0 0 0 8,8.1503906 1.46,1.46 0 0 0 7.4003906,8.9296875 V 8 H 6.0292969 v 8.660156 H 7.4003906 V 13.119141 A 1.46,1.46 0 0 0 8,13.900391 a 1.85,1.85 0 0 0 1.0507812,0.289062 2.47,2.47 0 0 0 0.9999998,-0.179687 1.78,1.78 0 0 0 0.738281,-0.570313 2.72,2.72 0 0 0 0.480469,-1 5.31,5.31 0 0 0 0.169922,-1.419922 5.36,5.36 0 0 0 -0.169922,-1.4199216 2.8,2.8 0 0 0 -0.480469,-1 A 1.85,1.85 0 0 0 10.050781,8.0390625 2.47,2.47 0 0 0 9.0507812,7.859375 Z M 8.7207031,8.9902344 A 1.22,1.22 0 0 1 9.3496094,9.1308594 1.08,1.08 0 0 1 9.7597656,9.5390625 1.87,1.87 0 0 1 9.9804688,10.169922 5.31,5.31 0 0 1 10.039062,11 5.21,5.21 0 0 1 9.9804688,11.830078 1.93,1.93 0 0 1 9.7597656,12.470703 1.05,1.05 0 0 1 9.3496094,12.869141 1.22,1.22 0 0 1 8.7207031,13.019531 1.24,1.24 0 0 1 8.0800781,12.869141 1.12,1.12 0 0 1 7.6796875,12.460938 1.93,1.93 0 0 1 7.4707031,11.820312 5.21,5.21 0 0 1 7.4101562,10.990234 5.31,5.31 0 0 1 7.4707031,10.160156 1.87,1.87 0 0 1 7.6699219,9.5390625 1.15,1.15 0 0 1 8.0800781,9.1308594 1.24,1.24 0 0 1 8.7207031,8.9902344 Z"
           style="fill:#000000" />
        <path
           id="path995"
           d="m 15.490234,7.8671875 a 2.56,2.56 0 0 0 -0.410156,0.00195 2.71,2.71 0 0 0 -1.820312,0.53125 1.94,1.94 0 0 0 -0.679688,1.4003906 h 1.359375 C 14.009453,9.2607812 14.380547,9 15.060547,9 a 1,1 0 0 1 1.150391,1.160156 v 0.970703 a 1.17,1.17 0 0 0 -0.611329,-0.591797 2.38,2.38 0 0 0 -1,-0.208984 2.51,2.51 0 0 0 -1.638671,0.490234 1.73,1.73 0 0 0 -0.601563,1.419922 1.71,1.71 0 0 0 0.601563,1.410157 2.51,2.51 0 0 0 1.638671,0.5 2.16,2.16 0 0 0 1.080079,-0.240235 1.14,1.14 0 0 0 0.550781,-0.580078 l -0.0098,0.369141 a 0.92,0.92 0 0 0 0.08008,0.291015 h 1.398438 a 2.43,2.43 0 0 1 -0.09961,-0.371093 2.25,2.25 0 0 1 0,-0.458985 v -3 A 2.24,2.24 0 0 0 16.980469,8.4902344 2.56,2.56 0 0 0 15.490234,7.8671875 Z m -0.509765,3.5019535 c 0.83,0 1.25,0.301093 1.25,0.871093 0,0.57 -0.42,0.859375 -1.25,0.859375 -0.83,0 -1.25,-0.289375 -1.25,-0.859375 0,-0.58 0.42,-0.871093 1.25,-0.871093 z"
           style="fill:#000000" />
        <path
           id="path997"
           d="m 21.470703,7.859375 a 2.47,2.47 0 0 0 -2,0.8105469 A 3.56,3.56 0 0 0 18.800781,11 a 3.57,3.57 0 0 0 0.669922,2.339844 2.47,2.47 0 0 0 2,0.820312 2.84,2.84 0 0 0 1.830078,-0.560547 2.22,2.22 0 0 0 0.789063,-1.580078 H 22.710938 A 1,1 0 0 1 22.349609,12.75 a 1.29,1.29 0 0 1 -0.86914,0.269531 1.22,1.22 0 0 1 -0.63086,-0.15039 1.05,1.05 0 0 1 -0.410156,-0.398438 1.93,1.93 0 0 1 -0.21875,-0.640625 A 5.21,5.21 0 0 1 20.160156,11 a 5.31,5.31 0 0 1 0.06055,-0.830078 1.87,1.87 0 0 1 0.21875,-0.6308595 1.08,1.08 0 0 1 0.410156,-0.4082031 1.22,1.22 0 0 1 0.63086,-0.140625 1.29,1.29 0 0 1 0.86914,0.2695312 1,1 0 0 1 0.361329,0.7207032 h 1.36914 A 2.24,2.24 0 0 0 23.289062,8.4003906 2.84,2.84 0 0 0 21.470703,7.859375 Z"
           style="fill:#000000" />
        <path
           id="path999"
           d="m 27.699219,7.859375 a 2.47,2.47 0 0 0 -2,0.8105469 A 3.56,3.56 0 0 0 25.029297,11 a 3.57,3.57 0 0 0 0.669922,2.339844 2.47,2.47 0 0 0 2,0.810547 2.78,2.78 0 0 0 1.75,-0.509766 2.25,2.25 0 0 0 0.820312,-1.460937 H 28.880859 A 0.94,0.94 0 0 1 28.5,12.800781 a 1.35,1.35 0 0 1 -0.800781,0.21875 1.1,1.1 0 0 1 -1,-0.419922 2.07,2.07 0 0 1 -0.339844,-1.179687 h 4.009766 V 11 a 3.56,3.56 0 0 0 -0.669922,-2.3300781 2.47,2.47 0 0 0 -2,-0.8105469 z m -0.181641,1.1484375 a 1.39,1.39 0 0 1 1.091797,0.3613281 2.07,2.07 0 0 1 0.351563,1.0507814 h -2.591797 a 2.07,2.07 0 0 1 0.351562,-1.0507814 1.39,1.39 0 0 1 0.796875,-0.3613281 z"
           style="fill:#000000" />
      </g>
      <g
         id="g311">
        <path
           id="path1001"
           d="m 35.369141,5.5996094 v 3.3398437 a 1.46,1.46 0 0 0 -0.59961,-0.7792969 1.81,1.81 0 0 0 -1.058593,-0.3398437 2.5,2.5 0 0 0 -1,0.1796875 1.92,1.92 0 0 0 -0.740235,0.5605469 2.8,2.8 0 0 0 -0.470703,1 5.36,5.36 0 0 0 -0.169922,1.4199221 5.31,5.31 0 0 0 0.169922,1.419922 2.71,2.71 0 0 0 0.470703,1 1.85,1.85 0 0 0 0.740235,0.570312 2.5,2.5 0 0 0 1,0.179688 1.89,1.89 0 0 0 1.058593,-0.291016 1.46,1.46 0 0 0 0.59961,-0.779297 V 14 h 1.371093 V 5.5996094 Z m -1.359375,3.390625 a 1.2,1.2 0 0 1 0.630859,0.140625 1.08,1.08 0 0 1 0.410156,0.4082031 1.68,1.68 0 0 1 0.21875,0.6308595 5.31,5.31 0 0 1 0.06055,0.830078 5.21,5.21 0 0 1 -0.06055,0.830078 1.73,1.73 0 0 1 -0.21875,0.640625 1.05,1.05 0 0 1 -0.410156,0.398438 1.2,1.2 0 0 1 -0.630859,0.15039 1.24,1.24 0 0 1 -0.640625,-0.15039 h 0.04102 A 1.12,1.12 0 0 1 32.960938,12.470703 1.93,1.93 0 0 1 32.75,11.830078 5.21,5.21 0 0 1 32.689453,11 5.31,5.31 0 0 1 32.75,10.169922 1.87,1.87 0 0 1 32.960938,9.5390625 1.15,1.15 0 0 1 33.369141,9.1308594 1.24,1.24 0 0 1 34.009766,8.9902344 Z"
           style="fill:#23a137" />
        <path
           id="path1003"
           d="M 40.480469,7.8808594 A 2.91,2.91 0 0 0 38.679688,8.6699219 3.56,3.56 0 0 0 38.009766,11 a 3.57,3.57 0 0 0 0.669922,2.339844 2.47,2.47 0 0 0 2,0.810547 2.73,2.73 0 0 0 1.740234,-0.509766 A 2.31,2.31 0 0 0 43.25,12.179688 h -1.400391 a 0.87,0.87 0 0 1 -0.378906,0.621093 1.32,1.32 0 0 1 -0.791015,0.21875 1.13,1.13 0 0 1 -1,-0.419922 2.15,2.15 0 0 1 -0.339844,-1.179687 h 4.019531 V 11 A 3.56,3.56 0 0 0 42.679688,8.6699219 2.91,2.91 0 0 0 40.480469,7.8808594 Z M 40.650391,9 a 1.13,1.13 0 0 1 0.939453,0.3691406 2,2 0 0 1 0.349609,1.0507814 H 39.349609 A 2,2 0 0 1 39.710938,9.3691406 1.11,1.11 0 0 1 40.650391,9 Z"
           style="fill:#23a137" />
        <path
           id="path1005"
           fill="#23A137"
           transform="translate(-2.53,-1.84)"
           d="m 46.91,14 h 1.37 v 0.17 a 0.63,0.63 0 0 0 0.29,0.57 1.3,1.3 0 0 0 0.75,0.2 1.24,1.24 0 0 0 0.77,-0.21 0.64,0.64 0 0 0 0.28,-0.54 0.69,0.69 0 0 0 -0.18,-0.51 1.38,1.38 0 0 0 -0.64,-0.26 l -0.62,-0.1 a 3.09,3.09 0 0 1 -1.5,-0.61 1.5,1.5 0 0 1 -0.43,-1.22 1.64,1.64 0 0 1 0.15,-0.71 1.78,1.78 0 0 1 0.45,-0.57 2.23,2.23 0 0 1 0.72,-0.37 2.89,2.89 0 0 1 1,-0.14 2.61,2.61 0 0 1 1.67,0.48 1.59,1.59 0 0 1 0.61,1.31 v 0.12 h -1.46 v -0.12 a 0.68,0.68 0 0 0 -0.23,-0.51 1,1 0 0 0 -0.68,-0.2 1,1 0 0 0 -0.69,0.2 0.61,0.61 0 0 0 -0.23,0.47 0.55,0.55 0 0 0 0.21,0.47 1.63,1.63 0 0 0 0.66,0.24 l 0.62,0.11 a 2.73,2.73 0 0 1 1.5,0.63 1.7,1.7 0 0 1 0.43,1.24 1.64,1.64 0 0 1 -0.16,0.72 2.08,2.08 0 0 1 -0.48,0.59 2.42,2.42 0 0 1 -0.77,0.39 3.13,3.13 0 0 1 -1,0.15 3.52,3.52 0 0 1 -1,-0.14 2.23,2.23 0 0 1 -0.75,-0.39 1.66,1.66 0 0 1 -0.48,-0.58 1.71,1.71 0 0 1 -0.17,-0.74 z"
           fill-rule="nonzero"
           style="fill:#23a137" />
        <path
           id="path1007"
           d="M 50.400391,5.5996094 V 14 h 1.36914 v -2.599609 h 0.550781 L 54.039062,14 h 1.570313 L 53.470703,10.880859 55.300781,8 h -1.490234 l -1.470703,2.339844 H 51.769531 V 5.5996094 Z"
           style="fill:#23a137" />
      </g>
    </g>
    <path
       id="path1013"
       style="stroke-width:5.76225"
       d="M 457.7168 24.066406 L 457.7168 29.830078 L 463.47852 29.830078 L 478.05859 29.830078 A 2.1320329 2.1320329 0 0 1 479.72852 30.521484 A 2.2472779 2.2472779 0 0 1 480.30469 32.25 L 476.67578 73.564453 A 3.2844831 3.2844831 0 0 1 473.50586 76.503906 L 451.78125 76.503906 A 7.9519064 7.9519064 0 0 1 446.82617 82.265625 L 473.50586 82.265625 A 8.9891116 8.9891116 0 0 0 482.4375 74.083984 L 486.00977 32.767578 A 7.9519064 7.9519064 0 0 0 483.99219 26.603516 A 8.0671514 8.0671514 0 0 0 478.23047 24.066406 L 478.05859 24.066406 L 463.47852 24.066406 L 457.7168 24.066406 z " />
    <path
       style="color:#000000;fill:#23a137;stroke-width:5.76225;-inkscape-stroke:none"
       d="m 355.03476,16 c -4.64282,0 -8.47456,3.831739 -8.47456,8.47456 v 49.316767 c 0,4.642818 3.83174,8.474559 8.47456,8.474559 h 85.97234 c 4.64282,0 8.47456,-3.831741 8.47456,-8.474559 V 24.47456 C 449.48166,19.831739 445.64992,16 441.0071,16 Z m 0,5.762251 h 85.97234 c 1.5502,0 2.7123,1.162101 2.7123,2.712309 v 49.316767 c 0,1.550207 -1.1621,2.712309 -2.7123,2.712309 h -85.97234 c -1.55021,0 -2.71231,-1.162102 -2.71231,-2.712309 V 24.47456 c 0,-1.550208 1.1621,-2.712309 2.71231,-2.712309 z"
       id="rect1009" />
    <path
       id="path1017"
       style="fill:#000000;stroke-width:5.76225"
       d="M 490.79688 38.363281 L 490.79688 44.125 L 498.16797 44.125 A 2.3625229 2.3625229 0 0 1 499.95703 44.810547 A 2.0744104 2.0744104 0 0 1 500.47461 46.544922 L 498.05469 73.566406 A 3.3997281 3.3997281 0 0 1 494.71289 76.503906 L 485.03516 76.503906 A 7.8942839 7.8942839 0 0 1 480.12695 82.265625 L 494.88281 82.265625 A 9.1043566 9.1043566 0 0 0 503.92969 74.083984 L 506.40625 47.0625 A 8.0095289 8.0095289 0 0 0 504.09961 40.951172 A 8.1247739 8.1247739 0 0 0 498.33789 38.363281 L 490.79688 38.363281 z " />
    <g
       aria-label="X10"
       id="text1019"
       style="font-size:6px"
       transform="matrix(5.762251,0,0,5.762251,15.579655,21.735237)">
      <path
         style="color:#000000;fill:#000000;-inkscape-stroke:none"
         d="M 0.37792969,-0.72714853 H 1.0136719 l 1.086914,1.62597656 1.0927735,-1.62597656 h 0.6357422 l -1.40625,2.10058593 1.5,2.2734375 H 3.2871094 L 2.0566406,1.7865233 0.81738281,3.6468749 H 0.17871094 L 1.7402344,1.311914 Z"
         id="path1109" />
      <path
         style="color:#000000;fill:#000000;-inkscape-stroke:none"
         d="m 4.8544922,3.148828 h 0.9667969 v -3.33691403 l -1.0517579,0.2109375 v -0.5390625 l 1.0458985,-0.2109375 H 6.4072266 V 3.148828 H 7.3740234 V 3.6468749 H 4.8544922 Z"
         id="path1111" />
      <path
         style="color:#000000;fill:#000000;-inkscape-stroke:none"
         d="m 9.8349609,-0.3375001 q -0.4570312,0 -0.6884765,0.45117188 -0.2285156,0.44824219 -0.2285156,1.35058592 0,0.8994141 0.2285156,1.350586 0.2314453,0.4482421 0.6884765,0.4482421 0.4599611,0 0.6884771,-0.4482421 0.231445,-0.4511719 0.231445,-1.350586 0,-0.90234373 -0.231445,-1.35058592 Q 10.294922,-0.3375001 9.8349609,-0.3375001 Z m 0,-0.46875 q 0.7353521,0 1.1220701,0.58300782 0.389649,0.58007812 0.389649,1.68749998 0,1.1044922 -0.389649,1.6875 -0.386718,0.5800781 -1.1220701,0.5800781 -0.7353515,0 -1.125,-0.5800781 -0.3867187,-0.5830078 -0.3867187,-1.6875 0,-1.10742186 0.3867187,-1.68749998 0.3896485,-0.58300782 1.125,-0.58300782 z"
         id="path1113" />
    </g>
  </g>
</svg>
