<?xml version="1.0" encoding="UTF-8" standalone="no"?>
<!-- Created with Inkscape (http://www.inkscape.org/) -->
<svg
   xmlns:svg="http://www.w3.org/2000/svg"
   xmlns="http://www.w3.org/2000/svg"
   version="1.0"
   width="199.99997"
   height="32.196014"
   id="svg2508">
  <defs
     id="defs2510" />
  <g
     transform="translate(-383.30556,-449.20726)"
     id="layer1">
    <g
       transform="matrix(1.7328422,0,0,-1.7328422,-45.565953,1168.4684)"
       id="g7548">
      <path
         d="M 338.49498,414.27337 C 338.49498,414.27337 338.49498,407.52771 338.49498,407.57555 L 347.51655,407.57555 C 347.51655,407.55163 347.50853,414.27437 347.51655,414.27337 C 347.50853,414.27437 351.93854,414.27337 351.98469,414.27337 C 351.98469,414.27337 351.99974,397.54077 351.98469,397.52383 C 351.97867,397.52283 347.52157,397.52283 347.51655,397.52383 C 347.51655,397.52383 347.51655,404.87349 347.51655,404.89442 C 347.51655,404.87349 338.49498,404.89442 338.49498,404.89442 C 338.50201,404.86652 338.49498,397.51884 338.49498,397.52383 L 334.02985,397.52383 C 334.02985,397.52383 334.05393,414.27337 334.02985,414.27337 L 338.49498,414.27337 z"
         id="path3621"
         style="fill:#191919;fill-opacity:1;fill-rule:nonzero;stroke:#191919;stroke-width:0.06000266;stroke-linecap:butt;stroke-linejoin:miter;stroke-miterlimit:4;stroke-dasharray:none;stroke-opacity:1" />
      <path
         d="M 296.10234,414.27337 C 296.10334,414.22453 296.10234,411.42381 296.10234,411.42381 L 289.2732,411.42381 L 289.2732,397.52383 L 284.80606,397.52383 L 284.80606,411.42381 L 277.97893,411.42381 C 277.97893,411.42381 277.98695,414.26938 277.97893,414.27337 C 277.98695,414.26938 296.10234,414.27337 296.10234,414.27337 z"
         id="path3623"
         style="fill:#191919;fill-opacity:1;fill-rule:nonzero;stroke:#191919;stroke-width:0.06000266;stroke-linecap:butt;stroke-linejoin:miter;stroke-miterlimit:4;stroke-dasharray:none;stroke-opacity:1" />
      <path
         d="M 313.46517,397.52383 C 313.47922,397.52283 308.45921,397.52383 308.49132,397.52383 C 308.49834,397.52383 307.03037,401.12491 307.03037,401.12491 L 298.659,401.12491 C 298.659,401.12491 297.21912,397.51884 297.19805,397.52383 C 297.20206,397.51884 292.2252,397.52383 292.2252,397.52383 L 300.1049,414.27337 C 300.1049,414.2634 305.58246,414.27337 305.58246,414.27337 L 313.46517,397.52383 z M 302.84318,411.42381 L 299.73565,403.80603 L 305.95572,403.80603 L 302.84318,411.42381"
         id="path3625"
         style="fill:#191919;fill-opacity:1;fill-rule:nonzero;stroke:#191919;stroke-width:0.06000266;stroke-linecap:butt;stroke-linejoin:miter;stroke-miterlimit:4;stroke-dasharray:none;stroke-opacity:1" />
      <path
         d="M 355.52168,414.27337 L 359.99182,414.27337 L 359.99182,397.52383 L 355.52168,397.52383 L 355.52168,414.27337 z"
         id="path3627"
         style="fill:#191919;fill-opacity:1;fill-rule:nonzero;stroke:#191919;stroke-width:0.06000266;stroke-linecap:butt;stroke-linejoin:miter;stroke-miterlimit:4;stroke-dasharray:none;stroke-opacity:1" />
      <path
         d="M 254.88567,414.27337 C 254.88567,414.27337 254.88066,407.52771 254.88567,407.57555 L 263.90223,407.57555 C 263.90223,407.55163 263.89721,414.27437 263.90223,414.27337 C 263.89721,414.27437 268.32421,414.27337 268.37037,414.27337 C 268.37037,414.27337 268.38542,397.54077 268.37037,397.52383 C 268.36635,397.52283 263.90624,397.52283 263.90223,397.52383 C 263.90223,397.52383 263.90223,404.87349 263.90223,404.89442 C 263.90223,404.87349 254.88567,404.89442 254.88567,404.89442 C 254.88869,404.86652 254.88066,397.51884 254.88567,397.52383 L 250.41753,397.52383 C 250.41653,397.52383 250.44162,414.27337 250.41753,414.27337 L 254.88567,414.27337 z"
         id="path3629"
         style="fill:#191919;fill-opacity:1;fill-rule:nonzero;stroke:#191919;stroke-width:0.06000266;stroke-linecap:butt;stroke-linejoin:miter;stroke-miterlimit:4;stroke-dasharray:none;stroke-opacity:1" />
      <path
         d="M 271.91237,414.27337 L 276.3775,414.27337 L 276.3775,397.52383 L 271.91237,397.52383 L 271.91237,414.27337 z"
         id="path3631"
         style="fill:#191919;fill-opacity:1;fill-rule:nonzero;stroke:#191919;stroke-width:0.06000266;stroke-linecap:butt;stroke-linejoin:miter;stroke-miterlimit:4;stroke-dasharray:none;stroke-opacity:1" />
      <path
         d="M 313.30563,402.16646 C 312.9133,403.28974 312.7056,404.4778 312.7056,405.73265 C 312.7056,407.49083 313.01866,409.19618 313.86653,410.6095 C 314.74049,412.06967 316.08103,413.19594 317.69952,413.79894 C 319.24475,414.37105 320.90739,414.69099 322.6513,414.69099 C 324.65709,414.69099 326.55653,414.25344 328.2874,413.5099 C 329.89785,412.82317 331.11397,411.37995 331.47419,409.63971 C 331.54744,409.29286 331.60163,408.93804 331.63273,408.57823 L 326.94585,408.57823 C 326.92979,409.02475 326.85755,409.46629 326.70303,409.86696 C 326.34883,410.7929 325.57219,411.5155 324.60793,411.80455 C 323.98783,411.99292 323.3306,412.09459 322.6513,412.09459 C 321.87467,412.09459 321.13115,411.95903 320.4398,411.71584 C 319.29492,411.31517 318.4029,410.39521 318.00054,409.25798 C 317.61022,408.15762 317.39047,406.96656 317.39047,405.73265 C 317.39047,404.71004 317.55403,403.72629 317.81591,402.78939 C 318.15406,401.57043 319.07719,400.59067 320.25618,400.14515 C 321.00171,399.86707 321.80643,399.70361 322.6513,399.70361 C 323.37074,399.70361 324.06408,399.81225 324.71529,400.02255 C 325.58925,400.29764 326.29966,400.93653 326.66891,401.7618 C 326.91374,402.30898 327.03616,402.91697 327.03616,403.55685 L 331.7421,403.55685 C 331.71401,403.01365 331.63875,402.47444 331.51634,401.96911 C 331.11397,400.31259 329.94602,398.9222 328.39376,398.27434 C 326.62576,397.53579 324.6892,397.1092 322.6513,397.1092 C 321.07094,397.1092 319.54678,397.35738 318.11894,397.8029 C 315.94156,398.48664 314.05517,400.04149 313.30563,402.16646 z"
         id="path3633"
         style="fill:#191919;fill-opacity:1;fill-rule:nonzero;stroke:#191919;stroke-width:0.06000266;stroke-linecap:butt;stroke-linejoin:miter;stroke-miterlimit:4;stroke-dasharray:none;stroke-opacity:1" />
    </g>
  </g>
</svg>
