<?xml version="1.0" encoding="utf-8"?>
<!-- Generator: Adobe Illustrator 15.0.0, SVG Export Plug-In . SVG Version: 6.00 Build 0)  -->
<!DOCTYPE svg PUBLIC "-//W3C//DTD SVG 1.1//EN" "http://www.w3.org/Graphics/SVG/1.1/DTD/svg11.dtd">
<svg version="1.1" id="Layer_1" xmlns="http://www.w3.org/2000/svg" xmlns:xlink="http://www.w3.org/1999/xlink" x="0px" y="0px"
	 width="76.333px" height="26.688px" viewBox="0 0 76.333 26.688" enable-background="new 0 0 76.333 26.688" xml:space="preserve">
<path d="M37.086,25.226c6.24,0,10.665-1.352,10.665-8.452v-6.516c0-7.099-4.425-8.45-10.665-8.45c-6.238,0-10.664,1.352-10.664,8.45
	v6.516C26.422,23.874,30.848,25.226,37.086,25.226z M37.086,19.877c-3.196,0-4.239-0.337-4.333-3.778v-5.196
	c0.094-3.411,1.137-3.748,4.333-3.748c3.198,0,4.334,0.337,4.334,3.748v5.196C41.42,19.54,40.284,19.877,37.086,19.877"/>
<path d="M70.318,16.313v0.676c0,2.521-0.029,4.793-2.119,6.547c-2.09,1.72-4.641,1.689-7.313,1.689c-6.27,0-10.85-0.306-10.85-8.728
	v-5.963c0-7.622,4.088-8.727,10.85-8.727c6.33,0,9.28,0.645,9.403,7.56v0.89h-6.331v-0.89c-0.215-2.06-1.659-2.213-3.75-2.213
	c-3.503,0-3.841,1.075-3.841,4.363v3.597c0,3.441,0.153,4.762,3.841,4.762c2.552,0,3.779-0.183,3.779-2.888v-0.676H70.318z"/>
<path d="M7.333,25.041l6.723-14.598c1.091-2.367,1.698-3.106,4.095-3.106v6.455v5.348v5.901h6.147V1.99h-6.943
	c-5.716,0-6.862,2.443-9.63,8.453L1.002,25.041H7.333z"/>
<path d="M73.121,3.773V3.088h0.451c0.231,0,0.477,0.05,0.477,0.325c0,0.34-0.251,0.36-0.532,0.36H73.121z M73.121,4.059h0.38
	l0.578,0.96h0.372l-0.623-0.975c0.32-0.041,0.567-0.214,0.567-0.611c0-0.437-0.257-0.63-0.774-0.63H72.79v2.216h0.331V4.059
	 M73.522,5.832c1.033,0,1.915-0.813,1.915-1.925c0-1.104-0.882-1.917-1.915-1.917c-1.045,0-1.927,0.813-1.927,1.917
	C71.596,5.019,72.478,5.832,73.522,5.832 M71.978,3.907c0-0.911,0.677-1.598,1.545-1.598c0.857,0,1.534,0.687,1.534,1.598
	c0,0.924-0.677,1.604-1.534,1.604C72.654,5.512,71.978,4.831,71.978,3.907"/>
</svg>
