<?xml version="1.0" encoding="UTF-8" standalone="no"?>
<svg
   viewBox="0 0 200 200.00001"
   version="1.1"
   id="svg4"
   sodipodi:docname="Compaq.CPQ.svg"
   width="200"
   height="200"
   inkscape:version="1.1 (c68e22c387, 2021-05-23)"
   xmlns:inkscape="http://www.inkscape.org/namespaces/inkscape"
   xmlns:sodipodi="http://sodipodi.sourceforge.net/DTD/sodipodi-0.dtd"
   xmlns="http://www.w3.org/2000/svg"
   xmlns:svg="http://www.w3.org/2000/svg">
  <defs
     id="defs8" />
  <sodipodi:namedview
     id="namedview6"
     pagecolor="#505050"
     bordercolor="#eeeeee"
     borderopacity="1"
     inkscape:pageshadow="0"
     inkscape:pageopacity="0"
     inkscape:pagecheckerboard="0"
     showgrid="false"
     fit-margin-top="0"
     fit-margin-left="0"
     fit-margin-right="0"
     fit-margin-bottom="0"
     inkscape:zoom="2.2745276"
     inkscape:cx="99.361292"
     inkscape:cy="157.83497"
     inkscape:window-width="3840"
     inkscape:window-height="2054"
     inkscape:window-x="-11"
     inkscape:window-y="1609"
     inkscape:window-maximized="1"
     inkscape:current-layer="svg4" />
  <path
     d="m 173.9071,133.10484 c -5.29,-6.81 -13.55,-11.21 -22.82,-11.21 H 42.387096 c -2.17,0 -3.93,-1.76 -3.93,-3.93 V 50.464838 c 0,-2.16 1.76,-3.93 3.93,-3.93 H 140.7871 c 2.16,0 3.93,1.76 3.93,3.93 v 30.1 c 0,24.930002 38.2,24.930002 38.2,0 v -30.1 c 0,-23.1 -19,-42.1000001 -42.1,-42.1000001 H 42.417096 c -23.1,0 -42.10000025,19.0000001 -42.10000025,42.1000001 v 67.500002 c 0,23.1 19.00000025,42.1 42.10000025,42.1 H 145.1171 c 0.87,0 1.65,0.4 2.15,1.04 l 18,23.1 c 15.34,19.67 45.51,-3.76 30.2,-23.41 z"
     fill="#000000"
     id="path2"
     sodipodi:nodetypes="csssssssssssssssscccc"
     style="fill:#000000" />
</svg>
