<?xml version="1.0" encoding="UTF-8" standalone="no"?>
<svg
   overflow="visible"
   version="1.1"
   id="svg23"
   sodipodi:docname="Spacedesk.svg"
   inkscape:version="1.1 (c68e22c387, 2021-05-23)"
   height="16.62"
   width="85.13"
   xmlns:inkscape="http://www.inkscape.org/namespaces/inkscape"
   xmlns:sodipodi="http://sodipodi.sourceforge.net/DTD/sodipodi-0.dtd"
   xmlns="http://www.w3.org/2000/svg"
   xmlns:svg="http://www.w3.org/2000/svg">
  <defs
     id="defs27" />
  <sodipodi:namedview
     id="namedview25"
     pagecolor="#505050"
     bordercolor="#eeeeee"
     borderopacity="1"
     inkscape:pageshadow="0"
     inkscape:pageopacity="0"
     inkscape:pagecheckerboard="0"
     showgrid="false"
     inkscape:zoom="19.906667"
     inkscape:cx="54.604822"
     inkscape:cy="11.654387"
     inkscape:window-width="3840"
     inkscape:window-height="2054"
     inkscape:window-x="-11"
     inkscape:window-y="1609"
     inkscape:window-maximized="1"
     inkscape:current-layer="g20" />
  <svg
     id="Calque_1"
     width="85.13"
     height="16.62"
     version="1.1">
    <g
       transform="translate(0, 0) "
       id="g20">
      <defs
         id="defs2" />
      <path
         id="path991"
         d="M 2.3300781 7.859375 A 2.83 2.83 0 0 0 1.3808594 8 A 2 2 0 0 0 0.66015625 8.3691406 A 1.54 1.54 0 0 0 0.2109375 8.9394531 A 1.51 1.51 0 0 0 0.05078125 9.6503906 A 1.5 1.5 0 0 0 0.52929688 10.839844 A 3.09 3.09 0 0 0 2.0292969 11.449219 L 2.6503906 11.550781 A 1.33 1.33 0 0 1 3.2890625 11.810547 A 0.69 0.69 0 0 1 3.4707031 12.320312 A 0.61 0.61 0 0 1 3.1796875 12.890625 A 1.23 1.23 0 0 1 2.4199219 13.099609 A 1.32 1.32 0 0 1 1.6601562 12.900391 A 0.65 0.65 0 0 1 1.3691406 12.330078 L 1.3691406 12.160156 L 0 12.160156 L 0.060546875 12.310547 A 1.71 1.71 0 0 0 0.23046875 13.050781 A 1.66 1.66 0 0 0 0.7109375 13.630859 A 2.18 2.18 0 0 0 1.4707031 14.019531 A 3.42 3.42 0 0 0 2.4707031 14.160156 A 3.18 3.18 0 0 0 3.4492188 14.019531 A 2.37 2.37 0 0 0 4.2109375 13.630859 A 1.79 1.79 0 0 0 4.6894531 13.039062 A 1.65 1.65 0 0 0 4.859375 12.320312 A 1.71 1.71 0 0 0 4.4199219 11.080078 A 2.69 2.69 0 0 0 2.9296875 10.449219 L 2.3007812 10.339844 A 1.76 1.76 0 0 1 1.640625 10.099609 A 0.62 0.62 0 0 1 1.640625 9.1601562 A 1 1 0 0 1 2.3203125 8.9609375 A 1 1 0 0 1 3 9.1601562 A 0.64 0.64 0 0 1 3.2304688 9.6503906 L 3.2304688 9.7695312 L 4.609375 9.7695312 L 4.609375 9.6503906 A 1.56 1.56 0 0 0 4 8.3398438 A 2.61 2.61 0 0 0 2.3300781 7.859375 z " />
      <path
         id="path993"
         d="M 9.0507812 7.859375 A 1.78 1.78 0 0 0 8 8.1503906 A 1.46 1.46 0 0 0 7.4003906 8.9296875 L 7.4003906 8 L 6.0292969 8 L 6.0292969 16.660156 L 7.4003906 16.660156 L 7.4003906 13.119141 A 1.46 1.46 0 0 0 8 13.900391 A 1.85 1.85 0 0 0 9.0507812 14.189453 A 2.47 2.47 0 0 0 10.050781 14.009766 A 1.78 1.78 0 0 0 10.789062 13.439453 A 2.72 2.72 0 0 0 11.269531 12.439453 A 5.31 5.31 0 0 0 11.439453 11.019531 A 5.36 5.36 0 0 0 11.269531 9.5996094 A 2.8 2.8 0 0 0 10.789062 8.5996094 A 1.85 1.85 0 0 0 10.050781 8.0390625 A 2.47 2.47 0 0 0 9.0507812 7.859375 z M 8.7207031 8.9902344 A 1.22 1.22 0 0 1 9.3496094 9.1308594 A 1.08 1.08 0 0 1 9.7597656 9.5390625 A 1.87 1.87 0 0 1 9.9804688 10.169922 A 5.31 5.31 0 0 1 10.039062 11 A 5.21 5.21 0 0 1 9.9804688 11.830078 A 1.93 1.93 0 0 1 9.7597656 12.470703 A 1.05 1.05 0 0 1 9.3496094 12.869141 A 1.22 1.22 0 0 1 8.7207031 13.019531 A 1.24 1.24 0 0 1 8.0800781 12.869141 A 1.12 1.12 0 0 1 7.6796875 12.460938 A 1.93 1.93 0 0 1 7.4707031 11.820312 A 5.21 5.21 0 0 1 7.4101562 10.990234 A 5.31 5.31 0 0 1 7.4707031 10.160156 A 1.87 1.87 0 0 1 7.6699219 9.5390625 A 1.15 1.15 0 0 1 8.0800781 9.1308594 A 1.24 1.24 0 0 1 8.7207031 8.9902344 z " />
      <path
         id="path995"
         d="M 15.490234 7.8671875 A 2.56 2.56 0 0 0 15.080078 7.8691406 A 2.71 2.71 0 0 0 13.259766 8.4003906 A 1.94 1.94 0 0 0 12.580078 9.8007812 L 13.939453 9.8007812 C 14.009453 9.2607812 14.380547 9 15.060547 9 A 1 1 0 0 1 16.210938 10.160156 L 16.210938 11.130859 A 1.17 1.17 0 0 0 15.599609 10.539062 A 2.38 2.38 0 0 0 14.599609 10.330078 A 2.51 2.51 0 0 0 12.960938 10.820312 A 1.73 1.73 0 0 0 12.359375 12.240234 A 1.71 1.71 0 0 0 12.960938 13.650391 A 2.51 2.51 0 0 0 14.599609 14.150391 A 2.16 2.16 0 0 0 15.679688 13.910156 A 1.14 1.14 0 0 0 16.230469 13.330078 L 16.220703 13.699219 A 0.92 0.92 0 0 0 16.300781 13.990234 L 17.699219 13.990234 A 2.43 2.43 0 0 1 17.599609 13.619141 A 2.25 2.25 0 0 1 17.599609 13.160156 L 17.599609 10.160156 A 2.24 2.24 0 0 0 16.980469 8.4902344 A 2.56 2.56 0 0 0 15.490234 7.8671875 z M 14.980469 11.369141 C 15.810469 11.369141 16.230469 11.670234 16.230469 12.240234 C 16.230469 12.810234 15.810469 13.099609 14.980469 13.099609 C 14.150469 13.099609 13.730469 12.810234 13.730469 12.240234 C 13.730469 11.660234 14.150469 11.369141 14.980469 11.369141 z " />
      <path
         id="path997"
         d="M 21.470703 7.859375 A 2.47 2.47 0 0 0 19.470703 8.6699219 A 3.56 3.56 0 0 0 18.800781 11 A 3.57 3.57 0 0 0 19.470703 13.339844 A 2.47 2.47 0 0 0 21.470703 14.160156 A 2.84 2.84 0 0 0 23.300781 13.599609 A 2.22 2.22 0 0 0 24.089844 12.019531 L 22.710938 12.019531 A 1 1 0 0 1 22.349609 12.75 A 1.29 1.29 0 0 1 21.480469 13.019531 A 1.22 1.22 0 0 1 20.849609 12.869141 A 1.05 1.05 0 0 1 20.439453 12.470703 A 1.93 1.93 0 0 1 20.220703 11.830078 A 5.21 5.21 0 0 1 20.160156 11 A 5.31 5.31 0 0 1 20.220703 10.169922 A 1.87 1.87 0 0 1 20.439453 9.5390625 A 1.08 1.08 0 0 1 20.849609 9.1308594 A 1.22 1.22 0 0 1 21.480469 8.9902344 A 1.29 1.29 0 0 1 22.349609 9.2597656 A 1 1 0 0 1 22.710938 9.9804688 L 24.080078 9.9804688 A 2.24 2.24 0 0 0 23.289062 8.4003906 A 2.84 2.84 0 0 0 21.470703 7.859375 z " />
      <path
         id="path999"
         d="M 27.699219 7.859375 A 2.47 2.47 0 0 0 25.699219 8.6699219 A 3.56 3.56 0 0 0 25.029297 11 A 3.57 3.57 0 0 0 25.699219 13.339844 A 2.47 2.47 0 0 0 27.699219 14.150391 A 2.78 2.78 0 0 0 29.449219 13.640625 A 2.25 2.25 0 0 0 30.269531 12.179688 L 28.880859 12.179688 A 0.94 0.94 0 0 1 28.5 12.800781 A 1.35 1.35 0 0 1 27.699219 13.019531 A 1.1 1.1 0 0 1 26.699219 12.599609 A 2.07 2.07 0 0 1 26.359375 11.419922 L 30.369141 11.419922 L 30.369141 11 A 3.56 3.56 0 0 0 29.699219 8.6699219 A 2.47 2.47 0 0 0 27.699219 7.859375 z M 27.517578 9.0078125 A 1.39 1.39 0 0 1 28.609375 9.3691406 A 2.07 2.07 0 0 1 28.960938 10.419922 L 26.369141 10.419922 A 2.07 2.07 0 0 1 26.720703 9.3691406 A 1.39 1.39 0 0 1 27.517578 9.0078125 z " />
      <path
         id="path1001"
         d="M 35.369141 5.5996094 L 35.369141 8.9394531 A 1.46 1.46 0 0 0 34.769531 8.1601562 A 1.81 1.81 0 0 0 33.710938 7.8203125 A 2.5 2.5 0 0 0 32.710938 8 A 1.92 1.92 0 0 0 31.970703 8.5605469 A 2.8 2.8 0 0 0 31.5 9.5605469 A 5.36 5.36 0 0 0 31.330078 10.980469 A 5.31 5.31 0 0 0 31.5 12.400391 A 2.71 2.71 0 0 0 31.970703 13.400391 A 1.85 1.85 0 0 0 32.710938 13.970703 A 2.5 2.5 0 0 0 33.710938 14.150391 A 1.89 1.89 0 0 0 34.769531 13.859375 A 1.46 1.46 0 0 0 35.369141 13.080078 L 35.369141 14 L 36.740234 14 L 36.740234 5.5996094 L 35.369141 5.5996094 z M 34.009766 8.9902344 A 1.2 1.2 0 0 1 34.640625 9.1308594 A 1.08 1.08 0 0 1 35.050781 9.5390625 A 1.68 1.68 0 0 1 35.269531 10.169922 A 5.31 5.31 0 0 1 35.330078 11 A 5.21 5.21 0 0 1 35.269531 11.830078 A 1.73 1.73 0 0 1 35.050781 12.470703 A 1.05 1.05 0 0 1 34.640625 12.869141 A 1.2 1.2 0 0 1 34.009766 13.019531 A 1.24 1.24 0 0 1 33.369141 12.869141 L 33.410156 12.869141 A 1.12 1.12 0 0 1 32.960938 12.470703 A 1.93 1.93 0 0 1 32.75 11.830078 A 5.21 5.21 0 0 1 32.689453 11 A 5.31 5.31 0 0 1 32.75 10.169922 A 1.87 1.87 0 0 1 32.960938 9.5390625 A 1.15 1.15 0 0 1 33.369141 9.1308594 A 1.24 1.24 0 0 1 34.009766 8.9902344 z "
         style="fill:#23A137" />
      <path
         id="path1003"
         d="M 40.480469 7.8808594 A 2.91 2.91 0 0 0 38.679688 8.6699219 A 3.56 3.56 0 0 0 38.009766 11 A 3.57 3.57 0 0 0 38.679688 13.339844 A 2.47 2.47 0 0 0 40.679688 14.150391 A 2.73 2.73 0 0 0 42.419922 13.640625 A 2.31 2.31 0 0 0 43.25 12.179688 L 41.849609 12.179688 A 0.87 0.87 0 0 1 41.470703 12.800781 A 1.32 1.32 0 0 1 40.679688 13.019531 A 1.13 1.13 0 0 1 39.679688 12.599609 A 2.15 2.15 0 0 1 39.339844 11.419922 L 43.359375 11.419922 L 43.359375 11 A 3.56 3.56 0 0 0 42.679688 8.6699219 A 2.91 2.91 0 0 0 40.480469 7.8808594 z M 40.650391 9 A 1.13 1.13 0 0 1 41.589844 9.3691406 A 2 2 0 0 1 41.939453 10.419922 L 39.349609 10.419922 A 2 2 0 0 1 39.710938 9.3691406 A 1.11 1.11 0 0 1 40.650391 9 z "
         style="fill:#23A137" />
      <path
         id="path1005"
         fill="#23A137"
         transform="translate(-2.53, -1.84) "
         d="M46.91 14h1.37v.17a.63.63 0 0 0 .29.57 1.3 1.3 0 0 0 .75.2 1.24 1.24 0 0 0 .77-.21.64.64 0 0 0 .28-.54.69.69 0 0 0-.18-.51 1.38 1.38 0 0 0-.64-.26l-.62-.1a3.09 3.09 0 0 1-1.5-.61A1.5 1.5 0 0 1 47 11.49a1.64 1.64 0 0 1 .15-.71 1.78 1.78 0 0 1 .45-.57 2.23 2.23 0 0 1 .72-.37 2.89 2.89 0 0 1 1-.14 2.61 2.61 0 0 1 1.67.48 1.59 1.59 0 0 1 .61 1.31v.12H50.14v-.12a.68.68 0 0 0-.23-.51 1 1 0 0 0-.68-.2 1 1 0 0 0-.69.2.61.61 0 0 0-.23.47.55.55 0 0 0 .21.47 1.63 1.63 0 0 0 .66.24l.62.11a2.73 2.73 0 0 1 1.5.63 1.7 1.7 0 0 1 .43 1.24 1.64 1.64 0 0 1-.16.72 2.08 2.08 0 0 1-.48.59 2.42 2.42 0 0 1-.77.39 3.13 3.13 0 0 1-1 .15 3.52 3.52 0 0 1-1-.14 2.23 2.23 0 0 1-.75-.39 1.66 1.66 0 0 1-.48-.58 1.71 1.71 0 0 1-.17-.74Z"
         fill-rule="nonzero"
         style="fill:#23A137" />
      <path
         id="path1007"
         d="M 50.400391 5.5996094 L 50.400391 14 L 51.769531 14 L 51.769531 11.400391 L 52.320312 11.400391 L 54.039062 14 L 55.609375 14 L 53.470703 10.880859 L 55.300781 8 L 53.810547 8 L 52.339844 10.339844 L 51.769531 10.339844 L 51.769531 5.5996094 L 50.400391 5.5996094 z "
         style="fill:#23A137" />
      <path
         style="color:#000000;fill:#23a137;-inkscape-stroke:none"
         d="m 58.910156,0 c -0.80573,0 -1.470703,0.66497255 -1.470703,1.4707031 v 8.5585939 c 0,0.80573 0.664973,1.470703 1.470703,1.470703 h 14.919922 c 0.805731,0 1.470703,-0.664973 1.470703,-1.470703 V 1.4707031 C 75.300781,0.66497255 74.635809,0 73.830078,0 Z m 0,1 h 14.919922 c 0.269028,0 0.470703,0.2016748 0.470703,0.4707031 v 8.5585939 c 0,0.269028 -0.201675,0.470703 -0.470703,0.470703 H 58.910156 c -0.269028,0 -0.470703,-0.201675 -0.470703,-0.470703 V 1.4707031 C 58.439453,1.2016748 58.641128,1 58.910156,1 Z"
         id="rect1009" />
      <path
         style="color:#000000;fill:#000000;-inkscape-stroke:none"
         d="m 83.82,3.68 a 1.4,1.4 0 0 0 -1,-0.44 h -3.56 v 1 h 3.53 a 0.37,0.37 0 0 1 0.29,0.12 0.39,0.39 0 0 1 0.1,0.3 l -0.63,7.17 A 0.57,0.57 0 0 1 82,12.34 h -3.77 a 1.38,1.38 0 0 1 -0.86,1 H 82 a 1.56,1.56 0 0 0 1.55,-1.42 L 84.17,4.75 A 1.38,1.38 0 0 0 83.82,3.68 Z"
         id="path1011"
         transform="translate(-2.53, -1.84) " />
      <path
         id="path1013"
         fill="Black"
         transform="translate(-2.53, -1.84) "
         d="M82.79 3.24H80.26v1h2.53"
         fill-rule="nonzero" />
      <path
         id="path1015"
         fill="Black"
         transform="translate(-2.53, -1.84) "
         d="M81.79 3.24H79.26v1h2.53"
         fill-rule="nonzero" />
      <path
         id="path1017"
         d="M 82.470703 3.8808594 L 82.470703 4.8808594 L 83.75 4.8808594 A 0.41 0.41 0 0 1 84.060547 5 A 0.36 0.36 0 0 1 84.150391 5.3007812 L 83.730469 9.9902344 A 0.59 0.59 0 0 1 83.150391 10.5 L 81.470703 10.5 A 1.37 1.37 0 0 1 80.619141 11.5 L 83.179688 11.5 A 1.58 1.58 0 0 0 84.75 10.080078 L 85.179688 5.390625 A 1.39 1.39 0 0 0 84.779297 4.3300781 A 1.41 1.41 0 0 0 83.779297 3.8808594 L 82.470703 3.8808594 z " />
      <g
         aria-label="X10"
         id="text1019"
         style="font-size:6px"
         transform="translate(0,0.99531197)">
        <path
           style="color:#000000;fill:#000000;-inkscape-stroke:none"
           d="M 0.37792969,-0.72714853 H 1.0136719 l 1.086914,1.62597656 1.0927735,-1.62597656 h 0.6357422 l -1.40625,2.10058593 1.5,2.2734375 H 3.2871094 L 2.0566406,1.7865233 0.81738281,3.6468749 H 0.17871094 L 1.7402344,1.311914 Z"
           id="path1109" />
        <path
           style="color:#000000;fill:#000000;-inkscape-stroke:none"
           d="m 4.8544922,3.148828 h 0.9667969 v -3.33691403 l -1.0517579,0.2109375 v -0.5390625 l 1.0458985,-0.2109375 H 6.4072266 V 3.148828 H 7.3740234 V 3.6468749 H 4.8544922 Z"
           id="path1111" />
        <path
           style="color:#000000;fill:#000000;-inkscape-stroke:none"
           d="m 9.8349609,-0.3375001 q -0.4570312,0 -0.6884765,0.45117188 -0.2285156,0.44824219 -0.2285156,1.35058592 0,0.8994141 0.2285156,1.350586 0.2314453,0.4482421 0.6884765,0.4482421 0.4599611,0 0.6884771,-0.4482421 0.231445,-0.4511719 0.231445,-1.350586 0,-0.90234373 -0.231445,-1.35058592 Q 10.294922,-0.3375001 9.8349609,-0.3375001 Z m 0,-0.46875 q 0.7353521,0 1.1220701,0.58300782 0.389649,0.58007812 0.389649,1.68749998 0,1.1044922 -0.389649,1.6875 -0.386718,0.5800781 -1.1220701,0.5800781 -0.7353515,0 -1.125,-0.5800781 -0.3867187,-0.5830078 -0.3867187,-1.6875 0,-1.10742186 0.3867187,-1.68749998 0.3896485,-0.58300782 1.125,-0.58300782 z"
           id="path1113" />
      </g>
    </g>
  </svg>
</svg>
