<?xml version="1.0" encoding="utf-8"?>
<!-- Generator: Adobe Illustrator 16.0.0, SVG Export Plug-In . SVG Version: 6.00 Build 0)  -->
<!DOCTYPE svg PUBLIC "-//W3C//DTD SVG 1.1//EN" "http://www.w3.org/Graphics/SVG/1.1/DTD/svg11.dtd">
<svg version="1.1"
	 id="svg2" sodipodi:docname="drawing.svg" inkscape:version="0.46" xmlns:dc="http://purl.org/dc/elements/1.1/" xmlns:cc="http://creativecommons.org/ns#" xmlns:rdf="http://www.w3.org/1999/02/22-rdf-syntax-ns#" xmlns:svg="http://www.w3.org/2000/svg" xmlns:sodipodi="http://sodipodi.sourceforge.net/DTD/sodipodi-0.dtd" xmlns:inkscape="http://www.inkscape.org/namespaces/inkscape" sodipodi:version="0.32" inkscape:output_extension="org.inkscape.output.svg.inkscape"
	 xmlns="http://www.w3.org/2000/svg" xmlns:xlink="http://www.w3.org/1999/xlink" x="0px" y="0px" width="499.588px"
	 height="236.827px" viewBox="0 -0.987 499.588 236.827" enable-background="new 0 -0.987 499.588 236.827" xml:space="preserve">
<g id="g2490">
	<g>
		<path id="path2496" fill="#C8135C" d="M117.899,235.841c65.121,0,117.914-52.876,117.914-117.9
			C235.812,52.797,183.02,0.013,117.899,0.013C52.781,0.013,0.013,52.797,0.013,117.94
			C0.013,182.964,52.781,235.841,117.899,235.841"/>
		<path id="path2498" fill="#FFFFFF" d="M113.148,66.124v103.485h32.837v-9.297h-23.344V66.124H113.148"/>
		<path id="path2500" fill="#FFFFFF" d="M80.227,94.414c7.785,0,14.194-6.324,14.194-14.132c0-7.85-6.409-14.187-14.194-14.187
			c-7.786,0-14.153,6.338-14.153,14.187C66.074,88.091,72.441,94.414,80.227,94.414"/>
		<path id="path2502" fill="#FFFFFF" d="M122.641,19.312c-1.292-0.035-3.529-0.035-4.743-0.035
			c-54.429,0-98.708,44.187-98.708,98.643c0,26.335,10.291,51.146,28.876,69.76c18.676,18.655,43.404,29.024,69.832,29.024
			c26.371,0,51.133-10.369,69.796-29.024c18.585-18.613,28.819-43.425,28.819-69.76v-4.51h-70.437v9.161h61.092
			c0,0.185-0.042,1.192-0.042,1.398c-3.007,46.594-41.984,83.369-89.228,83.369c-23.858,0-46.417-9.261-63.28-26.109
			c-16.885-16.885-26.235-39.409-26.235-63.316c0-23.887,9.352-46.367,26.235-63.245C71.482,37.747,94.042,28.431,117.9,28.431
			c1.059,0,3.571,0.056,4.743,0.079L122.641,19.312"/>
	</g>
	<path id="path2504" fill="#595959" d="M294.813,58.973h34.781v88.454h51.771v29.459h-86.555L294.813,58.973"/>
	<path id="path2506" fill="#595959" d="M470.243,165.146c-6.135,9.382-17.458,14.74-31.767,14.74
		c-30.701,0-50.672-24.469-50.672-62.088c0-38.27,22.632-61.813,59.63-61.813c14.952,0,27.616,3.933,37.302,11.442
		c9.911,7.863,13.688,15.545,15.265,31.075h-36.514c-0.943-9.128-7.708-14.924-16.836-14.924c-13.992,0-22.202,13.039-22.202,34.688
		c0,21.939,8.528,35.101,22.823,35.101c11.5,0,17.938-6.248,20.613-20.401h-22.491v-24.771h54.606v68.688h-29.758V165.146"/>
</g>
</svg>
