<?xml version="1.0" encoding="UTF-8" standalone="no"?>
<!-- Created with Inkscape (http://www.inkscape.org/) -->

<svg
   xmlns:dc="http://purl.org/dc/elements/1.1/"
   xmlns:cc="http://creativecommons.org/ns#"
   xmlns:rdf="http://www.w3.org/1999/02/22-rdf-syntax-ns#"
   xmlns:svg="http://www.w3.org/2000/svg"
   xmlns="http://www.w3.org/2000/svg"
   xmlns:sodipodi="http://sodipodi.sourceforge.net/DTD/sodipodi-0.dtd"
   xmlns:inkscape="http://www.inkscape.org/namespaces/inkscape"
   width="273.9975mm"
   height="83.113884mm"
   viewBox="0 0 970.85727 294.49801"
   id="svg2"
   version="1.1"
   inkscape:version="0.91 r13725"
   sodipodi:docname="logo_optoma.svg">
  <defs
     id="defs4" />
  <sodipodi:namedview
     id="base"
     pagecolor="#ffffff"
     bordercolor="#666666"
     borderopacity="1.0"
     inkscape:pageopacity="0.0"
     inkscape:pageshadow="2"
     inkscape:zoom="1.0936634"
     inkscape:cx="465.21762"
     inkscape:cy="170.66219"
     inkscape:document-units="px"
     inkscape:current-layer="layer1"
     showgrid="false"
     inkscape:window-width="2194"
     inkscape:window-height="1171"
     inkscape:window-x="-8"
     inkscape:window-y="-8"
     inkscape:window-maximized="1"
     fit-margin-top="0"
     fit-margin-left="0"
     fit-margin-right="0"
     fit-margin-bottom="0" />
  <metadata
     id="metadata7">
    <rdf:RDF>
      <cc:Work
         rdf:about="">
        <dc:format>image/svg+xml</dc:format>
        <dc:type
           rdf:resource="http://purl.org/dc/dcmitype/StillImage" />
        <dc:title></dc:title>
      </cc:Work>
    </rdf:RDF>
  </metadata>
  <g
     inkscape:label="Calque 1"
     inkscape:groupmode="layer"
     id="layer1"
     transform="translate(95.217623,-358.52637)">
    <g
       transform="scale(0.99882788,1.0011735)"
       style="font-style:normal;font-variant:normal;font-weight:500;font-stretch:normal;font-size:215.33511353px;line-height:125%;font-family:Futura-BookOblique;-inkscape-font-specification:'Futura-BookOblique, Medium';text-align:start;letter-spacing:0px;word-spacing:0px;writing-mode:lr-tb;text-anchor:start;fill:#cccccc;fill-opacity:1;stroke:#cccccc;stroke-width:8.80000019;stroke-linecap:butt;stroke-linejoin:miter;stroke-miterlimit:4;stroke-dasharray:none;stroke-opacity:1"
       id="text4147">
      <path
         d="m 218.01855,425.84847 q 31.43893,0.21533 51.89577,20.8875 20.67217,20.45684 20.67217,50.60375 0,3.23003 -0.43067,6.46006 -0.21534,3.23002 -0.64601,6.46005 -5.59871,35.09962 -34.45362,59.43249 -28.8549,24.11753 -63.52385,24.11753 -31.2236,0 -51.89577,-20.02616 -20.67217,-20.2415 -20.45683,-50.38842 0,-3.23002 0.21533,-6.46005 0.43067,-3.23003 0.86134,-6.67539 5.59872,-34.88429 34.23829,-59.43249 28.8549,-24.76354 63.52385,-24.76354 l 0,-0.21533 z m -2.58402,16.79613 q -27.99356,0.21534 -50.38841,20.02617 -22.39485,19.81083 -26.70156,47.37373 -0.43067,2.79935 -0.646,5.59871 -0.21534,2.58402 -0.21534,5.16804 0,23.68686 15.9348,40.05233 15.9348,16.36547 40.69834,16.36547 27.56289,0 50.17308,-19.81083 22.82552,-20.02617 27.13222,-47.37372 0.43067,-2.79936 0.64601,-5.38338 0.21533,-2.79936 0.21533,-5.38338 0,-23.9022 -15.9348,-40.05233 -15.71946,-16.36547 -40.91367,-16.36547 l 0,-0.21534 z"
         style="font-style:normal;font-variant:normal;font-weight:500;font-stretch:normal;font-size:215.33511353px;line-height:125%;font-family:Futura-BookOblique;-inkscape-font-specification:'Futura-BookOblique, Medium';text-align:start;writing-mode:lr-tb;text-anchor:start;fill:#cccccc;stroke:#cccccc;stroke-width:8.80000019;stroke-miterlimit:4;stroke-dasharray:none;stroke-opacity:1"
         id="path4154"
         inkscape:connector-curvature="0" />
      <path
         d="m 333.29349,489.80299 -2.15335,14.42746 0.43067,0 q 7.53673,-8.18274 17.22681,-12.48944 9.69008,-4.52204 20.2415,-4.52204 19.81083,0 30.36225,13.13545 10.55142,12.9201 10.55142,30.79292 0,2.36868 -0.21533,4.9527 -0.21534,2.36869 -0.64601,4.73738 -3.44536,21.53351 -18.94949,37.25297 -15.28879,15.71946 -38.11432,15.71946 -10.33608,0 -18.73415,-4.3067 -8.39807,-4.3067 -13.35078,-12.48943 l -0.43067,-0.21534 -11.19742,71.06059 -17.22681,0 24.97887,-158.05598 17.22681,0 0,0 z m 30.14692,13.13545 q -15.07346,0.21533 -25.84022,11.41276 -10.55142,10.98209 -12.9201,25.19421 -0.21534,0.86134 -0.43067,1.93801 0,1.07668 0,1.93802 -0.21534,1.07667 -0.21534,2.15335 0,0.86134 0,1.93802 0,12.48943 6.89072,21.53351 6.89073,9.04407 20.88751,9.04407 16.5808,0 26.91689,-11.41276 10.55142,-11.6281 12.92011,-26.91689 0.43067,-1.93801 0.43067,-3.6607 0.21533,-1.93801 0.21533,-3.66069 0,-12.70477 -7.53673,-20.88751 -7.32139,-8.39807 -21.31817,-8.39807 l 0,-0.21533 z"
         style="font-style:normal;font-variant:normal;font-weight:500;font-stretch:normal;font-size:215.33511353px;line-height:125%;font-family:Futura-BookOblique;-inkscape-font-specification:'Futura-BookOblique, Medium';text-align:start;writing-mode:lr-tb;text-anchor:start;fill:#cccccc;stroke:#cccccc;stroke-width:8.80000019;stroke-miterlimit:4;stroke-dasharray:none;stroke-opacity:1"
         id="path4156"
         inkscape:connector-curvature="0" />
      <path
         d="m 456.71752,505.73779 -13.56611,85.27271 -17.22681,0 13.56611,-85.27271 -10.55142,0 2.36869,-15.9348 10.55142,0 5.81405,-36.39163 17.22681,0 -5.81405,36.39163 18.08815,0 -2.36869,15.9348 -18.08815,0 0,0 z"
         style="font-style:normal;font-variant:normal;font-weight:500;font-stretch:normal;font-size:215.33511353px;line-height:125%;font-family:Futura-BookOblique;-inkscape-font-specification:'Futura-BookOblique, Medium';text-align:start;writing-mode:lr-tb;text-anchor:start;fill:#cccccc;stroke:#cccccc;stroke-width:8.80000019;stroke-miterlimit:4;stroke-dasharray:none;stroke-opacity:1"
         id="path4158"
         inkscape:connector-curvature="0" />
      <path
         d="m 520.50718,593.80985 q -20.02616,0 -32.73093,-12.70477 -12.70477,-12.70477 -12.70477,-31.65426 0,-1.07667 0,-2.15335 0,-1.07668 0.21533,-2.15335 0,-1.07668 0,-2.15335 0.21534,-1.07668 0.43067,-2.15335 3.6607,-22.39486 21.53351,-37.89898 17.87282,-15.71947 40.05233,-15.71947 20.2415,0 32.94628,12.92011 12.70477,12.92011 12.48943,32.08493 0,1.07668 0,2.15335 0,1.07668 -0.21533,2.15335 0,1.07668 -0.21534,2.15336 0,1.07667 -0.21533,2.15335 -3.44536,22.17951 -21.53351,37.68364 -17.87282,15.28879 -40.05234,15.28879 l 0,0 z m 14.42746,-90.87141 q -15.9348,0.21533 -27.77823,11.41276 -11.84343,10.98209 -14.21212,26.27088 -0.21533,1.72268 -0.43067,3.44536 0,1.50735 0,3.23003 0,13.13544 8.18273,21.96418 8.18274,8.82874 22.39486,8.82874 15.93479,0 27.56289,-10.98209 11.84343,-10.98209 14.21212,-26.48622 0.43067,-1.72268 0.43067,-3.44536 0,-1.72268 0,-3.23003 0,-13.13544 -8.18274,-21.96418 -7.9674,-8.82874 -22.17951,-8.82874 l 0,-0.21533 z"
         style="font-style:normal;font-variant:normal;font-weight:500;font-stretch:normal;font-size:215.33511353px;line-height:125%;font-family:Futura-BookOblique;-inkscape-font-specification:'Futura-BookOblique, Medium';text-align:start;writing-mode:lr-tb;text-anchor:start;fill:#cccccc;stroke:#cccccc;stroke-width:8.80000019;stroke-miterlimit:4;stroke-dasharray:none;stroke-opacity:1"
         id="path4160"
         inkscape:connector-curvature="0" />
      <path
         d="m 631.08177,489.80299 -1.72268,10.9821 0.43067,0 q 5.16804,-6.02939 11.84343,-9.69008 6.89073,-3.87604 14.64279,-3.87604 8.82874,0 15.71946,4.52204 6.89073,4.3067 9.69008,12.2741 5.16805,-7.53673 12.92011,-11.62809 7.75206,-4.09137 15.9348,-4.95271 1.07667,-0.21534 1.93801,-0.21534 1.07668,0 2.15336,0 15.28879,0 20.8875,8.82874 5.81405,8.61341 5.81405,20.67217 0,1.93802 -0.21534,4.30671 0,2.15335 -0.21533,4.3067 -0.21534,1.07667 -0.43067,2.15335 0,1.07668 -0.21534,2.15335 l -9.69008,61.37051 -17.22681,0 9.25941,-58.78649 q 0.21534,-1.29201 0.43067,-2.79935 0.21534,-1.72269 0.43067,-3.44537 0.21534,-1.50734 0.21534,-3.01469 0.21534,-1.72268 0.21534,-3.23002 0,-6.89073 -3.0147,-11.6281 -3.01469,-4.95271 -12.05876,-4.95271 -12.2741,0 -18.08815,8.39807 -5.59872,8.18274 -7.9674,18.08815 -0.43067,1.93802 -0.86134,4.09137 -0.21534,1.93801 -0.64601,3.87603 l -8.39807,53.40311 -17.22681,0 9.04408,-57.49448 q 0.43067,-2.79935 0.646,-5.81405 0.43067,-3.23002 0.43067,-6.46005 0,-7.10606 -2.79935,-12.48944 -2.79936,-5.59871 -11.41276,-5.59871 -12.05877,0 -17.87282,8.18274 -5.81405,8.18273 -8.39807,17.87281 -0.646,2.58402 -1.07667,4.95271 -0.43067,2.36868 -0.86134,4.73737 l -8.18274,52.1111 -17.22681,0 15.9348,-101.20751 17.22681,0 0,0 z"
         style="font-style:normal;font-variant:normal;font-weight:500;font-stretch:normal;font-size:215.33511353px;line-height:125%;font-family:Futura-BookOblique;-inkscape-font-specification:'Futura-BookOblique, Medium';text-align:start;writing-mode:lr-tb;text-anchor:start;fill:#cccccc;stroke:#cccccc;stroke-width:8.80000019;stroke-miterlimit:4;stroke-dasharray:none;stroke-opacity:1"
         id="path4162"
         inkscape:connector-curvature="0" />
      <path
         d="m 871.52022,489.80299 -15.93479,101.20751 -17.22681,0 2.15335,-13.99678 -0.43067,0 q -7.9674,8.6134 -17.44215,12.70477 -9.25941,4.09136 -20.02616,4.09136 -19.5955,0 -30.36225,-12.70477 -10.55142,-12.70477 -10.55142,-30.57758 0,-2.36869 0.21533,-4.73738 0.43067,-2.58402 0.64601,-4.9527 3.44536,-21.74885 18.73415,-37.68365 15.50413,-15.9348 38.32965,-15.9348 10.33609,0 18.73416,4.52204 8.39807,4.52204 13.35077,12.70477 l 0.43067,-0.21533 2.15336,-14.42746 17.2268,0 0,0 z m -52.32643,13.13545 q -15.07346,0.21533 -25.84021,11.41276 -10.55142,10.98209 -12.92011,25.19421 -0.21533,0.86134 -0.43067,1.93801 0,1.07668 0,1.93802 -0.21533,1.07667 -0.21533,2.15335 0,0.86134 0,1.93802 0,12.48943 6.89072,21.53351 6.89072,9.04407 20.88751,9.04407 16.5808,0 26.91689,-11.41276 10.55142,-11.6281 12.9201,-26.91689 0.43067,-1.93801 0.43067,-3.6607 0.21534,-1.93801 0.21534,-3.66069 0,-12.70477 -7.53673,-20.88751 -7.3214,-8.39807 -21.31818,-8.39807 l 0,-0.21533 z"
         style="font-style:normal;font-variant:normal;font-weight:500;font-stretch:normal;font-size:215.33511353px;line-height:125%;font-family:Futura-BookOblique;-inkscape-font-specification:'Futura-BookOblique, Medium';text-align:start;writing-mode:lr-tb;text-anchor:start;fill:#cccccc;stroke:#cccccc;stroke-width:8.80000019;stroke-miterlimit:4;stroke-dasharray:none;stroke-opacity:1"
         id="path4164"
         inkscape:connector-curvature="0" />
    </g>
    <path
       style="fill:#da2127;fill-opacity:1;fill-rule:evenodd;stroke:none;stroke-width:1px;stroke-linecap:butt;stroke-linejoin:miter;stroke-opacity:1"
       d="M -10.74235,480.81956 C -111.16892,405.04323 268.33887,364.11804 440,406.64792 220.4233,290.76683 -297.63677,411.83182 -10.74235,480.81956 Z"
       id="path4151"
       inkscape:connector-curvature="0"
       sodipodi:nodetypes="ccc" />
  </g>
</svg>
