<?xml version="1.0" encoding="UTF-8" standalone="no"?>
<!-- Created with Inkscape (http://www.inkscape.org/) -->
<svg
   xmlns:dc="http://purl.org/dc/elements/1.1/"
   xmlns:cc="http://web.resource.org/cc/"
   xmlns:rdf="http://www.w3.org/1999/02/22-rdf-syntax-ns#"
   xmlns:svg="http://www.w3.org/2000/svg"
   xmlns="http://www.w3.org/2000/svg"
   xmlns:sodipodi="http://sodipodi.sourceforge.net/DTD/sodipodi-0.dtd"
   xmlns:inkscape="http://www.inkscape.org/namespaces/inkscape"
   width="752.69794"
   height="132.87401"
   id="svg24499"
   sodipodi:version="0.32"
   inkscape:version="0.44"
   version="1.0"
   sodipodi:docbase="R:\Logos"
   sodipodi:docname="Panasonic-Logo.svg">
  <defs
     id="defs24501" />
  <sodipodi:namedview
     id="base"
     pagecolor="#ffffff"
     bordercolor="#666666"
     borderopacity="1.0"
     inkscape:pageopacity="0.0"
     inkscape:pageshadow="2"
     inkscape:zoom="0.35"
     inkscape:cx="350"
     inkscape:cy="520"
     inkscape:document-units="px"
     inkscape:current-layer="layer1"
     inkscape:window-width="925"
     inkscape:window-height="574"
     inkscape:window-x="242"
     inkscape:window-y="242"
     width="212.42809mm"
     height="37.5mm"
     units="mm" />
  <metadata
     id="metadata24504">
    <rdf:RDF>
      <cc:Work
         rdf:about="">
        <dc:format>image/svg+xml</dc:format>
        <dc:type
           rdf:resource="http://purl.org/dc/dcmitype/StillImage" />
      </cc:Work>
    </rdf:RDF>
  </metadata>
  <g
     inkscape:label="Ebene 1"
     inkscape:groupmode="layer"
     id="layer1"
     transform="translate(374.9204,-408.833)">
    <g
       id="g24516"
       transform="translate(-1.494141e-6,7.088289)">
      <path
         style="font-size:3.49419999px;letter-spacing:0;word-spacing:0.10098;fill:#2c4285;fill-rule:nonzero;stroke:none;stroke-width:0.011;stroke-linecap:butt;stroke-linejoin:miter;stroke-miterlimit:4;stroke-dasharray:none;font-family:fnt1, &quot;FranklinGothic&quot;, Arial"
         d="M -374.9204,524.95104 L -374.9204,409.59078 L -326.53788,409.59078 C -310.21608,409.76563 -294.47719,410.62545 -283.54737,425.30051 C -280.48704,429.43925 -276.26088,437.04641 -276.26088,449.81239 C -276.26088,465.87189 -283.25591,475.53383 -288.06501,480.03689 C -296.66313,488.64958 -308.17583,489.52395 -319.54282,490.04857 L -340.67374,490.04857 L -340.67374,524.95104 L -374.9204,524.95104 z M -327.55799,463.29244 C -321.87452,463.14673 -315.46237,462.84069 -311.3819,458.68738 C -310.21608,457.46324 -308.32157,455.00039 -308.32157,450.99282 C -308.46731,447.01438 -310.21608,444.53693 -311.23616,443.31282 C -316.191,437.93536 -324.20618,438.5474 -330.76406,438.5474 L -340.23657,438.5474 L -340.23657,463.29244 L -327.55799,463.29244"
         class="ps023 ps14 ps23"
         id="path23367" />
      <path
         style="font-size:3.49419999px;letter-spacing:0;word-spacing:0.10098;fill:#2c4285;fill-rule:nonzero;stroke:none;stroke-width:0.011;stroke-linecap:butt;stroke-linejoin:miter;stroke-miterlimit:4;stroke-dasharray:none;font-family:fnt1, &quot;FranklinGothic&quot;, Arial"
         d="M -220.73755,525.08218 L -222.04912,517.40217 C -226.42102,520.82686 -234.4362,527.53046 -248.86354,527.53046 C -251.34094,527.53046 -262.12499,527.19527 -269.55727,521.00171 C -272.76335,518.21828 -278.30107,511.51467 -278.30107,500.42458 C -278.30107,497.80145 -277.57245,493.3421 -273.34626,487.78977 C -267.37131,479.78915 -260.23053,477.61776 -251.04948,475.47554 L -235.60207,473.5519 C -233.85331,473.05638 -231.9588,472.5755 -229.91855,472.25488 C -229.48136,472.08001 -227.00396,471.74482 -225.69239,470.76842 C -224.38083,469.79204 -223.36069,466.03219 -223.36069,464.22511 C -223.36069,460.96079 -227.5869,458.29392 -234.14476,458.29392 C -239.97397,458.29392 -242.74285,460.40699 -244.20013,462.53463 C -244.92881,463.67135 -245.22027,464.64775 -245.36601,467.27089 L -274.65783,467.09601 C -273.34626,460.40699 -272.03467,455.01495 -267.22557,449.46264 C -261.25062,442.75904 -251.77814,438.51827 -233.27037,438.51827 C -229.77284,438.51827 -215.49126,437.04641 -204.99866,444.0706 C -200.77248,446.85406 -198.0036,450.133 -196.1091,454.53406 C -192.90302,461.39796 -193.77739,469.70459 -193.77739,476.90369 L -193.77739,499.92912 C -193.92313,514.29813 -192.90302,516.90671 -190.27989,525.08218 L -220.73755,525.08218 z M -223.79789,488.03749 C -228.0241,489.50935 -232.396,490.82092 -236.7679,492.2928 L -239.97397,493.2692 C -241.577,493.58982 -246.53184,494.66822 -246.53184,500.87634 C -246.53184,503.65979 -244.92881,508.71666 -238.51667,508.71666 C -237.6423,508.71666 -233.70757,508.33775 -231.66732,507.68197 C -225.83814,506.04979 -225.40091,502.26077 -223.79789,500.61404 L -223.79789,488.03749"
         class="ps023 ps14 ps23"
         id="path23369" />
      <path
         style="font-size:3.49419999px;letter-spacing:0;word-spacing:0.10098;fill:#2c4285;fill-rule:nonzero;stroke:none;stroke-width:0.011;stroke-linecap:butt;stroke-linejoin:miter;stroke-miterlimit:4;stroke-dasharray:none;font-family:fnt1, &quot;FranklinGothic&quot;, Arial"
         d="M -132.5706,525.16963 L -132.5706,484.30679 C -132.5706,489.17418 -131.25903,468.34929 -135.63093,466.29449 C -137.08824,465.58041 -139.85714,464.16682 -143.20893,464.23971 C -146.99792,464.31256 -151.22411,466.14877 -152.68142,469.51514 C -154.28447,473.62474 -154.86735,477.39915 -154.72166,485.95355 L -154.72166,525.19876 L -186.19942,525.19876 L -186.19942,440.61678 L -156.47043,440.61678 L -156.03323,450.43901 C -151.95276,445.44049 -147.14366,438.9846 -129.65601,438.9846 C -116.83171,438.9846 -107.06777,443.45853 -103.13304,456.44312 C -102.25867,459.72207 -101.82148,462.89898 -101.53002,469.63175 L -101.53002,525.16963 L -132.5706,525.16963"
         class="ps023 ps14 ps23"
         id="path23371" />
      <path
         style="font-size:3.49419999px;letter-spacing:0;word-spacing:0.10098;fill:#2c4285;fill-rule:nonzero;stroke:none;stroke-width:0.011;stroke-linecap:butt;stroke-linejoin:miter;stroke-miterlimit:4;stroke-dasharray:none;font-family:fnt1, &quot;FranklinGothic&quot;, Arial"
         d="M 42.305975,465.05581 C 41.723062,461.83516 39.391358,456.50142 31.376184,456.50142 C 27.878653,456.50142 25.255518,457.44866 23.94395,458.26476 C 23.21527,458.5708 22.049444,460.68386 22.049444,463.10302 C 22.049444,463.74422 22.632357,465.66786 24.526838,466.80456 C 25.692715,467.46036 28.461592,468.26184 31.667641,468.62619 L 44.054741,471.84682 C 52.798568,474.06194 60.376543,475.62128 66.49721,481.74194 C 69.557594,484.64196 71.160618,488.40181 71.597791,489.93199 C 73.0551,494.30389 72.326445,497.72855 72.326445,499.18586 C 72.326445,509.15383 67.517346,515.15794 64.748445,517.73734 C 58.773519,523.21683 49.301037,527.35559 31.959123,527.35559 C 17.531801,527.35559 8.496492,523.56658 3.1044545,520.43337 C -8.4082495,513.7589 -8.991163,501.47385 -9.7198174,497.61197 L 20.300678,497.50997 C 20.592135,500.41001 21.029307,502.58139 23.361011,504.66532 C 25.255518,506.44325 27.295715,507.66739 32.687752,507.66739 C 39.099901,507.66739 42.743173,504.5779 42.888889,501.76529 C 43.034629,501.43012 43.034629,499.17131 42.160234,498.04917 C 40.702925,495.63007 36.768222,494.60993 31.084728,493.15262 C 31.084728,493.15262 13.597073,489.39277 12.285505,488.76614 C 8.3507763,486.95911 -7.5338542,483.38868 -7.5338542,465.66786 C -7.5338542,455.69989 -2.4332734,450.38072 0.48131891,447.64101 C 5.8733564,442.96304 14.7629,438.6203 30.647555,438.6203 C 34.145061,438.6203 49.00958,438.45998 60.085087,446.03798 C 63.14542,448.12191 65.62284,450.70134 67.517346,453.76167 C 70.140482,458.10444 70.57768,463.29244 70.869162,465.05581 L 42.305975,465.05581"
         class="ps023 ps14 ps23"
         id="path23373" />
      <path
         style="font-size:3.49419999px;letter-spacing:0;word-spacing:0.10098;fill:#2c4285;fill-rule:nonzero;stroke:none;stroke-width:0.011;stroke-linecap:butt;stroke-linejoin:miter;stroke-miterlimit:4;stroke-dasharray:none;font-family:fnt1, &quot;FranklinGothic&quot;, Arial"
         d="M 150.58372,515.49311 C 145.48316,520.66654 134.99055,527.45759 117.64863,527.45759 C 112.11085,527.45759 96.809187,527.13698 85.58794,513.87548 C 80.924532,508.22117 75.241063,498.83611 75.241063,482.00427 C 75.241063,479.08963 75.241063,472.45892 78.009939,465.18695 C 84.276372,446.75206 101.32683,438.3434 119.25166,438.50369 C 124.06078,438.50369 139.07102,438.9846 149.85507,449.98726 C 155.2471,455.4813 162.09645,465.50757 161.95071,483.30123 C 161.95071,487.65858 161.65925,504.16984 150.58372,515.49311 z M 127.26686,464.42914 C 124.49798,461.83516 120.27177,461.31051 118.81446,461.31051 C 115.17124,461.31051 112.54805,463.42363 111.67368,464.06481 C 107.88469,467.13975 105.11582,471.81769 105.11582,482.32486 C 105.11582,490.5732 107.01032,504.37387 118.66874,504.37387 C 122.02053,504.37387 125.22661,503.4995 127.26686,501.08037 C 130.03571,498.00546 132.95035,492.4531 132.80461,482.74745 C 132.80461,482.26654 132.95035,470.24379 127.26686,464.42914"
         class="ps023"
         id="path23381" />
      <path
         style="font-size:3.49419999px;letter-spacing:0;word-spacing:0.10098;fill:#2c4285;fill-rule:nonzero;stroke:none;stroke-width:0.011;stroke-linecap:butt;stroke-linejoin:miter;stroke-miterlimit:4;stroke-dasharray:none;font-family:fnt1, &quot;FranklinGothic&quot;, Arial"
         d="M 257.40416,440.33991 L 288.29902,440.33991 L 288.29902,525.31534 L 257.40416,525.31534 L 257.40416,440.33991 z M 257.40416,408.83297 L 288.29902,408.83297 L 288.29902,430.9403 L 257.40416,430.9403 L 257.40416,408.83297 z "
         class="ps023"
         id="path23383" />
      <path
         style="font-size:3.49419999px;letter-spacing:0;word-spacing:0.10098;fill:#2c4285;fill-rule:nonzero;stroke:none;stroke-width:0.011;stroke-linecap:butt;stroke-linejoin:miter;stroke-miterlimit:4;stroke-dasharray:none;font-family:fnt1, &quot;FranklinGothic&quot;, Arial"
         d="M 347.75706,472.8378 C 345.42536,462.63666 340.47056,462.12662 334.93278,462.12662 C 330.41514,462.12662 328.95782,463.65677 327.50054,464.92463 C 323.56579,468.27644 322.25422,472.42976 322.25422,482.79119 C 322.25422,483.57816 321.81703,497.42254 329.39502,502.68339 C 331.58097,504.12615 332.60109,504.21357 335.22424,504.21357 C 336.09862,504.21357 338.72176,504.30102 341.05346,503.19344 C 344.11379,501.76529 347.31987,499.14215 347.9028,491.95764 L 377.77754,491.70992 C 377.48609,493.63353 376.32023,500.41001 373.40564,505.9915 C 365.97339,520.81228 350.81739,526.99124 335.51572,526.99124 C 329.24931,526.99124 324.87737,526.04402 322.25422,525.56309 C 310.15858,522.53189 299.52027,514.07951 294.85691,501.96932 C 293.54534,498.31149 291.79655,492.73 291.79655,483.47613 C 291.79655,479.65801 291.94229,469.77744 297.33431,459.89694 C 298.06296,458.30847 300.54041,454.31548 304.03791,450.6576 C 315.4049,439.49467 332.30964,439.17406 336.3901,439.17406 C 352.12897,439.17406 361.89293,445.07614 366.70203,449.53551 C 368.15935,450.97822 371.07394,454.82552 373.40564,460.08637 C 375.30014,464.38543 376.32023,468.21815 377.0489,472.8378 L 347.75706,472.8378"
         class="ps023"
         id="path23385" />
      <path
         style="font-size:3.49419999px;letter-spacing:0;word-spacing:0.10098;fill:#2c4285;fill-rule:nonzero;stroke:none;stroke-width:0.011;stroke-linecap:butt;stroke-linejoin:miter;stroke-miterlimit:4;stroke-dasharray:none;font-family:fnt1, &quot;FranklinGothic&quot;, Arial"
         d="M -12.63441,500.38087 L -12.63441,477.39915 C -12.63441,470.21464 -12.63441,460.55273 -15.694768,453.70338 C -17.73499,449.28774 -19.192299,446.83948 -23.418459,444.0706 C -33.911078,437.04641 -49.358485,438.37253 -52.856041,438.37253 C -71.363807,438.37253 -80.836289,443.25452 -86.81124,449.95813 C -91.620339,455.51046 -92.64045,460.94619 -93.952043,467.64979 L -64.660202,467.64979 C -64.514461,465.02663 -64.077264,464.05026 -63.494375,462.89898 C -61.891326,460.78587 -59.559647,458.11902 -53.730437,458.11902 C -47.172547,458.11902 -42.946362,461.45626 -42.946362,464.72062 C -42.946362,466.51307 -43.092078,469.44227 -44.403645,470.41867 C -45.715213,471.40962 -49.067054,472.5755 -49.649967,472.73579 C -51.107251,472.98354 -53.001757,473.42071 -55.333461,474.03278 L -70.635153,475.971 C -79.816178,478.09867 -86.956956,479.96402 -92.931932,487.96462 C -97.303833,493.51695 -97.303833,498.58837 -97.303833,501.19695 C -97.303833,512.30162 -92.494734,518.71374 -89.28866,521.4972 C -81.8564,527.69076 -71.218066,527.45759 -68.594906,527.45759 C -54.167609,527.45759 -46.589634,521.11829 -42.071992,517.69365 L -40.760424,525.70883 L -9.1368787,525.70883 C -10.885644,520.15649 -12.780151,517.25643 -12.63441,500.38087 z M -51.252992,508.17743 C -53.293239,508.83324 -56.79077,508.6875 -57.66514,508.64377 C -62.911437,508.29402 -65.680313,503.51405 -65.680313,500.7306 C -65.680313,494.52248 -60.725473,493.51695 -59.122424,493.19636 L -55.770634,492.26367 C -51.544448,490.79181 -47.172547,489.55309 -42.946362,488.0812 L -42.800621,498.87983 C -44.112214,501.31353 -45.569523,506.54525 -51.252992,508.17743"
         class="ps023"
         id="path23387" />
      <path
         style="font-size:3.49419999px;letter-spacing:0;word-spacing:0.10098;fill:#2c4285;fill-rule:nonzero;stroke:none;stroke-width:0.011;stroke-linecap:butt;stroke-linejoin:miter;stroke-miterlimit:4;stroke-dasharray:none;font-family:fnt1, &quot;FranklinGothic&quot;, Arial"
         d="M 220.09717,525.00933 L 220.09717,483.88417 C 220.09717,488.75156 221.55448,468.18899 217.18255,466.11961 C 215.72527,465.4347 212.95636,464.00652 209.75029,464.07942 C 205.9613,464.15226 201.58938,465.98848 200.27781,469.35485 C 198.52904,473.46445 197.65467,476.26246 197.80041,484.80228 L 197.50893,525.16963 L 166.75981,525.03844 L 166.75981,440.45646 L 196.34311,440.45646 L 196.78028,450.27875 C 200.86075,445.28017 205.66985,438.82428 223.30324,438.82428 C 235.98177,438.82428 245.74571,444.21632 249.68047,457.20094 C 250.55484,460.47986 250.70055,462.62208 251.13775,469.35485 L 251.13775,525.03844 L 220.09717,525.00933"
         class="ps023 ps14 ps23"
         id="path23389" />
    </g>
  </g>
</svg>
