<?xml version="1.0" encoding="UTF-8" standalone="no"?>
<!-- Created with Inkscape (http://www.inkscape.org/) -->

<svg
   xmlns:dc="http://purl.org/dc/elements/1.1/"
   xmlns:cc="http://creativecommons.org/ns#"
   xmlns:rdf="http://www.w3.org/1999/02/22-rdf-syntax-ns#"
   xmlns:svg="http://www.w3.org/2000/svg"
   xmlns="http://www.w3.org/2000/svg"
   xmlns:sodipodi="http://sodipodi.sourceforge.net/DTD/sodipodi-0.dtd"
   xmlns:inkscape="http://www.inkscape.org/namespaces/inkscape"
   width="49.141884mm"
   height="13.537848mm"
   viewBox="0 0 174.12479 47.968751"
   id="svg2"
   version="1.1"
   inkscape:version="0.91 r13725"
   sodipodi:docname="Qnix_Logo.svg">
  <defs
     id="defs4" />
  <sodipodi:namedview
     id="base"
     pagecolor="#ffffff"
     bordercolor="#666666"
     borderopacity="1.0"
     inkscape:pageopacity="0.0"
     inkscape:pageshadow="2"
     inkscape:zoom="5.5838693"
     inkscape:cx="99.247687"
     inkscape:cy="18.744054"
     inkscape:document-units="px"
     inkscape:current-layer="layer1"
     showgrid="false"
     showguides="true"
     inkscape:guide-bbox="true"
     fit-margin-top="0"
     fit-margin-left="0"
     fit-margin-right="0"
     fit-margin-bottom="0"
     inkscape:window-width="2048"
     inkscape:window-height="1089"
     inkscape:window-x="-8"
     inkscape:window-y="-8"
     inkscape:window-maximized="1" />
  <metadata
     id="metadata7">
    <rdf:RDF>
      <cc:Work
         rdf:about="">
        <dc:format>image/svg+xml</dc:format>
        <dc:type
           rdf:resource="http://purl.org/dc/dcmitype/StillImage" />
        <dc:title></dc:title>
      </cc:Work>
    </rdf:RDF>
  </metadata>
  <g
     inkscape:label="Calque 1"
     inkscape:groupmode="layer"
     id="layer1"
     transform="translate(19.07596,-167.67064)">
    <path
       style="fill:#b3b3b3;fill-rule:evenodd;stroke:none;stroke-width:1px;stroke-linecap:butt;stroke-linejoin:miter;stroke-opacity:1"
       d="m -19.07596,167.67064 0,47.96875 44.185544,-7.78907 4.58399,6.47071 8.84375,-0.20899 -5.98633,-7.57422 6.05078,-1.0664 -6.70898,0.23437 -3.73047,-4.71875 -6.92774,1.39258 2.55664,3.60938 -31.4785123,1.09961 0,-28.86329 42.7617223,9.39258 6.55078,16.36719 0,-21.15625 -60.701174,-15.1582 z"
       id="path3373"
       inkscape:connector-curvature="0" />
    <g
       id="g4253"
       transform="translate(0,-7.2932615)">
      <path
         inkscape:connector-curvature="0"
         id="rect3421"
         d="m 56.416016,193.74609 c -2.987072,0 -5.390625,2.40551 -5.390625,5.39258 l 0,11.70313 c 0,2.98707 2.403553,5.39258 5.390625,5.39258 l 12.234375,0 4.78125,5.25781 3.910156,-3.86328 -1.269531,-1.39844 c 2.958606,-0.0326 5.332031,-2.42207 5.332031,-5.38867 l 0,-11.70313 c 0,-2.98707 -2.405507,-5.39258 -5.392578,-5.39258 l -19.595703,0 z m 2.433593,5.39258 14.861329,0 c 1.129259,0 2.037109,0.93783 2.037109,2.10352 l 0,8.41601 c 0,1.16569 -0.90785,2.10547 -2.037109,2.10547 l -1.701172,0 -4.003907,-4.40429 -3.912109,3.86328 0.492188,0.54101 -5.736329,0 c -1.129259,0 -2.039062,-0.93978 -2.039062,-2.10547 l 0,-8.41601 c 0,-1.16569 0.909803,-2.10352 2.039062,-2.10352 z"
         style="fill:#b3b3b3;fill-opacity:1;stroke:none;stroke-opacity:1" />
      <path
         inkscape:connector-curvature="0"
         id="rect4227"
         d="m 84.955078,193.74609 0,22.48829 5.126953,0 0,-17.09571 15.650389,17.09571 2.36719,0 5.12891,0 0,-22.48829 -5.12891,0 0,18.01758 -16.636719,-18.01758 -1.38086,0 -5.126953,0 z"
         style="fill:#b3b3b3;stroke:none;stroke-opacity:1" />
      <rect
         y="193.74654"
         x="117.17362"
         height="22.487869"
         width="5.7863498"
         id="rect4231"
         style="fill:#b3b3b3;stroke:none;stroke-opacity:1" />
      <path
         inkscape:connector-curvature="0"
         id="path4235"
         d="m 126.11523,193.74609 0,1.8418 10.89063,9.88281 -10.89063,10.76368 6.57618,0 8.04297,-7.38086 8.13281,7.38086 6.18164,0 -10.66602,-10.72852 10.66602,-9.78711 0,-1.97266 -6.18164,0 -8.15821,8.06446 -8.01757,-8.06446 -6.57618,0 z"
         style="fill:#b3b3b3;fill-rule:evenodd;stroke:none;stroke-width:1px;stroke-linecap:butt;stroke-linejoin:miter;stroke-opacity:1" />
    </g>
  </g>
</svg>
