<?xml version="1.0" encoding="UTF-8" standalone="no"?>
<svg
   width="128"
   height="128"
   viewBox="0 0 128 128"
   fill="none"
   stroke="#000000"
   stroke-width="2"
   stroke-linecap="round"
   stroke-linejoin="round"
   version="1.1"
   id="svg6"
   sodipodi:docname="CopyConfig.svg"
   inkscape:version="1.2.2 (732a01da63, 2022-12-09)"
   xmlns:inkscape="http://www.inkscape.org/namespaces/inkscape"
   xmlns:sodipodi="http://sodipodi.sourceforge.net/DTD/sodipodi-0.dtd"
   xmlns="http://www.w3.org/2000/svg"
   xmlns:svg="http://www.w3.org/2000/svg"
   xmlns:rdf="http://www.w3.org/1999/02/22-rdf-syntax-ns#"
   xmlns:cc="http://creativecommons.org/ns#"
   xmlns:dc="http://purl.org/dc/elements/1.1/">
  <metadata
     id="metadata12">
    <rdf:RDF>
      <cc:Work
         rdf:about="">
        <dc:format>image/svg+xml</dc:format>
        <dc:type
           rdf:resource="http://purl.org/dc/dcmitype/StillImage" />
      </cc:Work>
    </rdf:RDF>
  </metadata>
  <defs
     id="defs10" />
  <sodipodi:namedview
     pagecolor="#a0a0a0"
     bordercolor="#666666"
     borderopacity="1"
     objecttolerance="10"
     gridtolerance="10"
     guidetolerance="10"
     inkscape:pageopacity="0"
     inkscape:pageshadow="2"
     inkscape:window-width="3840"
     inkscape:window-height="2071"
     id="namedview8"
     showgrid="false"
     inkscape:zoom="8.443406"
     inkscape:cx="94.57084"
     inkscape:cy="84.089288"
     inkscape:window-x="1341"
     inkscape:window-y="-9"
     inkscape:window-maximized="1"
     inkscape:current-layer="svg6"
     inkscape:showpageshadow="2"
     inkscape:pagecheckerboard="0"
     inkscape:deskcolor="#a0a0a0" />
  <path
     d="m 16,4 h 2 a 2,2 0 0 1 2,2 v 14 a 2,2 0 0 1 -2,2 H 6 A 2,2 0 0 1 4,20 V 6 A 2,2 0 0 1 6,4 h 2"
     id="path2"
     style="stroke:#a0a0a0" />
  <rect
     x="8"
     y="2"
     width="8"
     height="4"
     rx="1"
     ry="1"
     id="rect4"
     style="stroke:#a0a0a0" />
  <g
     id="g8"
     transform="matrix(0.09771987,0,0,0.09771987,15.120521,15.126474)"
     style="fill:#a0a0a0;fill-opacity:1">
    <path
       id="path4"
       d="m 983.8,425.7 c -2.3,-15.3 -12.9,-28.1 -27.5,-33.3 L 879.2,365 c -4.6,-12.9 -9.7,-25.5 -15.5,-37.7 l 35.1,-73.9 c 6.6,-13.9 5.1,-30.4 -4.1,-42.9 -29.6,-40.3 -65,-75.7 -105.2,-105.1 -12.5,-9.2 -28.9,-10.7 -42.9,-4.1 l -73.9,35.1 C 660.5,130.7 647.9,125.5 635,120.9 L 607.5,43.7 C 602.3,29.2 589.6,18.6 574.3,16.3 520,8 479.9,8 425.5,16.3 c -15.3,2.4 -28,12.9 -33.2,27.4 L 365,120.9 c -12.9,4.6 -25.5,9.7 -37.7,15.5 l -73.9,-35.1 c -13.9,-6.6 -30.4,-5.1 -42.9,4.1 -40.2,29.5 -75.6,64.9 -105.2,105.1 -9.2,12.5 -10.7,29 -4.1,42.9 l 35.1,73.9 C 130.6,339.4 125.4,352 120.8,365 L 43.6,392.5 C 29,397.7 18.5,410.4 16.2,425.7 12,453.3 10,476.9 10,500 c 0,23 2,46.7 6.2,74.4 2.3,15.3 12.9,28.1 27.5,33.3 l 77.2,27.5 c 4.6,13 9.8,25.5 15.5,37.7 l -35.1,73.9 c -6.6,13.9 -5.1,30.4 4.1,42.9 29.6,40.2 65,75.6 105.2,105.2 12.5,9.2 28.9,10.7 42.9,4.1 l 73.9,-35.1 c 12.2,5.7 24.8,10.9 37.7,15.5 l 27.5,77.2 c 5.2,14.5 17.9,25.1 33.2,27.4 27.2,4.2 51.5,6.2 74.4,6.2 22.9,0 47.3,-2 74.4,-6.2 15.3,-2.4 28,-12.9 33.2,-27.4 l 27.5,-77.2 c 12.9,-4.6 25.5,-9.7 37.7,-15.5 l 73.9,35.1 c 14,6.7 30.4,5.1 42.9,-4.1 40.3,-29.6 75.7,-65 105.2,-105.2 9.1,-12.4 10.7,-28.9 4.1,-42.9 L 864,672.9 c 5.7,-12.2 10.9,-24.8 15.5,-37.7 l 77.2,-27.5 c 14.6,-5.2 25.1,-17.9 27.5,-33.3 4.2,-27.7 6.2,-51.3 6.2,-74.4 -0.4,-23 -2.4,-46.7 -6.6,-74.3 z M 904,537.1 831.6,562.9 c -12.7,4.5 -22.4,14.8 -26.2,27.7 -6.5,21.9 -15,42.6 -25.3,61.5 -6.4,11.8 -6.8,26 -1.1,38.1 l 32.9,69.1 c -15.9,19.1 -33.4,36.6 -52.5,52.5 L 690.2,779 c -12.2,-5.8 -26.3,-5.4 -38.1,1 -19,10.3 -39.7,18.8 -61.6,25.3 -12.9,3.8 -23.2,13.5 -27.7,26.2 L 537.1,904 c -26.3,2.7 -47.8,2.7 -74.1,0 l -25.8,-72.5 c -4.5,-12.6 -14.8,-22.4 -27.7,-26.2 -21.9,-6.5 -42.6,-15 -61.6,-25.3 -11.8,-6.5 -26,-6.9 -38.1,-1 l -69.1,32.8 c -19.1,-15.9 -36.6,-33.4 -52.5,-52.5 l 32.9,-69.1 c 5.8,-12.1 5.4,-26.3 -1.1,-38.1 -10.3,-18.9 -18.8,-39.6 -25.3,-61.6 -3.8,-12.9 -13.6,-23.2 -26.2,-27.6 L 96,537.1 c -1.4,-13.2 -2,-25.3 -2,-37.1 0,-11.8 0.7,-23.9 2,-37 l 72.4,-25.8 c 12.6,-4.5 22.4,-14.8 26.2,-27.6 6.5,-21.9 15,-42.6 25.3,-61.6 6.4,-11.8 6.8,-26 1.1,-38.1 l -32.9,-69.1 c 15.9,-19.1 33.5,-36.7 52.5,-52.5 l 69.1,32.8 c 12.1,5.8 26.3,5.4 38.1,-1 19,-10.3 39.7,-18.8 61.6,-25.3 12.9,-3.8 23.2,-13.6 27.7,-26.2 l 25.8,-72.5 c 26.1,-2.7 47.6,-2.7 74.1,0 l 25.8,72.5 c 4.5,12.6 14.8,22.4 27.7,26.2 21.9,6.5 42.6,15 61.6,25.3 11.8,6.5 26,6.9 38.1,1 l 69.1,-32.8 c 19.1,15.9 36.6,33.4 52.5,52.5 l -32.8,69 c -5.8,12.1 -5.4,26.3 1.1,38.1 10.4,19.1 18.9,39.8 25.3,61.6 3.8,12.9 13.5,23.2 26.2,27.7 L 904,463 c 1.4,13.2 2,25.3 2,37.1 0,11.7 -0.7,23.8 -2,37 z"
       inkscape:connector-curvature="0"
       style="fill:#000000;fill-opacity:1" />
    <path
       id="path6"
       d="m 500,295.7 c -107.2,0 -194.4,87.2 -194.4,194.4 0,107.2 87.2,194.5 194.4,194.5 107.2,0 194.4,-87.2 194.4,-194.4 C 694.4,383 607.2,295.7 500,295.7 Z m 0,304.9 c -60.9,0 -110.4,-49.5 -110.4,-110.4 0,-60.9 49.5,-110.4 110.4,-110.4 60.9,0 110.4,49.5 110.4,110.4 0,60.8 -49.5,110.4 -110.4,110.4 z"
       inkscape:connector-curvature="0"
       style="fill:#000000;fill-opacity:1" />
  </g>
  <g
     id="g10"
     transform="matrix(0.07248937,0,0,0.07248937,35.690502,-3.6340977)" />
  <g
     id="g12"
     transform="matrix(0.07248937,0,0,0.07248937,35.690502,-3.6340977)" />
  <g
     id="g14"
     transform="matrix(0.07248937,0,0,0.07248937,35.690502,-3.6340977)" />
  <g
     id="g16"
     transform="matrix(0.07248937,0,0,0.07248937,35.690502,-3.6340977)" />
  <g
     id="g18"
     transform="matrix(0.07248937,0,0,0.07248937,35.690502,-3.6340977)" />
  <g
     id="g20"
     transform="matrix(0.07248937,0,0,0.07248937,35.690502,-3.6340977)" />
  <g
     id="g22"
     transform="matrix(0.07248937,0,0,0.07248937,35.690502,-3.6340977)" />
  <g
     id="g24"
     transform="matrix(0.07248937,0,0,0.07248937,35.690502,-3.6340977)" />
  <g
     id="g26"
     transform="matrix(0.07248937,0,0,0.07248937,35.690502,-3.6340977)" />
  <g
     id="g28"
     transform="matrix(0.07248937,0,0,0.07248937,35.690502,-3.6340977)" />
  <g
     id="g30"
     transform="matrix(0.07248937,0,0,0.07248937,35.690502,-3.6340977)" />
  <g
     id="g32"
     transform="matrix(0.07248937,0,0,0.07248937,35.690502,-3.6340977)" />
  <g
     id="g34"
     transform="matrix(0.07248937,0,0,0.07248937,35.690502,-3.6340977)" />
  <g
     id="g36"
     transform="matrix(0.07248937,0,0,0.07248937,35.690502,-3.6340977)" />
  <g
     id="g38"
     transform="matrix(0.07248937,0,0,0.07248937,35.690502,-3.6340977)" />
</svg>
