<?xml version="1.0" encoding="UTF-8" standalone="no"?>
<svg
   overflow="visible"
   version="1.1"
   id="svg23"
   sodipodi:docname="Spacedesk.svg"
   width="85.182411"
   height="17.466249"
   inkscape:version="1.1 (c68e22c387, 2021-05-23)"
   xmlns:inkscape="http://www.inkscape.org/namespaces/inkscape"
   xmlns:sodipodi="http://sodipodi.sourceforge.net/DTD/sodipodi-0.dtd"
   xmlns="http://www.w3.org/2000/svg"
   xmlns:svg="http://www.w3.org/2000/svg">
  <defs
     id="defs27" />
  <sodipodi:namedview
     id="namedview25"
     pagecolor="#505050"
     bordercolor="#eeeeee"
     borderopacity="1"
     inkscape:pageshadow="0"
     inkscape:pageopacity="0"
     inkscape:pagecheckerboard="0"
     showgrid="false"
     inkscape:zoom="9.9533333"
     inkscape:cx="82.635633"
     inkscape:cy="26.172137"
     inkscape:window-width="2655"
     inkscape:window-height="1205"
     inkscape:window-x="6658"
     inkscape:window-y="2536"
     inkscape:window-maximized="0"
     inkscape:current-layer="g20"
     fit-margin-top="0"
     fit-margin-left="0"
     fit-margin-right="0"
     fit-margin-bottom="0" />
  <svg
     id="Calque_1"
     width="85.129997"
     height="16.620001"
     version="1.1"
     transform="translate(0,0.8062501)">
    <g
       id="g20">
      <defs
         id="defs2" />
      <path
         id="path991"
         fill="#000000"
         transform="translate(-2.53,-1.84)"
         d="M 2.53,14 H 3.9 v 0.17 a 0.65,0.65 0 0 0 0.29,0.57 1.32,1.32 0 0 0 0.76,0.2 A 1.23,1.23 0 0 0 5.71,14.73 0.61,0.61 0 0 0 6,14.16 0.69,0.69 0 0 0 5.82,13.65 1.33,1.33 0 0 0 5.18,13.39 L 4.56,13.29 A 3.09,3.09 0 0 1 3.06,12.68 1.5,1.5 0 0 1 2.58,11.49 1.51,1.51 0 0 1 2.74,10.78 1.54,1.54 0 0 1 3.19,10.21 2,2 0 0 1 3.91,9.84 2.83,2.83 0 0 1 4.86,9.7 a 2.61,2.61 0 0 1 1.67,0.48 1.56,1.56 0 0 1 0.61,1.31 v 0.12 H 5.76 V 11.49 A 0.64,0.64 0 0 0 5.53,11 1,1 0 0 0 4.85,10.8 1,1 0 0 0 4.17,11 a 0.62,0.62 0 0 0 0,0.94 1.76,1.76 0 0 0 0.66,0.24 l 0.63,0.11 A 2.69,2.69 0 0 1 6.95,12.92 1.71,1.71 0 0 1 7.39,14.16 1.65,1.65 0 0 1 7.22,14.88 1.79,1.79 0 0 1 6.74,15.47 2.37,2.37 0 0 1 5.98,15.86 3.18,3.18 0 0 1 5,16 3.42,3.42 0 0 1 4,15.86 2.18,2.18 0 0 1 3.24,15.47 1.66,1.66 0 0 1 2.76,14.89 1.71,1.71 0 0 1 2.59,14.15 Z"
         fill-rule="nonzero" />
      <path
         id="path993"
         fill="#000000"
         transform="translate(-2.53,-1.84)"
         d="m 9.93,10.77 a 1.46,1.46 0 0 1 0.6,-0.78 1.78,1.78 0 0 1 1.05,-0.29 2.47,2.47 0 0 1 1,0.18 1.85,1.85 0 0 1 0.74,0.56 2.8,2.8 0 0 1 0.48,1 5.36,5.36 0 0 1 0.17,1.42 5.31,5.31 0 0 1 -0.17,1.42 2.72,2.72 0 0 1 -0.48,1 1.78,1.78 0 0 1 -0.74,0.57 2.47,2.47 0 0 1 -1,0.18 1.85,1.85 0 0 1 -1.05,-0.29 1.46,1.46 0 0 1 -0.6,-0.78 V 18.5 H 8.56 V 9.84 h 1.37 z m 0.68,3.94 a 1.24,1.24 0 0 0 0.64,0.15 1.22,1.22 0 0 0 0.63,-0.15 1.05,1.05 0 0 0 0.41,-0.4 1.93,1.93 0 0 0 0.22,-0.64 5.21,5.21 0 0 0 0.06,-0.83 5.31,5.31 0 0 0 -0.06,-0.83 1.87,1.87 0 0 0 -0.22,-0.63 1.08,1.08 0 0 0 -0.41,-0.41 1.22,1.22 0 0 0 -0.63,-0.14 1.24,1.24 0 0 0 -0.64,0.14 A 1.15,1.15 0 0 0 10.2,11.38 1.87,1.87 0 0 0 10,12 5.31,5.31 0 0 0 9.94,12.83 5.21,5.21 0 0 0 10,13.66 a 1.93,1.93 0 0 0 0.21,0.64 1.12,1.12 0 0 0 0.4,0.41 z"
         fill-rule="nonzero" />
      <path
         id="path995"
         fill="#000000"
         transform="translate(-2.53,-1.84)"
         d="m 18.76,15.17 a 1.14,1.14 0 0 1 -0.55,0.58 2.16,2.16 0 0 1 -1.08,0.24 2.51,2.51 0 0 1 -1.64,-0.5 1.71,1.71 0 0 1 -0.6,-1.41 1.73,1.73 0 0 1 0.6,-1.42 2.51,2.51 0 0 1 1.64,-0.49 2.38,2.38 0 0 1 1,0.21 1.17,1.17 0 0 1 0.61,0.59 V 12 a 1,1 0 0 0 -1.15,-1.16 c -0.68,0 -1.05,0.26 -1.12,0.8 h -1.36 a 1.94,1.94 0 0 1 0.68,-1.4 2.71,2.71 0 0 1 1.82,-0.53 2.56,2.56 0 0 1 1.9,0.62 2.24,2.24 0 0 1 0.62,1.67 v 3 a 2.25,2.25 0 0 0 0,0.46 2.43,2.43 0 0 0 0.1,0.37 h -1.4 a 0.92,0.92 0 0 1 -0.08,-0.29 z m -2.5,-1.09 c 0,0.57 0.42,0.86 1.25,0.86 0.83,0 1.25,-0.29 1.25,-0.86 0,-0.57 -0.42,-0.87 -1.25,-0.87 -0.83,0 -1.25,0.29 -1.25,0.87 z"
         fill-rule="nonzero" />
      <path
         id="path997"
         fill="#000000"
         transform="translate(-2.53,-1.84)"
         d="M 22,15.18 A 3.57,3.57 0 0 1 21.33,12.84 3.56,3.56 0 0 1 22,10.51 2.47,2.47 0 0 1 24,9.7 a 2.84,2.84 0 0 1 1.82,0.54 2.24,2.24 0 0 1 0.79,1.58 h -1.37 a 1,1 0 0 0 -0.36,-0.72 1.29,1.29 0 0 0 -0.87,-0.27 1.22,1.22 0 0 0 -0.63,0.14 1.08,1.08 0 0 0 -0.41,0.41 1.87,1.87 0 0 0 -0.22,0.63 5.31,5.31 0 0 0 -0.06,0.83 5.21,5.21 0 0 0 0.06,0.83 1.93,1.93 0 0 0 0.22,0.64 1.05,1.05 0 0 0 0.41,0.4 1.22,1.22 0 0 0 0.63,0.15 1.29,1.29 0 0 0 0.87,-0.27 1,1 0 0 0 0.36,-0.73 h 1.38 A 2.22,2.22 0 0 1 25.83,15.44 2.84,2.84 0 0 1 24,16 2.47,2.47 0 0 1 22,15.18 Z"
         fill-rule="nonzero" />
      <path
         id="path999"
         fill="#000000"
         transform="translate(-2.53,-1.84)"
         d="m 28.89,13.26 a 2.07,2.07 0 0 0 0.34,1.18 1.1,1.1 0 0 0 1,0.42 1.35,1.35 0 0 0 0.8,-0.22 0.94,0.94 0 0 0 0.38,-0.62 h 1.39 a 2.25,2.25 0 0 1 -0.82,1.46 2.78,2.78 0 0 1 -1.75,0.51 2.47,2.47 0 0 1 -2,-0.81 3.57,3.57 0 0 1 -0.67,-2.34 3.56,3.56 0 0 1 0.67,-2.33 2.47,2.47 0 0 1 2,-0.81 2.47,2.47 0 0 1 2,0.81 3.56,3.56 0 0 1 0.67,2.33 v 0.42 z m 2.6,-1 a 2.07,2.07 0 0 0 -0.35,-1.05 1.39,1.39 0 0 0 -1.89,0 2.07,2.07 0 0 0 -0.35,1.05 z"
         fill-rule="nonzero" />
      <path
         id="path1001"
         fill="#23a137"
         transform="translate(-2.53,-1.84)"
         d="m 37.9,14.92 a 1.46,1.46 0 0 1 -0.6,0.78 1.89,1.89 0 0 1 -1.06,0.29 2.5,2.5 0 0 1 -1,-0.18 1.85,1.85 0 0 1 -0.74,-0.57 2.71,2.71 0 0 1 -0.47,-1 5.31,5.31 0 0 1 -0.17,-1.42 5.36,5.36 0 0 1 0.17,-1.42 2.8,2.8 0 0 1 0.47,-1 1.92,1.92 0 0 1 0.74,-0.56 2.5,2.5 0 0 1 1,-0.18 1.81,1.81 0 0 1 1.06,0.34 1.46,1.46 0 0 1 0.6,0.78 V 7.44 h 1.37 v 8.4 H 37.9 Z m -2,-0.21 a 1.24,1.24 0 0 0 0.64,0.15 1.2,1.2 0 0 0 0.63,-0.15 1.05,1.05 0 0 0 0.41,-0.4 1.73,1.73 0 0 0 0.22,-0.64 5.21,5.21 0 0 0 0.06,-0.83 5.31,5.31 0 0 0 -0.06,-0.83 1.68,1.68 0 0 0 -0.22,-0.63 1.08,1.08 0 0 0 -0.41,-0.41 1.2,1.2 0 0 0 -0.63,-0.14 1.24,1.24 0 0 0 -0.64,0.14 1.15,1.15 0 0 0 -0.41,0.41 1.87,1.87 0 0 0 -0.21,0.63 5.31,5.31 0 0 0 -0.06,0.83 5.21,5.21 0 0 0 0.06,0.83 1.93,1.93 0 0 0 0.21,0.64 1.12,1.12 0 0 0 0.45,0.4 z"
         fill-rule="nonzero" />
      <path
         id="path1003"
         fill="#23a137"
         transform="translate(-2.53,-1.84)"
         d="m 41.87,13.26 a 2.15,2.15 0 0 0 0.34,1.18 1.13,1.13 0 0 0 1,0.42 1.32,1.32 0 0 0 0.79,-0.22 0.87,0.87 0 0 0 0.38,-0.62 h 1.4 a 2.31,2.31 0 0 1 -0.83,1.46 2.73,2.73 0 0 1 -1.74,0.51 2.47,2.47 0 0 1 -2,-0.81 3.57,3.57 0 0 1 -0.67,-2.34 3.56,3.56 0 0 1 0.67,-2.33 2.91,2.91 0 0 1 4,0 3.56,3.56 0 0 1 0.68,2.33 v 0.42 z m 2.6,-1 a 2,2 0 0 0 -0.35,-1.05 1.13,1.13 0 0 0 -0.94,-0.37 1.11,1.11 0 0 0 -0.94,0.37 2,2 0 0 0 -0.36,1.05 z"
         fill-rule="nonzero" />
      <path
         id="path1005"
         fill="#23a137"
         transform="translate(-2.53,-1.84)"
         d="m 46.91,14 h 1.37 v 0.17 a 0.63,0.63 0 0 0 0.29,0.57 1.3,1.3 0 0 0 0.75,0.2 1.24,1.24 0 0 0 0.77,-0.21 0.64,0.64 0 0 0 0.28,-0.54 0.69,0.69 0 0 0 -0.18,-0.51 1.38,1.38 0 0 0 -0.64,-0.26 l -0.62,-0.1 a 3.09,3.09 0 0 1 -1.5,-0.61 1.5,1.5 0 0 1 -0.43,-1.22 1.64,1.64 0 0 1 0.15,-0.71 1.78,1.78 0 0 1 0.45,-0.57 2.23,2.23 0 0 1 0.72,-0.37 2.89,2.89 0 0 1 1,-0.14 2.61,2.61 0 0 1 1.67,0.48 1.59,1.59 0 0 1 0.61,1.31 v 0.12 h -1.46 v -0.12 a 0.68,0.68 0 0 0 -0.23,-0.51 1,1 0 0 0 -0.68,-0.2 1,1 0 0 0 -0.69,0.2 0.61,0.61 0 0 0 -0.23,0.47 0.55,0.55 0 0 0 0.21,0.47 1.63,1.63 0 0 0 0.66,0.24 l 0.62,0.11 a 2.73,2.73 0 0 1 1.5,0.63 1.7,1.7 0 0 1 0.43,1.24 1.64,1.64 0 0 1 -0.16,0.72 2.08,2.08 0 0 1 -0.48,0.59 2.42,2.42 0 0 1 -0.77,0.39 3.13,3.13 0 0 1 -1,0.15 3.52,3.52 0 0 1 -1,-0.14 2.23,2.23 0 0 1 -0.75,-0.39 1.66,1.66 0 0 1 -0.48,-0.58 1.71,1.71 0 0 1 -0.17,-0.74 z"
         fill-rule="nonzero" />
      <path
         id="path1007"
         fill="#23a137"
         transform="translate(-2.53,-1.84)"
         d="m 52.93,7.44 h 1.37 v 4.74 h 0.57 l 1.47,-2.34 h 1.49 l -1.83,2.88 2.14,3.12 h -1.57 l -1.72,-2.6 H 54.3 v 2.6 h -1.37 z"
         fill-rule="nonzero" />
      <rect
         x="57.939999"
         y="0.5"
         width="16.860001"
         height="10.5"
         rx="0.97000003"
         ry="0.97000003"
         id="rect1009"
         fill="none"
         stroke="#23a137" />
      <path
         id="path1011"
         fill="#000000"
         transform="translate(-2.53,-1.84)"
         d="m 83.82,3.68 a 1.4,1.4 0 0 0 -1,-0.44 h -3.56 v 1 h 3.53 a 0.37,0.37 0 0 1 0.29,0.12 0.39,0.39 0 0 1 0.1,0.3 l -0.63,7.17 A 0.57,0.57 0 0 1 82,12.34 h -3.77 a 1.38,1.38 0 0 1 -0.86,1 H 82 a 1.56,1.56 0 0 0 1.55,-1.42 L 84.17,4.75 A 1.38,1.38 0 0 0 83.82,3.68 Z"
         fill-rule="nonzero" />
      <path
         id="path1013"
         fill="#000000"
         transform="translate(-2.53,-1.84)"
         d="m 82.79,3.24 h -2.53 v 1 h 2.53"
         fill-rule="nonzero" />
      <path
         id="path1015"
         fill="#000000"
         transform="translate(-2.53,-1.84)"
         d="m 81.79,3.24 h -2.53 v 1 h 2.53"
         fill-rule="nonzero" />
      <path
         id="path1017"
         fill="#000000"
         transform="translate(-2.53,-1.84)"
         d="m 87.31,6.17 a 1.41,1.41 0 0 0 -1,-0.45 H 85 v 1 h 1.28 a 0.41,0.41 0 0 1 0.31,0.12 0.36,0.36 0 0 1 0.09,0.3 l -0.42,4.69 a 0.59,0.59 0 0 1 -0.58,0.51 H 84 a 1.37,1.37 0 0 1 -0.85,1 h 2.56 a 1.58,1.58 0 0 0 1.57,-1.42 l 0.43,-4.69 a 1.39,1.39 0 0 0 -0.4,-1.06 z"
         fill-rule="nonzero" />
      <text
         font-size="6px"
         fill="#000000"
         dominant-baseline="hanging"
         id="text1019">X10</text>
      <path
         id="path1021"
         fill="#23a137"
         stroke="#23a137"
         transform="translate(-2.53,-1.84)"
         d="">M 64,15 L 74,15 </path>
    </g>
  </svg>
</svg>
