<?xml version="1.0" encoding="utf-8"?>
<!-- Generator: Adobe Illustrator 12.0.0, SVG Export Plug-In . SVG Version: 6.00 Build 51448)  -->
<!DOCTYPE svg PUBLIC "-//W3C//DTD SVG 1.1//EN" "http://www.w3.org/Graphics/SVG/1.1/DTD/svg11.dtd" [
	<!ENTITY ns_svg "http://www.w3.org/2000/svg">
	<!ENTITY ns_xlink "http://www.w3.org/1999/xlink">
]>
<svg  version="1.1" id="Layer_1" xmlns="&ns_svg;" xmlns:xlink="&ns_xlink;" width="539.773" height="144.571"
	 viewBox="0 0 539.773 144.571" overflow="visible" enable-background="new 0 0 539.773 144.571" xml:space="preserve">
<g>
	<path fill-rule="evenodd" clip-rule="evenodd" fill="#006254" d="M428.544,4.731h44.145l-5.218,25.661
		c13.485-21.097,28.928-27.177,47.848-28.484c6.524-0.211,14.572,0.653,21.747,1.739l-8.487,33.71
		c-6.955-1.74-14.347-3.044-20.871-3.044c-26.095-0.432-45.454,17.171-52.198,42.394l-15.223,57.855h-45.668
		C405.927,91.286,420.936,44.1,428.544,4.731L428.544,4.731z"/>
	<path fill-rule="evenodd" clip-rule="evenodd" fill="#006254" d="M303.025,62.396c7.611-3.696,34.146-3.293,51.325-5.47
		c19.79-2.391,47.399-13.264,46.746-29.793c-1.084-17.615-16.734-21.608-31.304-19.649C335.43,12.484,313.03,34.995,303.025,62.396
		L303.025,62.396z M298.774,73.632c-0.87,7.61-1.837,15.696-1.187,21.79c2.83,21.527,21.703,31.594,41.93,32.25
		c16.84,0.398,37.374-9.68,48.542-22.225c2.109-2.373,4.535-1.6,5.965,0.293c1.093,1.441,0.662,4.711-0.346,5.707
		c-17.54,17.414-35.569,27.24-60.642,27.457c-28.488,0.217-64.154-10.646-68.503-40.219c-0.653-3.48-0.653-7.4-0.218-11.531
		c5.654-54.784,55.676-84.379,104.824-86.99c23.487-1.304,57.413,4.787,55.456,30.23c-1.957,26.75-42.407,36.103-68.722,36.753
		C333.69,67.801,306.385,67.703,298.774,73.632L298.774,73.632z"/>
	<path fill-rule="evenodd" clip-rule="evenodd" fill="#006254" d="M274.238,104.563l-7.386,28.266
		c-12.397,2.613-28.497,5.004-43.286,4.57c-43.929-0.867-76.116-21.1-74.159-62.856c2.389-48.056,50.021-72.633,95.909-73.285
		c15.224,0,29.139,1.518,44.581,5.216l-13.702,27.183c-10.003-2.827-23.486-5.436-36.971-4.131
		c-21.095,1.521-40.45,12.829-46.104,35.013c-7.393,27.836,8.698,47.418,37.189,47.418
		C245.313,111.958,259.887,108.917,274.238,104.563L274.238,104.563z"/>
	<path fill-rule="evenodd" clip-rule="evenodd" fill="#006254" d="M88.513,1.688c36.753,0,64.434,8.442,67.074,38.959
		c1.015,11.739-3.259,22.208-6.521,34.607l-15.318,59.531c-29.358,0-53.281,0.65-79.813,2.824C29.36,137.61,0,132.395,0,101.077
		c0.513-51.177,79.813-46.541,113.522-46.541c7.178-20.443-9.57-28.707-33.056-28.707c-21.312,0-38.864,6.089-56.045,11.744
		l6.025-27.62C47.193,4.516,68.722,1.688,88.513,1.688L88.513,1.688z M108.52,74.979c-18.517,0-70.849-4.367-70.849,23.924
		c0,14.133,14.789,16.242,27.186,16.242C97.43,115.145,102.51,103.772,108.52,74.979L108.52,74.979z"/>
	<path fill-rule="evenodd" clip-rule="evenodd" fill="#006254" d="M521.717,108.249c-4.992,0-9.343,1.957-12.606,5.227
		c-3.472,3.697-5.438,8.256-5.438,13.037c0,4.793,1.966,9.141,5.227,12.621c3.475,3.48,8.039,5.438,12.817,5.438
		c4.784,0,9.357-1.957,12.841-5.438c3.486-3.48,5.215-7.828,5.215-12.621c0-4.992-1.729-9.557-5.215-12.82
		C531.075,110.206,526.501,108.249,521.717,108.249L521.717,108.249z M538.044,126.512c0,4.354-1.743,8.273-4.79,11.314
		c-3.044,3.047-7.397,4.787-11.537,4.787c-4.342,0-8.476-1.74-11.52-4.787c-3.041-3.041-4.775-7.172-4.775-11.314
		c0-4.336,1.734-8.473,4.775-11.742c3.044-3.041,7.178-4.775,11.52-4.775c4.359,0,8.493,1.734,11.537,5.004
		C536.301,118.04,538.044,121.948,538.044,126.512L538.044,126.512z M522.163,115.643h-7.397v20.889h2.833v-9.357h5.221l4.556,9.357
		h3.272l-4.79-9.574c3.047-0.445,5.007-2.619,5.007-5.438C530.864,117.389,528.034,115.643,522.163,115.643L522.163,115.643z
		 M521.717,117.606c4.14,0,6.316,1.084,6.316,3.697c0,3.258-1.957,4.131-6.316,4.131h-4.119v-7.828H521.717L521.717,117.606z"/>
</g>
</svg>
