<?xml version="1.0" encoding="UTF-8" standalone="no"?>
<!-- Created with Inkscape (http://www.inkscape.org/) -->
<svg
   xmlns:dc="http://purl.org/dc/elements/1.1/"
   xmlns:cc="http://web.resource.org/cc/"
   xmlns:rdf="http://www.w3.org/1999/02/22-rdf-syntax-ns#"
   xmlns:svg="http://www.w3.org/2000/svg"
   xmlns="http://www.w3.org/2000/svg"
   xmlns:sodipodi="http://sodipodi.sourceforge.net/DTD/sodipodi-0.dtd"
   xmlns:inkscape="http://www.inkscape.org/namespaces/inkscape"
   width="369.77951"
   height="111.01181"
   id="svg1956"
   sodipodi:version="0.32"
   inkscape:version="0.44"
   version="1.0"
   sodipodi:docbase="R:\Logos"
   sodipodi:docname="BenQ-Logo.svg">
  <defs
     id="defs1958" />
  <sodipodi:namedview
     id="base"
     pagecolor="#ffffff"
     bordercolor="#666666"
     borderopacity="1.0"
     inkscape:pageopacity="0.0"
     inkscape:pageshadow="2"
     inkscape:zoom="0.35"
     inkscape:cx="350"
     inkscape:cy="146.50936"
     inkscape:document-units="px"
     inkscape:current-layer="layer1"
     width="104.36mm"
     height="31.33mm"
     units="mm"
     inkscape:window-width="904"
     inkscape:window-height="574"
     inkscape:window-x="138"
     inkscape:window-y="138" />
  <metadata
     id="metadata1961">
    <rdf:RDF>
      <cc:Work
         rdf:about="">
        <dc:format>image/svg+xml</dc:format>
        <dc:type
           rdf:resource="http://purl.org/dc/dcmitype/StillImage" />
      </cc:Work>
    </rdf:RDF>
  </metadata>
  <g
     inkscape:label="Ebene 1"
     inkscape:groupmode="layer"
     id="layer1"
     transform="translate(48.00996,-536.7671)">
    <g
       id="g2093"
       transform="translate(3.546199,3.545002)">
      <path
         style="fill:#482a91;fill-rule:nonzero;stroke:none"
         d="M 76.761252,557.81878 C 84.353742,557.81878 89.760922,563.48242 91.273012,570.96271 L 62.233472,570.96271 C 63.745552,563.37557 68.981752,557.81878 76.761252,557.81878 M 77.033742,537.19456 C 53.022022,537.19456 35.993682,554.98696 35.993682,580.15277 L 35.993682,582.82432 C 35.993682,608.36415 53.695242,625.08795 81.073092,625.08795 C 87.153502,625.08795 101.88967,625.08795 115.87782,614.24152 L 115.87782,595.43394 C 104.42763,604.08971 96.845812,605.31861 86.966492,605.31861 C 72.588312,605.31861 63.419622,599.65495 61.624362,586.72474 L 117.21359,586.72474 C 117.27769,585.38899 117.27769,584.05322 117.27769,582.77087 C 117.8601,553.59777 99.389122,537.19456 77.033742,537.19456"
         class="ps00"
         id="path8" />
      <path
         style="fill:#482a91;fill-rule:nonzero;stroke:none"
         d="M 148.08579,551.13994 C 156.06299,541.52244 163.81043,537.51515 173.99431,537.51515 C 186.44365,537.51515 202.99112,544.942 202.99112,569.78724 L 202.99112,622.89729 L 177.95887,622.89729 L 177.95887,573.74111 C 177.95887,561.77265 172.61046,556.91045 165.54159,556.91045 C 159.34898,556.91045 154.58831,560.33003 148.08579,570.85586 L 148.08579,622.89729 L 122.98942,622.89729 L 122.98942,539.91952 L 148.08579,539.91952 L 148.08579,551.13994"
         class="ps00"
         id="path10" />
      <path
         style="fill:#482a91;fill-rule:nonzero;stroke:none"
         d="M -24.046318,604.46372 L -3.2297276,604.46372 C 2.0278324,604.46372 6.9167424,602.59364 6.9167424,595.80795 C 6.9167424,589.28941 2.0278324,587.1522 -3.2297276,587.1522 L -24.046318,587.1522 L -24.046318,604.46372 M -23.971498,571.33673 L -4.8219776,571.33673 C -0.7932976,571.33673 5.1962824,571.17643 5.1962824,564.87161 C 5.1962824,559.15455 -0.4566876,558.1928 -4.8219776,558.1928 L -23.971498,558.1928 L -23.971498,571.33673 M 33.060342,598.21233 C 33.060342,604.19656 30.858992,611.944 23.667232,617.55423 C 16.683842,622.89729 9.3638624,623.27129 2.6155624,623.27129 L -48.009958,623.27129 L -48.009958,537.622 L 0.8309824,537.622 C 5.8267424,537.72887 9.6897824,537.72887 14.199332,539.22491 C 22.005542,541.84301 30.372782,546.97236 30.372782,559.20798 C 30.372782,567.59658 26.157112,574.16855 19.408812,577.69497 C 21.642222,578.92387 23.667232,579.93905 25.783102,581.91599 C 29.475142,585.17527 33.060342,590.46489 33.060342,598.21233"
         class="ps00"
         id="path12" />
      <path
         style="fill:#482a91;fill-rule:nonzero;stroke:none"
         d="M 266.32244,600.29613 C 262.90288,604.41028 258.14755,606.38721 253.01821,606.38721 C 246.44624,606.38721 241.53062,603.34167 237.95077,598.05203 C 235.18307,593.88444 233.7351,588.43453 233.74043,582.55715 C 233.74043,575.07688 236.2036,568.61176 240.088,564.1236 C 243.61443,559.74229 247.51485,558.13935 253.01821,558.13935 C 256.75836,558.13935 260.33821,558.99426 263.2769,561.23834 C 268.72681,565.67307 272.19979,573.74111 272.19979,582.34343 C 272.19979,589.23599 270.00914,595.96825 266.32244,600.29613 M 274.01645,620.92036 L 273.90958,620.59977 C 288.81673,615.36357 299.12884,600.83043 299.12884,581.11453 C 299.12884,548.36155 273.48214,536.76711 253.65937,536.76711 C 229.75452,536.76711 207.83193,551.83455 207.83193,580.90081 C 207.83193,607.50926 227.08298,624.98108 253.49908,625.08795 C 257.39952,629.73641 278.66491,647.84938 310.77672,637.5907 L 314.67715,610.02051 C 299.18226,623.05757 277.48943,621.93554 274.01645,620.92036"
         class="ps00"
         id="path14" />
    </g>
  </g>
</svg>
