<?xml version="1.0" encoding="UTF-8" standalone="no"?>
<!-- Created with Inkscape (http://www.inkscape.org/) -->

<svg
   xmlns:dc="http://purl.org/dc/elements/1.1/"
   xmlns:cc="http://creativecommons.org/ns#"
   xmlns:rdf="http://www.w3.org/1999/02/22-rdf-syntax-ns#"
   xmlns:svg="http://www.w3.org/2000/svg"
   xmlns="http://www.w3.org/2000/svg"
   xmlns:sodipodi="http://sodipodi.sourceforge.net/DTD/sodipodi-0.dtd"
   xmlns:inkscape="http://www.inkscape.org/namespaces/inkscape"
   width="98.546097mm"
   height="28.078899mm"
   viewBox="0 0 349.17908 99.492163"
   id="svg2"
   version="1.1"
   inkscape:version="0.91 r13725"
   sodipodi:docname="Logo_Iolair.svg">
  <defs
     id="defs4" />
  <sodipodi:namedview
     id="base"
     pagecolor="#ffffff"
     bordercolor="#666666"
     borderopacity="1.0"
     inkscape:pageopacity="0.0"
     inkscape:pageshadow="2"
     inkscape:zoom="0.84571642"
     inkscape:cx="169.10193"
     inkscape:cy="7.5005127"
     inkscape:document-units="px"
     inkscape:current-layer="layer1"
     showgrid="false"
     showguides="false"
     inkscape:guide-bbox="true"
     fit-margin-top="0"
     fit-margin-left="0"
     fit-margin-right="0"
     fit-margin-bottom="0"
     inkscape:window-width="2048"
     inkscape:window-height="1089"
     inkscape:window-x="-8"
     inkscape:window-y="-8"
     inkscape:window-maximized="1">
    <sodipodi:guide
       position="-30.078532,75.345087"
       orientation="0,1"
       id="guide3347" />
    <sodipodi:guide
       position="106.50253,1.1428494"
       orientation="0,1"
       id="guide3349" />
    <sodipodi:guide
       position="0.49930843,54.144447"
       orientation="1,0"
       id="guide3351" />
    <sodipodi:guide
       position="15.992088,28.051348"
       orientation="1,0"
       id="guide3353" />
    <sodipodi:guide
       position="40.046668,20.712669"
       orientation="1,0"
       id="guide3355" />
    <sodipodi:guide
       position="54.724028,87.168526"
       orientation="1,0"
       id="guide3357" />
    <sodipodi:guide
       position="62.878128,46.805768"
       orientation="1,0"
       id="guide3359" />
    <sodipodi:guide
       position="128.92628,35.390038"
       orientation="1,0"
       id="guide3361" />
    <sodipodi:guide
       position="140.34201,37.020858"
       orientation="1,0"
       id="guide3363" />
    <sodipodi:guide
       position="160.72724,98.991966"
       orientation="0,1"
       id="guide3365" />
    <sodipodi:guide
       position="282.63094,84.314596"
       orientation="0,1"
       id="guide3367" />
    <sodipodi:guide
       position="167.25052,44.359538"
       orientation="1,0"
       id="guide3369" />
    <sodipodi:guide
       position="257.76095,52.513627"
       orientation="1,0"
       id="guide3371" />
    <sodipodi:guide
       position="281.40782,49.251998"
       orientation="1,0"
       id="guide3373" />
    <sodipodi:guide
       position="295.67749,35.797738"
       orientation="1,0"
       id="guide3375" />
    <sodipodi:guide
       position="318.50895,23.974309"
       orientation="1,0"
       id="guide3377" />
    <sodipodi:guide
       position="348.67909,39.467078"
       orientation="1,0"
       id="guide3379" />
    <sodipodi:guide
       position="327.07075,44.359538"
       orientation="1,0"
       id="guide3381" />
    <sodipodi:guide
       position="176.22002,13.373989"
       orientation="1,0"
       id="guide3383" />
    <sodipodi:guide
       position="242.67588,-13.53452"
       orientation="1,0"
       id="guide3385" />
    <sodipodi:guide
       position="-14.178052,15.820209"
       orientation="0,1"
       id="guide3387" />
    <sodipodi:guide
       position="-34.563292,59.444607"
       orientation="0,1"
       id="guide3389" />
    <sodipodi:guide
       position="90.194338,-20.0578"
       orientation="1,0"
       id="guide3391" />
    <sodipodi:guide
       position="99.163838,-24.13484"
       orientation="1,0"
       id="guide3393" />
    <sodipodi:guide
       position="272.71868,95.295136"
       orientation="0,1"
       id="guide3395" />
    <sodipodi:guide
       position="269.77587,80.179826"
       orientation="0,1"
       id="guide3397" />
    <sodipodi:guide
       position="291.57937,64.128177"
       orientation="1,0"
       id="guide3399" />
    <sodipodi:guide
       position="338.12916,44.866188"
       orientation="0,1"
       id="guide3401" />
    <sodipodi:guide
       position="323.9502,72.020237"
       orientation="0,1"
       id="guide3403" />
    <sodipodi:guide
       position="323.54891,55.032237"
       orientation="0,1"
       id="guide3405" />
  </sodipodi:namedview>
  <metadata
     id="metadata7">
    <rdf:RDF>
      <cc:Work
         rdf:about="">
        <dc:format>image/svg+xml</dc:format>
        <dc:type
           rdf:resource="http://purl.org/dc/dcmitype/StillImage" />
        <dc:title></dc:title>
      </cc:Work>
    </rdf:RDF>
  </metadata>
  <g
     inkscape:label="Calque 1"
     inkscape:groupmode="layer"
     id="layer1"
     transform="translate(-202.94531,-434.18945)">
    <g
       id="g4236">
      <path
         id="rect3407"
         d="m 203.44531,434.68945 0,14.67774 15.49219,0 0,68.49414 -15.49219,0 0,14.67773 54.22461,0 0,-14.67773 -14.67773,0 0,-68.49414 14.67773,0 0,-14.67774 -14.67773,0 -24.05469,0 -15.49219,0 z"
         style="fill:#cccccc;stroke:#000000;stroke-opacity:1"
         inkscape:connector-curvature="0" />
      <path
         id="rect3413"
         d="m 286.55859,453.50195 c -11.4873,0 -20.73437,9.24707 -20.73437,20.73438 l 0,37.5664 c 0,11.48731 9.24707,20.73633 20.73437,20.73633 l 24.57813,0 c 11.4873,0 20.73437,-9.24902 20.73437,-20.73633 l 0,-37.5664 c 0,-11.48731 -9.24707,-20.73438 -20.73437,-20.73438 l -24.57813,0 z m 12.28907,17.70703 c 2.48455,0 4.48437,1.99983 4.48437,4.48438 l 0,34.6543 c 0,2.48455 -1.99982,4.48437 -4.48437,4.48437 -2.48456,0 -4.48438,-1.99982 -4.48438,-4.48437 l 0,-34.6543 c 0,-2.48455 1.99982,-4.48438 4.48438,-4.48438 z"
         style="fill:#cccccc;stroke:#000000;stroke-opacity:1"
         inkscape:connector-curvature="0" />
      <rect
         y="434.68964"
         x="343.28732"
         height="97.849121"
         width="26.90851"
         id="rect4215"
         style="fill:#cccccc;stroke:#000000;stroke-opacity:1" />
      <rect
         ry="0"
         y="438.38647"
         x="460.70627"
         height="15.11531"
         width="23.64687"
         id="rect4219"
         style="fill:#cccccc;stroke:#000000;stroke-opacity:1" />
      <rect
         ry="0"
         y="458.33652"
         x="460.70627"
         height="74.20224"
         width="23.64687"
         id="rect4221"
         style="fill:#cccccc;stroke:#000000;stroke-opacity:1" />
      <path
         id="path4227"
         d="m 419.8457,457.25195 c -8.33202,-0.014 -18.70464,0.6471 -23.69336,2.58203 -7.98195,3.0959 -9.8589,5.27739 -12.08789,10.90625 -2.22899,5.62886 0.34375,13.125 0.34375,13.125 l 21.1836,-2.41796 c 0,0 4.45159,-6.4043 9.55664,-6.4043 5.10506,0 1.38086,4.75781 1.38086,4.75781 0,0 -38.51563,9.85601 -38.51563,28.4707 0,18.61468 12.3849,23.30353 17.2168,24.72852 4.83191,1.42499 16.70366,-6.28324 21.29883,-5.04102 4.59517,1.24222 4.49023,4.58008 4.49023,4.58008 l 24.60156,0 0,-58.30273 c -2.55471,-12.57563 -9.44902,-15.38667 -14.58593,-16.35938 -1.92635,-0.36476 -6.19024,-0.61659 -11.18946,-0.625 z m -7.57617,48.48633 a 4.0294456,4.7777715 0 0 1 4.0293,4.7793 4.0294456,4.7777715 0 0 1 -4.0293,4.77734 4.0294456,4.7777715 0 0 1 -4.0293,-4.77734 4.0294456,4.7777715 0 0 1 4.0293,-4.7793 z"
         style="fill:#cccccc;fill-rule:evenodd;stroke:#000000;stroke-width:1px;stroke-linecap:butt;stroke-linejoin:miter;stroke-opacity:1"
         inkscape:connector-curvature="0" />
      <path
         sodipodi:nodetypes="cccsccccczccccc"
         inkscape:connector-curvature="0"
         id="path4231"
         d="m 498.6228,532.53877 22.83146,0 -0.0582,-50.65858 c 0,0 0.0587,-3.03542 4.5283,-3.14349 4.0725,-0.0985 4.20269,2.93108 4.0335,2.93976 l 0.0582,7.64563 21.60834,-0.50665 0,-30.4789 -21.60834,0 c 0,0 -1.31421,3.0808 -3.12055,3.32485 -1.80634,0.24405 -5.44125,-3.32485 -5.44125,-3.32485 l -26.92958,0 0,11.21691 4.09812,0.21402 z"
         style="fill:#cccccc;fill-rule:evenodd;stroke:#000000;stroke-width:1px;stroke-linecap:butt;stroke-linejoin:miter;stroke-opacity:1" />
    </g>
  </g>
</svg>
