<?xml version="1.0" encoding="UTF-8" standalone="no"?>
<!-- Created with Inkscape (http://www.inkscape.org/) -->

<svg
   xmlns:dc="http://purl.org/dc/elements/1.1/"
   xmlns:cc="http://creativecommons.org/ns#"
   xmlns:rdf="http://www.w3.org/1999/02/22-rdf-syntax-ns#"
   xmlns:svg="http://www.w3.org/2000/svg"
   xmlns="http://www.w3.org/2000/svg"
   xmlns:sodipodi="http://sodipodi.sourceforge.net/DTD/sodipodi-0.dtd"
   xmlns:inkscape="http://www.inkscape.org/namespaces/inkscape"
   id="svg2"
   version="1.1"
   inkscape:version="0.91 r13725"
   xml:space="preserve"
   width="1052.3625"
   height="744.09998"
   viewBox="0 0 1052.3625 744.09998"
   sodipodi:docname="power_button.svg"><metadata
     id="metadata8"><rdf:RDF><cc:Work
         rdf:about=""><dc:format>image/svg+xml</dc:format><dc:type
           rdf:resource="http://purl.org/dc/dcmitype/StillImage" /><dc:title></dc:title></cc:Work></rdf:RDF></metadata><defs
     id="defs6"><clipPath
       clipPathUnits="userSpaceOnUse"
       id="clipPath16"><path
         d="m 168,35 572.999,0 0,531 L 168,566 168,35 Z"
         id="path18"
         inkscape:connector-curvature="0" /></clipPath><linearGradient
       x1="0"
       y1="0"
       x2="1"
       y2="0"
       gradientUnits="userSpaceOnUse"
       gradientTransform="matrix(59.811344,-133.78853,-133.78853,-59.811344,238.26367,194.5625)"
       spreadMethod="pad"
       id="linearGradient36"><stop
         style="stop-opacity:1;stop-color:#fefefe"
         offset="0"
         id="stop38" /><stop
         style="stop-opacity:1;stop-color:#979595"
         offset="0.92180342"
         id="stop40" /><stop
         style="stop-opacity:1;stop-color:#979595"
         offset="1"
         id="stop42" /></linearGradient><clipPath
       clipPathUnits="userSpaceOnUse"
       id="clipPath50"><path
         d="m 168,35 572.999,0 0,531 L 168,566 168,35 Z"
         id="path52"
         inkscape:connector-curvature="0" /></clipPath><clipPath
       clipPathUnits="userSpaceOnUse"
       id="clipPath66"><path
         d="m 267.115,189.084 c -16.511,-0.242 -31.437,-7.036 -42.296,-17.891 l 0,0 c -10.587,-10.585 -17.31,-25.037 -17.868,-41.057 l 0,0 c -0.588,-16.858 5.936,-33.462 17.868,-45.392 l 0,0 c 10.859,-10.858 25.785,-17.648 42.296,-17.892 l 0,0 c 16.436,-0.235 32.505,6.263 44.134,17.888 l 0,0 c 11.935,11.928 18.461,28.536 17.87,45.396 l 0,0 c -0.558,16.022 -7.28,30.475 -17.87,41.061 l 0,0 c -11.425,11.422 -27.137,17.892 -43.272,17.893 l 0,0 c -0.287,0 -0.574,-0.002 -0.862,-0.006"
         id="path68"
         inkscape:connector-curvature="0" /></clipPath><clipPath
       clipPathUnits="userSpaceOnUse"
       id="clipPath456"><path
         d="m 168,35 572.999,0 0,531 L 168,566 168,35 Z"
         id="path458"
         inkscape:connector-curvature="0" /></clipPath><clipPath
       clipPathUnits="userSpaceOnUse"
       id="clipPath464"><path
         d="m 206.126,186.033 44.564,0 0,-66.972 -44.564,0 0,66.972 z"
         id="path466"
         inkscape:connector-curvature="0" /></clipPath><linearGradient
       x1="0"
       y1="0"
       x2="1"
       y2="0"
       gradientUnits="userSpaceOnUse"
       gradientTransform="matrix(44.564453,0,0,-44.564453,206.12598,152.54687)"
       spreadMethod="pad"
       id="linearGradient472"><stop
         style="stop-opacity:1;stop-color:#c6c5c5"
         offset="0"
         id="stop474" /><stop
         style="stop-opacity:1;stop-color:#c6c5c5"
         offset="0.18495066"
         id="stop476" /><stop
         style="stop-opacity:1;stop-color:#fefefe"
         offset="0.526882"
         id="stop478" /><stop
         style="stop-opacity:1;stop-color:#979595"
         offset="0.92043205"
         id="stop480" /><stop
         style="stop-opacity:1;stop-color:#979595"
         offset="1"
         id="stop482" /></linearGradient><clipPath
       clipPathUnits="userSpaceOnUse"
       id="clipPath502"><path
         d="m 279.238,130.477 50.366,0 0,-62.3735 -50.366,0 0,62.3735 z"
         id="path504"
         inkscape:connector-curvature="0" /></clipPath><linearGradient
       x1="0"
       y1="0"
       x2="1"
       y2="0"
       gradientUnits="userSpaceOnUse"
       gradientTransform="matrix(-13.608669,42.436794,-42.436794,-13.608669,311.2876,77.814453)"
       spreadMethod="pad"
       id="linearGradient510"><stop
         style="stop-opacity:1;stop-color:#c6c5c5"
         offset="0"
         id="stop512" /><stop
         style="stop-opacity:1;stop-color:#c6c5c5"
         offset="0.18495066"
         id="stop514" /><stop
         style="stop-opacity:1;stop-color:#fefefe"
         offset="0.526882"
         id="stop516" /><stop
         style="stop-opacity:1;stop-color:#979595"
         offset="0.92043205"
         id="stop518" /><stop
         style="stop-opacity:1;stop-color:#979595"
         offset="1"
         id="stop520" /></linearGradient><clipPath
       clipPathUnits="userSpaceOnUse"
       id="clipPath548"><path
         d="m 207.165,189.092 120.689,0 0,-67.937 -120.689,0 0,67.937 z"
         id="path550"
         inkscape:connector-curvature="0" /></clipPath><linearGradient
       x1="0"
       y1="0"
       x2="1"
       y2="0"
       gradientUnits="userSpaceOnUse"
       gradientTransform="matrix(120.68945,0,0,-120.68945,207.16455,155.12305)"
       spreadMethod="pad"
       id="linearGradient556"><stop
         style="stop-opacity:1;stop-color:#c6c5c5"
         offset="0"
         id="stop558" /><stop
         style="stop-opacity:1;stop-color:#fefefe"
         offset="0.15560874"
         id="stop560" /><stop
         style="stop-opacity:1;stop-color:#fefefe"
         offset="0.548387"
         id="stop562" /><stop
         style="stop-opacity:1;stop-color:#fefefe"
         offset="0.90926528"
         id="stop564" /><stop
         style="stop-opacity:1;stop-color:#979595"
         offset="1"
         id="stop566" /></linearGradient><linearGradient
       x1="0"
       y1="0"
       x2="1"
       y2="0"
       gradientUnits="userSpaceOnUse"
       gradientTransform="matrix(130.64107,-292.22345,-292.22345,-130.64107,460.85547,531.60938)"
       spreadMethod="pad"
       id="linearGradient598"><stop
         style="stop-opacity:1;stop-color:#fefefe"
         offset="0"
         id="stop600" /><stop
         style="stop-opacity:1;stop-color:#979595"
         offset="0.92180342"
         id="stop602" /><stop
         style="stop-opacity:1;stop-color:#979595"
         offset="1"
         id="stop604" /></linearGradient><clipPath
       clipPathUnits="userSpaceOnUse"
       id="clipPath612"><path
         d="m 168,35 572.999,0 0,531 L 168,566 168,35 Z"
         id="path614"
         inkscape:connector-curvature="0" /></clipPath><clipPath
       clipPathUnits="userSpaceOnUse"
       id="clipPath628"><path
         d="m 431.487,480.566 c -24.164,-24.162 -39.111,-57.541 -39.111,-94.413 l 0,0 c 0,-36.871 14.947,-70.25 39.111,-94.411 l 0,0 c 24.16,-24.154 57.533,-39.094 94.396,-39.094 l 0,0 c 36.857,0 70.227,14.934 94.384,39.084 l 0,0 c 24.172,24.163 39.122,57.545 39.122,94.421 l 0,0 c 0,36.877 -14.95,70.26 -39.122,94.421 l 0,0 c -24.157,24.15 -57.527,39.085 -94.384,39.085 l 0,0 c -36.863,0 -70.236,-14.94 -94.396,-39.093"
         id="path630"
         inkscape:connector-curvature="0" /></clipPath><clipPath
       clipPathUnits="userSpaceOnUse"
       id="clipPath1018"><path
         d="m 168,35 572.999,0 0,531 L 168,566 168,35 Z"
         id="path1020"
         inkscape:connector-curvature="0" /></clipPath><clipPath
       clipPathUnits="userSpaceOnUse"
       id="clipPath1026"><path
         d="m 390.658,512.978 97.337,0 0,-146.277 -97.337,0 0,146.277 z"
         id="path1028"
         inkscape:connector-curvature="0" /></clipPath><linearGradient
       x1="0"
       y1="0"
       x2="1"
       y2="0"
       gradientUnits="userSpaceOnUse"
       gradientTransform="matrix(97.336914,0,0,-97.336914,390.6582,439.83936)"
       spreadMethod="pad"
       id="linearGradient1034"><stop
         style="stop-opacity:1;stop-color:#c6c5c5"
         offset="0"
         id="stop1036" /><stop
         style="stop-opacity:1;stop-color:#c6c5c5"
         offset="0.18495066"
         id="stop1038" /><stop
         style="stop-opacity:1;stop-color:#fefefe"
         offset="0.526882"
         id="stop1040" /><stop
         style="stop-opacity:1;stop-color:#979595"
         offset="0.92043205"
         id="stop1042" /><stop
         style="stop-opacity:1;stop-color:#979595"
         offset="1"
         id="stop1044" /></linearGradient><clipPath
       clipPathUnits="userSpaceOnUse"
       id="clipPath1064"><path
         d="m 550.349,391.629 110.014,0 0,-136.236 -110.014,0 0,136.236 z"
         id="path1066"
         inkscape:connector-curvature="0" /></clipPath><linearGradient
       x1="0"
       y1="0"
       x2="1"
       y2="0"
       gradientUnits="userSpaceOnUse"
       gradientTransform="matrix(-29.723171,92.687691,-92.687691,-29.723171,620.35254,276.60742)"
       spreadMethod="pad"
       id="linearGradient1072"><stop
         style="stop-opacity:1;stop-color:#c6c5c5"
         offset="0"
         id="stop1074" /><stop
         style="stop-opacity:1;stop-color:#c6c5c5"
         offset="0.18495066"
         id="stop1076" /><stop
         style="stop-opacity:1;stop-color:#fefefe"
         offset="0.526882"
         id="stop1078" /><stop
         style="stop-opacity:1;stop-color:#979595"
         offset="0.92043205"
         id="stop1080" /><stop
         style="stop-opacity:1;stop-color:#979595"
         offset="1"
         id="stop1082" /></linearGradient><clipPath
       clipPathUnits="userSpaceOnUse"
       id="clipPath1110"><path
         d="m 392.926,519.659 263.61,0 0,-148.387 -263.61,0 0,148.387 z"
         id="path1112"
         inkscape:connector-curvature="0" /></clipPath><linearGradient
       x1="0"
       y1="0"
       x2="1"
       y2="0"
       gradientUnits="userSpaceOnUse"
       gradientTransform="matrix(263.61035,0,0,-263.61035,392.92578,445.46582)"
       spreadMethod="pad"
       id="linearGradient1118"><stop
         style="stop-opacity:1;stop-color:#c6c5c5"
         offset="0"
         id="stop1120" /><stop
         style="stop-opacity:1;stop-color:#fefefe"
         offset="0.15560874"
         id="stop1122" /><stop
         style="stop-opacity:1;stop-color:#fefefe"
         offset="0.548387"
         id="stop1124" /><stop
         style="stop-opacity:1;stop-color:#fefefe"
         offset="0.90926528"
         id="stop1126" /><stop
         style="stop-opacity:1;stop-color:#979595"
         offset="1"
         id="stop1128" /></linearGradient><linearGradient
       x1="0"
       y1="0"
       x2="1"
       y2="0"
       gradientUnits="userSpaceOnUse"
       gradientTransform="matrix(59.811344,-133.78853,-133.78853,-59.811344,238.26465,543.16309)"
       spreadMethod="pad"
       id="linearGradient1160"><stop
         style="stop-opacity:1;stop-color:#fefefe"
         offset="0"
         id="stop1162" /><stop
         style="stop-opacity:1;stop-color:#979595"
         offset="0.92180342"
         id="stop1164" /><stop
         style="stop-opacity:1;stop-color:#979595"
         offset="1"
         id="stop1166" /></linearGradient><clipPath
       clipPathUnits="userSpaceOnUse"
       id="clipPath1174"><path
         d="m 168,35 572.999,0 0,531 L 168,566 168,35 Z"
         id="path1176"
         inkscape:connector-curvature="0" /></clipPath><clipPath
       clipPathUnits="userSpaceOnUse"
       id="clipPath1190"><path
         d="m 267.118,537.685 c -16.511,-0.242 -31.439,-7.033 -42.299,-17.891 l 0,0 C 213.254,508.23 206.734,492.247 206.916,475.893 l 0,0 c 0.18,-16.612 6.988,-31.634 17.903,-42.548 l 0,0 c 10.86,-10.859 25.788,-17.648 42.299,-17.891 l 0,0 c 16.422,-0.27 32.521,6.281 44.131,17.886 l 0,0 c 10.918,10.914 17.725,25.939 17.906,42.551 l 0,0 c 0.182,16.359 -6.337,32.343 -17.906,43.908 l 0,0 c -11.382,11.374 -27.075,17.893 -43.157,17.894 l 0,0 c -0.325,0 -0.648,-0.003 -0.974,-0.008"
         id="path1192"
         inkscape:connector-curvature="0" /></clipPath><clipPath
       clipPathUnits="userSpaceOnUse"
       id="clipPath1580"><path
         d="m 168,35 572.999,0 0,531 L 168,566 168,35 Z"
         id="path1582"
         inkscape:connector-curvature="0" /></clipPath><clipPath
       clipPathUnits="userSpaceOnUse"
       id="clipPath1588"><path
         d="m 206.125,534.633 44.565,0 0,-66.971 -44.565,0 0,66.971 z"
         id="path1590"
         inkscape:connector-curvature="0" /></clipPath><linearGradient
       x1="0"
       y1="0"
       x2="1"
       y2="0"
       gradientUnits="userSpaceOnUse"
       gradientTransform="matrix(44.564941,0,0,-44.564941,206.12549,501.14746)"
       spreadMethod="pad"
       id="linearGradient1596"><stop
         style="stop-opacity:1;stop-color:#c6c5c5"
         offset="0"
         id="stop1598" /><stop
         style="stop-opacity:1;stop-color:#c6c5c5"
         offset="0.18495066"
         id="stop1600" /><stop
         style="stop-opacity:1;stop-color:#fefefe"
         offset="0.526882"
         id="stop1602" /><stop
         style="stop-opacity:1;stop-color:#979595"
         offset="0.92043205"
         id="stop1604" /><stop
         style="stop-opacity:1;stop-color:#979595"
         offset="1"
         id="stop1606" /></linearGradient><clipPath
       clipPathUnits="userSpaceOnUse"
       id="clipPath1626"><path
         d="m 279.238,479.075 50.367,0 0,-62.372 -50.367,0 0,62.372 z"
         id="path1628"
         inkscape:connector-curvature="0" /></clipPath><linearGradient
       x1="0"
       y1="0"
       x2="1"
       y2="0"
       gradientUnits="userSpaceOnUse"
       gradientTransform="matrix(-13.608072,42.434936,-42.434936,-13.608072,311.2876,426.41504)"
       spreadMethod="pad"
       id="linearGradient1634"><stop
         style="stop-opacity:1;stop-color:#c6c5c5"
         offset="0"
         id="stop1636" /><stop
         style="stop-opacity:1;stop-color:#c6c5c5"
         offset="0.18495066"
         id="stop1638" /><stop
         style="stop-opacity:1;stop-color:#fefefe"
         offset="0.526882"
         id="stop1640" /><stop
         style="stop-opacity:1;stop-color:#979595"
         offset="0.92043205"
         id="stop1642" /><stop
         style="stop-opacity:1;stop-color:#979595"
         offset="1"
         id="stop1644" /></linearGradient><clipPath
       clipPathUnits="userSpaceOnUse"
       id="clipPath1672"><path
         d="m 207.164,537.693 120.69,0 0,-67.937 -120.69,0 0,67.937 z"
         id="path1674"
         inkscape:connector-curvature="0" /></clipPath><linearGradient
       x1="0"
       y1="0"
       x2="1"
       y2="0"
       gradientUnits="userSpaceOnUse"
       gradientTransform="matrix(120.69043,0,0,-120.69043,207.16357,503.72461)"
       spreadMethod="pad"
       id="linearGradient1680"><stop
         style="stop-opacity:1;stop-color:#c6c5c5"
         offset="0"
         id="stop1682" /><stop
         style="stop-opacity:1;stop-color:#fefefe"
         offset="0.15560874"
         id="stop1684" /><stop
         style="stop-opacity:1;stop-color:#fefefe"
         offset="0.548387"
         id="stop1686" /><stop
         style="stop-opacity:1;stop-color:#fefefe"
         offset="0.90926528"
         id="stop1688" /><stop
         style="stop-opacity:1;stop-color:#979595"
         offset="1"
         id="stop1690" /></linearGradient><linearGradient
       x1="0"
       y1="0"
       x2="1"
       y2="0"
       gradientUnits="userSpaceOnUse"
       gradientTransform="matrix(59.810944,-133.78764,-133.78764,-59.810944,617.67969,194.5625)"
       spreadMethod="pad"
       id="linearGradient1722"><stop
         style="stop-opacity:1;stop-color:#fefefe"
         offset="0"
         id="stop1724" /><stop
         style="stop-opacity:1;stop-color:#979595"
         offset="0.92180342"
         id="stop1726" /><stop
         style="stop-opacity:1;stop-color:#979595"
         offset="1"
         id="stop1728" /></linearGradient><clipPath
       clipPathUnits="userSpaceOnUse"
       id="clipPath1736"><path
         d="m 168,35 572.999,0 0,531 L 168,566 168,35 Z"
         id="path1738"
         inkscape:connector-curvature="0" /></clipPath><clipPath
       clipPathUnits="userSpaceOnUse"
       id="clipPath1752"><path
         d="m 604.233,171.193 c -11.564,-11.565 -18.084,-27.547 -17.901,-43.902 l 0,0 c 0.179,-16.612 6.988,-31.633 17.901,-42.547 l 0,0 c 11.442,-11.437 27.156,-17.898 43.324,-17.898 l 0,0 c 16.066,0.013 31.738,6.529 43.106,17.894 l 0,0 c 10.919,10.912 17.726,25.938 17.906,42.551 l 0,0 c 0.184,16.357 -6.337,32.342 -17.906,43.906 l 0,0 c -11.368,11.364 -27.04,17.883 -43.106,17.895 l 0,0 c -16.168,0 -31.882,-6.46 -43.324,-17.899"
         id="path1754"
         inkscape:connector-curvature="0" /></clipPath><clipPath
       clipPathUnits="userSpaceOnUse"
       id="clipPath2126"><path
         d="m 168,35 572.999,0 0,531 L 168,566 168,35 Z"
         id="path2128"
         inkscape:connector-curvature="0" /></clipPath><clipPath
       clipPathUnits="userSpaceOnUse"
       id="clipPath2134"><path
         d="m 585.541,186.033 44.563,0 0,-66.972 -44.563,0 0,66.972 z"
         id="path2136"
         inkscape:connector-curvature="0" /></clipPath><linearGradient
       x1="0"
       y1="0"
       x2="1"
       y2="0"
       gradientUnits="userSpaceOnUse"
       gradientTransform="matrix(44.563477,0,0,-44.563477,585.54102,152.54687)"
       spreadMethod="pad"
       id="linearGradient2142"><stop
         style="stop-opacity:1;stop-color:#c6c5c5"
         offset="0"
         id="stop2144" /><stop
         style="stop-opacity:1;stop-color:#c6c5c5"
         offset="0.18495066"
         id="stop2146" /><stop
         style="stop-opacity:1;stop-color:#fefefe"
         offset="0.526882"
         id="stop2148" /><stop
         style="stop-opacity:1;stop-color:#979595"
         offset="0.92043205"
         id="stop2150" /><stop
         style="stop-opacity:1;stop-color:#979595"
         offset="1"
         id="stop2152" /></linearGradient><clipPath
       clipPathUnits="userSpaceOnUse"
       id="clipPath2172"><path
         d="m 658.652,130.477 50.369,0 0,-62.3735 -50.369,0 0,62.3735 z"
         id="path2174"
         inkscape:connector-curvature="0" /></clipPath><linearGradient
       x1="0"
       y1="0"
       x2="1"
       y2="0"
       gradientUnits="userSpaceOnUse"
       gradientTransform="matrix(-13.60852,42.436329,-42.436329,-13.60852,690.7041,77.81543)"
       spreadMethod="pad"
       id="linearGradient2180"><stop
         style="stop-opacity:1;stop-color:#c6c5c5"
         offset="0"
         id="stop2182" /><stop
         style="stop-opacity:1;stop-color:#c6c5c5"
         offset="0.18495066"
         id="stop2184" /><stop
         style="stop-opacity:1;stop-color:#fefefe"
         offset="0.526882"
         id="stop2186" /><stop
         style="stop-opacity:1;stop-color:#979595"
         offset="0.92043205"
         id="stop2188" /><stop
         style="stop-opacity:1;stop-color:#979595"
         offset="1"
         id="stop2190" /></linearGradient><clipPath
       clipPathUnits="userSpaceOnUse"
       id="clipPath2218"><path
         d="m 586.579,189.092 120.69,0 0,-67.937 -120.69,0 0,67.937 z"
         id="path2220"
         inkscape:connector-curvature="0" /></clipPath><linearGradient
       x1="0"
       y1="0"
       x2="1"
       y2="0"
       gradientUnits="userSpaceOnUse"
       gradientTransform="matrix(120.68945,0,0,-120.68945,641.26075,241.77243)"
       spreadMethod="pad"
       id="linearGradient2226"><stop
         style="stop-opacity:1;stop-color:#c6c5c5"
         offset="0"
         id="stop2228" /><stop
         style="stop-opacity:1;stop-color:#fefefe"
         offset="0.15560874"
         id="stop2230" /><stop
         style="stop-opacity:1;stop-color:#fefefe"
         offset="0.548387"
         id="stop2232" /><stop
         style="stop-opacity:1;stop-color:#fefefe"
         offset="0.90926528"
         id="stop2234" /><stop
         style="stop-opacity:1;stop-color:#979595"
         offset="1"
         id="stop2236" /></linearGradient><linearGradient
       x1="0"
       y1="0"
       x2="1"
       y2="0"
       gradientUnits="userSpaceOnUse"
       gradientTransform="matrix(59.811741,-133.78943,-133.78943,-59.811741,238.26416,369.50537)"
       spreadMethod="pad"
       id="linearGradient2268"><stop
         style="stop-opacity:1;stop-color:#fefefe"
         offset="0"
         id="stop2270" /><stop
         style="stop-opacity:1;stop-color:#979595"
         offset="0.92180342"
         id="stop2272" /><stop
         style="stop-opacity:1;stop-color:#979595"
         offset="1"
         id="stop2274" /></linearGradient><clipPath
       clipPathUnits="userSpaceOnUse"
       id="clipPath2282"><path
         d="m 168,35 572.999,0 0,531 L 168,566 168,35 Z"
         id="path2284"
         inkscape:connector-curvature="0" /></clipPath><clipPath
       clipPathUnits="userSpaceOnUse"
       id="clipPath2298"><path
         d="m 266.125,364.004 c -16.118,-0.496 -30.664,-7.229 -41.306,-17.869 l 0,0 c -11.804,-11.802 -18.311,-28.169 -17.886,-44.85 l 0,0 c 0.424,-16.234 7.18,-30.893 17.886,-41.597 l 0,0 c 10.642,-10.641 25.188,-17.376 41.306,-17.87 l 0,0 c 16.763,-0.529 33.264,6.01 45.124,17.863 l 0,0 c 10.71,10.706 17.465,25.368 17.889,41.604 l 0,0 c 0.426,16.684 -6.082,33.051 -17.889,44.855 l 0,0 c -11.414,11.408 -27.129,17.893 -43.237,17.894 l 0,0 c -0.629,0 -1.257,-0.01 -1.887,-0.03"
         id="path2300"
         inkscape:connector-curvature="0" /></clipPath><clipPath
       clipPathUnits="userSpaceOnUse"
       id="clipPath2640"><path
         d="m 168,35 572.999,0 0,531 L 168,566 168,35 Z"
         id="path2642"
         inkscape:connector-curvature="0" /></clipPath><clipPath
       clipPathUnits="userSpaceOnUse"
       id="clipPath2648"><path
         d="m 206.125,360.974 44.565,0 0,-66.97 -44.565,0 0,66.97 z"
         id="path2650"
         inkscape:connector-curvature="0" /></clipPath><linearGradient
       x1="0"
       y1="0"
       x2="1"
       y2="0"
       gradientUnits="userSpaceOnUse"
       gradientTransform="matrix(44.564941,0,0,-44.564941,206.12549,327.48926)"
       spreadMethod="pad"
       id="linearGradient2656"><stop
         style="stop-opacity:1;stop-color:#c6c5c5"
         offset="0"
         id="stop2658" /><stop
         style="stop-opacity:1;stop-color:#c6c5c5"
         offset="0.18495066"
         id="stop2660" /><stop
         style="stop-opacity:1;stop-color:#fefefe"
         offset="0.526882"
         id="stop2662" /><stop
         style="stop-opacity:1;stop-color:#979595"
         offset="0.92043205"
         id="stop2664" /><stop
         style="stop-opacity:1;stop-color:#979595"
         offset="1"
         id="stop2666" /></linearGradient><clipPath
       clipPathUnits="userSpaceOnUse"
       id="clipPath2686"><path
         d="m 279.238,305.417 50.367,0 0,-62.372 -50.367,0 0,62.372 z"
         id="path2688"
         inkscape:connector-curvature="0" /></clipPath><linearGradient
       x1="0"
       y1="0"
       x2="1"
       y2="0"
       gradientUnits="userSpaceOnUse"
       gradientTransform="matrix(-13.608669,42.436794,-42.436794,-13.608669,311.2876,252.75488)"
       spreadMethod="pad"
       id="linearGradient2694"><stop
         style="stop-opacity:1;stop-color:#c6c5c5"
         offset="0"
         id="stop2696" /><stop
         style="stop-opacity:1;stop-color:#c6c5c5"
         offset="0.18495066"
         id="stop2698" /><stop
         style="stop-opacity:1;stop-color:#fefefe"
         offset="0.526882"
         id="stop2700" /><stop
         style="stop-opacity:1;stop-color:#979595"
         offset="0.92043205"
         id="stop2702" /><stop
         style="stop-opacity:1;stop-color:#979595"
         offset="1"
         id="stop2704" /></linearGradient><clipPath
       clipPathUnits="userSpaceOnUse"
       id="clipPath2732"><path
         d="m 207.164,364.034 120.69,0 0,-67.937 -120.69,0 0,67.937 z"
         id="path2734"
         inkscape:connector-curvature="0" /></clipPath><linearGradient
       x1="0"
       y1="0"
       x2="1"
       y2="0"
       gradientUnits="userSpaceOnUse"
       gradientTransform="matrix(120.69043,0,0,-120.69043,207.16357,330.06543)"
       spreadMethod="pad"
       id="linearGradient2740"><stop
         style="stop-opacity:1;stop-color:#c6c5c5"
         offset="0"
         id="stop2742" /><stop
         style="stop-opacity:1;stop-color:#fefefe"
         offset="0.15560874"
         id="stop2744" /><stop
         style="stop-opacity:1;stop-color:#fefefe"
         offset="0.548387"
         id="stop2746" /><stop
         style="stop-opacity:1;stop-color:#fefefe"
         offset="0.90926528"
         id="stop2748" /><stop
         style="stop-opacity:1;stop-color:#979595"
         offset="1"
         id="stop2750" /></linearGradient><linearGradient
       x1="0"
       y1="0"
       x2="1"
       y2="0"
       gradientUnits="userSpaceOnUse"
       gradientTransform="matrix(59.811344,-133.78853,-133.78853,-59.811344,431.82324,194.56348)"
       spreadMethod="pad"
       id="linearGradient2782"><stop
         style="stop-opacity:1;stop-color:#fefefe"
         offset="0"
         id="stop2784" /><stop
         style="stop-opacity:1;stop-color:#979595"
         offset="0.92180342"
         id="stop2786" /><stop
         style="stop-opacity:1;stop-color:#979595"
         offset="1"
         id="stop2788" /></linearGradient><clipPath
       clipPathUnits="userSpaceOnUse"
       id="clipPath2796"><path
         d="m 168,35 572.999,0 0,531 L 168,566 168,35 Z"
         id="path2798"
         inkscape:connector-curvature="0" /></clipPath><clipPath
       clipPathUnits="userSpaceOnUse"
       id="clipPath2812"><path
         d="m 459.609,189.06 c -16.087,-0.513 -30.606,-7.244 -41.23,-17.867 l 0,0 c -10.855,-10.854 -17.649,-25.769 -17.9,-42.275 l 0,0 c -0.261,-16.448 6.271,-32.547 17.9,-44.174 l 0,0 c 10.624,-10.621 25.143,-17.354 41.23,-17.867 l 0,0 c 16.792,-0.543 33.317,5.986 45.199,17.863 l 0,0 c 11.633,11.628 18.164,27.73 17.903,44.178 l 0,0 c -0.251,16.508 -7.045,31.428 -17.903,42.279 l 0,0 c -11.423,11.417 -27.139,17.894 -43.256,17.895 l 0,0 c -0.647,0 -1.294,-0.011 -1.943,-0.032"
         id="path2814"
         inkscape:connector-curvature="0" /></clipPath><clipPath
       clipPathUnits="userSpaceOnUse"
       id="clipPath3106"><path
         d="m 168,35 572.999,0 0,531 L 168,566 168,35 Z"
         id="path3108"
         inkscape:connector-curvature="0" /></clipPath><clipPath
       clipPathUnits="userSpaceOnUse"
       id="clipPath3114"><path
         d="m 399.687,186.033 44.563,0 0,-66.972 -44.563,0 0,66.972 z"
         id="path3116"
         inkscape:connector-curvature="0" /></clipPath><linearGradient
       x1="0"
       y1="0"
       x2="1"
       y2="0"
       gradientUnits="userSpaceOnUse"
       gradientTransform="matrix(44.563477,0,0,-44.563477,399.68652,152.54687)"
       spreadMethod="pad"
       id="linearGradient3122"><stop
         style="stop-opacity:1;stop-color:#c6c5c5"
         offset="0"
         id="stop3124" /><stop
         style="stop-opacity:1;stop-color:#c6c5c5"
         offset="0.18495066"
         id="stop3126" /><stop
         style="stop-opacity:1;stop-color:#fefefe"
         offset="0.526882"
         id="stop3128" /><stop
         style="stop-opacity:1;stop-color:#979595"
         offset="0.92043205"
         id="stop3130" /><stop
         style="stop-opacity:1;stop-color:#979595"
         offset="1"
         id="stop3132" /></linearGradient><clipPath
       clipPathUnits="userSpaceOnUse"
       id="clipPath3152"><path
         d="m 472.798,130.477 50.367,0 0,-62.3735 -50.367,0 0,62.3735 z"
         id="path3154"
         inkscape:connector-curvature="0" /></clipPath><linearGradient
       x1="0"
       y1="0"
       x2="1"
       y2="0"
       gradientUnits="userSpaceOnUse"
       gradientTransform="matrix(-13.608968,42.437725,-42.437725,-13.608968,504.84766,77.814453)"
       spreadMethod="pad"
       id="linearGradient3160"><stop
         style="stop-opacity:1;stop-color:#c6c5c5"
         offset="0"
         id="stop3162" /><stop
         style="stop-opacity:1;stop-color:#c6c5c5"
         offset="0.18495066"
         id="stop3164" /><stop
         style="stop-opacity:1;stop-color:#fefefe"
         offset="0.526882"
         id="stop3166" /><stop
         style="stop-opacity:1;stop-color:#979595"
         offset="0.92043205"
         id="stop3168" /><stop
         style="stop-opacity:1;stop-color:#979595"
         offset="1"
         id="stop3170" /></linearGradient><clipPath
       clipPathUnits="userSpaceOnUse"
       id="clipPath3198"><path
         d="m 400.724,189.092 120.689,0 0,-67.937 -120.689,0 0,67.937 z"
         id="path3200"
         inkscape:connector-curvature="0" /></clipPath><linearGradient
       x1="0"
       y1="0"
       x2="1"
       y2="0"
       gradientUnits="userSpaceOnUse"
       gradientTransform="matrix(120.68945,0,0,-120.68945,400.72363,155.12305)"
       spreadMethod="pad"
       id="linearGradient3206"><stop
         style="stop-opacity:1;stop-color:#c6c5c5"
         offset="0"
         id="stop3208" /><stop
         style="stop-opacity:1;stop-color:#fefefe"
         offset="0.15560874"
         id="stop3210" /><stop
         style="stop-opacity:1;stop-color:#fefefe"
         offset="0.548387"
         id="stop3212" /><stop
         style="stop-opacity:1;stop-color:#fefefe"
         offset="0.90926528"
         id="stop3214" /><stop
         style="stop-opacity:1;stop-color:#979595"
         offset="1"
         id="stop3216" /></linearGradient></defs><sodipodi:namedview
     pagecolor="#ffffff"
     bordercolor="#666666"
     borderopacity="1"
     objecttolerance="10"
     gridtolerance="10"
     guidetolerance="10"
     inkscape:pageopacity="0"
     inkscape:pageshadow="2"
     inkscape:window-width="2048"
     inkscape:window-height="1089"
     id="namedview4"
     showgrid="false"
     inkscape:zoom="0.67242947"
     inkscape:cx="730.93564"
     inkscape:cy="528.86013"
     inkscape:window-x="-8"
     inkscape:window-y="-8"
     inkscape:window-maximized="1"
     inkscape:current-layer="g10" /><g
     id="g10"
     inkscape:groupmode="layer"
     inkscape:label="power_button"
     transform="matrix(1.25,0,0,-1.25,0,744.1)"><g
       id="g8367"
       transform="translate(141.57619,309.32612)"><g
         transform="translate(278.1372,140.9434)"
         id="g536"><path
           inkscape:connector-curvature="0"
           id="path538"
           style="fill:#005200;fill-opacity:1;fill-rule:nonzero;stroke:none"
           d="m 0,0 c 5.189,-3.445 8.612,-9.34 8.612,-16.035 0,-10.625 -8.612,-19.238 -19.238,-19.238 -10.624,0 -19.237,8.613 -19.237,19.238 0,6.693 3.423,12.586 8.613,16.029 6.279,3.733 5.623,6.225 5.623,6.225 -0.788,4.328 -5.623,3.25 -5.623,3.25 -9.986,-4.162 -17.008,-14.01 -17.008,-25.504 0,-15.26 12.372,-27.631 27.632,-27.631 15.262,0 27.633,12.371 27.633,27.631 0,11.494 -7.022,21.342 -17.007,25.504 0,0 -4.609,1.078 -5.79,-2.332 0,0 -1.049,-4.59 5.79,-7.137" /></g><g
         transform="translate(270.6421,136.9531)"
         id="g540"><path
           inkscape:connector-curvature="0"
           id="path542"
           style="fill:#005200;fill-opacity:1;fill-rule:nonzero;stroke:none"
           d="m 0,0 c 0,-1.629 -1.468,-2.951 -3.279,-2.951 -1.811,0 -3.279,1.322 -3.279,2.951 l 0,19.281 c 0,1.631 1.468,2.951 3.279,2.951 1.811,0 3.279,-1.32 3.279,-2.951 L 0,0 Z" /></g></g><g
       id="g8373"
       transform="translate(-170.52984,308.06424)"><g
         transform="translate(657.5518,140.9434)"
         id="g2206"><path
           inkscape:connector-curvature="0"
           id="path2208"
           style="fill:#680000;fill-opacity:1;fill-rule:nonzero;stroke:none"
           d="m 0,0 c 5.188,-3.445 8.611,-9.34 8.611,-16.035 0,-10.625 -8.611,-19.238 -19.238,-19.238 -10.623,0 -19.235,8.613 -19.235,19.238 0,6.693 3.424,12.586 8.612,16.029 6.28,3.733 5.623,6.225 5.623,6.225 -0.788,4.328 -5.623,3.25 -5.623,3.25 -9.985,-4.162 -17.008,-14.01 -17.008,-25.504 0,-15.26 12.371,-27.631 27.631,-27.631 15.264,0 27.633,12.371 27.633,27.631 0,11.494 -7.02,21.342 -17.006,25.504 0,0 -4.609,1.078 -5.788,-2.332 0,0 -1.051,-4.59 5.788,-7.137" /></g><g
         transform="translate(650.0576,136.9531)"
         id="g2210"><path
           inkscape:connector-curvature="0"
           id="path2212"
           style="fill:#680000;fill-opacity:1;fill-rule:nonzero;stroke:none"
           d="m 0,0 c 0,-1.629 -1.47,-2.951 -3.28,-2.951 -1.811,0 -3.278,1.322 -3.278,2.951 l 0,19.281 c 0,1.631 1.467,2.951 3.278,2.951 1.81,0 3.28,-1.32 3.28,-2.951 L 0,0 Z" /></g></g><g
       id="g2214"
       style="opacity:0.497"><g
         id="g2216"
         style="" /><g
         id="g2238"
         style=""><g
           clip-path="url(#clipPath2218)"
           id="g2240"
           style=""><g
             id="g2242"
             style=""><g
               id="g2244"
               style=""><g
                 id="g2246"
                 style=""><g
                   id="g2248"
                   style=""><path
                     d="m 702.13165,275.74138 c -31.896,0 -58.078,-24.432 -60.871,-55.6 10.903,4.66 23.225,3.692 36.186,-2.508 15.877,-7.593 34.979,-13.097 52.492,-7.607 14.125,4.428 24.572,10.769 32.012,17.203 -5.814,27.707 -30.384,48.512 -59.819,48.512"
                     style="fill:url(#linearGradient2226);stroke:none"
                     id="path2250"
                     inkscape:connector-curvature="0" /></g></g></g></g></g></g></g></g></svg>