<?xml version="1.0" encoding="UTF-8" standalone="no"?><svg xmlns="http://www.w3.org/2000/svg" viewBox="0 0 1773 300">
 <g fill="#000" transform="translate(677.75822,-316.64792)">
  <path d="M-366.55,330.09h34.06v90.09h-34.06c-16.96-55.85-101.35-64.21-154.25-64.21-46.28,0-80.85,12.17-80.85,35.67,0,27.17,65.1,27.93,117.74,35.06,67.77,9.18,166.63,7.61,166.63,96.19,0,69.91-92.85,93.63-151,93.76-104.09,0.23-136.4-29.76-160.22-29.76-6.6,0-10.01,6.39-10.01,19.16h-34.04v-101.08h34.04c12.79,60.93,106.48,74.21,145.95,74.21,27.99,0,99.99-5.49,99.99-38.76,0-31.53-46.2-29.89-102.34-37.9-61.52-8.79-182.85-10.71-182.85-92.53,0-63.12,70.73-93.34,150.1-93.34,92.19,0,137.77,29.94,151.44,29.94,6.44,0,9.67-5.93,9.67-16.5z"/>
  <path d="M-47.105,316.65c-124.84,0-207.5,64.26-207.5,150s82.67,150,207.5,150,207.5-64.26,207.5-150-82.661-150-207.5-150zm0,40c71.591,0,119,47.12,119,110,0,62.87-47.409,110-119,110-71.595,0-119-47.13-119-110,0-62.88,47.41-110,119-110z"/>  <path d="M578.51,600.02h-54.89l-219.09-187.44v139.38c0,9.35,4.68,14.02,14.02,14.02h40.06v34.04h-163.82v-34.04h40.06c9.34,0,14.02-4.67,14.02-14.02v-170.63c0-9.34-4.68-14.02-14.02-14.02h-40.06v-34.04h137.38l190.66,163.01v-114.95c0-9.34-4.67-14.02-14.02-14.02h-40.06v-34.04h163.82v34.04h-40.04c-9.35,0-14.02,4.68-14.02,14.02v218.69z"/>
  <path d="M934.22,333.27h160.98v34.04h-31.6c-13.4,0-24.6,4.68-33.6,14.02l-107.79,114.95v55.68c0,9.35,4.67,14.02,14.02,14.02h40.05v34.04h-194.26v-34.04h40.05c9.35,0,14.02-4.67,14.02-14.02v-52.07l-110.55-118.56c-9.07-9.34-20.29-14.02-33.63-14.02h-31.65v-34.04h197.86v34.04h-19.62c-4.81,0-7.88,1.67-9.22,5.01-1.33,3.34-0.8,6.34,1.61,9.01l65.28,69.69,65.29-69.69c2.4-2.67,2.94-5.67,1.6-9.01-1.33-3.34-4.4-5.01-9.21-5.01h-19.63v-34.04z"/>
 </g>
</svg>
