<?xml version="1.0" encoding="UTF-8" standalone="no"?>
<!-- Created with Inkscape (http://www.inkscape.org/) -->
<svg
   xmlns:svg="http://www.w3.org/2000/svg"
   xmlns="http://www.w3.org/2000/svg"
   version="1.0"
   width="800"
   height="121.893"
   viewBox="0 0 800 121.893"
   id="Layer_1"
   xml:space="preserve"><defs
   id="defs24" />
<g
   id="g3">
	<g
   id="g5">
		<path
   d="M 765.446,119.779 L 800,119.779 L 764.347,2.118 L 715.246,2.118 L 679.603,119.779 L 714.158,119.779 L 720.46,98 L 759.123,98 L 765.446,119.779 M 727.941,71.837 L 739.705,31.186 L 739.899,31.186 L 751.66,71.837 L 727.941,71.837 z "
   style="fill:#bf2b2f"
   id="path7" />
		<path
   d="M 172.483,121.893 C 207.965,121.893 225.113,115.64 227.541,83.625 C 228.117,76.007 228.233,68.186 228.233,60.936 C 228.24,53.711 228.117,45.882 227.541,38.265 C 225.113,6.24 207.965,0 172.483,0 C 136.998,0 119.86,6.24 117.436,38.265 C 116.853,45.882 116.733,53.711 116.733,60.936 C 116.74,68.186 116.852,76.007 117.436,83.625 C 119.86,115.639 136.998,121.893 172.483,121.893 M 150.166,60.936 C 150.166,54.475 150.33,50.656 150.47,47.822 C 151.373,29.661 158.544,27.544 172.483,27.544 C 186.426,27.544 193.596,29.661 194.493,47.822 C 194.633,50.655 194.797,54.474 194.797,60.936 C 194.797,67.418 194.633,71.244 194.493,74.071 C 193.596,92.235 186.426,94.356 172.483,94.356 C 158.544,94.356 151.373,92.235 150.47,74.071 C 150.33,71.244 150.166,67.418 150.166,60.936 z "
   style="fill:#bf2b2f"
   id="path9" />
		<polyline
   fill="#BF2B2F"
   points="0,2.172 0,31.503 35.172,31.503 35.172,119.833 70.357,119.833 70.357,31.503 105.529,31.503     105.529,2.172 0,2.172   "
   id="polyline11"
   style="fill:#bf2b2f" />
		<polyline
   fill="#BF2B2F"
   points="539.852,119.779 539.852,2.118 506.46,2.118 506.46,119.779 539.852,119.779   "
   id="polyline13"
   style="fill:#bf2b2f" />
		<polyline
   fill="#BF2B2F"
   points="405.5,45.077 405.5,2.118 372.295,2.118 372.295,119.779 405.5,119.779 405.5,74.408     444.075,74.408 444.075,119.779 477.269,119.779 477.269,2.118 444.075,2.118 444.075,45.077 405.5,45.077   "
   id="polyline15"
   style="fill:#bf2b2f" />
		<g
   id="g17">
			<path
   d="M 649.673,58.283 C 664.461,54.502 668.802,45.667 668.802,32.897 C 668.802,7.038 652.531,2.117 629.395,2.117 L 569.451,2.117 L 569.451,119.778 L 632.372,119.778 C 661.345,119.778 671.083,107.298 671.083,88.105 C 671.083,74.722 668.015,62.914 649.673,58.283 M 602.636,71.452 L 625.656,71.452 C 634.957,71.452 636.898,75.526 636.898,82.152 C 636.898,88.784 633.26,92.869 625.656,92.869 L 602.636,92.869 L 602.636,71.452 z M 602.636,29.027 L 625.656,29.027 C 631.674,29.027 635.387,31.878 635.387,38.735 C 635.387,44.613 631.711,48.231 625.656,48.231 L 602.636,48.231 L 602.636,29.027 z "
   style="fill:#bf2b2f"
   id="path19" />
			<path
   d="M 247.58,81.167 L 279.226,81.167 C 279.26,86.875 279.99,90.69 282.758,92.797 C 285.912,95.171 288.729,95.955 298.082,95.955 C 307.084,95.955 316.935,95.955 316.935,84.87 C 316.935,76.128 311.428,74.133 301.257,73.591 C 276.045,72.255 266.924,71.542 257.527,64.566 C 251.127,59.809 247.809,50.548 247.809,38.024 C 247.809,16.727 255.239,9.256 265.959,4.043 C 277.017,-1.338 320.43,-1.338 332.108,4.043 C 346.804,10.811 347.234,25.463 347.234,39.054 L 315.656,39.054 C 315.598,32.125 314.04,30.168 312.768,28.879 C 309.491,25.971 304.82,25.357 298.079,25.357 C 289.919,25.357 280.485,25.725 280.485,35.634 C 280.485,43.194 283.748,46.354 292.334,46.91 C 304.118,47.664 327.353,48.407 335.628,53.293 C 347.242,60.16 350.246,69.452 350.246,84.612 C 350.246,106.516 342.407,112.954 331.502,117.768 C 318.913,123.333 276.86,123.333 263.194,117.342 C 247.89,110.668 247.58,97.376 247.58,81.167"
   style="fill:#bf2b2f"
   id="path21" />
		</g>
	</g>
</g>
</svg>