<?xml version="1.0" encoding="UTF-8" standalone="no"?>
<!-- Generator: Adobe Illustrator 16.0.3, SVG Export Plug-In . SVG Version: 6.00 Build 0)  -->

<svg
   xmlns:dc="http://purl.org/dc/elements/1.1/"
   xmlns:cc="http://creativecommons.org/ns#"
   xmlns:rdf="http://www.w3.org/1999/02/22-rdf-syntax-ns#"
   xmlns:svg="http://www.w3.org/2000/svg"
   xmlns="http://www.w3.org/2000/svg"
   xmlns:sodipodi="http://sodipodi.sourceforge.net/DTD/sodipodi-0.dtd"
   xmlns:inkscape="http://www.inkscape.org/namespaces/inkscape"
   version="1.1"
   id="Layer_1"
   x="0px"
   y="0px"
   width="800px"
   height="190.803px"
   viewBox="0 0 800 190.803"
   enable-background="new 0 0 800 190.803"
   xml:space="preserve"
   inkscape:version="0.48.4 r9939"
   sodipodi:docname="AMD_Logo.svg"><metadata
   id="metadata23"><rdf:RDF><cc:Work
       rdf:about=""><dc:format>image/svg+xml</dc:format><dc:type
         rdf:resource="http://purl.org/dc/dcmitype/StillImage" /></cc:Work></rdf:RDF></metadata><defs
   id="defs21" /><sodipodi:namedview
   pagecolor="#ffffff"
   bordercolor="#666666"
   borderopacity="1"
   objecttolerance="10"
   gridtolerance="10"
   guidetolerance="10"
   inkscape:pageopacity="0"
   inkscape:pageshadow="2"
   inkscape:window-width="1360"
   inkscape:window-height="706"
   id="namedview19"
   showgrid="false"
   inkscape:zoom="0.50558135"
   inkscape:cx="618.40666"
   inkscape:cy="-214.95795"
   inkscape:window-x="-8"
   inkscape:window-y="-8"
   inkscape:window-maximized="1"
   inkscape:current-layer="Layer_1" />
<g
   id="clear_space">
</g>
<g
   id="logo">
	<g
   id="g5">
		<path
   d="M187.888,178.122H143.52l-13.573-32.738H56.003l-12.366,32.738H0L66.667,12.776h47.761L187.888,178.122z M91.155,52.286    L66.912,116.53h50.913L91.155,52.286z"
   id="path7" />
		<path
   d="M349.056,12.776h35.88v165.346h-41.219V74.842l-44.608,51.877h-6.301l-44.605-51.877V178.12h-41.219V12.776h35.88    l53.092,61.336L349.056,12.776z"
   id="path9" />
		<path
   d="M489.375,12.776c60.364,0,91.391,37.573,91.391,82.909c0,47.517-30.058,82.437-96,82.437h-68.369V12.776H489.375z     M457.613,147.817h26.906c41.457,0,53.823-28.129,53.823-52.377c0-28.368-15.276-52.363-54.308-52.363h-26.422V147.817    L457.613,147.817z"
   id="path11" />
	</g>
	<g
   id="g13">
		<polygon
   points="748.028,51.981 662.769,51.981 610.797,0 800,0 800,189.21 748.028,137.235   "
   id="polygon15"
   style="fill:#009a66;fill-opacity:1" />
		<polygon
   points="662.708,137.296 662.708,62.397 609.2,115.903 609.2,190.802 684.089,190.802 737.594,137.296   "
   id="polygon17"
   style="fill:#009a66;fill-opacity:1" />
	</g>
</g>
</svg>