<?xml version="1.0" encoding="UTF-8" standalone="no"?>
<svg
   inkscape:version="1.2.2 (732a01da63, 2022-12-09)"
   sodipodi:docname="Aorus.GBT.svg"
   viewBox="0 0 440 128"
   height="128"
   width="440"
   xml:space="preserve"
   id="svg2"
   version="1.1"
   xmlns:inkscape="http://www.inkscape.org/namespaces/inkscape"
   xmlns:sodipodi="http://sodipodi.sourceforge.net/DTD/sodipodi-0.dtd"
   xmlns="http://www.w3.org/2000/svg"
   xmlns:svg="http://www.w3.org/2000/svg"
   xmlns:rdf="http://www.w3.org/1999/02/22-rdf-syntax-ns#"
   xmlns:cc="http://creativecommons.org/ns#"
   xmlns:dc="http://purl.org/dc/elements/1.1/"><metadata
     id="metadata8"><rdf:RDF><cc:Work
         rdf:about=""><dc:format>image/svg+xml</dc:format><dc:type
           rdf:resource="http://purl.org/dc/dcmitype/StillImage" /></cc:Work></rdf:RDF></metadata><defs
     id="defs6" /><sodipodi:namedview
     inkscape:current-layer="g10"
     inkscape:window-maximized="1"
     inkscape:window-y="-9"
     inkscape:window-x="2391"
     inkscape:cy="109.70728"
     inkscape:cx="322.62896"
     inkscape:zoom="2.2332155"
     fit-margin-bottom="0"
     fit-margin-right="0"
     fit-margin-left="0"
     fit-margin-top="0"
     showgrid="false"
     id="namedview4"
     inkscape:window-height="2071"
     inkscape:window-width="3840"
     inkscape:pageshadow="2"
     inkscape:pageopacity="0"
     guidetolerance="10"
     gridtolerance="10"
     objecttolerance="10"
     borderopacity="1"
     bordercolor="#666666"
     pagecolor="#ffffff"
     inkscape:pagecheckerboard="0"
     inkscape:showpageshadow="2"
     inkscape:deskcolor="#d1d1d1" /><g
     transform="matrix(1.3333333,0,0,-1.3333333,-137.35146,383.94884)"
     inkscape:label="aorus-seeklogo.com"
     inkscape:groupmode="layer"
     id="g10"><path
       id="path14"
       style="fill:#000000;fill-opacity:1;fill-rule:evenodd;stroke:none;stroke-width:0.47949"
       d="m 289.25441,249.25769 h 24.48418 c 1.08437,0 1.79411,-0.85388 1.40582,-1.85026 l -4.91377,-12.60602 c -0.46496,-1.19336 -1.0963,-1.2169 -2.46688,-1.22069 l -10.39653,-0.0303 c -2.32001,-0.007 -2.72614,0.78996 -2.08036,2.36331 l 2.86907,6.99124 c 0.37813,0.92125 0.49052,2.06857 -1.05651,2.06857 h -7.84776 c -1.13164,-0.12438 -1.71082,-0.31589 -2.42099,-2.09412 l -10.33113,-25.86934 c -0.7492,-1.87595 0.33665,-2.47114 1.26158,-2.47114 h 7.12172 c 1.61238,0 2.19343,-0.009 3.18578,2.63264 l 3.87883,10.32542 c 1.11563,2.96968 3.87437,3.22615 5.05387,0.30366 l 4.58344,-11.35652 c 0.5506,-1.3641 0.65527,-1.90424 2.0794,-1.9052 l 19.3594,-0.0147 c 0.007,0.0658 -0.0303,0.24439 -0.25485,0.34863 -0.27647,0.12875 -0.85531,0.25595 -1.23181,0.53622 l -2.76133,2.05576 c -1.15912,0.67416 -1.31744,0.75745 -2.36417,0.75745 h -2.68644 c -1.41435,0 -1.72669,0.72283 -2.29632,2.0702 l -3.13131,7.40605 c -0.69397,1.64177 -0.32931,1.99732 1.57992,1.99732 h 3.92453 c 3.90803,0 6.74632,1.95967 8.21898,5.87303 l 4.56196,11.49706 c 0.86375,2.17712 -0.0148,5.51096 -4.24962,5.51096 h -37.24557 c 1.70565,-0.99249 3.14503,-2.11829 4.16687,-3.31926 z m 38.3772,3.31926 c -0.022,-0.2781 0.12261,-0.41567 0.3917,-0.48131 1.71134,-0.41711 7.02874,-4.31852 6.31301,-6.13344 l -9.66608,-24.50773 c -2.53435,-6.35007 2.1169,-6.91918 3.43914,-6.91553 h 25.56337 c 3.67903,0 6.88902,1.28105 8.99383,6.66817 l 11.10973,28.43479 c 0.84323,2.15828 1.53001,2.93505 -1.49116,2.93505 h -17.88387 c -0.0278,-0.28395 0.0828,-0.46582 0.24752,-0.5248 2.52221,-0.90316 6.73203,-3.86756 6.4054,-6.46534 l -10.06544,-25.52794 c -0.5483,-1.391 -1.50977,-1.90257 -2.92537,-1.88262 h -11.36563 c -1.45406,0 -1.35413,1.35701 -0.93458,2.44449 l 11.59114,30.04612 c 0.57083,1.4799 0.55534,1.91009 -1.53518,1.91009 z m -120.65174,-17.36031 14.91922,12.48884 c 1.89145,1.58332 5.50143,2.69814 3.95699,-1.09793 l -4.32015,-10.61687 c -0.89598,-2.01759 -1.20995,-2.25201 -2.79365,-2.2478 l -11.41334,0.0308 c -1.19691,0.003 -1.30388,0.64371 -0.34907,1.44292 z m 1.89513,-20.6777 h 14.81576 c 1.61161,0 2.23993,1.26432 2.6697,2.37453 l 13.27582,33.97031 c 0.27403,0.81906 0.29172,1.69317 -2.00733,1.69317 h -16.53003 c -3.61175,0.0974 -4.54494,-0.74119 -5.50957,-1.50655 l -39.06168,-32.81829 c -1.43833,-1.20832 -3.87979,-3.02745 -5.07981,-3.46916 -0.15934,-0.0587 -0.24114,-0.12002 -0.25351,-0.23217 l 10.46108,-0.0151 c 1.66133,-0.002 3.05368,0.91501 5.16108,2.69473 l 12.74033,10.76023 c 1.85773,1.56908 3.11836,1.74999 4.59011,1.73081 h 13.63558 c 0.77107,0 2.33579,-0.7224 1.58606,-2.35899 l -3.22117,-7.03105 c -1.00793,-2.20042 -4.30207,-4.20004 -6.21049,-5.07995 -0.49867,-0.22987 -1.04754,-0.54422 -1.06193,-0.71252 z m 36.70187,6.67037 10.22517,25.70746 c 0.71765,1.80417 1.77018,2.0794 3.71125,2.0794 h 9.74194 c 2.1225,0 2.43647,-0.60075 1.90271,-1.96049 l -10.49277,-26.72455 c -0.56623,-1.4425 -1.08854,-2.12836 -3.22601,-2.12836 h -10.77327 c -1.60413,0 -1.9264,0.92115 -1.08902,3.02654 z m 36.7983,25.40394 c 0.80746,2.06747 1.20313,6.25456 -5.05008,6.25456 h -23.84455 c -6.02623,0 -7.93901,-2.87157 -8.98976,-5.57445 l -10.39764,-26.74095 c -1.20285,-3.09391 -0.61749,-6.20743 4.46654,-6.20743 h 22.2395 c 7.94323,0 10.16888,3.06457 12.0164,7.79454 z m 109.05989,2.38426 23.12243,-0.0352 c 2.28668,-0.003 3.52017,2.87727 5.64268,3.26422 0.16773,0.0307 0.40459,0.24464 0.39376,0.35041 l -32.55285,0.023 c -8.13392,0.006 -8.71007,-1.86972 -13.23247,-13.5182 -1.01926,-2.62631 -3.1362,-6.55329 -0.099,-8.64098 2.6768,-1.84062 18.33497,0.38747 22.39078,-1.04155 0.2069,-2.64213 -2.37923,-8.82343 -4.29704,-10.73362 l -2.02288,-0.52955 -22.52263,0.002 c -3.24452,2.9e-4 -2.39227,-2.27134 -5.85712,-3.19556 -0.15957,-0.0425 -0.29982,-0.24056 -0.30054,-0.41236 l 34.47339,0.0211 c 3.95589,0.002 6.9025,1.87581 8.0923,4.82875 l 3.52411,8.74637 c 0.79715,1.97871 -0.30227,5.48225 -4.47307,5.46484 l -18.1121,-0.0757 c -1.62705,-0.007 -1.53014,1.59042 -1.07362,2.72806 l 4.37956,10.91016 c 0.36537,0.91022 1.4565,1.84575 2.52428,1.84412 z m -236.64156,-9.12814 -19.9929,-20.36369 -1.07429,-4.79902 14.65661,-10.74503 33.41348,27.27247 -3.93417,5.63065 -9.97559,-2.09801 6.48903,-2.58095 -21.83937,-11.56817 -3.24139,2.11153 z m 31.89053,27.20462 1.95665,4.97336 c 0.94205,2.39448 -0.44214,4.65331 -2.82697,3.68435 l -8.70447,-3.53767 -5.69375,-6.37242 -6.0829,1.70296 11.38438,4.73673 -4.22852,1.09266 c -0.89027,0.22982 -1.88061,0.0957 -2.75007,-0.20388 -4.36067,-1.50229 -50.87395,-20.22137 -50.36426,-20.87568 0.2713,-0.34826 3.47654,0.56335 5.50349,-1.27084 -3.0439,-0.96517 -6.45585,-2.34164 -9.4447,-4.00389 6.66649,0.0823 8.63081,-0.34048 14.02651,-3.08048 -2.83512,-0.87286 -5.75618,-2.05806 -8.26319,-3.35039 3.08768,-0.18292 6.23893,-1.16727 9.07013,-2.76104 0.23447,-6.69277 0.14773,-14.57179 -0.7401,-21.329 l 54.41398,54.02037 c 1.48628,1.47553 2.46094,1.39546 2.50932,0.0163 l 0.12097,-3.45122 c 0.007,-0.17631 0.0586,-0.12956 0.1135,0.01" /></g></svg>
