<?xml version="1.0" encoding="UTF-8" standalone="no"?>
<!-- Generator: Adobe Illustrator 16.0.0, SVG Export Plug-In . SVG Version: 6.00 Build 0)  -->

<svg
   version="1.1"
   id="svg3006"
   x="0px"
   y="0px"
   width="582"
   height="128"
   viewBox="1 1 582 128"
   enable-background="new 1 1 400 69.875"
   xml:space="preserve"
   sodipodi:docname="Asus.ATK.ACI.ASU.svg"
   inkscape:version="1.2.2 (732a01da63, 2022-12-09)"
   xmlns:inkscape="http://www.inkscape.org/namespaces/inkscape"
   xmlns:sodipodi="http://sodipodi.sourceforge.net/DTD/sodipodi-0.dtd"
   xmlns="http://www.w3.org/2000/svg"
   xmlns:svg="http://www.w3.org/2000/svg"><defs
   id="defs7" /><sodipodi:namedview
   id="namedview5"
   pagecolor="#505050"
   bordercolor="#eeeeee"
   borderopacity="1"
   inkscape:pageshadow="0"
   inkscape:pageopacity="0"
   inkscape:pagecheckerboard="0"
   showgrid="false"
   inkscape:zoom="3.7325"
   inkscape:cx="195.44541"
   inkscape:cy="34.829203"
   inkscape:window-width="3840"
   inkscape:window-height="2071"
   inkscape:window-x="2391"
   inkscape:window-y="-9"
   inkscape:window-maximized="1"
   inkscape:current-layer="l1"
   inkscape:showpageshadow="2"
   inkscape:deskcolor="#505050" />
<g
   id="l1"
   transform="translate(-133.28571,-456.42468)">
	<path
   id="path2855"
   fill="#000000"
   d="m 227.23169,473.42605 -2.87691,0.38606 -3.22038,1.07301 -2.49084,1.41647 -1.41648,1.41647 -16.05793,21.76779 h 201.91806 v -25.67511 l -98.10342,-0.38606 -8.2007,1.46044 -4.98032,2.10341 -3.56385,2.53344 -3.94991,4.25079 -2.83432,3.94991 -3.94991,7.47117 v -21.76779 h -47.44152 -0.34347 z m 332.86686,0 -5.36638,0.72954 -3.90732,0.72953 -4.29338,2.10341 -3.90732,2.53344 -2.49085,2.83432 -3.94991,5.36638 -2.14738,4.98032 -1.75994,6.05333 v 0.72953 h 125.92452 v -25.67511 z m -152.37312,0.38606 v 25.67511 h 29.28155 v -25.67511 z m 93.51053,0 v 25.67511 h 29.58105 v -25.67511 z m 185.43147,0.34348 c -7.4959,0 -13.5245,6.04095 -13.5245,13.4819 0,7.38461 6.02722,13.39535 13.5245,13.39535 7.375,0 13.39535,-6.01074 13.39535,-13.39535 0,-7.44095 -6.02173,-13.4819 -13.39535,-13.4819 z m 0,2.23255 c 6.15224,0 11.16279,5.02566 11.16279,11.24935 0,6.16049 -5.01055,11.07761 -11.16279,11.07761 -6.144,0 -11.20538,-4.91575 -11.20538,-11.07761 -10e-4,-6.22369 5.06,-11.24935 11.20538,-11.24935 z m -0.73091,2.61862 c -1.23512,0 -3.46768,0.0508 -4.2082,0.17174 -0.73915,0.0605 -0.94523,0.43277 -0.94523,1.2887 v 14.51231 c 0,0.36683 0.22807,0.64435 0.47262,0.64435 h 2.31911 c 0.2418,0 0.51521,-0.23356 0.51521,-0.60176 v -5.75381 h 0.60176 0.98782 c 0.12091,0 0.47262,0.13601 0.47262,0.25829 l 3.4773,5.70985 c 0,0.24592 0.22257,0.38606 0.47261,0.38606 h 2.44689 c 0.37094,0 0.51658,-0.26928 0.5152,-0.51521 v -0.43002 l -3.56385,-5.96814 c 1.841,-0.61275 3.04865,-1.86986 3.04865,-4.25079 v -0.30088 c 0,-3.9032 -2.4359,-5.15069 -6.61251,-5.15069 z m -1.84512,2.9195 h 0.47262 1.63217 c 2.21332,0 3.04864,0.58253 3.04864,2.23256 v 0.30088 c 0,1.52638 -0.83669,2.18997 -3.04864,2.18997 h -2.10342 v -4.72341 z m -484.33735,18.63396 v 0.34347 l -49.24542,68.1363 h 35.67834 l 47.82895,-65.98892 z m 207.97138,0 0.38606,34.94881 -2.49085,-6.39679 -1.8039,-3.22038 -2.83432,-3.56385 -4.29338,-3.94991 -3.56385,-2.10342 -5.02291,-1.8039 -4.25079,-1.07301 -105.96065,-6.74026 3.56385,8.54417 2.14738,3.17779 2.83432,3.22038 v 0.34347 l 1.8039,1.46044 h 0.34347 l 1.80391,1.41647 9.61717,3.56385 h 0.72954 l 1.41647,0.34347 h 0.34347 l 3.22038,0.38606 71.70015,4.63685 1.80391,0.68694 1.073,0.72953 0.68694,1.07301 0.72953,1.073 v 0.34347 0.72953 1.073 0.34347 l -0.34347,0.72953 -0.72953,1.073 -0.34347,0.34348 -1.073,0.68694 -0.72954,0.38606 h -0.72953 -0.34347 l -100.59426,0.34347 V 505.9266 l -28.89411,-1.8039 v 64.91592 l 128.41537,0.38606 6.44076,-0.72953 7.47117,-2.14738 5.70985,-3.22038 4.63685,-3.90732 2.14738,-2.49085 2.87691,-3.56385 1.41647,-3.22038 1.41647,-4.63685 0.72954,3.90732 0.68694,2.53344 2.53343,5.66726 2.10342,2.53344 1.46043,1.75995 3.90732,2.8769 3.22038,1.41648 4.98033,1.75994 7.51376,1.073 h 68.47977 l 8.58676,-1.75994 3.17779,-1.41647 4.29338,-2.53344 3.56385,-3.56385 2.49085,-3.90732 1.46043,-2.14738 1.41648,-4.98032 0.72953,-4.29338 v 24.60073 h 102.3542 l 7.85723,-1.41647 4.29338,-1.41648 4.98032,-2.49084 4.29339,-3.22038 4.29338,-4.29339 1.75994,-2.83431 1.80391,-4.29338 0.72953,-3.56385 0.34347,-6.05333 -0.72953,-4.63685 -1.41648,-4.29338 -2.49084,-4.63685 -2.14738,-2.87691 -3.90732,-3.90732 -2.53344,-1.41647 -5.32379,-2.87691 -3.94991,-1.073 -2.49085,-0.34347 h -0.68694 l -0.72953,-0.34348 h -0.72953 l -103.08374,-7.12769 v 0.68694 l 0.68694,3.56385 3.56385,6.44075 3.94991,4.98033 0.34347,0.34347 0.34347,0.38606 1.46044,1.073 3.17779,1.75994 8.93023,3.22038 76.72306,5.36638 h 0.34347 l 1.80391,0.34348 0.68694,0.72953 h 0.38606 l 0.34347,0.34347 0.34347,0.34347 v 0.38606 l 0.38607,0.34347 v 0.34347 l 0.34347,1.41647 v 0.72953 l -0.34347,1.073 v 0.72954 l -0.38607,0.34347 v 0.34347 h -0.34347 l -0.34347,0.38606 -0.38606,0.34347 h -0.34347 l -0.34347,0.34347 -1.073,0.34347 h -0.72953 l -0.34347,0.38606 H 529.96795 l 0.51521,-4.63685 -0.68695,-32.45796 -28.55064,-1.46044 v 32.84402 1.41647 l -0.38606,1.07301 -0.34347,1.073 -0.34347,0.34347 -0.38606,0.38606 h -0.34347 v 0.34347 0.34347 l -1.75994,1.073 -1.80391,0.34347 h -1.41647 -48.17242 l -0.72953,0.38606 h -1.07301 l -0.34347,-0.38606 h -0.34347 -1.073 -0.34347 l -0.38606,-0.34347 -1.75994,-0.72953 h -0.38606 l -0.34347,-0.34347 -0.34347,-0.34347 -0.38607,-0.34347 h -0.34347 v -0.38606 l -0.68694,-0.68694 -0.72953,-1.073 -0.34347,-1.07301 v -0.38606 -0.68694 -0.38606 -0.34347 -34.60534 z m -129.83184,6.09592 v -0.0426 h -0.38605 z"
   style="stroke-width:1.37388" />
</g>
</svg>
