<?xml version="1.0" encoding="UTF-8" standalone="no"?>
<!-- Created with Inkscape (http://www.inkscape.org/) -->

<svg
   width="370"
   height="128"
   id="svg1956"
   sodipodi:version="0.32"
   inkscape:version="1.2.2 (732a01da63, 2022-12-09)"
   version="1.0"
   sodipodi:docname="Benq.BEN.BNQ.svg"
   xmlns:inkscape="http://www.inkscape.org/namespaces/inkscape"
   xmlns:sodipodi="http://sodipodi.sourceforge.net/DTD/sodipodi-0.dtd"
   xmlns="http://www.w3.org/2000/svg"
   xmlns:svg="http://www.w3.org/2000/svg"
   xmlns:rdf="http://www.w3.org/1999/02/22-rdf-syntax-ns#"
   xmlns:cc="http://creativecommons.org/ns#"
   xmlns:dc="http://purl.org/dc/elements/1.1/">
  <defs
     id="defs1958" />
  <sodipodi:namedview
     id="base"
     pagecolor="#ffffff"
     bordercolor="#666666"
     borderopacity="1.0"
     inkscape:pageopacity="0.0"
     inkscape:pageshadow="2"
     inkscape:zoom="2.8"
     inkscape:cx="197.67857"
     inkscape:cy="81.607143"
     inkscape:document-units="px"
     inkscape:current-layer="g2093"
     width="104.36mm"
     height="31.33mm"
     units="mm"
     inkscape:window-width="2400"
     inkscape:window-height="1350"
     inkscape:window-x="3302"
     inkscape:window-y="376"
     inkscape:pagecheckerboard="0"
     showgrid="false"
     inkscape:window-maximized="0"
     inkscape:showpageshadow="2"
     inkscape:deskcolor="#d1d1d1" />
  <metadata
     id="metadata1961">
    <rdf:RDF>
      <cc:Work
         rdf:about="">
        <dc:format>image/svg+xml</dc:format>
        <dc:type
           rdf:resource="http://purl.org/dc/dcmitype/StillImage" />
      </cc:Work>
    </rdf:RDF>
  </metadata>
  <g
     inkscape:label="Ebene 1"
     inkscape:groupmode="layer"
     id="layer1"
     transform="translate(48.00996,-536.7671)">
    <g
       id="g2093"
       transform="translate(3.546199,3.545002)">
      <g
         id="g297"
         style="fill:#000000"
         transform="matrix(0.92377166,0,0,0.92377166,10.274044,53.371854)">
        <path
           style="fill:#000000;fill-rule:nonzero;stroke:none"
           d="m 76.761252,557.81878 c 7.59249,0 12.99967,5.66364 14.51176,13.14393 h -29.03954 c 1.51208,-7.58714 6.74828,-13.14393 14.52778,-13.14393 m 0.27249,-20.62422 c -24.01172,0 -41.04006,17.7924 -41.04006,42.95821 v 2.67155 c 0,25.53983 17.70156,42.26363 45.07941,42.26363 6.08041,0 20.816578,0 34.804728,-10.84643 v -18.80758 c -11.45019,8.65577 -19.032008,9.88467 -28.911328,9.88467 -14.37818,0 -23.54687,-5.66366 -25.34213,-18.59387 h 55.589228 c 0.0641,-1.33575 0.0641,-2.67152 0.0641,-3.95387 0.58241,-29.1731 -17.888568,-45.57631 -40.243948,-45.57631"
           class="ps00"
           id="path8" />
        <path
           style="fill:#000000;fill-rule:nonzero;stroke:none"
           d="m 148.08579,551.13994 c 7.9772,-9.6175 15.72464,-13.62479 25.90852,-13.62479 12.44934,0 28.99681,7.42685 28.99681,32.27209 v 53.11005 h -25.03225 v -49.15618 c 0,-11.96846 -5.34841,-16.83066 -12.41728,-16.83066 -6.19261,0 -10.95328,3.41958 -17.4558,13.94541 v 52.04143 h -25.09637 v -82.97777 h 25.09637 v 11.22042"
           class="ps00"
           id="path10" />
        <path
           style="fill:#000000;fill-rule:nonzero;stroke:none"
           d="m -24.046318,604.46372 h 20.8165904 c 5.25756,0 10.14647,-1.87008 10.14647,-8.65577 0,-6.51854 -4.88891,-8.65575 -10.14647,-8.65575 H -24.046318 v 17.31152 m 0.07482,-33.12699 h 19.1495204 c 4.02868,0 10.01826,-0.1603 10.01826,-6.46512 0,-5.71706 -5.65297,-6.67881 -10.01826,-6.67881 H -23.971498 v 13.14393 m 57.03184,26.8756 c 0,5.98423 -2.20135,13.73167 -9.39311,19.3419 -6.98339,5.34306 -14.3033696,5.71706 -21.0516696,5.71706 H -48.009958 V 537.622 H 0.8309824 c 4.99576,0.10687 8.8588,0.10687 13.3683496,1.60291 7.80621,2.6181 16.17345,7.74745 16.17345,19.98307 0,8.3886 -4.21567,14.96057 -10.96397,18.48699 2.23341,1.2289 4.25842,2.24408 6.37429,4.22102 3.69204,3.25928 7.27724,8.5489 7.27724,16.29634"
           class="ps00"
           id="path12" />
        <path
           style="fill:#000000;fill-rule:nonzero;stroke:none"
           d="m 266.32244,600.29613 c -3.41956,4.11415 -8.17489,6.09108 -13.30423,6.09108 -6.57197,0 -11.48759,-3.04554 -15.06744,-8.33518 -2.7677,-4.16759 -4.21567,-9.6175 -4.21034,-15.49488 0,-7.48027 2.46317,-13.94539 6.34757,-18.43355 3.52643,-4.38131 7.42685,-5.98425 12.93021,-5.98425 3.74015,0 7.32,0.85491 10.25869,3.09899 5.44991,4.43473 8.92289,12.50277 8.92289,21.10509 0,6.89256 -2.19065,13.62482 -5.87735,17.9527 m 7.69401,20.62423 -0.10687,-0.32059 c 14.90715,-5.2362 25.21926,-19.76934 25.21926,-39.48524 0,-32.75298 -25.6467,-44.34742 -45.46947,-44.34742 -23.90485,0 -45.82744,15.06744 -45.82744,44.1337 0,26.60845 19.25105,44.08027 45.66715,44.18714 3.90044,4.64846 25.16583,22.76143 57.27764,12.50275 l 3.90043,-27.57019 c -15.49489,13.03706 -37.18772,11.91503 -40.6607,10.89985"
           class="ps00"
           id="path14" />
      </g>
    </g>
  </g>
</svg>
