<?xml version="1.0" encoding="UTF-8" standalone="no"?>
<svg
   version="1.2"
   viewBox="0 0 530 128"
   width="530"
   height="128"
   id="svg19894"
   sodipodi:docname="ED_BIG.svg"
   inkscape:version="1.2.2 (732a01da63, 2022-12-09)"
   xmlns:inkscape="http://www.inkscape.org/namespaces/inkscape"
   xmlns:sodipodi="http://sodipodi.sourceforge.net/DTD/sodipodi-0.dtd"
   xmlns="http://www.w3.org/2000/svg"
   xmlns:svg="http://www.w3.org/2000/svg"
   xmlns:rdf="http://www.w3.org/1999/02/22-rdf-syntax-ns#"
   xmlns:cc="http://creativecommons.org/ns#"
   xmlns:dc="http://purl.org/dc/elements/1.1/">
  <defs
     id="defs19898" />
  <sodipodi:namedview
     id="namedview19896"
     pagecolor="#ffffff"
     bordercolor="#000000"
     borderopacity="0.25"
     inkscape:showpageshadow="2"
     inkscape:pageopacity="0.0"
     inkscape:pagecheckerboard="0"
     inkscape:deskcolor="#d1d1d1"
     showgrid="false"
     inkscape:zoom="2.7931646"
     inkscape:cx="453.07033"
     inkscape:cy="53.702528"
     inkscape:window-width="3840"
     inkscape:window-height="2071"
     inkscape:window-x="2391"
     inkscape:window-y="-9"
     inkscape:window-maximized="1"
     inkscape:current-layer="svg19894" />
  <title
     id="title19887">ConEd_logo-svg</title>
  <style
     id="style19889">
		.s0 { fill: #0099d8 } 
	</style>
  <g
     id="layer1"
     style="fill:#000000"
     transform="matrix(0.32686415,0,0,0.32686415,15.913174,15.934627)">
    <path
       id="path2858"
       fill-rule="evenodd"
       class="s0"
       d="m 524.7,185.7 c -1.2,12.9 -11.2,48.6 -56.7,48.6 -46.7,0 -57.4,-35.7 -57.4,-61.9 0,-40.1 17.5,-68.9 59.5,-68.9 19.6,0 51.8,8.9 54.8,47.7 h -33.1 c -1.4,-8.2 -6.5,-21 -21.7,-20.1 -20.5,0 -25.9,20.5 -25.9,35.9 0,13.6 0.5,40.4 25.2,40.4 16.6,0 22.1,-15.8 22.1,-21.7 z m 72.1,48.6 c -33.3,0 -63.4,-20.6 -63.4,-65.4 0,-44.8 30.1,-65.4 63.4,-65.4 33.4,0 63.5,20.6 63.5,65.4 0,44.8 -30.1,65.4 -63.5,65.4 z m 0,-103.2 c -25.2,0 -29.8,21.9 -29.8,37.8 0,15.9 4.6,37.9 29.8,37.9 25.2,0 29.9,-22 29.9,-37.9 0,-15.9 -4.7,-37.8 -29.9,-37.8 z M 788.3,231 h -32.6 v -75.4 c 0,-9.1 -0.5,-24.5 -21.3,-24.5 -14.4,0 -25.6,9.8 -25.6,28.7 V 231 H 676.1 V 106.8 h 31.3 V 125 h 0.4 c 4.5,-7.5 13.8,-21.5 37.4,-21.5 24.2,0 43.1,14.3 43.1,41.6 0,0 0,85.9 0,85.9 z M 937.4,93 h -88.9 v 35.3 h 81.6 v 29.6 h -81.6 v 43.5 h 92.8 V 231 H 814.2 V 63.4 h 123.2 z m 136.2,138 h -32 v -15.7 h -0.4 c -8,14 -22.4,18.9 -36,18.9 -36.8,0 -52.2,-32.7 -52.2,-66.7 0,-43 24.3,-64 51.6,-64 20.9,0 30.8,11.4 35.9,19.4 h 0.5 V 63.3 h 32.6 z m -60.2,-23.6 c 20.8,0 28.9,-17.2 28.9,-35.7 0,-19.8 -5.6,-39.9 -28,-39.9 -20.7,0 -27.7,18.4 -27.7,38.1 0,14.7 5.8,37.5 26.8,37.5 z m 83.3,-145.6 h 32.6 v 30.3 h -32.6 z m 0,45.1 h 32.6 v 124.2 h -32.6 z m 127.1,37.8 c -1.4,-7.9 -4.2,-16.3 -21.9,-16.3 -17.7,0 -20.1,6.7 -20.1,12.1 0,19.6 77.7,5.4 77.7,51.1 0,36.2 -35,42.8 -54.3,42.8 -28.3,0 -58.8,-9.8 -59.8,-43 h 33.6 c 0,10.5 6.6,18.2 27.1,18.2 16.8,0 20.7,-8.2 20.7,-12.8 0,-20.8 -76.9,-5.2 -76.9,-51.6 0,-18.2 11.4,-41.6 50.1,-41.6 24.3,0 53.2,6.1 55.8,41.1 z m 108.7,89.7 c -33.4,0 -63.4,-20.6 -63.4,-65.4 0,-44.8 30,-65.4 63.4,-65.4 33.3,0 63.4,20.6 63.4,65.4 0,44.8 -30.1,65.4 -63.4,65.4 z m 0,-103.2 c -25.2,0 -29.9,21.9 -29.9,37.8 0,15.9 4.7,37.8 29.9,37.8 25.2,0 29.9,-21.9 29.9,-37.8 0,-15.9 -4.7,-37.8 -29.9,-37.8 z m 191.5,99.9 h -32.7 v -75.4 c 0,-9.1 -0.4,-24.5 -21.2,-24.5 -14.5,0 -25.7,9.8 -25.7,28.7 v 71.2 h -32.6 V 106.9 h 31.3 v 18.2 h 0.4 c 4.4,-7.5 13.8,-21.5 37.3,-21.5 24.3,0 43.2,14.3 43.2,41.6 z"
       style="fill:#000000" />
    <path
       id="path2892"
       class="s0"
       d="M 350,293.9 H 146.9 C 65.9,293.9 0.1,228 0.1,147 0.1,66.1 65.9,0.2 146.9,0.2 H 350 V 38.1 H 146.9 C 86.8,38.1 38,87 38,147 38,207.1 86.8,256 146.9,256 H 350 Z M 150,62.9 h 199.8 v 37.9 H 150 c -25.6,0 -46.5,20.9 -46.5,46.5 0,25.7 20.9,46.5 46.5,46.5 h 199.8 v 37.9 H 150 c -46.5,0 -84.3,-37.8 -84.3,-84.4 0,-46.5 37.8,-84.4 84.3,-84.4 z M 350,166.1 H 148.8 c -10.5,0 -19,-8.4 -19,-18.9 0,-10.5 8.5,-19 19,-19 H 350 Z"
       style="fill:#000000" />
  </g>
  <metadata
     id="metadata20017">
    <rdf:RDF>
      <cc:Work
         rdf:about="">
        <dc:title>ConEd_logo-svg</dc:title>
      </cc:Work>
    </rdf:RDF>
  </metadata>
</svg>
