<?xml version="1.0" encoding="UTF-8" standalone="no"?>
<svg
   viewBox="0 0 2533.3325 2133.3333"
   width="152"
   height="128"
   version="1.1"
   id="svg17"
   sodipodi:docname="Cooler_Master_black_logo.svg"
   inkscape:version="1.2.2 (732a01da63, 2022-12-09)"
   xmlns:inkscape="http://www.inkscape.org/namespaces/inkscape"
   xmlns:sodipodi="http://sodipodi.sourceforge.net/DTD/sodipodi-0.dtd"
   xmlns="http://www.w3.org/2000/svg"
   xmlns:svg="http://www.w3.org/2000/svg"
   xmlns:rdf="http://www.w3.org/1999/02/22-rdf-syntax-ns#"
   xmlns:cc="http://creativecommons.org/ns#"
   xmlns:dc="http://purl.org/dc/elements/1.1/">
  <metadata
     id="metadata23">
    <rdf:RDF>
      <cc:Work
         rdf:about="">
        <dc:format>image/svg+xml</dc:format>
        <dc:type
           rdf:resource="http://purl.org/dc/dcmitype/StillImage" />
      </cc:Work>
    </rdf:RDF>
  </metadata>
  <defs
     id="defs21" />
  <sodipodi:namedview
     pagecolor="#ffffff"
     bordercolor="#666666"
     borderopacity="1"
     objecttolerance="10"
     gridtolerance="10"
     guidetolerance="10"
     inkscape:pageopacity="0"
     inkscape:pageshadow="2"
     inkscape:window-width="3840"
     inkscape:window-height="2071"
     id="namedview19"
     showgrid="false"
     inkscape:zoom="5.6568542"
     inkscape:cx="64.611882"
     inkscape:cy="77.074639"
     inkscape:window-x="2391"
     inkscape:window-y="-9"
     inkscape:window-maximized="1"
     inkscape:current-layer="svg17"
     inkscape:showpageshadow="2"
     inkscape:pagecheckerboard="0"
     inkscape:deskcolor="#d1d1d1" />
  <path
     d="m 375.19775,864.19733 c -3.0699,-110.2924 34.47,-213.6376 128.7556,-234.8778 61.4914,-13.8384 122.709,38.9093 135.8181,117.4849 l -85.7921,15.9888 c -6.1114,-30.3187 -23.4601,-49.5341 -48.782,-42.4291 -39.2764,11.0233 -53.305,64.7517 -51.9394,131.9359 1.3467,66.2655 16.9311,109.7579 55.3716,107.037 25.2469,-1.7926 48.5033,-28.0714 52.5985,-64.3474 0,0 67.1244,-5.5445 82.3654,-6.9054 0,82.007 -61.2784,156.78437 -133.8083,156.78437 -80.9809,-10e-5 -131.5735,-73.38887 -134.5874,-180.67127 z m 594.3866,-97.3318 c -7.086,-159.9512 32.02295,-308.8791 133.05985,-347.4213 105.2312,-40.1362 180.5647,105.3185 183.7555,288.9759 3.8401,223.2269 -63.2099,336.44837 -163.7505,336.44837 -89.9757,0 -145.82565,-114.42457 -153.06485,-278.00297 z m 99.93675,-10.3929 c 3.2924,97.7589 22.4241,169.1048 54.4843,165.9797 35.4494,-3.5017 54.1875,-89.3868 51.3174,-201.861 -2.9492,-115.4792 -26.4092,-189.8665 -62.3969,-168.6074 -25.4989,15.0595 -47.1481,93.3565 -43.4048,204.4887 z m -410.55235,54.7772 c -4.8855,-139.0552 38.217,-255.7091 120.847,-283.4182 92.3255,-31.0243 159.2645,86.2573 162.1289,237.0786 3.2421,171.9093 -48.6601,279.94497 -147.78,279.94497 -81.0645,0 -130.3571,-96.72787 -135.1959,-233.60537 z m 85.4156,-15.0034 c 2.466,84.3894 20.8683,146.3316 51.8471,143.7305 32.9701,-2.7675 52.6317,-72.8592 50.5232,-164.2603 -2.155,-93.1616 -25.2669,-156.5988 -58.6404,-145.5888 -22.3737,7.3924 -46.488,70.5234 -43.7299,166.1186 z m 696.74265,-368.4114 -113.7334,-38.176 v 648.53237 h 259.341 V 921.58803 l -145.6076,-10.5822 z m 662.44,458.5221 49.9193,151.83427 h -80.5213 l -44.4861,-143.59647 -31.7721,-3.6595 v 147.25597 h -94.5454 V 580.37973 l 151.5329,50.9369 c 61.1472,20.5346 97.0055,85.1235 97.0055,153.8818 0,63.1452 -24.815,91.4944 -47.1328,101.1587 z m -26.042,-116.5616 c 0,-29.1803 -14.934,-50.4348 -36.2947,-56.0952 l -44.5235,-11.8042 v 99.2862 l 44.5235,8.3168 c 21.3607,3.9799 36.2947,-10.5042 36.2947,-39.7036 z m -750.1314,451.56537 79.1568,-5.2792 0.064,493.2195 108.2723,-36.086 v -464.8558 l 71.0951,-5.8469 V 1086.3931 H 1327.393 Z m 291.7169,417.1382 250.1264,-83.35 v -96.9836 l -146.8516,38.5803 V 1394.849 l 129.4289,-25.7861 v -98.9059 l -129.4289,16.7078 v -92.455 l 146.8516,-10.3092 v -97.7075 h -250.1264 z m 484.9397,-312.5852 49.4361,134.6206 -80.8552,26.9283 -43.967,-128.1005 -31.8279,6.9606 v 146.3649 l -94.6748,31.5207 v -457.8154 h 151.8485 c 61.3613,0 97.4051,52.8305 97.4051,121.9568 0,63.4934 -24.9454,100.3589 -47.3648,117.564 z m -26.1724,-108.4113 c 0,-29.3439 -14.9711,-45.6426 -36.4062,-44.1334 l -44.6354,3.1384 v 99.6913 l 44.6354,-6.6086 c 21.4353,-3.1718 36.4062,-22.7534 36.4062,-52.0877 z m -1198.00005,-131.1095 107.1208,571.7019 -99.6818,-34.7677 -13.2716,-85.9955 -89.7673,-25.5637 -11.4647,72.3997 -82.1144,-28.3081 85.6713,-469.4666 z m -21.5465,339.3927 -31.7908,-193.433 -29.3486,179.5252 z m -344.9561,-146.3924 -37.5912,-193.0003 h -91.8519 v 363.4233 l 64.1619,22.429 v -229.7832 l 48.6659,246.4727 27.6301,9.5941 62.6898,-235.6111 v 257.3296 l 84.1715,29.2042 V 1086.3931 H 562.10575 Z M 2279.9157,886.20313 v 389.08567 c 0,196.4278 -29.8318,253.6797 -209.9323,332.1393 -62.5033,27.0397 -156.9098,73.9042 -398.1023,165.2122 -106.1821,40.2427 -265.8784,94.026 -405.3988,94.026 -138.8127,0 -298.46715,-53.7833 -405.01715,-94.026 -240.8864,-91.308 -335.2739,-138.1725 -397.7354,-165.2122 -180.1101,-78.4598 -210.3126,-135.7115 -210.3126,-332.1393 V 886.20313 c 0,-211.7051 50.6582,-295.6997 228.0094,-376.9231 36.4252,-16.6429 78.4178,-37.479 308.1962,-121.8265 263.41325,-96.8163 395.30345,-120.7869 476.85965,-120.7869 81.9195,0 213.8002,23.9706 477.5617,120.7869 229.7878,84.3475 271.7757,105.1835 308.2199,121.8265 177.351,81.2234 227.6517,165.218 227.6517,376.9231 z m -56.5603,-26.0278 c 0,-192.9536 -86.7536,-257.9049 -210.9993,-309.5989 -43.7435,-18.3795 -61.8167,-30.1789 -282.1781,-111.7636 -181.16,-67.3013 -347.0599,-117.6201 -463.6956,-117.6201 -115.9196,0 -281.80625,50.3188 -463.33705,117.6201 -220.0133,81.5847 -238.0818,93.3841 -282.1457,111.7636 -123.9254,51.694 -210.6742,116.6452 -210.6742,309.5989 V 1290.199 c 0,149.216 34.3587,206.1568 157.565,261.3325 103.0474,45.8195 113.4917,50.6907 326.5995,134.3238 134.6434,52.7515 314.07535,122.5189 471.99235,122.5189 158.633,0 337.7123,-69.7674 472.3795,-122.5189 213.4323,-83.6331 223.8621,-88.5043 326.9153,-134.3238 123.2148,-55.1757 157.5783,-112.1165 157.5783,-261.3325 z M 1093.5106,1258.4736 c -1.63,-32.3985 21.9316,-54.4195 45.0805,-51.9535 17.1443,2.0667 39.5457,20.353 36.4481,64.4587 l 112.9581,11.048 c 6.004,-114.1232 -42.119,-200.0083 -145.6543,-201.7773 -80.2476,-1.0404 -157.75525,68.0478 -155.29865,172.1643 4.0267,186.4992 207.36825,156.7662 208.81765,311.5495 0.1664,23.2089 -12.8122,46.724 -36.6573,44.3283 -30.0268,-5.7073 -52.6136,-26.5336 -54.6289,-90.2876 l -105.67605,-25.9069 c -1.0586,97.4622 34.12175,200.426 137.27675,222.7579 100.2382,21.9926 192.1643,-58.9379 170.4001,-198.0854 -25.5826,-161.8143 -208.4601,-171.4966 -213.066,-258.296 z m 525.6741,-220.2822 h 250.0522 v -97.83787 l -146.8516,-9.979 v -99.8531 l 121.8417,16.4062 v -99.3337 l -121.8417,-24.9969 v -93.6027 l 146.8516,38.9701 v -98.8591 l -250.1264,-83.0104 z"
     id="path14"
     inkscape:connector-curvature="0"
     style="stroke-width:1.59999" />
</svg>
