<?xml version="1.0" encoding="UTF-8" standalone="no"?>
<!-- Creator: CorelDRAW -->

<svg
   xml:space="preserve"
   width="346"
   height="128"
   shape-rendering="geometricPrecision"
   text-rendering="geometricPrecision"
   image-rendering="optimizeQuality"
   fill-rule="evenodd"
   clip-rule="evenodd"
   viewBox="0 0 162.67994 60.633503"
   id="svg2142"
   sodipodi:version="0.32"
   inkscape:version="1.2.2 (732a01da63, 2022-12-09)"
   sodipodi:docname="Dell.DEL.DLL.svg"
   version="1.0"
   xmlns:inkscape="http://www.inkscape.org/namespaces/inkscape"
   xmlns:sodipodi="http://sodipodi.sourceforge.net/DTD/sodipodi-0.dtd"
   xmlns="http://www.w3.org/2000/svg"
   xmlns:svg="http://www.w3.org/2000/svg"
   xmlns:rdf="http://www.w3.org/1999/02/22-rdf-syntax-ns#"
   xmlns:cc="http://creativecommons.org/ns#"
   xmlns:dc="http://purl.org/dc/elements/1.1/"><metadata
   id="metadata2151"><rdf:RDF><cc:Work
       rdf:about=""><dc:format>image/svg+xml</dc:format><dc:type
         rdf:resource="http://purl.org/dc/dcmitype/StillImage" /></cc:Work></rdf:RDF></metadata><defs
   id="defs2149" /><sodipodi:namedview
   inkscape:window-height="1197"
   inkscape:window-width="2400"
   inkscape:pageshadow="2"
   inkscape:pageopacity="0.0"
   guidetolerance="10.0"
   gridtolerance="10.0"
   objecttolerance="10.0"
   borderopacity="1.0"
   bordercolor="#666666"
   pagecolor="#ffffff"
   id="base"
   inkscape:zoom="0.96308336"
   inkscape:cx="408.58353"
   inkscape:cy="163.01808"
   inkscape:window-x="3173"
   inkscape:window-y="295"
   inkscape:current-layer="Ebene_x0020_1"
   inkscape:pagecheckerboard="0"
   showgrid="false"
   inkscape:window-maximized="0"
   inkscape:showpageshadow="2"
   inkscape:deskcolor="#d1d1d1" />
 <g
   id="Ebene_x0020_1"
   transform="translate(4.485e-4,3.2e-5)"
   inkscape:label="Ebene 1"
   inkscape:groupmode="layer">
  <metadata
   id="CorelCorpID_0Corel-Layer" />
  <path
   d="M 70.348275,7.579156 H 69.44992 L 46.621546,22.796188 46.521067,22.403728 C 43.377394,13.462132 34.531455,9.5338129 23.230808,9.5338129 H 6.988683 V 50.795833 h 17.220608 c 10.816211,0 19.462383,-4.422347 22.412282,-12.871233 l 0.09803,-0.294264 23.19208,15.423947 24.572587,-16.407205 v 14.148784 h 29.41356 V 38.186634 H 109.22032 V 9.5338418 H 94.484207 V 24.126357 L 76.161807,36.625595 72.005039,33.680596 90.677889,21.104849 82.394164,15.736229 63.522627,28.311977 59.542855,25.826175 78.410686,13.251621 70.3482,7.5791987 Z m -37.7834,23.074864 c 0,5.405699 -3.928351,7.861538 -8.844796,7.861538 H 21.733167 V 22.303334 h 1.986912 c 5.4057,0 8.844796,2.751218 8.844796,8.350686 z M 155.69036,50.79582 H 126.88568 V 9.5337991 h 14.7397 V 38.186591 h 14.06498 z"
   id="path2146"
   style="fill:#000000;fill-rule:nonzero;stroke-width:0.628159" />
 </g>
</svg>
