<?xml version="1.0" encoding="UTF-8" standalone="no"?>
<svg
   viewBox="0 0 268.00001 128"
   height="128"
   width="268"
   xml:space="preserve"
   id="svg2"
   version="1.1"
   sodipodi:docname="Eizo.EIZ.EGD.ENC.svg"
   inkscape:version="1.2.2 (732a01da63, 2022-12-09)"
   xmlns:inkscape="http://www.inkscape.org/namespaces/inkscape"
   xmlns:sodipodi="http://sodipodi.sourceforge.net/DTD/sodipodi-0.dtd"
   xmlns="http://www.w3.org/2000/svg"
   xmlns:svg="http://www.w3.org/2000/svg"
   xmlns:rdf="http://www.w3.org/1999/02/22-rdf-syntax-ns#"
   xmlns:cc="http://creativecommons.org/ns#"
   xmlns:dc="http://purl.org/dc/elements/1.1/"><sodipodi:namedview
     id="namedview14"
     pagecolor="#505050"
     bordercolor="#eeeeee"
     borderopacity="1"
     inkscape:pageshadow="0"
     inkscape:pageopacity="0"
     inkscape:pagecheckerboard="0"
     showgrid="false"
     fit-margin-top="0"
     fit-margin-left="0"
     fit-margin-right="0"
     fit-margin-bottom="0"
     inkscape:zoom="3.3750001"
     inkscape:cx="120.14814"
     inkscape:cy="50.370369"
     inkscape:window-width="3840"
     inkscape:window-height="2071"
     inkscape:window-x="2391"
     inkscape:window-y="-9"
     inkscape:window-maximized="1"
     inkscape:current-layer="svg2"
     inkscape:showpageshadow="2"
     inkscape:deskcolor="#505050" /><metadata
     id="metadata8"><rdf:RDF><cc:Work
         rdf:about=""><dc:format>image/svg+xml</dc:format><dc:type
           rdf:resource="http://purl.org/dc/dcmitype/StillImage" /></cc:Work></rdf:RDF></metadata><defs
     id="defs6" /><g
     id="g311"
     transform="matrix(0.94672773,0,0,0.94672773,15.920037,16)"><g
       id="g296"
       style="fill:#000000"><path
         id="path16"
         style="fill:#000000;fill-opacity:1;fill-rule:evenodd;stroke:none;stroke-width:0.133333"
         d="m 248.21262,35.11005 c 0.32266,0 0.644,0.13333 0.872,0.36266 0.22933,0.228 0.364,0.55067 0.364,0.87467 v 29.14973 c 0,0.32294 -0.13467,0.64534 -0.364,0.874 -0.228,0.22974 -0.54934,0.36254 -0.872,0.36254 h -37.57334 c -0.32133,0 -0.64533,-0.1328 -0.87333,-0.36254 -0.228,-0.22866 -0.36133,-0.55106 -0.36133,-0.874 V 36.34738 c 0,-0.324 0.13333,-0.64667 0.36133,-0.87467 0.228,-0.22933 0.552,-0.36266 0.87333,-0.36266 z m -43.08,-0.0413 h -38.06534 c -0.32266,0 -0.644,0.13467 -0.87466,0.364 -0.22934,0.228 -0.364,0.552 -0.364,0.876 v 4.13067 c 0,0.324 0.13466,0.648 0.364,0.87733 0.23066,0.22934 0.552,0.36267 0.87466,0.36267 h 22.39734 l -23.42,23.70213 c -0.144,0.15574 -0.22267,0.37134 -0.216,0.58027 0.009,0.21147 0.10266,0.4192 0.252,0.5672 0.152,0.14573 0.36533,0.23173 0.57466,0.23173 h 38.06667 c 0.324,0 0.64667,-0.1344 0.876,-0.364 0.22933,-0.22866 0.36133,-0.55106 0.36133,-0.8756 v -4.13173 c 0,-0.32347 -0.132,-0.64693 -0.36133,-0.8756 -0.22933,-0.2296 -0.552,-0.36293 -0.876,-0.36293 h -22.4 l 23.42533,-23.70214 c 0.14267,-0.156 0.22,-0.36933 0.212,-0.58133 -0.008,-0.212 -0.0987,-0.41867 -0.25066,-0.56667 -0.15334,-0.14533 -0.36267,-0.232 -0.576,-0.232 z m 34.91466,6.636 h -21.24533 c -0.216,0 -0.43067,0.0907 -0.58267,0.24267 -0.15333,0.152 -0.24266,0.36667 -0.24266,0.58267 v 16.78426 c 0,0.21574 0.0893,0.42974 0.24266,0.5824 0.152,0.15147 0.36667,0.24214 0.58267,0.24214 h 21.24533 c 0.21734,0 0.43334,-0.0907 0.58534,-0.24214 0.15333,-0.15266 0.24133,-0.36666 0.24133,-0.5824 V 42.53009 c 0,-0.216 -0.088,-0.43067 -0.24133,-0.58267 -0.152,-0.152 -0.368,-0.24267 -0.58534,-0.24267" /><path
         id="path18"
         style="fill:#000000;fill-opacity:1;fill-rule:evenodd;stroke:none;stroke-width:0.133333"
         d="m 153.61262,36.36738 c 0,-0.32533 0.13333,-0.64667 0.36133,-0.876 0.23067,-0.228 0.552,-0.36267 0.87467,-0.36267 h 6.10133 c 0.324,0 0.64533,0.13467 0.87467,0.36267 0.22933,0.22933 0.36133,0.55067 0.36133,0.876 v 29.14853 c 0,0.32454 -0.132,0.6464 -0.36133,0.87547 -0.22934,0.2292 -0.55067,0.36107 -0.87467,0.36107 h -6.10133 c -0.32267,0 -0.644,-0.13187 -0.87467,-0.36107 -0.228,-0.22907 -0.36133,-0.55093 -0.36133,-0.87547 V 36.36738" /><path
         id="path20"
         style="fill:#000000;fill-opacity:1;fill-rule:evenodd;stroke:none;stroke-width:0.133333"
         d="m 118.41875,58.83005 v -4.62094 h 30.23653 c 0.32267,0 0.644,-0.13173 0.872,-0.36093 0.22934,-0.22867 0.364,-0.552 0.364,-0.876 v -4.1208 c 0,-0.32507 -0.13466,-0.6464 -0.364,-0.87507 -0.228,-0.22866 -0.54933,-0.362 -0.872,-0.362 h -30.23653 v -4.05226 l -0.009,-1.00134 c 0,-0.216 0.0885,-0.43066 0.24107,-0.58133 0.15266,-0.15333 0.36613,-0.24267 0.58226,-0.24267 l 0.93854,-0.012 h 28.48399 c 0.32267,0 0.644,-0.13333 0.872,-0.36133 0.22934,-0.22933 0.364,-0.55067 0.364,-0.87467 v -4.12133 c 0,-0.32533 -0.13466,-0.64667 -0.364,-0.876 -0.228,-0.228 -0.54933,-0.36267 -0.872,-0.36267 h -37.57306 c -0.3244,0 -0.64627,0.13467 -0.87547,0.36267 -0.22653,0.22933 -0.36093,0.55067 -0.36093,0.876 v 29.14853 c 0,0.32454 0.1344,0.6464 0.36093,0.87547 0.2292,0.2292 0.55107,0.36107 0.87547,0.36107 h 37.57306 c 0.32267,0 0.644,-0.13187 0.872,-0.36107 0.22934,-0.22907 0.364,-0.55093 0.364,-0.87547 v -4.12133 c 0,-0.32507 -0.13466,-0.64693 -0.364,-0.876 -0.228,-0.22867 -0.54933,-0.36093 -0.872,-0.36093 h -28.55533 l -0.85466,-0.0188 c -0.21667,0 -0.43014,-0.0891 -0.58334,-0.2396 -0.1536,-0.15414 -0.2416,-0.36827 -0.2416,-0.58494 l -0.002,-0.48426" /></g><g
       id="g301"><path
         id="path22"
         style="fill:#ed1639;fill-opacity:1;fill-rule:evenodd;stroke:none;stroke-width:0.133333"
         d="M 7.4775998,45.93938 0,53.41698 43.258359,96.67378 50.734892,89.19711 7.4775998,45.93938" /><path
         id="path24"
         style="fill:#00a650;fill-opacity:1;fill-rule:evenodd;stroke:none;stroke-width:0.133333"
         d="m 47.985426,101.40191 -4.729734,-4.73026 53.404263,-53.40294 4.730665,4.73107 v 7.62707 h -7.630262 v 7.63026 h -7.628533 v 7.63014 h -7.628667 v 7.62706 h -7.629733 v 7.63027 h -7.629733 v 7.63013 h -7.629066 v 7.6272 h -7.6292" /><path
         id="path26"
         style="fill:#254aa5;fill-opacity:1;fill-rule:evenodd;stroke:none;stroke-width:0.133333"
         d="m 62.492225,19.764714 5.3312,-5.332 5.338,5.337333 -5.3328,5.332003 5.342267,5.34133 5.332266,-5.33333 5.3416,5.344 -5.331733,5.33066 5.338533,5.34 5.331733,-5.332 5.3412,5.33867 L 50.732359,84.92378 9.6223598,43.81405 c -0.09787,-1.15334 0.1172,-2.31334 0.6229332,-3.35334 0.507334,-1.04133 1.285467,-1.92666 2.254134,-2.56133 0.9688,-0.63333 2.0912,-0.996 3.246933,-1.044 1.607866,-0.0693 3.130266,-0.73733 4.2672,-1.87467 1.138533,-1.13733 1.806266,-2.66 1.874933,-4.268 0.06773,-1.60666 0.737067,-3.12933 1.874,-4.26666 1.138533,-1.13734 2.6604,-1.80534 4.266667,-1.876 1.607866,-0.0667 3.130266,-0.736 4.268266,-1.87334 1.136933,-1.137329 1.806267,-2.658663 1.873867,-4.266663 0.0672,-1.605333 0.736533,-3.129333 1.874533,-4.266666 1.1364,-1.138667 2.659333,-1.806667 4.2672,-1.874667 1.606267,-0.068 3.130266,-0.737333 4.2672,-1.873333 1.136933,-1.1373334 1.8068,-2.6613334 1.8744,-4.2680004 0.0496,-1.157333 0.409466,-2.28 1.043866,-3.248 0.6364,-0.966667 1.5208,-1.746667 2.562934,-2.25200004 1.040666,-0.508 2.199466,-0.722666 3.3532,-0.624 l 9.074399,9.07333304 -5.332266,5.3333334 5.335466,5.334667 -5.35,5.349336 -5.334933,-5.336003 -5.347866,5.349333 5.335333,5.33467 -5.349467,5.34933 -5.335866,-5.336 -5.351067,5.35333 5.3344,5.33467 5.352533,-5.352 5.336934,5.33867 -5.351467,5.35066 5.342133,5.34027 5.351067,-5.35093 5.3412,5.34146 -5.351067,5.3532 5.339067,5.338 5.351466,-5.35266 -5.339466,-5.33854 5.348933,-5.34813 5.340533,5.33827 5.347467,-5.34627 -5.339067,-5.34133 -5.348933,5.34933 -5.341733,-5.34133 -5.3484,5.348 -5.341733,-5.34 5.350133,-5.35067 5.34,5.34267 5.348533,-5.34934 -5.341733,-5.34 -5.3468,5.34667 -5.3376,-5.33733 5.347466,-5.348 16.0208,16.02 5.35,-5.34934 -5.342133,-5.34133 -5.35,5.34933 -5.341733,-5.34 5.349466,-5.35066 -5.3364,-5.337336" /></g></g></svg>
