<?xml version="1.0" encoding="UTF-8" standalone="no"?>
<!-- Generator: Adobe Illustrator 26.5.0, SVG Export Plug-In . SVG Version: 6.00 Build 0)  -->

<svg
   version="1.1"
   id="LOGOS"
   x="0px"
   y="0px"
   viewBox="0 0 128 128"
   xml:space="preserve"
   sodipodi:docname="fox-spirit.svg"
   width="128"
   height="128"
   inkscape:version="1.2.2 (732a01da63, 2022-12-09)"
   xmlns:inkscape="http://www.inkscape.org/namespaces/inkscape"
   xmlns:sodipodi="http://sodipodi.sourceforge.net/DTD/sodipodi-0.dtd"
   xmlns="http://www.w3.org/2000/svg"
   xmlns:svg="http://www.w3.org/2000/svg"><defs
   id="defs6496" /><sodipodi:namedview
   id="namedview6494"
   pagecolor="#ffffff"
   bordercolor="#000000"
   borderopacity="0.25"
   inkscape:showpageshadow="2"
   inkscape:pageopacity="0.0"
   inkscape:pagecheckerboard="0"
   inkscape:deskcolor="#d1d1d1"
   showgrid="false"
   inkscape:zoom="6.5949492"
   inkscape:cx="100.75893"
   inkscape:cy="113.72339"
   inkscape:window-width="3840"
   inkscape:window-height="2071"
   inkscape:window-x="2391"
   inkscape:window-y="-9"
   inkscape:window-maximized="1"
   inkscape:current-layer="LOGOS" />
<style
   type="text/css"
   id="style6460">
	.st0{fill:#ED1C24;}
	.st1{fill:#FFFFFF;}
	.st2{fill:#040000;}
</style>



<g
   id="NOIR"
   transform="matrix(0.096,0,0,0.096,-320,-12.896)">
	<g
   id="g6490">
		<g
   id="g6488">
			<g
   id="g6482">
				<polygon
   class="st2"
   points="3919.1,1204 3811,994.9 3585.7,815.1 3613.2,571.5 3852.1,722.8 3944.6,909.3 3931.7,688.4 3503.9,301 3560.2,485.9 3519.7,842.4 3761.7,1035.7 3874.6,1254.1 4000,1301 4125.5,1254.1 4238.3,1035.7 4480.3,842.4 4439.8,485.9 4496.1,301 4068.3,688.4 4055.4,909.3 4147.9,722.8 4386.8,571.5 4414.3,815.1 4189,994.9 4080.9,1204 4000,1234.2 "
   id="polygon6480" />
			</g>
			<g
   id="g6486">
				<polygon
   class="st2"
   points="4000.3,1141.2 4035.8,1128 4056.7,1087.6 4000.3,1074.3 3943.9,1087.6 3964.8,1128 "
   id="polygon6484" />
			</g>
		</g>
	</g>
</g>
</svg>
