<?xml version="1.0" encoding="UTF-8" standalone="no"?>
<!-- Created with Inkscape (http://www.inkscape.org/) -->

<svg
   version="1.0"
   width="232"
   height="128"
   id="svg10140"
   sodipodi:docname="Fujitsu.FDT.FUJ.FMI.FML.FPE.FUS.FJS.FJC.FTL.svg"
   inkscape:version="1.2.2 (732a01da63, 2022-12-09)"
   xmlns:inkscape="http://www.inkscape.org/namespaces/inkscape"
   xmlns:sodipodi="http://sodipodi.sourceforge.net/DTD/sodipodi-0.dtd"
   xmlns="http://www.w3.org/2000/svg"
   xmlns:svg="http://www.w3.org/2000/svg">
  <sodipodi:namedview
     id="namedview14"
     pagecolor="#505050"
     bordercolor="#eeeeee"
     borderopacity="1"
     inkscape:pageshadow="0"
     inkscape:pageopacity="0"
     inkscape:pagecheckerboard="0"
     showgrid="false"
     inkscape:zoom="2.0064656"
     inkscape:cx="345.63264"
     inkscape:cy="170.44897"
     inkscape:window-width="3840"
     inkscape:window-height="2071"
     inkscape:window-x="2391"
     inkscape:window-y="-9"
     inkscape:window-maximized="1"
     inkscape:current-layer="svg10140"
     fit-margin-top="0"
     fit-margin-left="0"
     fit-margin-right="0"
     fit-margin-bottom="0"
     inkscape:showpageshadow="2"
     inkscape:deskcolor="#505050" />
  <defs
     id="defs10142" />
  <g
     transform="matrix(0.2816584,0,0,0.2816584,194.52118,-280.05359)"
     id="layer1"
     style="fill:#000000">
    <g
       transform="translate(17.716537,17.730397)"
       id="g2642"
       style="fill:#000000">
      <path
         d="m -333.74409,1168.9225 c 0,-6.9882 -5.40547,-14.6356 -12.3932,-14.6356 h 51.81461 c -6.98773,0 -12.39339,7.6474 -12.39339,14.6356 v 128.4244 c 0,7.1198 5.40566,14.6354 12.39339,14.6354 h -51.81461 c 6.98773,0 12.3932,-7.5156 12.3932,-14.6354 v -128.4244"
         style="font-size:3.1527px;font-family:fnt0, Futura, Arial;letter-spacing:-0.063054;word-spacing:0;fill:#000000;fill-rule:nonzero;stroke:none;stroke-width:0.058;stroke-linecap:butt;stroke-linejoin:miter;stroke-miterlimit:4;stroke-dasharray:none"
         id="path7598" />
      <path
         d="m -611.40733,1234.9806 h 36.12515 c 6.98784,0 13.58007,5.4059 13.58007,12.3941 l -0.13183,-28.3484 h -49.57339 v -48.7854 h 48.12286 c 7.11986,0 13.58008,5.4061 13.58008,12.526 v -28.48 h -101.12445 c 7.11967,0 12.39331,7.6474 12.39331,14.6356 v 128.4244 c 0,7.1198 -5.27364,14.6354 -12.39331,14.6354 h 51.94655 c -7.11937,0 -12.52504,-7.5156 -12.52504,-14.6354 v -62.3663"
         style="font-size:3.1527px;font-family:fnt0, Futura, Arial;letter-spacing:-0.063054;word-spacing:0;fill:#000000;fill-rule:nonzero;stroke:none;stroke-width:0.058;stroke-linecap:butt;stroke-linejoin:miter;stroke-miterlimit:4;stroke-dasharray:none"
         id="path7600" />
      <path
         d="m -507.64616,1269.6577 c 0,16.3497 13.31632,30.5898 29.66474,30.5898 16.34873,0 29.79687,-14.5037 29.79687,-30.8535 v -100.4715 c 0,-6.9882 -5.40566,-14.6356 -12.52504,-14.6356 h 51.94645 c -7.11976,0 -12.52523,7.6474 -12.52523,14.6356 v 97.7026 c 0,31.2491 -25.18229,49.5765 -56.56121,49.5765 -31.37893,0 -56.82459,-18.3274 -56.82459,-49.5765 v -97.7026 c 0,-6.9882 -5.40567,-14.6356 -12.39341,-14.6356 h 51.81462 c -7.11937,0 -12.3932,7.6474 -12.3932,14.6356 v 100.7352"
         style="font-size:3.1527px;font-family:fnt0, Futura, Arial;letter-spacing:-0.063054;word-spacing:0;fill:#000000;fill-rule:nonzero;stroke:none;stroke-width:0.058;stroke-linecap:butt;stroke-linejoin:miter;stroke-miterlimit:4;stroke-dasharray:none"
         id="path7602" />
      <path
         d="m -364.06828,1168.9225 c 0,-6.9882 5.40567,-14.6356 12.52532,-14.6356 h -51.94655 c 7.11967,0 12.52534,7.6474 12.52534,14.6356 v 160.4645 c 0,0 -0.52762,28.6118 -22.94096,44.8297 0,0 49.96888,-7.1201 49.96888,-54.3231 l -0.13203,-150.9711"
         style="font-size:3.1527px;font-family:fnt0, Futura, Arial;letter-spacing:-0.063054;word-spacing:0;fill:#000000;fill-rule:nonzero;stroke:none;stroke-width:0.058;stroke-linecap:butt;stroke-linejoin:miter;stroke-miterlimit:4;stroke-dasharray:none"
         id="path7604" />
      <path
         d="m -41.050452,1269.6577 c 0,16.3497 13.316303,30.5898 29.796764,30.5898 16.3485282,0 29.664831,-14.5037 29.664831,-30.8535 v -100.4715 c 0,-6.9882 -5.405654,-14.6356 -12.3932038,-14.6356 H 57.832568 c -6.987734,0 -12.393488,7.6474 -12.393488,14.6356 v 97.7026 c 0,31.2491 -25.31384,49.5765 -56.560935,49.5765 -31.378944,0 -56.956617,-18.3274 -56.956617,-49.5765 l 0.131833,-97.7026 c 0,-6.9882 -5.40547,-14.6356 -12.525037,-14.6356 h 51.946261 c -7.119382,0 -12.525037,7.6474 -12.525037,14.6356 v 100.7352"
         style="font-size:3.1527px;font-family:fnt0, Futura, Arial;letter-spacing:-0.063054;word-spacing:0;fill:#000000;fill-rule:nonzero;stroke:none;stroke-width:0.058;stroke-linecap:butt;stroke-linejoin:miter;stroke-miterlimit:4;stroke-dasharray:none"
         id="path7606" />
      <path
         d="m -92.733332,1180.1299 c -8.437978,-14.5036 -28.346328,-12.6579 -28.346328,-12.6579 -31.6427,0 -30.19247,24.7883 -30.19247,24.7883 0,0 -2.10939,12.3943 13.7119,20.9646 l 31.77424,17.2727 c 30.587851,16.8771 27.02821,40.7424 27.02821,40.7424 0,0 1.318413,44.8297 -62.62604,44.8297 0,0 -18.58994,0.5276 -29.13741,-3.428 l -9.22905,-29.5351 c 9.49271,14.8994 38.63033,17.1409 38.63033,17.1409 35.86158,-1.7141 36.12525,-26.7662 36.12525,-26.7662 0,0 1.71389,-10.8118 -12.39351,-18.7229 l -31.64239,-17.2726 c -32.96101,-18.0637 -29.13762,-42.3246 -29.13762,-42.3246 0,0 -0.79108,-44.0388 55.90197,-44.0388 0,0 25.445845,0.6593 29.532918,4.7467 v 24.2608"
         style="font-size:3.1527px;font-family:fnt0, Futura, Arial;letter-spacing:-0.063054;word-spacing:0;fill:#000000;fill-rule:nonzero;stroke:none;stroke-width:0.058;stroke-linecap:butt;stroke-linejoin:miter;stroke-miterlimit:4;stroke-dasharray:none"
         id="path7608" />
      <path
         d="m -285.09362,1154.2869 -8.56981,29.0075 c 6.85572,-12.9217 17.79898,-13.0535 17.79898,-13.0535 h 27.4234 v 127.106 c 0,7.1198 -5.40546,14.6354 -12.39339,14.6354 h 51.81461 c -6.98753,0 -12.3932,-7.5156 -12.3932,-14.6354 v -127.106 h 22.94096 c 7.11937,0 12.7887,5.6698 12.7887,12.7898 l 8.43807,-28.7438 h -107.84832"
         style="font-size:3.1527px;font-family:fnt0, Futura, Arial;letter-spacing:-0.063054;word-spacing:0;fill:#000000;fill-rule:nonzero;stroke:none;stroke-width:0.058;stroke-linecap:butt;stroke-linejoin:miter;stroke-miterlimit:4;stroke-dasharray:none"
         id="path7610" />
      <path
         d="m -340.33634,1099.4363 c 5.66942,5.6697 13.44825,9.0978 22.01805,9.0978 17.27154,0 31.24691,-13.9763 31.24691,-31.1171 0,-17.2729 -13.97537,-31.249 -31.24691,-31.249 0,0 -23.99561,-2.2415 -34.80673,28.4801 v -23.0742 c 8.04248,-10.5482 20.56751,-18.1956 34.80673,-18.1956 24.39121,0 44.0359,19.646 44.0359,44.0387 0,24.2607 -19.64469,43.9066 -44.0359,43.9066 -12.12974,0 -23.0728,-4.8783 -31.11498,-12.7895 l -15.16233,-17.0091 c -4.08705,-4.2191 -9.75649,-6.7242 -16.08478,-6.7242 -12.65715,0 -22.80913,10.1525 -22.80913,22.8103 0,12.6578 10.15198,22.8104 22.80913,22.8104 0,0 16.87605,2.2417 27.55536,-18.5913 v 18.4595 c -6.59224,7.911 -16.48057,12.9217 -27.55536,12.9217 -19.64499,0 -35.59811,-15.9543 -35.59811,-35.6003 0,-19.646 15.95312,-35.6 35.59811,-35.6 9.88823,0 18.72179,3.9554 25.18219,10.4163 l 15.16185,17.0089"
         style="font-size:3.1527px;font-family:fnt0, Futura, Arial;letter-spacing:-0.063054;word-spacing:0;fill:#000000;fill-rule:nonzero;stroke:none;stroke-width:0.058;stroke-linecap:butt;stroke-linejoin:miter;stroke-miterlimit:4;stroke-dasharray:none"
         id="path7612" />
    </g>
  </g>
</svg>
