<?xml version="1.0" encoding="UTF-8" standalone="no"?>
<!-- Generator: Adobe Illustrator 13.0.0, SVG Export Plug-In . SVG Version: 6.00 Build 14948)  -->

<svg
   version="1.1"
   id="Layer_1"
   x="0px"
   y="0px"
   width="786"
   height="128"
   viewBox="0 0 786 127.99999"
   enable-background="new 0 0 312.802 39.851"
   xml:space="preserve"
   sodipodi:docname="Gigabyte.GBT.svg"
   inkscape:version="1.2.2 (732a01da63, 2022-12-09)"
   xmlns:inkscape="http://www.inkscape.org/namespaces/inkscape"
   xmlns:sodipodi="http://sodipodi.sourceforge.net/DTD/sodipodi-0.dtd"
   xmlns="http://www.w3.org/2000/svg"
   xmlns:svg="http://www.w3.org/2000/svg"><defs
   id="defs14098" /><sodipodi:namedview
   id="namedview14096"
   pagecolor="#ffffff"
   bordercolor="#000000"
   borderopacity="0.25"
   inkscape:showpageshadow="2"
   inkscape:pageopacity="0.0"
   inkscape:pagecheckerboard="0"
   inkscape:deskcolor="#d1d1d1"
   showgrid="false"
   inkscape:zoom="2.4056751"
   inkscape:cx="457.45994"
   inkscape:cy="104.7523"
   inkscape:window-width="3840"
   inkscape:window-height="2071"
   inkscape:window-x="2391"
   inkscape:window-y="-9"
   inkscape:window-maximized="1"
   inkscape:current-layer="Layer_1" />









<g
   id="g14239"
   transform="matrix(2.4089734,0,0,2.4089734,16.234151,16.000001)"><polygon
     fill="#005DAA"
     points="300.199,1.064 297.884,1.064 297.884,0.128 303.576,0.128 303.576,1.064 301.265,1.064 301.265,7.552 300.199,7.552 "
     id="polygon14075"
     style="fill:#000000" /><polygon
     fill="#005DAA"
     points="311.718,1.13 309.257,7.552 308.201,7.552 305.744,1.13 305.722,1.13 305.722,7.552 304.65,7.552 304.65,0.128 306.412,0.128 308.753,6.286 311.046,0.128 312.802,0.128 312.802,7.552 311.736,7.552 311.736,1.13 "
     id="polygon14077"
     style="fill:#000000" /><rect
     x="46.271999"
     fill="#005DAA"
     width="10.603"
     height="39.625"
     id="rect14079"
     style="fill:#000000"
     y="0" /><path
     fill="#005DAA"
     d="m 119.531,0.033 h 13.006 l 15.344,39.818 h -11.635 l -2.969,-8.495 h -14.945 l -3.142,8.495 H 104.409 L 119.531,0.033 m 6.501,8.214 h -0.111 l -5.138,15.576 h 9.983 L 126.032,8.247"
     id="path14081"
     style="fill:#000000" /><path
     fill="#005DAA"
     d="m 153.044,0.028 h 18.317 c 7.412,0 12.949,3.249 12.949,10.094 0,5.028 -2.566,7.826 -7.015,9.304 v 0.111 c 5.297,1.091 8.042,3.94 8.042,8.795 0,9.526 -8.387,11.518 -15.516,11.518 H 153.044 V 0.028 m 10.608,32.302 h 3.146 c 3.877,0 7.926,-0.577 7.926,-4.624 0,-4.342 -4.164,-4.735 -7.811,-4.735 h -3.262 v 9.359 m 10e-4,-16.551 h 2.97 c 3.482,0 7.072,-0.856 7.072,-4.225 0,-3.653 -3.417,-3.987 -6.953,-3.987 h -3.089 v 8.212"
     id="path14083"
     style="fill:#000000" /><polyline
     fill="#005DAA"
     points="199.702,24.852 184.988,0.028 197.193,0.028 205.012,16.004 212.713,0.028 224.927,0.028   210.314,24.852 210.314,39.851 199.702,39.851 199.702,24.852 "
     id="polyline14085"
     style="fill:#000000" /><polyline
     fill="#005DAA"
     points="239.101,7.901 229.294,7.901 229.294,0.028 259.529,0.028 259.529,7.901 249.722,7.901   249.722,39.851 239.101,39.851 239.101,7.901 "
     id="polyline14087"
     style="fill:#000000" /><polyline
     fill="#005DAA"
     points="264.58,0.028 292.65,0.028 292.65,7.567 275.187,7.567 275.187,15.779 291.675,15.779   291.675,23.308 275.187,23.308 275.187,32.33 293.273,32.33 293.273,39.851 264.58,39.851 264.58,0.028 "
     id="polyline14089"
     style="fill:#000000" /><path
     fill="#005DAA"
     d="m 22.176,8.747 c -7.059,0.587 -10.913,5.221 -10.913,11.218 0,5.831 5.403,10.732 10.621,10.732 l 1.146,-0.012 h 1.929 c 0,0 1.279,0 1.288,-1.247 V 16.923 h 10.896 c 0,7.064 -0.026,22.928 -0.026,22.928 0,0 -10.754,-0.009 -16.998,-0.009 C 8.377,39.842 0,30.142 0,19.965 0,8.957 9.112,-0.237 20.458,0.17 L 36.757,0.221 36.749,8.746 H 22.176"
     id="path14091"
     style="fill:#000000" /><path
     fill="#005DAA"
     d="m 85.229,8.747 c -7.062,0.586 -10.909,5.22 -10.909,11.218 0,5.831 5.395,10.732 10.617,10.732 l 1.142,-0.012 h 1.934 c 0,0 1.27,0 1.279,-1.247 V 16.923 h 10.878 c 0,7.064 -0.018,22.928 -0.018,22.928 0,0 -10.745,-0.009 -16.985,-0.009 -11.736,0 -20.104,-9.7 -20.104,-19.877 0,-11.008 9.103,-20.202 20.454,-19.794 L 99.789,0.222 99.785,8.747 H 85.229"
     id="path14093"
     style="fill:#000000" /></g>
</svg>
