<?xml version="1.0" encoding="UTF-8" standalone="no"?>
<!-- Created with Inkscape (http://www.inkscape.org/) -->

<svg
   version="1.1"
   id="svg14810"
   width="294"
   height="128"
   viewBox="0 0 293.99999 128"
   sodipodi:docname="HKC.svg"
   inkscape:version="1.2.2 (732a01da63, 2022-12-09)"
   xmlns:inkscape="http://www.inkscape.org/namespaces/inkscape"
   xmlns:sodipodi="http://sodipodi.sourceforge.net/DTD/sodipodi-0.dtd"
   xmlns="http://www.w3.org/2000/svg"
   xmlns:svg="http://www.w3.org/2000/svg">
  <defs
     id="defs14814">
    <clipPath
       clipPathUnits="userSpaceOnUse"
       id="clipPath14826">
      <path
         d="M 0,595 H 842 V 0 H 0 Z"
         id="path14824" />
    </clipPath>
  </defs>
  <sodipodi:namedview
     id="namedview14812"
     pagecolor="#ffffff"
     bordercolor="#000000"
     borderopacity="0.25"
     inkscape:showpageshadow="2"
     inkscape:pageopacity="0.0"
     inkscape:pagecheckerboard="0"
     inkscape:deskcolor="#d1d1d1"
     showgrid="false"
     inkscape:zoom="5.568883"
     inkscape:cx="170.50098"
     inkscape:cy="75.419075"
     inkscape:window-width="3840"
     inkscape:window-height="2071"
     inkscape:window-x="2391"
     inkscape:window-y="-9"
     inkscape:window-maximized="1"
     inkscape:current-layer="g14818">
    <inkscape:page
       x="0"
       y="0"
       id="page14816"
       width="294"
       height="128" />
  </sodipodi:namedview>
  <g
     id="g14818"
     inkscape:groupmode="layer"
     inkscape:label="Page 1"
     transform="matrix(1.3333333,0,0,-1.3333333,0,793.33333)">
    <g
       id="g14820"
       style="fill:#000000"
       transform="matrix(0.86149323,0,0,0.86149323,-252.82235,290.15663)">
      <g
         id="g14822"
         clip-path="url(#clipPath14826)"
         style="fill:#000000">
        <g
           id="g14828"
           transform="translate(328.3389,288.3027)"
           style="fill:#000000">
          <path
             d="M 0,0 H 27.127 V -27.885 H 48.111 V 45.37 H 27.127 V 17.959 H 0 V 45.37 H -20.891 V -27.885 H 0 Z m 134.601,34.028 c -6.08,-14.904 -3.679,-29.673 9.463,-41.579 12.093,-10.956 31.977,-12.46 45.202,-2.716 2.969,2.188 5.503,5.11 8.424,8.144 0.951,-0.636 9.414,-8.939 9.414,-9.461 -3.539,-4.701 -7.794,-9.244 -12.865,-12.796 -13.221,-9.26 -29.978,-9.896 -44.42,-2.632 -21.096,10.613 -31.616,41.686 -15.218,61.04 M 100.46,7.404 136.019,-27.885 H 109.734 L 80.817,1.324 V -27.885 H 59.927 V 45.37 h 20.89 V 13.473 l 28.735,31.897 h 25.049 z m 53.23,19.246 c 6.96,8.501 22.599,11.325 32.573,5.184 3.152,-1.94 5.723,-4.523 8.278,-7.12 l 10.069,10.675 c -2.496,3.707 -7.25,7.952 -12.877,11.155 -12.023,6.846 -28.449,6.973 -40.111,-0.855 -2.674,-1.795 -5.094,-3.953 -7.173,-6.401 -10.514,-12.376 -10.788,-31.929 0.656,-43.907 6.903,-7.228 15.286,-10.543 25.056,-10.543 3.252,0.338 5.664,0.721 8.754,1.78 -5.867,-1.05 -12.047,-0.64 -17.212,1.671 -15.124,6.769 -18.156,25.971 -8.013,38.361"
             style="fill:#000000;fill-opacity:1;fill-rule:evenodd;stroke:none"
             id="path14830" />
        </g>
      </g>
    </g>
  </g>
</svg>
