<?xml version="1.0" encoding="UTF-8" standalone="no"?>
<!-- Created with Inkscape (http://www.inkscape.org/) -->

<svg
   id="svg3009"
   version="1.1"
   inkscape:version="1.2.2 (732a01da63, 2022-12-09)"
   width="128"
   height="128"
   xml:space="preserve"
   sodipodi:docname="Hp.HPQ.HPD.HPC.svg"
   xmlns:inkscape="http://www.inkscape.org/namespaces/inkscape"
   xmlns:sodipodi="http://sodipodi.sourceforge.net/DTD/sodipodi-0.dtd"
   xmlns="http://www.w3.org/2000/svg"
   xmlns:svg="http://www.w3.org/2000/svg"
   xmlns:rdf="http://www.w3.org/1999/02/22-rdf-syntax-ns#"
   xmlns:cc="http://creativecommons.org/ns#"
   xmlns:dc="http://purl.org/dc/elements/1.1/"><metadata
     id="metadata3015"><rdf:RDF><cc:Work
         rdf:about=""><dc:format>image/svg+xml</dc:format><dc:type
           rdf:resource="http://purl.org/dc/dcmitype/StillImage" /></cc:Work></rdf:RDF></metadata><defs
     id="defs3013" /><sodipodi:namedview
     pagecolor="#ffffff"
     bordercolor="#666666"
     borderopacity="1"
     objecttolerance="10"
     gridtolerance="10"
     guidetolerance="10"
     inkscape:pageopacity="0"
     inkscape:pageshadow="2"
     inkscape:window-width="3840"
     inkscape:window-height="2071"
     id="namedview3011"
     showgrid="false"
     fit-margin-top="0.1"
     fit-margin-left="0.1"
     fit-margin-right="0.1"
     fit-margin-bottom="0.1"
     inkscape:zoom="10.788021"
     inkscape:cx="86.623858"
     inkscape:cy="63.681745"
     inkscape:window-x="2391"
     inkscape:window-y="-9"
     inkscape:window-maximized="1"
     inkscape:current-layer="g3017"
     inkscape:pagecheckerboard="0"
     inkscape:showpageshadow="2"
     inkscape:deskcolor="#d1d1d1" /><g
     id="g3017"
     inkscape:groupmode="layer"
     inkscape:label="c02716792"
     transform="matrix(1.25,0,0,-1.25,-67.822513,702.43127)"><g
       id="g3061"
       style="fill:#000000;fill-opacity:1"
       transform="matrix(1.4602426,0,0,1.4602426,-12.288666,-231.52844)"><g
         transform="translate(106.93201,508.32201)"
         id="g3021"
         style="fill:#000000;fill-opacity:1"><path
           id="path3023"
           style="fill:#000000;fill-opacity:1;fill-rule:nonzero;stroke:none"
           d="m 0,0 c 0,14.524 -11.773,26.297 -26.297,26.297 -0.396,0 -0.79,-0.01 -1.182,-0.028 l -5.379,-14.784 h 4.685 c 2.787,0 4.289,-2.146 3.335,-4.767 l -6.635,-18.234 -5.571,10e-4 7.12,19.544 h -4.189 l -7.12,-19.544 h -5.573 l 8.372,23 h 10e-4 l 5.036,13.841 C -44.471,22.228 -52.594,12.063 -52.594,0 c 0,-12.421 8.613,-22.83 20.192,-25.583 l 4.88,13.411 h 0.004 l 8.609,23.657 h 10.261 c 2.79,0 4.291,-2.146 3.337,-4.767 l -5.83,-16.015 c -0.444,-1.22 -1.869,-2.218 -3.167,-2.218 h -7.396 l -5.374,-14.77 c 0.259,-0.007 0.52,-0.012 0.781,-0.012 C -11.773,-26.297 0,-14.523 0,0"
           inkscape:connector-curvature="0" /></g><g
         transform="translate(96.546997,516.36501)"
         id="g3025"
         style="fill:#000000;fill-opacity:1"><path
           id="path3027"
           style="fill:#000000;fill-opacity:1;fill-rule:nonzero;stroke:none"
           d="m 0,0 h -4.187 l -5.864,-16.089 h 4.187 L 0,0"
           inkscape:connector-curvature="0" /></g></g></g></svg>
