<?xml version="1.0" encoding="UTF-8" standalone="no"?>
<svg
   height="128"
   viewBox="0 0 20.884547 7.5666751"
   width="362"
   version="1.1"
   id="svg14675"
   sodipodi:docname="hyperx-seeklogo.com.svg"
   inkscape:version="1.2.2 (732a01da63, 2022-12-09)"
   xmlns:inkscape="http://www.inkscape.org/namespaces/inkscape"
   xmlns:sodipodi="http://sodipodi.sourceforge.net/DTD/sodipodi-0.dtd"
   xmlns="http://www.w3.org/2000/svg"
   xmlns:svg="http://www.w3.org/2000/svg">
  <defs
     id="defs14679" />
  <sodipodi:namedview
     id="namedview14677"
     pagecolor="#ffffff"
     bordercolor="#000000"
     borderopacity="0.25"
     inkscape:showpageshadow="2"
     inkscape:pageopacity="0.0"
     inkscape:pagecheckerboard="0"
     inkscape:deskcolor="#d1d1d1"
     showgrid="false"
     inkscape:zoom="2.408"
     inkscape:cx="430.02492"
     inkscape:cy="175.24917"
     inkscape:window-width="3840"
     inkscape:window-height="2071"
     inkscape:window-x="2391"
     inkscape:window-y="-9"
     inkscape:window-maximized="1"
     inkscape:current-layer="svg14675" />
  <g
     id="g14801"
     transform="matrix(0.14740276,0,0,0.14740276,0.7041117,0.94583442)">
    <path
       d="M 29.58,14.68 H 34 l 1.08,-3.59 9.35,-5.35 1,-3.17 H 41 L 40.53,4.16 33.61,8.07 29.26,4.31 29.79,2.56 h -4.42 l -0.9,3 6.22,5.44 z M 66.77,9.76 65.3,14.67 h 20 l 1,-3.19 H 71.07 L 77.76,8.67 72.53,5.76 H 88 l 1,-3.2 H 69 l -1.51,4.78 2.15,1.23 z M 8.01,2.57 H 3.63 L 0,14.68 h 4.38 z m 15.18,0 h -4 L 17.85,7 h -10 l -1,3.2 h 10 l -1.34,4.46 H 20 L 23.6,2.57 Z m 27.17,3.19 h 11.18 l -0.31,1 -3.76,1.58 h -6.74 l -1,3.19 h 8.41 l 6.89,-2.9 1.87,-6.06 h -20 l -3.63,12.11 h 4.41 z m 38.23,4.87 -1.22,4.05 h 4.41 c 0,0 0.75,-2.52 0.93,-3.07 C 91.38,11.24 90,10.92 88.59,10.63 Z m 14.19,0.75 6.36,-2.59 L 111,2.57 H 91 l -1.9,6.36 a 46.92,46.92 0 0 1 13.68,2.45 z M 94.46,5.76 h 11.17 c -0.14,0.47 -0.28,0.94 -0.34,1.13 l -3.43,1.45 H 93.68 C 93.85,7.8 94.36,6.1 94.46,5.76 Z"
       fill="#e31837"
       id="path14669"
       style="fill:#000000" />
    <path
       d="m 130.58,38.5 c -3,-8.9 -7.54,-15.22 -12.69,-19.69 4.61,-4.49 7.76,-10.58 8.33,-18.81 0,0 -1.88,8.19 -12,16 -15,-10.23 -33,-7.32 -33,-7.32 a 61.3,61.3 0 0 1 29.3,9.91 c -9.46,6 -24.46,11.2 -48.09,11.37 0,0 33.83,5.1 52.25,-8.44 a 66.93,66.93 0 0 1 15.9,16.98 z"
       fill="#b3b3b3"
       id="path14671"
       style="fill:#000000" />
    <path
       d="m 127.33,4.91 a 2.4,2.4 0 1 1 2.4,2.41 2.39,2.39 0 0 1 -2.4,-2.41 z m 4.41,0 a 2,2 0 1 0 -4,0 2,2 0 1 0 4,0 z m -0.82,1.35 h -0.39 L 129.77,5 h -0.59 v 1.26 h -0.34 V 3.59 H 130 c 0.71,0 0.94,0.26 0.94,0.71 0,0.45 -0.36,0.72 -0.84,0.73 z m -1.26,-1.49 c 0.38,0 0.94,0.07 0.94,-0.48 0,-0.55 -0.34,-0.46 -0.68,-0.46 h -0.76 v 0.95 z"
       fill="#ffffff"
       id="path14673" />
  </g>
</svg>
