<?xml version="1.0" encoding="UTF-8" standalone="no"?>
<!-- Created with Inkscape (http://www.inkscape.org/) -->

<svg
   width="152"
   height="128"
   viewBox="0 0 40.216666 33.866666"
   version="1.1"
   id="svg20711"
   xml:space="preserve"
   inkscape:version="1.2.2 (732a01da63, 2022-12-09)"
   sodipodi:docname="Millenium.svg"
   xmlns:inkscape="http://www.inkscape.org/namespaces/inkscape"
   xmlns:sodipodi="http://sodipodi.sourceforge.net/DTD/sodipodi-0.dtd"
   xmlns="http://www.w3.org/2000/svg"
   xmlns:svg="http://www.w3.org/2000/svg"><sodipodi:namedview
     id="namedview20713"
     pagecolor="#ffffff"
     bordercolor="#000000"
     borderopacity="0.25"
     inkscape:showpageshadow="2"
     inkscape:pageopacity="0.0"
     inkscape:pagecheckerboard="0"
     inkscape:deskcolor="#d1d1d1"
     inkscape:document-units="mm"
     showgrid="false"
     showguides="true"
     inkscape:zoom="5.1526936"
     inkscape:cx="217.84722"
     inkscape:cy="135.85128"
     inkscape:window-width="3840"
     inkscape:window-height="2071"
     inkscape:window-x="2391"
     inkscape:window-y="-9"
     inkscape:window-maximized="1"
     inkscape:current-layer="layer1" /><defs
     id="defs20708" /><g
     inkscape:label="Calque 1"
     inkscape:groupmode="layer"
     id="layer1"><g
       id="g20959"
       transform="matrix(4.9404136,0,0,4.9404136,-343.89711,-649.5396)"><path
         style="fill:#000000;stroke-width:1.05833;stroke-linecap:round;stroke-linejoin:round"
         d="m 72.41428,132.33162 1.296559,1.29656 1.296556,-1.29656 1.891062,1.88947 -0.581681,0.58168 -1.288527,-1.28852 -1.335058,1.33505 -1.267666,-1.26766 -0.759,0.74937 0.401159,0.40116 v 0.53916 h -0.622599 l -0.985253,-0.98525 z"
         id="path20938" /><path
         style="fill:#000000;stroke-width:1.05833;stroke-linecap:round;stroke-linejoin:round"
         d="m 75.328316,134.50752 h 0.693208 l 0.0032,0.6932 h -0.69641 z"
         id="path20940" /><path
         style="fill:#000000;stroke-width:1.05833;stroke-linecap:round;stroke-linejoin:round"
         d="m 72.831496,134.50752 -1.07511,1.07511 1.890265,1.89026 1.681665,-1.68166 v -0.54558 l -0.750969,-0.73813 h -0.327356 l -0.927476,0.92747 v 0.41722 h 0.673944 l 0.349816,-0.34982 0.179724,0.17972 -0.754187,0.75419 -0.832808,-0.83281 0.383511,-0.38351 v -0.71246 z"
         id="path20954" /></g></g></svg>
