<?xml version="1.0" encoding="UTF-8" standalone="no"?>
<!-- Generator: Adobe Illustrator 12.0.1, SVG Export Plug-In . SVG Version: 6.00 Build 51448)  -->

<svg
   version="1.0"
   id="レイヤー_1"
   width="382"
   height="128"
   viewBox="0 0 382 128"
   overflow="visible"
   enable-background="new 0 0 156.405 43.221"
   xml:space="preserve"
   sodipodi:docname="NEC.NCT.NVM.svg"
   inkscape:version="1.2.2 (732a01da63, 2022-12-09)"
   xmlns:inkscape="http://www.inkscape.org/namespaces/inkscape"
   xmlns:sodipodi="http://sodipodi.sourceforge.net/DTD/sodipodi-0.dtd"
   xmlns="http://www.w3.org/2000/svg"
   xmlns:svg="http://www.w3.org/2000/svg"><defs
   id="defs18" /><sodipodi:namedview
   id="namedview16"
   pagecolor="#505050"
   bordercolor="#eeeeee"
   borderopacity="1"
   inkscape:pageshadow="0"
   inkscape:pageopacity="0"
   inkscape:pagecheckerboard="0"
   showgrid="false"
   inkscape:zoom="3.3749255"
   inkscape:cx="-7.8520253"
   inkscape:cy="-22.222713"
   inkscape:window-width="3840"
   inkscape:window-height="2071"
   inkscape:window-x="2391"
   inkscape:window-y="-9"
   inkscape:window-maximized="1"
   inkscape:current-layer="レイヤー_1"
   inkscape:showpageshadow="2"
   inkscape:deskcolor="#505050" />
<g
   id="XMLID_8_"
   style="fill:#000000"
   transform="matrix(2.2470858,0,0,2.2470858,15.273396,15.442723)">
	<g
   id="g10"
   style="fill:#000000">
		<path
   fill="#000000"
   d="m 156.155,34.658 c 0,2.133 0,4.269 0,6.403 -4.229,1.159 -8.926,1.847 -14.251,1.909 -0.474,0 -0.947,0 -1.421,0 -8.101,-0.051 -15.716,-0.524 -21.756,-2.6 -4.331,-1.492 -7.807,-3.801 -10.088,-7.312 -1.832,-2.821 -2.814,-6.442 -2.907,-11.023 -0.044,-2.335 0.188,-4.459 0.626,-6.338 0.548,-2.365 1.444,-4.366 2.633,-6.061 1.197,-1.712 2.707,-3.101 4.443,-4.262 0.694,-0.461 1.441,-0.873 2.222,-1.266 0.771,-0.387 1.597,-0.715 2.448,-1.033 5.918,-2.213 13.519,-2.734 21.539,-2.827 0.905,0 1.809,0 2.711,0 4.815,0.092 9.113,0.7 13.021,1.695 0,1.858 0,3.717 0,5.575 0.003,0.012 0,0.018 -0.009,0.021 -1.68,-0.384 -3.512,-0.557 -5.399,-0.721 -0.938,-0.083 -1.897,-0.137 -2.865,-0.197 -2.851,-0.173 -6.02,-0.217 -8.891,-0.039 -3.817,0.238 -7.231,0.932 -9.766,2.466 -1.274,0.771 -2.341,1.716 -3.208,2.907 -0.852,1.173 -1.474,2.588 -1.879,4.229 -0.202,0.81 -0.343,1.688 -0.44,2.621 -0.194,1.843 -0.155,4.023 0.106,5.772 0.402,2.665 1.264,4.807 2.681,6.489 0.706,0.84 1.504,1.546 2.448,2.145 2.782,1.77 6.66,2.49 11.053,2.692 1.951,0.09 3.991,0.077 5.975,0 1.924,-0.077 3.859,-0.217 5.712,-0.399 1.861,-0.182 3.664,-0.372 5.262,-0.846 z"
   id="path2"
   style="fill:#000000" />
		<path
   fill="#000000"
   d="m 103.416,35.213 c 0,2.061 0,4.121 0,6.18 0,0.012 -0.003,0.018 -0.013,0.021 -9.408,0.015 -18.956,0.009 -28.413,0.009 -0.438,0 -0.867,-0.029 -1.295,-0.047 -2.546,-0.119 -4.962,-0.396 -7.244,-0.811 -1.513,-0.277 -2.945,-0.635 -4.229,-1.141 -0.655,-0.259 -1.257,-0.539 -1.775,-0.917 -0.519,-0.376 -0.926,-0.85 -1.326,-1.364 -1.158,-1.504 -2.001,-3.378 -2.213,-5.847 -0.068,-0.822 -0.026,-1.71 -0.026,-2.612 0,-8.949 -0.009,-17.896 -0.012,-26.855 0,-0.012 0,-0.027 0.012,-0.03 15.031,0 30.241,0 45.333,0 0.128,0 0.271,-0.018 0.351,0 0.03,0.009 0.042,-0.009 0.057,0 0.021,0.012 0.013,0.077 0.013,0.119 -0.003,1.996 0.009,4.172 -0.013,6.1 -0.006,0 -0.012,0 -0.018,0 -9.816,0 -19.63,0 -29.446,0 0,3.104 0,6.207 0,9.31 9.03,0.021 18.099,0.003 27.147,0.009 0,1.918 -0.003,4.107 0,6.025 0,0.047 0.006,0.107 0,0.155 -0.003,0.018 0.015,0.048 -0.03,0.039 -8.702,0 -17.494,0 -26.239,0 -0.283,0 -0.575,-0.027 -0.84,0 -0.012,0 -0.042,-0.015 -0.039,0.021 0,1.772 0,3.606 0,5.361 0,0.217 -0.021,0.426 -0.021,0.631 0,0.632 0.078,1.228 0.197,1.767 0.235,1.045 0.664,1.956 1.257,2.65 0.11,0.128 0.199,0.232 0.331,0.321 0.128,0.084 0.265,0.155 0.429,0.224 0.593,0.253 1.332,0.414 2.088,0.527 0.372,0.057 0.769,0.131 1.167,0.137 1.277,0.019 2.603,0 3.91,0 6.904,0 13.947,0 20.878,0 0.019,-0.004 0.019,0.005 0.022,0.018 z"
   id="path4"
   style="fill:#000000" />
		<path
   fill="#000000"
   d="m 8.015,12.908 c 0.003,-0.003 0.003,-0.006 0.003,-0.006 0,0 -0.003,0.003 -0.003,0.006 z m 0.062,0.066 C 8.071,12.971 8.056,12.956 8.029,12.932 8.02,12.923 8.017,12.917 8.014,12.911 c 0,0.006 -0.003,0.012 -0.006,0.021 -0.012,0.027 0,0.086 0,0.116 0,9.423 0,18.889 0,28.336 -0.003,0.054 -0.039,0.026 -0.06,0.029 -0.149,0.015 -0.315,0 -0.476,0 -2.383,0 -4.882,0 -7.223,0 0,-13.206 0,-26.409 0,-39.614 3.035,0 6.052,0 9.075,0 0.733,0 1.427,0.068 2.115,0.128 1.709,0.149 3.342,0.405 4.873,0.742 0.325,0.071 0.646,0.125 0.878,0.253 0.227,0.123 0.447,0.292 0.665,0.459 0.208,0.161 0.42,0.336 0.613,0.506 1.209,1.045 2.302,2.225 3.41,3.333 0.375,0.373 0.739,0.766 1.093,1.15 0.36,0.393 0.735,0.771 1.09,1.161 0.715,0.784 1.43,1.561 2.145,2.347 1.427,1.566 2.826,3.166 4.232,4.756 4.214,4.78 8.345,9.632 12.456,14.504 0.024,0.045 0.018,0.003 0.021,-0.018 0.018,-0.131 0,-0.298 0,-0.449 0,-9.584 0,-19.359 0,-28.872 2.585,0 5.17,0 7.758,0 0,13.072 0,26.146 0,39.233 0,0.113 0.018,0.235 0,0.313 -0.018,0.068 0.015,0.065 -0.039,0.068 -0.054,0 -0.104,0 -0.167,0 -0.732,0 -1.468,0 -2.213,0 -0.739,0 -1.486,0.024 -2.222,0 -1.111,-0.038 -2.234,0.054 -3.285,-0.038 C 39.67,41.101 36.65,40.782 33.877,40.252 33.57,40.195 33.249,40.13 32.981,40.046 32.713,39.966 32.481,39.802 32.27,39.648 31.853,39.344 31.451,38.996 31.061,38.635 29.509,37.202 28.074,35.686 26.647,34.179 25.202,32.66 23.809,31.094 22.406,29.542 20.294,27.204 18.239,24.839 16.178,22.453 14.811,20.875 13.447,19.308 12.074,17.688 10.913,16.318 9.668,14.879 8.506,13.486 8.381,13.34 8.214,13.126 8.08,12.977 c 0,-0.003 0,-0.003 -0.003,-0.003 z M 8.068,12.961 c -0.006,-0.008 -0.012,-0.014 0,0 z"
   id="path6"
   style="fill:#000000" />
		<path
   fill="#242424"
   d="m 8.077,12.974 c 0.003,0 0.003,0 0.003,0.003 0,0 0,0 -0.003,-0.003 z"
   id="path8"
   style="fill:#000000" />
	</g>
	<g
   id="g12"
   style="fill:#000000">
	</g>
</g>
</svg>
