<?xml version="1.0" encoding="UTF-8" standalone="no"?>
<!-- Created with Inkscape (http://www.inkscape.org/) -->

<svg
   width="1400"
   height="128"
   viewBox="0 0 370.41665 33.866666"
   version="1.1"
   id="svg6652"
   inkscape:version="1.2.2 (732a01da63, 2022-12-09)"
   sodipodi:docname="Newskill.svg"
   xmlns:inkscape="http://www.inkscape.org/namespaces/inkscape"
   xmlns:sodipodi="http://sodipodi.sourceforge.net/DTD/sodipodi-0.dtd"
   xmlns="http://www.w3.org/2000/svg"
   xmlns:svg="http://www.w3.org/2000/svg">
  <sodipodi:namedview
     id="namedview6654"
     pagecolor="#ffffff"
     bordercolor="#000000"
     borderopacity="0.25"
     inkscape:showpageshadow="2"
     inkscape:pageopacity="0.0"
     inkscape:pagecheckerboard="0"
     inkscape:deskcolor="#d1d1d1"
     inkscape:document-units="mm"
     showgrid="false"
     showguides="true"
     inkscape:zoom="1.4142136"
     inkscape:cx="864.43804"
     inkscape:cy="114.5513"
     inkscape:window-width="3840"
     inkscape:window-height="2071"
     inkscape:window-x="2391"
     inkscape:window-y="-9"
     inkscape:window-maximized="1"
     inkscape:current-layer="layer1" />
  <defs
     id="defs6649">
    <pattern
       id="EMFhbasepattern"
       patternUnits="userSpaceOnUse"
       width="6"
       height="6"
       x="0"
       y="0" />
  </defs>
  <g
     inkscape:label="Calque 1"
     inkscape:groupmode="layer"
     id="layer1">
    <g
       id="g8774"
       transform="matrix(3.4977553,0,0,3.4977553,-174.24032,-583.01315)">
      <path
         id="rect6840"
         style="stroke-width:1.05833;stroke-linecap:round;stroke-linejoin:round"
         d="m 98.050049,167.89238 h 13.787081 l -1.87422,1.45236 -10.038647,-0.0151 v 1.46749 h 11.193987 l 5e-5,4.35706 H 97.433866 l 1.595146,-1.45234 h 10.292048 v -1.45236 H 98.050046 Z"
         sodipodi:nodetypes="ccccccccccccc" />
      <rect
         style="fill:#000000;stroke-width:1.05833;stroke-linecap:round;stroke-linejoin:round"
         id="rect6845"
         width="1.7715199"
         height="7.2617803"
         x="113.53163"
         y="167.89238" />
      <path
         id="rect6847"
         style="stroke-width:1.05833;stroke-linecap:round;stroke-linejoin:round"
         d="m 128.58959,167.89238 h 1.82288 v 7.26178 h -1.82288 z"
         sodipodi:nodetypes="ccccc" />
      <rect
         style="fill:#000000;stroke-width:1.05833;stroke-linecap:round;stroke-linejoin:round"
         id="rect6850"
         width="1.82287"
         height="7.2617803"
         x="132.76167"
         y="167.89238" />
      <rect
         style="fill:#000000;stroke-width:1.05833;stroke-linecap:round;stroke-linejoin:round"
         id="rect6852"
         width="8.9603214"
         height="1.62175"
         x="132.76167"
         y="173.53241" />
      <rect
         style="fill:#000000;stroke-width:1.05833;stroke-linecap:round;stroke-linejoin:round"
         id="rect6854"
         width="1.8209151"
         height="7.2617803"
         x="143.76511"
         y="167.89238"
         ry="0" />
      <path
         id="rect6856"
         style="stroke-width:1.05833;stroke-linecap:round;stroke-linejoin:round"
         d="m 145.58602,173.53241 h 8.89491 l -1.77914,1.62175 h -7.11381 z"
         sodipodi:nodetypes="ccccc" />
      <path
         id="rect6859"
         style="stroke-width:1.05833;stroke-linecap:round;stroke-linejoin:round"
         d="m 115.30315,171.89544 7.63881,-4.00306 h 3.91777 l -5.09968,2.67574 5.57529,4.58604 h -2.9829 l -4.398,-3.63866 -4.65129,2.44047 z"
         sodipodi:nodetypes="ccccccccc" />
      <path
         id="rect6862"
         style="fill:#000000;stroke-width:1.05833;stroke-linecap:round;stroke-linejoin:round"
         d="m 51.050114,167.89259 v 7.26158 h 2.323889 v -4.9382 l 8.859408,4.9382 h 2.363163 v -7.26158 h -2.363163 v 4.85604 l -8.859408,-4.85604 z" />
      <path
         id="rect8010"
         style="opacity:1;fill:#000000;stroke-width:1.05833;stroke-linecap:round;stroke-linejoin:round"
         d="m 66.496368,167.89238 h 12.169606 l 10e-7,1.45236 H 68.487673 v 1.45236 h 8.7686 l -1.874219,1.45236 h -6.894381 v 1.45236 h 10.178302 l -10e-7,1.45234 H 66.496368 Z"
         sodipodi:nodetypes="ccccccccccccc" />
      <path
         id="rect8023"
         style="opacity:1;fill:#000000;stroke-width:1.05833;stroke-linecap:round;stroke-linejoin:round"
         d="m 80.71991,167.89238 h 2.082551 l -2e-6,4.80185 3.791974,-3.64904 h 3.478717 l 3.791995,3.64904 2e-6,-4.80185 h 2.105285 v 7.26178 h -2.431118 l -5.205522,-4.94709 -5.182761,4.94709 h -2.431117 z"
         sodipodi:nodetypes="cccccccccccccc" />
      <path
         id="rect8026"
         style="opacity:1;fill:#000000;stroke-width:1.05833;stroke-linecap:round;stroke-linejoin:round"
         d="m 88.333792,172.87578 2.513219,2.27838 h -2.50184 l -2.501838,2e-5 z"
         sodipodi:nodetypes="ccccc" />
    </g>
  </g>
</svg>
