<?xml version="1.0" encoding="UTF-8" standalone="no"?>
<!-- Generator: Adobe Illustrator 22.1.0, SVG Export Plug-In . SVG Version: 6.00 Build 0)  -->

<svg
   version="1.1"
   id="Layer_1"
   x="0px"
   y="0px"
   viewBox="0 0 392 128"
   xml:space="preserve"
   sodipodi:docname="nilox.svg"
   width="392"
   height="128"
   inkscape:version="1.2.2 (732a01da63, 2022-12-09)"
   xmlns:inkscape="http://www.inkscape.org/namespaces/inkscape"
   xmlns:sodipodi="http://sodipodi.sourceforge.net/DTD/sodipodi-0.dtd"
   xmlns="http://www.w3.org/2000/svg"
   xmlns:svg="http://www.w3.org/2000/svg"><defs
   id="defs29" /><sodipodi:namedview
   id="namedview27"
   pagecolor="#ffffff"
   bordercolor="#000000"
   borderopacity="0.25"
   inkscape:showpageshadow="2"
   inkscape:pageopacity="0.0"
   inkscape:pagecheckerboard="0"
   inkscape:deskcolor="#d1d1d1"
   showgrid="false"
   inkscape:zoom="4.9506579"
   inkscape:cx="149.27309"
   inkscape:cy="23.835216"
   inkscape:window-width="1771"
   inkscape:window-height="1677"
   inkscape:window-x="3772"
   inkscape:window-y="146"
   inkscape:window-maximized="0"
   inkscape:current-layer="Layer_1" />
<g
   id="g24"
   transform="matrix(2.3021583,0,0,2.3021583,21.035969,15.999999)"
   style="fill:#000000">
	<path
   d="M 90.2,41.6 C 88,41.1 85.8,40.7 83.7,40 76.8,37.4 72.9,31.7 73.5,25 c 3.7,0 7.4,0 11.2,0 0.1,2.3 0.6,4.6 2.6,5.8 1.4,0.8 3.2,1.4 4.8,1.4 4,0.1 5.9,-2 6.9,-7.2 3.7,0 7.4,0 11.3,0 0.1,5.1 -1.6,9.4 -5.7,12.5 -2.9,2.2 -6.1,3.5 -9.7,3.9 -0.3,0 -0.5,0.2 -0.8,0.3 -1.3,-0.1 -2.6,-0.1 -3.9,-0.1 z"
   id="path2"
   style="fill:#000000" />
	<path
   d="m 0,10 c 3.5,0 7.1,0 10.7,0 0.1,0.9 0.2,1.6 0.3,2.6 3,-2.4 6.3,-3.5 10.1,-3.4 6.8,0.1 10.7,3.7 11.2,10.5 0.1,0.9 0,1.7 0,2.8 -3.4,0 -6.8,0 -10.1,0 -0.3,0 -0.7,-0.4 -0.8,-0.7 -1.5,-3.1 -2.8,-4 -5.6,-3.9 -2.3,0.1 -4,1.6 -5,4.6 -3.6,0 -7.2,0 -10.8,0 C 0,18.3 0,14.1 0,10 Z"
   id="path4"
   style="fill:#000000" />
	<path
   d="m 68.5,0 c 0,7.4 0,14.7 0,22.3 -3.7,0 -7.3,0 -11,0 0,-7.4 0,-14.8 0,-22.3 3.7,0 7.4,0 11,0 z"
   id="path6"
   style="fill:#000000" />
	<path
   d="m 0,24.9 c 3.6,0 7.2,0 10.8,0 0,5.3 0,10.4 0,15.6 -3.7,0 -7.2,0 -10.8,0 0,-5.2 0,-10.4 0,-15.6 z"
   id="path8"
   style="fill:#000000" />
	<path
   d="m 152,40.6 c -4.5,0 -8.8,0 -13,0 -0.6,0 -1.4,-0.5 -1.9,-1 -2.3,-2.6 -4.6,-5.2 -7,-7.9 -2.4,2.7 -4.7,5.4 -7,7.9 -0.4,0.5 -1.1,1 -1.7,1 -4.3,0.1 -8.6,0 -13.3,0 0.5,-0.6 0.8,-1.1 1.2,-1.5 4,-4.4 8.1,-8.8 12.2,-13.1 0.5,-0.6 1.5,-1 2.2,-1 4.3,-0.1 8.5,-0.1 12.8,0 0.6,0 1.4,0.2 1.9,0.7 4.5,4.7 8.8,9.5 13.2,14.3 0.1,0 0.2,0.2 0.4,0.6 z"
   id="path10"
   style="fill:#000000" />
	<path
   d="m 110,22.4 c -3.7,0 -7.3,0 -11,0 -0.4,0 -0.8,-0.4 -1.1,-0.7 -3.4,-4.6 -8.6,-4.5 -12.1,0 -0.3,0.4 -0.8,0.7 -1.2,0.7 -3.5,0.1 -7.1,0 -10.8,0 0.2,-2.9 1.4,-5.3 3.3,-7.3 7.4,-8 22.2,-8.1 29.7,-0.1 1.7,2 3,4.8 3.2,7.4 z"
   id="path12"
   style="fill:#000000" />
	<path
   d="m 110.8,10.1 c 4.7,0 8.9,0 13,0 0.5,0 1.1,0.5 1.5,1 1.6,1.7 3.1,3.5 4.7,5.3 1.6,-1.8 3.1,-3.6 4.7,-5.3 0.4,-0.5 1.1,-0.9 1.7,-0.9 4.2,-0.1 8.4,0 12.8,0 -0.2,0.4 -0.3,0.6 -0.5,0.8 -3.3,3.6 -6.5,7.2 -9.8,10.7 -0.4,0.4 -1.2,0.8 -1.8,0.8 -4.7,0.1 -9.5,0.1 -14.2,0 -0.5,0 -1.3,-0.1 -1.6,-0.5 -3.3,-3.9 -6.7,-7.7 -10.5,-11.9 z"
   id="path14"
   style="fill:#000000" />
	<path
   d="m 39.6,24.9 c 3.6,0 7.1,0 10.8,0 0,5.2 0,10.3 0,15.5 -3.6,0 -7.1,0 -10.8,0 0,-5.1 0,-10.2 0,-15.5 z"
   id="path16"
   style="fill:#000000" />
	<path
   d="m 68.3,40.5 c -3.6,0 -7.1,0 -10.7,0 0,-5.2 0,-10.3 0,-15.6 3.5,0 7,0 10.7,0 0,5.2 0,10.3 0,15.6 z"
   id="path18"
   style="fill:#000000" />
	<path
   d="m 21.7,25 c 3.6,0 7,0 10.6,0 0,5.2 0,10.3 0,15.5 -3.5,0 -7,0 -10.6,0 0,-5.2 0,-10.3 0,-15.5 z"
   id="path20"
   style="fill:#000000" />
	<path
   d="m 39.6,10.2 c 3.6,0 7.1,0 10.8,0 0,4 0,8 0,12.1 -3.5,0 -7.1,0 -10.8,0 0,-3.9 0,-7.9 0,-12.1 z"
   id="path22"
   style="fill:#000000" />
</g>
</svg>
