<?xml version="1.0" encoding="UTF-8" standalone="no"?>
<!-- Created with Inkscape (http://www.inkscape.org/) -->

<svg
   width="451"
   height="128"
   viewBox="0 0 119.32708 33.866666"
   version="1.1"
   id="svg2354"
   inkscape:version="1.2.2 (732a01da63, 2022-12-09)"
   sodipodi:docname="Ozone2.svg"
   xmlns:inkscape="http://www.inkscape.org/namespaces/inkscape"
   xmlns:sodipodi="http://sodipodi.sourceforge.net/DTD/sodipodi-0.dtd"
   xmlns="http://www.w3.org/2000/svg"
   xmlns:svg="http://www.w3.org/2000/svg">
  <defs
     id="defs10" />
  <sodipodi:namedview
     id="namedview2356"
     pagecolor="#ffffff"
     bordercolor="#000000"
     borderopacity="0.25"
     inkscape:showpageshadow="2"
     inkscape:pageopacity="0.0"
     inkscape:pagecheckerboard="0"
     inkscape:deskcolor="#d1d1d1"
     inkscape:document-units="mm"
     showgrid="false"
     inkscape:zoom="1.2881734"
     inkscape:cx="322.93789"
     inkscape:cy="189.41549"
     inkscape:window-width="2493"
     inkscape:window-height="1677"
     inkscape:window-x="3287"
     inkscape:window-y="277"
     inkscape:window-maximized="0"
     inkscape:current-layer="svg2354" />
  <path
     d="m 16.920293,26.924795 c -1.194638,0 -2.336572,-0.221723 -3.399146,-0.608224 0.339248,-0.148421 0.638513,-0.278062 0.87841,-0.385289 1.472701,-0.660928 2.821819,-1.496327 4.047959,-2.507408 1.22614,-1.011081 2.082742,-2.057298 2.569805,-3.138046 0.05937,-0.150238 0.104198,-0.3029 0.133276,-0.456773 0.02908,-0.153874 0.04362,-0.313199 0.04301,-0.478583 -0.02484,-0.732412 -0.271398,-1.407274 -0.739076,-2.024585 -0.468284,-0.616704 -1.029255,-1.034101 -1.684126,-1.250978 l -0.362874,-0.179316 c 0,-0.05997 0.119949,-0.150845 0.360451,-0.273216 1.322463,-0.755434 2.266905,-1.424237 2.833329,-2.006411 0.565817,-0.58278 0.840851,-1.105586 0.823888,-1.568418 -0.0061,-0.329555 -0.118131,-0.634273 -0.335007,-0.914153 C 21.872711,10.853516 21.580716,10.587569 21.213601,10.335556 20.892526,10.113228 20.530864,9.953902 20.1274,9.8563682 19.723937,9.7594401 19.301694,9.7121877 18.860672,9.7164283 c -0.749375,0.017568 -1.490269,0.1163137 -2.222076,0.2974477 -0.732413,0.180529 -1.358811,0.359846 -1.880405,0.536134 -0.520988,0.176893 -0.840245,0.267158 -0.956559,0.271398 -0.140545,-0.01515 -0.259282,-0.0055 -0.511901,0.213242 0.01212,0.152056 0.172047,0.367721 0.481611,0.646389 0.31017,0.278668 0.703941,0.433147 1.181917,0.46162 0.494939,-0.02302 0.991695,-0.171442 1.490875,-0.444658 l 1.462402,-0.819648 c 0.475553,-0.273216 0.925057,-0.421637 1.349723,-0.444051 0.134488,6.06e-4 0.257466,0.01999 0.369539,0.05816 0.112073,0.03877 0.220511,0.08845 0.324709,0.149632 0.06179,0.04665 0.112073,0.102986 0.212636,0.360452 -0.02484,0.325314 -0.335008,0.728777 -0.931116,1.210995 -0.595501,0.481611 -1.318827,0.960799 -2.169371,1.436958 -0.850544,0.476765 -1.670192,0.868718 -2.458338,1.177676 -0.28412,0.10965 -0.490698,0.248378 -0.619734,0.417397 -0.129641,0.169018 -0.192644,0.352576 -0.189615,0.551278 0.02726,0.430118 0.248984,0.826918 0.664563,1.19161 0.415579,0.364086 0.869929,0.55673 1.363051,0.577933 0.150844,6.06e-4 0.293813,-0.02544 0.429512,-0.07754 0.135094,-0.0521 0.262918,-0.138123 0.382866,-0.258071 0.166595,-0.167201 0.35197,-0.295025 0.556125,-0.382866 0.204155,-0.08845 0.420425,-0.133276 0.6476,-0.135094 0.241715,-6.05e-4 0.481612,0.04241 0.720297,0.12843 0.238686,0.08602 0.471313,0.21203 0.699094,0.377414 0.277456,0.209607 0.418608,0.450109 0.425272,0.721508 -0.0418,0.613676 -0.538557,1.315193 -1.490875,2.105156 -0.951713,0.789358 -1.455133,1.865866 -2.78123,2.615241 -0.891738,0.504026 -2.615846,1.753792 -3.944366,2.63402 -2.7285255,-1.7859 -4.5380513,-4.863972 -4.5380513,-8.361257 0,-5.509149 4.4823173,-9.9914667 9.9914663,-9.9914667 5.509149,0 9.991466,4.4823177 9.991466,9.9914667 0,5.509149 -4.482317,9.991466 -9.991466,9.991466 m 0,-22.6914663 c -7.0030529,0 -12.7,5.6969471 -12.7,12.7000003 0,7.003053 5.6969471,12.7 12.7,12.7 7.003053,0 12.7,-5.696947 12.7,-12.7 0,-7.0030532 -5.696947,-12.7000003 -12.7,-12.7000003"
     style="fill:#000000;fill-opacity:1;fill-rule:nonzero;stroke:none;stroke-width:0.6058"
     id="path1970" />
  <path
     d="m 41.987804,21.114337 c 0.516721,0 0.997223,-0.104632 1.441507,-0.314701 0.444283,-0.209264 0.83786,-0.497404 1.178317,-0.865226 0.341261,-0.366212 0.610084,-0.807276 0.806471,-1.321582 0.196386,-0.513502 0.294579,-1.084953 0.294579,-1.714355 0,-0.629401 -0.09819,-1.216145 -0.294579,-1.761841 -0.196387,-0.544891 -0.46521,-1.022174 -0.806471,-1.431848 -0.340457,-0.40887 -0.734034,-0.734034 -1.178317,-0.975492 -0.444284,-0.240654 -0.924786,-0.361383 -1.441507,-0.361383 -0.516721,0 -1.002857,0.120729 -1.457604,0.361383 -0.454746,0.241458 -0.853153,0.566622 -1.193609,0.975492 -0.341261,0.409674 -0.610085,0.886957 -0.806471,1.431848 -0.196386,0.545696 -0.294579,1.13244 -0.294579,1.761841 0,0.629402 0.09819,1.200853 0.294579,1.714355 0.196386,0.514306 0.46521,0.95537 0.806471,1.321582 0.340456,0.367822 0.738863,0.655962 1.193609,0.865226 0.454747,0.210069 0.940883,0.314701 1.457604,0.314701 m 0,-12.6162012 c 1.095416,0 2.128858,0.214898 3.100326,0.6446939 0.972272,0.429796 1.818986,1.0173443 2.543362,1.7618413 0.72357,0.745302 1.296631,1.615357 1.720793,2.611775 0.423357,0.996418 0.635841,2.060445 0.635841,3.192885 0,1.133245 -0.212484,2.198076 -0.635841,3.19369 -0.424162,0.996418 -0.997223,1.867278 -1.720793,2.611775 -0.724376,0.744496 -1.57109,1.332045 -2.543362,1.761841 -0.971468,0.429796 -2.00491,0.644694 -3.100326,0.644694 -1.116343,0 -2.161053,-0.214898 -3.131715,-0.644694 -0.972273,-0.429796 -1.819792,-1.017345 -2.543362,-1.761841 -0.72357,-0.744497 -1.297437,-1.615357 -1.720794,-2.611775 -0.424162,-0.995614 -0.63584,-2.060445 -0.63584,-3.19369 0,-1.13244 0.211678,-2.196467 0.63584,-3.192885 0.423357,-0.996418 0.997224,-1.866473 1.720794,-2.611775 0.72357,-0.744497 1.571089,-1.3320453 2.543362,-1.7618413 0.970662,-0.4297959 2.015372,-0.6446939 3.131715,-0.6446939"
     style="fill:#000000;fill-opacity:1;fill-rule:nonzero;stroke:none;stroke-width:0.804861"
     id="path973" />
  <path
     d="m 57.150828,20.674239 h 7.100487 v 3.869773 H 51.53853 v -3.650046 l 6.325405,-8.085637 H 52.126884 V 8.9385561 h 11.938508 v 2.8870379 z"
     style="fill:#000000;fill-opacity:1;fill-rule:nonzero;stroke:none;stroke-width:0.804861"
     id="path977" />
  <path
     d="m 73.988285,21.114337 c 0.516721,0 0.997223,-0.104632 1.441507,-0.314701 0.444283,-0.209264 0.83786,-0.497404 1.178317,-0.865226 0.341261,-0.366212 0.610084,-0.807276 0.806471,-1.321582 0.196386,-0.513502 0.294579,-1.084953 0.294579,-1.714355 0,-0.629401 -0.09819,-1.216145 -0.294579,-1.761841 -0.196387,-0.544891 -0.46521,-1.022174 -0.806471,-1.431848 -0.340457,-0.40887 -0.734034,-0.734034 -1.178317,-0.975492 -0.444284,-0.240654 -0.924786,-0.361383 -1.441507,-0.361383 -0.516721,0 -1.002857,0.120729 -1.457604,0.361383 -0.454746,0.241458 -0.853153,0.566622 -1.193609,0.975492 -0.341261,0.409674 -0.610085,0.886957 -0.806471,1.431848 -0.196386,0.545696 -0.294579,1.13244 -0.294579,1.761841 0,0.629402 0.09819,1.200853 0.294579,1.714355 0.196386,0.514306 0.46521,0.95537 0.806471,1.321582 0.340456,0.367822 0.738863,0.655962 1.193609,0.865226 0.454747,0.210069 0.940883,0.314701 1.457604,0.314701 m 0,-12.6162012 c 1.095416,0 2.128858,0.214898 3.100326,0.6446939 0.972272,0.429796 1.818986,1.0173443 2.543362,1.7618413 0.72357,0.745302 1.296631,1.615357 1.720793,2.611775 0.423357,0.996418 0.635841,2.060445 0.635841,3.192885 0,1.133245 -0.212484,2.198076 -0.635841,3.19369 -0.424162,0.996418 -0.997223,1.867278 -1.720793,2.611775 -0.724376,0.744496 -1.57109,1.332045 -2.543362,1.761841 -0.971468,0.429796 -2.00491,0.644694 -3.100326,0.644694 -1.116343,0 -2.161053,-0.214898 -3.131715,-0.644694 -0.972273,-0.429796 -1.819792,-1.017345 -2.543362,-1.761841 -0.72357,-0.744497 -1.297437,-1.615357 -1.720794,-2.611775 -0.424162,-0.995614 -0.63584,-2.060445 -0.63584,-3.19369 0,-1.13244 0.211678,-2.196467 0.63584,-3.192885 0.423357,-0.996418 0.997224,-1.866473 1.720794,-2.611775 0.72357,-0.744497 1.571089,-1.3320453 2.543362,-1.7618413 0.970662,-0.4297959 2.015372,-0.6446939 3.131715,-0.6446939"
     style="fill:#000000;fill-opacity:1;fill-rule:nonzero;stroke:none;stroke-width:0.804861"
     id="path981" />
  <path
     d="m 91.589315,8.9385557 c 0.576281,0 1.215341,0.083706 1.916375,0.2511167 0.700229,0.168216 1.360215,0.4829168 1.978349,0.9441026 0.618133,0.46199 1.138879,1.10105 1.560626,1.919594 0.422552,0.817739 0.634231,1.876937 0.634231,3.177592 v 9.313051 H 93.399448 V 15.41286 c 0,-0.480502 -0.07727,-0.888567 -0.232605,-1.223389 -0.154533,-0.334822 -0.362187,-0.602036 -0.619743,-0.800837 -0.259165,-0.197996 -0.553745,-0.344481 -0.883738,-0.439454 -0.331603,-0.09336 -0.662401,-0.140851 -0.992394,-0.140851 -0.268823,0 -0.564208,0.04749 -0.883737,0.140851 -0.32114,0.09497 -0.620549,0.246287 -0.899835,0.455551 -0.278482,0.209264 -0.511087,0.481307 -0.697815,0.81613 -0.185923,0.334822 -0.278482,0.731618 -0.278482,1.191999 v 9.131152 H 83.631651 V 8.9385557 h 3.6589 l 0.620548,1.1952193 c 0.494185,-0.3557489 1.050344,-0.6446942 1.668477,-0.8652262 0.618939,-0.2197271 1.288583,-0.3299931 2.009739,-0.3299931"
     style="fill:#000000;fill-opacity:1;fill-rule:nonzero;stroke:none;stroke-width:0.804861"
     id="path985" />
  <path
     d="m 110.85831,15.419191 c -0.24777,-0.901431 -0.69304,-1.636267 -1.33337,-2.202085 -0.64093,-0.566423 -1.36487,-0.849938 -2.17119,-0.849938 -0.82691,0 -1.57629,0.283515 -2.24751,0.849938 -0.67244,0.565818 -1.13225,1.300654 -1.38002,2.202085 z m -3.50456,-6.9218755 c 1.15769,0 2.21239,0.236262 3.16349,0.7081805 0.95051,0.4719186 1.76712,1.090441 2.44926,1.856173 0.68273,0.765731 1.20978,1.647171 1.58174,2.643107 0.37257,0.996542 0.55855,2.018527 0.55855,3.067773 0,0.628821 -0.083,1.300654 -0.24838,2.013075 H 103.8807 c 0.41376,0.713633 1.0026,1.31701 1.76773,1.809526 0.76452,0.493121 1.59204,0.739076 2.48075,0.739076 0.88871,0 1.66898,-0.0727 2.34142,-0.219905 0.67122,-0.146604 1.30732,-0.335614 1.90706,-0.566424 l 1.42666,2.674003 c -0.76513,0.545827 -1.63869,0.965646 -2.6207,1.258854 -0.982,0.293207 -2.03124,0.440417 -3.14713,0.440417 -1.22008,0 -2.35717,-0.21506 -3.41126,-0.645178 -1.0547,-0.429512 -1.9743,-1.011081 -2.76003,-1.745917 -0.78572,-0.733624 -1.40606,-1.604765 -1.86041,-2.611605 -0.454956,-1.006841 -0.682133,-2.076078 -0.682133,-3.208925 0,-1.111644 0.206579,-2.165737 0.620342,-3.162278 0.413151,-0.995936 0.986851,-1.866471 1.720471,-2.611606 0.73423,-0.743923 1.58659,-1.3370015 2.5589,-1.7774184 0.9711,-0.4404167 2.0155,-0.6609281 3.13138,-0.6609281"
     style="fill:#000000;fill-opacity:1;fill-rule:nonzero;stroke:none;stroke-width:0.605801"
     id="path2685" />
</svg>
