<?xml version="1.0" encoding="UTF-8" standalone="no"?>
<!-- Created with Inkscape (http://www.inkscape.org/) -->

<svg
   version="1.0"
   width="512"
   height="128"
   viewBox="0 0 512 128"
   id="Layer_1"
   xml:space="preserve"
   sodipodi:docname="Philips.PCA.PHS.PHL.PHE.PSC.svg"
   inkscape:version="1.2.2 (732a01da63, 2022-12-09)"
   xmlns:inkscape="http://www.inkscape.org/namespaces/inkscape"
   xmlns:sodipodi="http://sodipodi.sourceforge.net/DTD/sodipodi-0.dtd"
   xmlns="http://www.w3.org/2000/svg"
   xmlns:svg="http://www.w3.org/2000/svg"><sodipodi:namedview
   id="namedview13"
   pagecolor="#505050"
   bordercolor="#eeeeee"
   borderopacity="1"
   inkscape:pageshadow="0"
   inkscape:pageopacity="0"
   inkscape:pagecheckerboard="0"
   showgrid="false"
   inkscape:zoom="1.86625"
   inkscape:cx="560.21433"
   inkscape:cy="90.020092"
   inkscape:window-width="3840"
   inkscape:window-height="2071"
   inkscape:window-x="2391"
   inkscape:window-y="-9"
   inkscape:window-maximized="1"
   inkscape:current-layer="Layer_1"
   inkscape:showpageshadow="2"
   inkscape:deskcolor="#505050"
   showguides="true" /><defs
   id="defs22" />







<g
   id="g300"
   transform="matrix(0.60060405,0,0,0.60060405,15.75814,15.998134)"><path
     id="path3"
     style="fill:#000000"
     d="m 609.19336,1.796875 c -8.72602,0.037078 -18.00481,0.4895313 -51.10156,0.9882812 v 26.6503908 7.21875 119.451173 l 39.83593,0.006 v -32.80078 c 7.93391,0.0351 16.53887,0.16465 21.03321,-0.23633 54.099,-2.777 61.56848,-47.275095 61.77148,-59.371095 0.345,-21.008 -7.08889,-35.481656 -16.46289,-44.972656 -9.725,-9.8470008 -23.24883,-16.2523596 -45.67383,-16.8183596 -3.6475,-0.094 -6.49367,-0.1275938 -9.40234,-0.1152344 z m -2.80078,34.257813 c 0.92515,-0.02042 1.84398,-0.01483 2.7539,0.01562 15.77204,0.527932 28.94777,8.770704 28.14258,27.275391 -0.905,20.287 -17.91075,27.049672 -39.34375,25.263672 l -0.0176,0.06641 V 36.90625 h 0.0234 c 2.83219,-0.501469 5.66595,-0.790296 8.44141,-0.851562 z" /><path
     id="path7"
     style="fill:#000000"
     d="M 747.24023,0.00390625 C 721.69491,0.13738373 696.83973,16.854188 695.25195,48.90625 c -0.807,16.376 6.66239,34.760422 26.02539,41.732422 l 30.1543,10.937498 c 7.49,3.202 7.7405,6.39716 7.9375,8.91016 0.358,4.632 -4.14236,8.1607 -10.06836,10.4707 -7.834,3.054 -31.03565,3.29524 -50.97266,-2.75976 v 37.90234 c 6.554,1.065 26.05319,5.28448 51.24219,3.14648 22.153,-1.885 49.94383,-14.94153 50.42383,-49.76953 0.209,-15.015997 -4.41564,-32.450966 -26.18164,-41.042966 l -32.69727,-11.646485 0.002,-0.05078 c -3.56,-1.417 -6.44288,-4.582703 -6.54688,-7.470703 -0.216,-5.698 4.41547,-11.032641 14.73047,-12.306641 9.221,-1.146 17.60356,-1.21364 35.47656,2.94336 V 2.3515625 c -15.952,-2.206 -26.9205,-2.01359375 -35.0625,-2.30859375 -0.82471,-0.03025 -1.65056,-0.0433682251 -2.47461,-0.0390625 z" /><path
     id="polyline9"
     style="fill:#000000"
     d="M 142.03516,2.9277344 V 156.13672 h 39.88476 l 0.006,-61.507814 h 42.89649 v 61.507814 h 39.83007 V 2.9277344 h -39.84179 l 0.0117,56.9941406 H 181.9259 l -0.006,-56.9941406 z" /><path
     id="rect11"
     style="fill:#000000"
     d="M 302.17773,2.9277344 V 156.13672 h 39.86719 V 2.9277344 Z" /><path
     id="rect13"
     style="fill:#000000"
     d="M 480.31055,2.9277344 V 156.13672 h 39.87304 V 2.9277344 Z" /><path
     id="polyline15"
     style="fill:#000000"
     d="M 379.55859,2.9277344 V 156.13672 l 80.98438,-0.0137 V 121.35156 H 419.4375 V 2.9277344 Z" /><path
     id="path17"
     style="fill:#000000"
     d="M 51.105469,1.796875 C 42.378094,1.8339531 33.1005,2.2864063 0,2.7851562 V 32.064453 36.654297 156.10547 l 39.896484,0.006 -0.0098,-32.80274 c 7.887585,0.0329 16.431162,0.17196 20.980469,-0.23437 54.099007,-2.777 61.571257,-47.275095 61.781247,-59.371095 0.345,-21.008 -7.09588,-35.481656 -16.46289,-44.972656 C 96.454538,8.883468 82.929719,2.4781094 60.511719,1.9121094 c -3.649,-0.094 -6.497125,-0.1275938 -9.40625,-0.1152344 z m -2.806641,34.257813 c 0.924702,-0.02044 1.842313,-0.01483 2.751953,0.01562 15.769768,0.527932 28.94972,8.770704 28.144531,27.275391 -0.885998,20.287 -17.877406,27.049672 -39.316406,25.263672 l -0.002,0.0098 -0.01563,-51.712891 c 2.830725,-0.501288 5.663395,-0.790237 8.4375,-0.851562 z" /></g>

</svg>
