<?xml version="1.0" encoding="UTF-8" standalone="no"?>
<svg
   overflow="visible"
   version="1.1"
   id="svg28"
   sodipodi:docname="Samsung.SAM.SKT.SSE.STN.KYK.SEM.SEC.svg"
   width="660"
   height="128"
   inkscape:version="1.2.2 (732a01da63, 2022-12-09)"
   xmlns:inkscape="http://www.inkscape.org/namespaces/inkscape"
   xmlns:sodipodi="http://sodipodi.sourceforge.net/DTD/sodipodi-0.dtd"
   xmlns="http://www.w3.org/2000/svg"
   xmlns:svg="http://www.w3.org/2000/svg">
  <defs
     id="defs32" />
  <sodipodi:namedview
     id="namedview30"
     pagecolor="#ffffff"
     bordercolor="#000000"
     borderopacity="1"
     inkscape:pageshadow="0"
     inkscape:pageopacity="1"
     inkscape:pagecheckerboard="0"
     showgrid="false"
     fit-margin-top="0"
     fit-margin-left="0"
     fit-margin-right="0"
     fit-margin-bottom="0"
     inkscape:zoom="2"
     inkscape:cx="322"
     inkscape:cy="39"
     inkscape:window-width="3840"
     inkscape:window-height="2071"
     inkscape:window-x="2391"
     inkscape:window-y="-9"
     inkscape:window-maximized="1"
     inkscape:current-layer="svg28"
     inkscape:showpageshadow="2"
     inkscape:deskcolor="#505050" />
  <g
     id="g21031"
     transform="translate(-12.823998,-10.057)">
    <path
       id="polygon4"
       d="m 548.40154,99.283312 -1.2287,-70.37841 h 22.19268 V 117.60894 H 537.45759 L 515.31254,44.811241 h -0.47624 l 1.2287,72.797699 H 494.01519 V 28.904902 h 33.28902 l 20.60204,70.37841 z"
       style="fill:#000000" />
    <path
       id="polygon6"
       d="M 144.99961,37.210487 132.7222,118.54237 h -24.2024 l 16.6207,-89.637468 h 39.87062 l 16.5445,89.637468 H 157.44847 L 145.50443,37.210487 Z"
       style="fill:#000000" />
    <path
       id="polygon8"
       d="M 237.92312,118.54237 222.93115,37.953418 h -0.48576 l -0.56196,80.588952 h -22.44985 l 1.98115,-89.637468 h 36.57506 l 11.06777,68.521083 h 0.47623 l 11.07729,-68.521083 h 36.55601 l 1.94305,89.637468 h -22.40222 l -0.59054,-80.588952 h -0.46671 l -14.98244,80.588952 z"
       style="fill:#000000" />
    <path
       d="m 70.773202,93.254142 c 0.876278,2.171644 0.609584,4.962397 0.20002,6.648279 -0.752456,2.981249 -2.771704,6.019649 -8.7342,6.019649 -5.619605,0 -9.029467,-3.21937 -9.029467,-8.143669 v -8.677052 h -24.04048 l -0.01905,6.943546 c 0,19.982935 15.734895,26.012105 32.59371,26.012105 16.211132,0 29.564838,-5.54341 31.688858,-20.47822 1.085822,-7.743628 0.276218,-12.810797 -0.09525,-14.725273 C 89.556018,68.089741 55.533595,62.489186 53.00001,51.992906 c -0.428614,-1.800178 -0.304792,-3.705129 -0.09525,-4.724278 0.619109,-2.857426 2.581208,-6.01012 8.191289,-6.01012 5.238615,0 8.33416,3.238417 8.33416,8.13414 0,1.647783 0,5.533883 0,5.533883 H 91.78481 V 48.630668 C 91.78481,29.104921 74.259262,26.057 61.562765,26.057 c -15.944439,0 -28.974303,5.267189 -31.355492,19.859113 -0.647683,4.028971 -0.742931,7.619803 0.20002,12.115488 3.914674,18.316102 35.755928,23.62139 40.365909,35.222541 z"
       id="path10"
       style="fill:#000000" />
    <path
       d="m 362.24974,93.092221 c 0.8858,2.152595 0.60006,4.86715 0.20002,6.553031 -0.73341,2.971728 -2.73361,5.962498 -8.65801,5.962498 -5.5434,0 -8.92469,-3.21937 -8.92469,-8.029369 l -0.019,-8.600853 h -23.79284 l -0.0286,6.848298 c 0,19.782914 15.59202,25.754934 32.27939,25.754934 16.03969,0 29.26957,-5.46721 31.35549,-20.26868 1.08583,-7.686472 0.31432,-12.686968 -0.0762,-14.563345 -3.76228,-18.592321 -37.44181,-24.135728 -39.94682,-34.527235 -0.42862,-1.790653 -0.3048,-3.676555 -0.0857,-4.638555 0.63816,-2.876476 2.56216,-5.952972 8.11509,-5.952972 5.19099,0 8.21987,3.162219 8.21987,8.019844 0,1.628733 0,5.476733 0,5.476733 h 22.18315 v -6.229189 c 0,-19.316202 -17.38268,-22.345074 -29.95535,-22.345074 -15.76347,0 -28.68856,5.200516 -31.02213,19.687668 -0.64768,3.971822 -0.71435,7.495981 0.20955,11.972616 3.85752,18.125607 35.38446,23.392797 39.94682,34.87965 z"
       id="path12"
       style="fill:#000000" />
    <path
       d="m 437.54292,105.13151 c 6.21966,0 8.16271,-4.30519 8.59133,-6.505406 0.18097,-0.971525 0.22859,-2.266892 0.20954,-3.428912 V 28.866803 h 22.66892 V 93.16842 c 0.0476,1.647782 -0.1143,5.038595 -0.1905,5.886298 -1.59063,16.734992 -14.82051,22.164102 -31.28881,22.164102 -16.48735,0 -29.72676,-5.42911 -31.29835,-22.164102 -0.0762,-0.847703 -0.23812,-4.238516 -0.19049,-5.886298 V 28.866803 h 22.64986 v 66.330389 c 0,1.16202 0.0381,2.466912 0.20955,3.428912 0.48576,2.200216 2.37166,6.505406 8.63895,6.505406 z"
       id="path14"
       style="fill:#000000" />
    <path
       d="m 624.5329,104.18856 c 6.49588,0 8.76277,-4.10517 9.18186,-6.495882 0.16192,-1.028674 0.20955,-2.276416 0.20002,-3.409862 V 81.272001 h -9.20091 V 68.184989 h 31.7841 v 24.059529 c -0.019,1.676357 -0.0571,2.914575 -0.32384,5.905348 -1.49538,16.306384 -15.63964,22.126004 -31.52693,22.126004 -15.91587,0 -30.04108,-5.81962 -31.55552,-22.126004 -0.25716,-2.990773 -0.29526,-4.228991 -0.32384,-5.905348 l 0.019,-37.746601 c 0,-1.590634 0.20002,-4.409962 0.37147,-5.905348 1.99067,-16.754043 15.57297,-22.145054 31.48884,-22.145054 15.89681,0 29.81248,5.362437 31.46026,22.145054 0.29527,2.857426 0.20002,5.905348 0.20002,5.905348 v 2.990773 h -22.60224 v -5.019546 c 0.019,0.0095 -0.0286,-2.133545 -0.29527,-3.409862 -0.38099,-1.981149 -2.10497,-6.533982 -8.93422,-6.533982 -6.53398,0 -8.44846,4.305189 -8.9247,6.533982 -0.27621,1.181069 -0.38099,2.781228 -0.38099,4.228991 v 40.994543 c -0.019,1.133446 0.0476,2.381188 0.2286,3.409862 0.39051,2.400242 2.64788,6.495882 9.13424,6.495882 z"
       id="path16"
       style="fill:#000000" />
  </g>
</svg>
