<?xml version="1.0" encoding="UTF-8" standalone="no"?>
<svg
   width="175"
   height="128"
   viewBox="0 0 175 127.99999"
   version="1.1"
   id="svg18"
   sodipodi:docname="big_skillkorp.svg"
   inkscape:version="1.2.2 (732a01da63, 2022-12-09)"
   xmlns:inkscape="http://www.inkscape.org/namespaces/inkscape"
   xmlns:sodipodi="http://sodipodi.sourceforge.net/DTD/sodipodi-0.dtd"
   xmlns="http://www.w3.org/2000/svg"
   xmlns:svg="http://www.w3.org/2000/svg">
  <defs
     id="defs22" />
  <sodipodi:namedview
     id="namedview20"
     pagecolor="#ffffff"
     bordercolor="#000000"
     borderopacity="0.25"
     inkscape:showpageshadow="2"
     inkscape:pageopacity="0.0"
     inkscape:pagecheckerboard="0"
     inkscape:deskcolor="#d1d1d1"
     showgrid="false"
     inkscape:zoom="4.6193059"
     inkscape:cx="125.88471"
     inkscape:cy="75.335994"
     inkscape:window-width="3840"
     inkscape:window-height="2071"
     inkscape:window-x="2391"
     inkscape:window-y="-9"
     inkscape:window-maximized="1"
     inkscape:current-layer="svg18" />
  <g
     id="g348"
     transform="matrix(0.61973739,0,0,0.61973739,16.112615,16.007634)">
    <path
       id="Tracé_11559"
       data-name="Tracé 11559"
       d="m 54.271,85.706 a 23.254,23.254 0 0 0 -4.861,-7.508 34.928,34.928 0 0 0 -7.33,-5.72 80.537,80.537 0 0 0 -8.569,-4.4 l -0.754,-0.3 c -1.929,-0.866 -3.836,-1.765 -5.669,-2.672 a 24.2,24.2 0 0 1 -4.836,-3.107 12.348,12.348 0 0 1 -3.2,-4.028 9.953,9.953 0 0 1 -0.83,-5.384 7.411,7.411 0 0 1 0.929,-2.652 9.741,9.741 0 0 1 2.519,-2.933 14.038,14.038 0 0 1 4.265,-2.265 15.379,15.379 0 0 1 6.09,-0.63 19.35,19.35 0 0 1 2.981,0.588 12.54,12.54 0 0 1 3.7,1.736 c 0.681,0.423 1.351,0.881 1.99,1.36 0.659,0.5 1.305,0.961 1.918,1.381 a 19.142,19.142 0 0 0 1.886,1.154 6.855,6.855 0 0 0 2.093,0.705 6.7,6.7 0 0 0 3.407,-0.577 16.925,16.925 0 0 0 2.971,-1.72 l 1.994,-1.385 -0.281,-0.361 c -0.76,-0.972 -1.765,-2.183 -2.986,-3.6 A 35.1,35.1 0 0 0 47.254,39.146 32.511,32.511 0 0 0 41.269,35.363 24.076,24.076 0 0 0 33.677,33.115 L 32.95,33.048 a 31.81,31.81 0 0 0 -8.545,0.742 25.439,25.439 0 0 0 -8.037,3.263 20.906,20.906 0 0 0 -6.16,5.932 17.844,17.844 0 0 0 -2.961,8.575 21.732,21.732 0 0 0 1.134,10.18 20.256,20.256 0 0 0 4.756,7.07 29.635,29.635 0 0 0 6.976,4.93 c 2.577,1.325 5.224,2.6 7.871,3.8 l 1.6,0.7 a 63.121,63.121 0 0 1 7.683,4.111 21.93,21.93 0 0 1 4.6,3.821 9.829,9.829 0 0 1 2.158,3.9 15.877,15.877 0 0 1 0.477,4.439 13.445,13.445 0 0 1 -2.39,6.276 14.816,14.816 0 0 1 -4.679,4.132 19.446,19.446 0 0 1 -6.033,2.173 23.662,23.662 0 0 1 -6.44,0.3 19.153,19.153 0 0 1 -5.6,-1.376 18.19,18.19 0 0 1 -4.829,-2.943 11.65,11.65 0 0 0 -3.531,-2.139 13.283,13.283 0 0 0 -2.826,-0.59 7.566,7.566 0 0 0 -3.548,0.475 q -1.529,0.614 -4.168,1.64 L 0,102.638 l 0.239,0.434 a 29.246,29.246 0 0 0 9.961,10.661 30.524,30.524 0 0 0 13.735,4.706 q 1.607,0.149 3.184,0.148 a 31.051,31.051 0 0 0 8.409,-1.133 30.206,30.206 0 0 0 9.806,-4.7 26.365,26.365 0 0 0 6.975,-7.572 22.44,22.44 0 0 0 3.169,-9.65 20.978,20.978 0 0 0 -1.207,-9.826 z"
       fill="#2e2e2d"
       style="fill:#000000" />
    <g
       id="Groupe_8278"
       data-name="Groupe 8278"
       transform="translate(160.194,32.892)"
       style="fill:#000000">
      <path
         id="Rectangle_4623"
         data-name="Rectangle 4623"
         d="m 5.036,0 h 6.486 V 80.46 A 5.036,5.036 0 0 1 6.486,85.5 H 0 V 5.036 A 5.036,5.036 0 0 1 5.036,0 Z"
         transform="translate(28.466)"
         fill="#2e2e2d"
         style="fill:#000000" />
      <g
         id="Groupe_8277"
         data-name="Groupe 8277"
         style="fill:#000000">
        <path
           id="Tracé_11560"
           data-name="Tracé 11560"
           d="m 299.682,180.975 h -9.343 V 141.8 a 2.18,2.18 0 0 1 2.18,-2.179 h 9.343 V 178.8 a 2.18,2.18 0 0 1 -2.18,2.175 z"
           transform="translate(-290.339,-95.479)"
           fill="#2e2e2d"
           style="fill:#000000" />
        <path
           id="Tracé_11561"
           data-name="Tracé 11561"
           d="m 299.682,81.923 h -9.343 V 61.794 a 2.18,2.18 0 0 1 2.18,-2.179 h 9.343 v 20.128 a 2.18,2.18 0 0 1 -2.18,2.18 z"
           transform="translate(-290.339,-59.615)"
           fill="#2e2e2d"
           style="fill:#000000" />
      </g>
      <path
         id="Rectangle_4624"
         data-name="Rectangle 4624"
         d="m 5.036,0 h 6.486 V 80.46 A 5.036,5.036 0 0 1 6.486,85.5 H 0 V 5.036 A 5.036,5.036 0 0 1 5.036,0 Z"
         transform="translate(56.932)"
         fill="#2e2e2d"
         style="fill:#000000" />
    </g>
    <g
       id="Groupe_8279"
       data-name="Groupe 8279"
       transform="translate(64.488)">
      <path
         id="Tracé_11562"
         data-name="Tracé 11562"
         d="m 177.42,182.9 q -5.251,-5.642 -10,-10.8 -4.749,-5.158 -8.866,-9.615 -4.118,-4.458 -6.809,-7.38 a 23.9,23.9 0 0 0 -2.838,-2.649 c -0.851,-0.651 -1.513,-1.163 -1.984,-1.53 a 6.771,6.771 0 0 0 -1.561,-0.7 c 0,0 -2.263,-0.932 -7.551,-0.932 -5.288,0 -20.93,3.076 -20.93,3.076 a 8.917,8.917 0 0 1 1.207,0.006 c -0.758,0.067 -1.207,0.138 -1.207,0.138 L 117.589,175 c 1.379,14.979 20.671,18.235 20.671,18.235 -1.043,-3.763 -0.161,-12.379 -1.07,-27.205 L 178.271,210 a 38.832,38.832 0 0 0 9.5,8.009 24.311,24.311 0 0 0 12.487,2.991 h 12.056 q -12.91,-14.205 -24.681,-27.025 -4.968,-5.429 -10.213,-11.075 z"
         transform="translate(-116.88,-66.925)"
         fill="#df281e" />
      <path
         id="Tracé_11563"
         data-name="Tracé 11563"
         d="m 116.88,68.621 c 0,0 15.642,3.079 20.93,3.079 5.288,0 7.551,-0.932 7.551,-0.932 a 6.762,6.762 0 0 0 1.561,-0.7 c 0.47,-0.367 1.132,-0.879 1.984,-1.53 a 23.885,23.885 0 0 0 2.838,-2.649 q 2.693,-2.922 6.809,-7.381 4.116,-4.459 8.866,-9.614 4.751,-5.151 10,-10.8 5.249,-5.649 10.213,-11.072 Q 199.406,14.21 212.314,0 h -12.056 a 24.31,24.31 0 0 0 -12.484,2.994 38.818,38.818 0 0 0 -9.5,8.009 L 137.19,54.974 c 0.909,-14.827 0.026,-23.442 1.07,-27.206 0,0 -19.292,3.256 -20.671,18.235 l -0.709,22.474 c 0,0 0.449,0.072 1.207,0.138 a 8.794,8.794 0 0 1 -1.207,0.006 z"
         transform="translate(-116.88)"
         fill="#df281e" />
    </g>
    <g
       id="Groupe_8280"
       data-name="Groupe 8280"
       transform="translate(158.896,125.99)">
      <path
         id="Tracé_11564"
         data-name="Tracé 11564"
         d="m 296.828,256.118 a 14.442,14.442 0 0 1 -8.842,-13.32 14.761,14.761 0 0 1 1.13,-5.648 15.231,15.231 0 0 1 3.116,-4.6 14.232,14.232 0 0 1 4.6,-3.077 14.43,14.43 0 0 1 5.609,-1.13 14.768,14.768 0 0 1 5.648,1.13 14.243,14.243 0 0 1 7.673,7.673 14.77,14.77 0 0 1 1.129,5.648 14.428,14.428 0 0 1 -1.129,5.609 14.223,14.223 0 0 1 -3.077,4.6 15.232,15.232 0 0 1 -4.6,3.116 14.768,14.768 0 0 1 -5.648,1.13 14.43,14.43 0 0 1 -5.609,-1.131 z m -1.4,-20.331 a 9.873,9.873 0 1 0 7.011,-2.922 9.874,9.874 0 0 0 -7.013,2.922 z"
         transform="translate(-287.986,-228.347)"
         fill="#df281e" />
      <path
         id="Tracé_11565"
         data-name="Tracé 11565"
         d="m 364.831,257.248 h -5.1 l -7.283,-9.776 h -3.311 v 9.776 h -4.518 v -28.9 h 8.569 a 9.185,9.185 0 0 1 7.205,2.883 10.714,10.714 0 0 1 0,13.36 8.094,8.094 0 0 1 -3.35,2.22 z m -11.646,-13.827 a 5.317,5.317 0 0 0 4.167,-1.558 6.723,6.723 0 0 0 0,-7.907 5.3,5.3 0 0 0 -4.167,-1.519 h -4.051 v 10.984 z"
         transform="translate(-313.37,-228.347)"
         fill="#df281e" />
      <path
         id="Tracé_11566"
         data-name="Tracé 11566"
         d="m 388.536,228.347 h 4.752 a 9.321,9.321 0 0 1 7.205,2.843 10.771,10.771 0 0 1 0,13.4 9.188,9.188 0 0 1 -7.205,2.882 h -4.052 v 9.776 h -4.518 v -28.9 z m 10.244,9.542 a 5.94,5.94 0 0 0 -1.286,-3.933 5.463,5.463 0 0 0 -4.206,-1.558 h -4.052 v 10.984 h 4.052 a 5.449,5.449 0 0 0 4.206,-1.519 5.974,5.974 0 0 0 1.286,-3.974 z"
         transform="translate(-331.347,-228.347)"
         fill="#df281e" />
    </g>
  </g>
</svg>
