<?xml version="1.0" encoding="UTF-8" standalone="no"?>
<svg
   width="532"
   height="128"
   viewBox="0 0 532 128"
   fill="none"
   version="1.1"
   id="svg539"
   sodipodi:docname="targus-logo-dark.svg"
   inkscape:version="1.2.2 (732a01da63, 2022-12-09)"
   xmlns:inkscape="http://www.inkscape.org/namespaces/inkscape"
   xmlns:sodipodi="http://sodipodi.sourceforge.net/DTD/sodipodi-0.dtd"
   xmlns="http://www.w3.org/2000/svg"
   xmlns:svg="http://www.w3.org/2000/svg">
  <defs
     id="defs543" />
  <sodipodi:namedview
     id="namedview541"
     pagecolor="#ffffff"
     bordercolor="#000000"
     borderopacity="0.25"
     inkscape:showpageshadow="2"
     inkscape:pageopacity="0.0"
     inkscape:pagecheckerboard="0"
     inkscape:deskcolor="#d1d1d1"
     showgrid="false"
     inkscape:zoom="3.6004785"
     inkscape:cx="205.11163"
     inkscape:cy="38.883721"
     inkscape:window-width="3840"
     inkscape:window-height="2071"
     inkscape:window-x="2391"
     inkscape:window-y="-9"
     inkscape:window-maximized="1"
     inkscape:current-layer="svg539" />
  <g
     id="g669"
     transform="matrix(1.2,0,0,1.2,15.2,16)">
    <path
       d="M 1.81845,4.4898 C 2.81861,2.82841 3.84751,1.13894 4.10449,0.734694 L 4.57241,0 H 46.3608 c 22.9835,0 41.7884,0.0982857 41.7884,0.218776 0,0.120163 -0.992,1.808004 -2.204,3.750854 L 83.7411,7.50171 69.8583,7.50596 C 54.3389,7.51086 54.3945,7.50302 53.154,9.81616 52.591,10.866 52.5574,12.3471 52.5574,36.158 V 61.3878 H 44.0676 35.5778 L 35.5765,36.1633 C 35.5755,11.569 35.5592,10.9123 34.9264,9.87461 33.44,7.43641 34.05,7.51282 16.0744,7.51151 L 0,7.5102 Z"
       fill="white"
       id="path525"
       style="fill:#000000">
      <animate
         attributeName="fill"
         dur="1000ms"
         to="#000000"
         fill="freeze" />
    </path>
    <path
       fill-rule="evenodd"
       clip-rule="evenodd"
       d="m 83.1198,20.8872 c -0.7471,1.8086 -1.3583,3.3593 -1.3583,3.4455 0,0.0866 7.4867,0.1571 16.637,0.1571 21.1195,0 21.7725,0.1322 22.3775,4.5286 0.095,0.6874 0.201,1.1645 0.038,1.5173 -0.402,0.8702 -2.442,0.9841 -10.337,1.6302 -22.5516,1.8458 -24.0073,2.0911 -27.7359,4.6742 -7.6049,5.2689 -6.3602,18.883 2.0933,22.8961 3.3839,1.6062 4.1937,1.6515 29.4906,1.6515 h 23.627 l -0.109,-17.2244 c -0.097,-15.3604 -0.099,-17.9 -1.147,-19.8891 -0.223,-0.4228 -0.493,-0.8207 -0.821,-1.3116 -3.31,-4.9522 -4.317,-5.1291 -29.98,-5.2571 L 84.4782,17.5984 Z m 37.8252,25.662 v 8.0186 L 109.108,54.4676 C 93.722,54.3373 93.3572,54.1838 93.3546,47.8367 c -9e-4,-2.1052 -0.0496,-3.5314 0.5603,-4.5715 1.3382,-2.2823 5.8473,-2.7055 20.9891,-4.3634 1.437,-0.157 3.384,-0.3049 4.327,-0.3284 l 1.714,-0.0428 z"
       fill="white"
       id="path527"
       style="fill:#000000">
      <animate
         attributeName="fill"
         dur="1000ms"
         to="#000000"
         begin="150ms"
         fill="freeze" />
    </path>
    <path
       d="M 151.312,61.3878 V 39.5102 17.6327 h 22.368 c 13.562,0 22.367,0.1195 22.367,0.3033 0,0.1672 -0.648,1.7003 -1.44,3.407 l -1.44,3.1034 -9.917,0.1032 c -11.693,0.1221 -12.377,0.2873 -13.966,3.372 l -0.829,1.6105 -0.096,15.9278 -0.096,15.9279 h -8.475 z"
       fill="white"
       id="path529"
       style="fill:#000000">
      <animate
         attributeName="fill"
         dur="1000ms"
         to="#000000"
         begin="300ms"
         fill="freeze" />
    </path>
    <path
       fill-rule="evenodd"
       clip-rule="evenodd"
       d="m 210.429,18.0046 c -4.12,0.6827 -7.712,3.3306 -9.36,6.8986 l -0.94,2.0356 v 12.5714 c 0,15.3045 0.324,16.7014 4.522,19.5073 0.624,0.4171 1.122,0.7542 1.652,1.0274 2.264,1.1668 5.128,1.1699 21.009,1.2664 l 17.715,0.1078 -0.002,3.168 c -0.002,2.996 0.034,4.9561 -0.878,6.2441 -1.762,2.4873 -7.062,2.4681 -23.006,2.5628 l -18.498,0.11 -0.659,1.5337 c -0.362,0.8435 -0.963,2.3053 -1.334,3.248 L 199.975,80 h 25.775 c 29.934,0 30.01,-0.0075 33.332,-3.3303 3.125,-3.1239 3.229,-4.223 3.241,-34.1391 l 0.01,-24.8979 -25.061,0.0382 c -13.784,0.0209 -25.864,0.1711 -26.843,0.3337 z m 34.598,21.5271 V 54.574 l -12,-0.112 c -9.221,-0.0858 -13.301,0.0658 -15.126,-1.8883 -1.607,-1.7193 -1.468,-5.0686 -1.552,-11.6437 -0.103,-8.1267 -0.218,-12.2303 1.776,-14.304 2.095,-2.1771 6.515,-2.1167 15.718,-2.1254 l 11.184,-0.0108 z"
       fill="white"
       id="path531"
       style="fill:#000000">
      <animate
         attributeName="fill"
         dur="1000ms"
         to="#000000"
         begin="450ms"
         fill="freeze" />
    </path>
    <path
       d="m 279.236,58.1306 c -3.479,-3.0622 -3.766,-5.1308 -3.577,-25.7224 l 0.136,-14.7755 h 8.453 8.452 v 15.8805 c 0,22.6305 -1.229,21.0125 15.958,21.0155 l 10.571,0.0019 -0.122,-18.3673 -0.121,-18.3674 8.571,-0.0872 8.572,-0.0868 v 21.8828 21.8831 h -23.487 c -28.45,0 -29.862,-0.1378 -33.406,-3.2572 z"
       fill="white"
       id="path533"
       style="fill:#000000">
      <animate
         attributeName="fill"
         dur="1000ms"
         to="#000000"
         begin="600ms"
         fill="freeze" />
    </path>
    <path
       fill-rule="evenodd"
       clip-rule="evenodd"
       d="m 358.488,17.9187 c -7.016,1.7264 -9.788,5.0664 -9.788,11.7956 0,8.2416 4.633,11.7688 18.182,13.8413 2.931,0.4483 8.341,1.2715 12.022,1.8295 8.049,1.22 10.174,1.7689 11.445,2.9568 1.672,1.5618 1.126,4.3435 -1.103,5.6192 -0.535,0.3063 -5.554,0.4464 -20.413,0.5695 l -19.704,0.1633 -1.58,3.3469 -1.58,3.347 h 23.296 c 28.246,0 29.492,-0.1561 33.936,-4.2525 4.623,-4.2608 4.711,-13.0494 0.177,-17.5294 -3.666,-3.6219 -6.367,-4.4017 -24.147,-6.9715 -14.085,-2.0359 -14.74,-2.238 -15.2,-4.6899 -0.728,-3.8763 -0.47,-3.9278 20.262,-4.0392 l 17.633,-0.0947 1.658,-3.2522 1.659,-3.2523 -22.231,0.0242 c -19.913,0.0215 -22.469,0.0826 -24.524,0.5884 z"
       fill="white"
       id="path535"
       style="fill:#000000">
      <animate
         attributeName="fill"
         dur="1000ms"
         to="#000000"
         begin="750ms"
         fill="freeze" />
    </path>
    <path
       fill-rule="evenodd"
       clip-rule="evenodd"
       d="m 417.167,22 c 0,2.3012 -1.866,4.1667 -4.167,4.1667 -2.301,0 -4.167,-1.8655 -4.167,-4.1667 0,-2.3012 1.866,-4.1667 4.167,-4.1667 2.301,0 4.167,1.8655 4.167,4.1667 z M 418,22 c 0,2.7614 -2.239,5 -5,5 -2.761,0 -5,-2.2386 -5,-5 0,-2.7614 2.239,-5 5,-5 2.761,0 5,2.2386 5,5 z m -5.785,0.6696 h 0.703 L 413.72,24.5 h 0.947 v -0.0481 l -0.926,-2.0432 c 0.256,-0.1351 0.448,-0.316 0.573,-0.5426 0.127,-0.229 0.191,-0.514 0.191,-0.8551 0,-0.4808 -0.137,-0.8528 -0.412,-1.1161 C 413.819,19.6316 413.429,19.5 412.924,19.5 h -1.591 v 5 h 0.882 z m 0.712,-0.8344 h -0.712 v -1.5007 h 0.709 c 0.237,0 0.412,0.0675 0.526,0.2026 0.115,0.1351 0.173,0.3205 0.173,0.5563 0,0.2312 -0.061,0.4132 -0.182,0.546 -0.122,0.1305 -0.293,0.1958 -0.514,0.1958 z"
       fill="white"
       id="path537"
       style="fill:#000000">
      <animate
         attributeName="fill"
         dur="1000ms"
         to="#000000"
         begin="900ms"
         fill="freeze" />
    </path>
  </g>
</svg>
