<?xml version="1.0" encoding="UTF-8" standalone="no"?>
<!-- Created with Inkscape (http://www.inkscape.org/) -->

<svg
   version="1.0"
   width="662"
   height="128"
   viewBox="0 0 662 128"
   id="Layer_1"
   xml:space="preserve"
   sodipodi:docname="Toshiba.TAI.TSB.TOS.TGC.LCD.PCS.TLI.svg"
   inkscape:version="1.2.2 (732a01da63, 2022-12-09)"
   xmlns:inkscape="http://www.inkscape.org/namespaces/inkscape"
   xmlns:sodipodi="http://sodipodi.sourceforge.net/DTD/sodipodi-0.dtd"
   xmlns="http://www.w3.org/2000/svg"
   xmlns:svg="http://www.w3.org/2000/svg"><sodipodi:namedview
   id="namedview14"
   pagecolor="#505050"
   bordercolor="#eeeeee"
   borderopacity="1"
   inkscape:pageshadow="0"
   inkscape:pageopacity="0"
   inkscape:pagecheckerboard="0"
   showgrid="false"
   inkscape:zoom="1.86625"
   inkscape:cx="390.89082"
   inkscape:cy="61.085064"
   inkscape:window-width="3840"
   inkscape:window-height="2071"
   inkscape:window-x="2391"
   inkscape:window-y="-9"
   inkscape:window-maximized="1"
   inkscape:current-layer="g5"
   inkscape:showpageshadow="2"
   inkscape:deskcolor="#505050" /><defs
   id="defs24">
			
			
		</defs>
<g
   id="g3"
   style="fill:#000000">
	<g
   id="g5"
   style="fill:#000000">
		
		
		
		
		
		<g
   id="g305"
   style="fill:#000000"
   transform="matrix(0.78757599,0,0,0.78757599,15.969604,16)"><path
     d="M 765.446,119.779 H 800 L 764.347,2.118 h -49.101 l -35.643,117.661 h 34.555 L 720.46,98 h 38.663 l 6.323,21.779 M 727.941,71.837 739.705,31.186 h 0.194 l 11.761,40.651 z"
     style="fill:#000000"
     id="path7" /><path
     d="m 172.483,121.893 c 35.482,0 52.63,-6.253 55.058,-38.268 0.576,-7.618 0.692,-15.439 0.692,-22.689 0.007,-7.225 -0.116,-15.054 -0.692,-22.671 C 225.113,6.24 207.965,0 172.483,0 136.998,0 119.86,6.24 117.436,38.265 c -0.583,7.617 -0.703,15.446 -0.703,22.671 0.007,7.25 0.119,15.071 0.703,22.689 2.424,32.014 19.562,38.268 55.047,38.268 M 150.166,60.936 c 0,-6.461 0.164,-10.28 0.304,-13.114 0.903,-18.161 8.074,-20.278 22.013,-20.278 13.943,0 21.113,2.117 22.01,20.278 0.14,2.833 0.304,6.652 0.304,13.114 0,6.482 -0.164,10.308 -0.304,13.135 -0.897,18.164 -8.067,20.285 -22.01,20.285 -13.939,0 -21.11,-2.121 -22.013,-20.285 -0.14,-2.827 -0.304,-6.653 -0.304,-13.135 z"
     style="fill:#000000"
     id="path9" /><path
     id="polyline11"
     style="fill:#000000"
     d="M 0,2.171875 V 31.503906 H 35.171875 V 119.83203 H 70.357422 V 31.503906 H 105.5293 V 2.171875 Z" /><path
     id="polyline13"
     d="M 539.852,119.779 V 2.118 H 506.46 v 117.661 h 33.392"
     style="fill:#000000" /><path
     id="polyline15"
     d="M 405.5,45.077 V 2.118 H 372.295 V 119.779 H 405.5 V 74.408 h 38.575 v 45.371 h 33.194 V 2.118 H 444.075 V 45.077 H 405.5"
     style="fill:#000000" /><path
     d="m 649.673,58.283 c 14.788,-3.781 19.129,-12.616 19.129,-25.386 0,-25.859 -16.271,-30.78 -39.407,-30.78 h -59.944 v 117.661 h 62.921 c 28.973,0 38.711,-12.48 38.711,-31.673 0,-13.383 -3.068,-25.191 -21.41,-29.822 m -47.037,13.169 h 23.02 c 9.301,0 11.242,4.074 11.242,10.7 0,6.632 -3.638,10.717 -11.242,10.717 h -23.02 z m 0,-42.425 h 23.02 c 6.018,0 9.731,2.851 9.731,9.708 0,5.878 -3.676,9.496 -9.731,9.496 h -23.02 z"
     style="fill:#000000"
     id="path19" /><path
     d="m 247.58,81.167 h 31.646 c 0.034,5.708 0.764,9.523 3.532,11.63 3.154,2.374 5.971,3.158 15.324,3.158 9.002,0 18.853,0 18.853,-11.085 0,-8.742 -5.507,-10.737 -15.678,-11.279 -25.212,-1.336 -34.333,-2.049 -43.73,-9.025 -6.4,-4.757 -9.718,-14.018 -9.718,-26.542 0,-21.297 7.43,-28.768 18.15,-33.981 11.058,-5.381 54.471,-5.381 66.149,0 14.696,6.768 15.126,21.42 15.126,35.011 h -31.578 c -0.058,-6.929 -1.616,-8.886 -2.888,-10.175 -3.277,-2.908 -7.948,-3.522 -14.689,-3.522 -8.16,0 -17.594,0.368 -17.594,10.277 0,7.56 3.263,10.72 11.849,11.276 11.784,0.754 35.019,1.497 43.294,6.383 11.614,6.867 14.618,16.159 14.618,31.319 0,21.904 -7.839,28.342 -18.744,33.156 -12.589,5.565 -54.642,5.565 -68.308,-0.426 C 247.89,110.668 247.58,97.376 247.58,81.167"
     style="fill:#000000"
     id="path21" /></g>
	</g>
</g>
</svg>
