<?xml version="1.0" encoding="UTF-8" standalone="no"?>
<!-- Created with Inkscape (http://www.inkscape.org/) by Marsupilami -->

<svg
   version="1.0"
   width="622"
   height="128"
   viewBox="0 0 121.83364 25.115181"
   id="svg2835"
   sodipodi:docname="Viewsonic.VSC.svg"
   inkscape:version="1.2.2 (732a01da63, 2022-12-09)"
   xmlns:inkscape="http://www.inkscape.org/namespaces/inkscape"
   xmlns:sodipodi="http://sodipodi.sourceforge.net/DTD/sodipodi-0.dtd"
   xmlns="http://www.w3.org/2000/svg"
   xmlns:svg="http://www.w3.org/2000/svg">
  <sodipodi:namedview
     id="namedview6"
     pagecolor="#505050"
     bordercolor="#eeeeee"
     borderopacity="1"
     inkscape:pageshadow="0"
     inkscape:pageopacity="0"
     inkscape:pagecheckerboard="0"
     showgrid="false"
     inkscape:zoom="1.4580078"
     inkscape:cx="500.34026"
     inkscape:cy="82.989954"
     inkscape:window-width="3840"
     inkscape:window-height="2071"
     inkscape:window-x="2391"
     inkscape:window-y="-9"
     inkscape:window-maximized="1"
     inkscape:current-layer="svg2835"
     inkscape:showpageshadow="2"
     inkscape:deskcolor="#505050" />
  <defs
     id="defs2837" />
  <g
     transform="matrix(0.57846867,0,0,0.57846867,-139.06445,-300.35303)"
     id="layer1"
     style="fill:#000000">
    <path
       d="m 112.875,0 c -0.23125,0.87875 -0.47375,1.5625 -1.53125,1.5625 -1.33375,0 -3.47875,-1.53125 -7.15625,-1.53125 -8.68875,0 -10.124997,6.2700001 -10.125,9.0625 0,2.10625 0.0075,6.027499 7.84375,9.78125 l 3.0625,1.46875 c 2.985,1.42 5.15625,2.526251 5.15625,5.59375 0,0.595 -0.24,5.124999 -5.75,5.125 -5.85875,0 -8.516248,-5.187501 -9.4375,-9.8125 H 93.625 v 11.3125 h 1.3125 C 95.12125,31.8275 95.346246,31 96.3125,31 c 1.42625,0 3.502501,1.562499 7.875,1.5625 8.47125,0 11.40625,-5.532499 11.40625,-9.5625 0,-4.99 -3.49625,-7.66 -5.0625,-8.4375 l -6.75,-3.34375 c -3.845,-1.9225 -4.718752,-2.9025001 -4.71875,-5.375 0,-2.975 2.52125,-4.375 4.90625,-4.375 5.41375,0 8.17375,5.2637502 9,8.46875 H 114.25 V 0 Z M 35.78125,0.03125 c -2.05625,0 -3.562498,1.6425 -3.5625,3.5625 0,1.96625 1.459999,3.53125 3.5625,3.53125 1.965,0 3.531249,-1.52 3.53125,-3.53125 0,-1.965 -1.566251,-3.5625 -3.53125,-3.5625 z m 133.78125,0 c -2.0575,0 -3.59375,1.6425 -3.59375,3.5625 0,1.96625 1.49125,3.53125 3.59375,3.53125 1.96625,0 3.49999,-1.52 3.5,-3.53125 0,-1.965 -1.53375,-3.5625 -3.5,-3.5625 z M 0,0.6875 V 1.84375 C 1.97375,2.165 2.65,2.3137498 3.84375,5.0625 l 11.75,27.4375 h 1.25 L 27.3125,5.59375 c 1.01,-2.56625 1.6,-3.42875 4.125,-3.75 V 0.6875 H 21.65625 V 1.84375 C 24.2725,1.98125 25.625,2.1499999 25.625,3.9375 25.625,4.85375 25.10125,6.07 24.6875,7.125 L 18.875,22.1875 12.84375,7.71875 C 12.385,6.5725 11.46875,4.6525001 11.46875,3.78125 11.46875,2.04 12.545,2.0275 15.4375,1.84375 V 0.6875 Z m 197.1875,5.21875 c -1.8475,0 -3.40625,1.41375 -3.40625,3.34375 -1e-5,1.93875 1.55875,3.375 3.40625,3.375 1.83125,0 3.375,-1.43625 3.375,-3.375 0,-1.9299998 -1.54375,-3.34375 -3.375,-3.34375 z m 0,0.5625 c 1.52125,-1e-7 2.71875,1.18875 2.71875,2.78125 1e-5,1.61125 -1.1975,2.8125 -2.71875,2.8125 -1.53625,0 -2.75,-1.20125 -2.75,-2.8125 1e-5,-1.5924998 1.21375,-2.78125 2.75,-2.78125 z m -1.3125,0.875 v 3.84375 h 0.59375 V 9.53125 h 0.6875 l 1.03125,1.65625 h 0.65625 L 197.71875,9.5 c 0.56876,-0.07125 1,-0.3675 1,-1.0625 0,-0.7650004 -0.4275,-1.09375 -1.34375,-1.09375 z m 0.59375,0.5 h 0.8125 c 0.40876,1e-7 0.84375,0.08125 0.84375,0.5625 1e-5,0.5962504 -0.44,0.625 -0.9375,0.625 h -0.71875 z M 51.59375,9.9375 c -5.27,-10e-8 -9.4375,4.3425 -9.4375,11.125 10e-7,7.8725 4.68375,11.28125 9.3125,11.28125 3.668751,-10e-7 6.26625,-1.47 9.0625,-5.75 L 59.4375,25.9375 c -0.871251,1.058751 -2.4825,3.09375 -5.1875,3.09375 -4.35625,0 -5.3625,-4.68 -5.5,-8.59375 h 11.5625 c -0.137502,-2.4475 -0.74,-10.5 -8.71875,-10.5 z m 76.25,0 c -6.3825,-10e-8 -10.375,5.32 -10.375,11.25 0,5.975 3.9925,11.15625 10.375,11.15625 6.24375,-10e-7 10.3125,-5.04375 10.3125,-11.15625 0,-6.38875 -4.2975,-11.25 -10.3125,-11.25 z m 26.53125,0 c -3.91625,0 -5.88625,2.8 -6.53125,3.90625 H 147.75 v -3.3125 H 139 v 1.0625 c 1.83625,0.27625 2.4375,0.6475 2.4375,2.71875 v 13.53125 c 0,2.25625 -0.785,2.45875 -2.4375,2.78125 v 1.09375 h 11.0625 V 30.625 C 147.9425,30.39375 147.78125,29.06 147.78125,28 V 15.71875 c 0,-0.41375 2,-2.6875 3.84375,-2.6875 2.49,0 2.53125,2.55625 2.53125,3.84375 V 28 c 0,1.7025 -0.63501,2.48625 -2.15625,2.625 v 1.09375 h 10.78125 V 30.625 c -2.24875,-0.0925 -2.25001,-1.52 -2.25,-2.625 V 16.4375 c 0,-5.0575 -3.63875,-6.5000001 -6.15625,-6.5 z m 32.34375,0 c -4.27125,0 -10.8125,2.82375 -10.8125,11.875 0,5.65 3.9625,10.531249 9.8125,10.53125 3.6025,0 6.63625,-1.851251 8.75,-4.84375 l -0.8125,-0.8125 c -1.1025,1.24 -2.28625,2.5625 -4.90625,2.5625 -3.55,0 -6.34376,-3.725 -6.34375,-10.15625 0,-2.0675 0.33125,-7.71875 3.875,-7.71875 0.68125,0 1.84375,0.43375 1.84375,1.8125 0,2.48 0.02,4.71875 2.59375,4.71875 0.3675,0 3.12501,0.0025 3.125,-2.9375 0,-3.3075 -3.87875,-5.0312501 -7.125,-5.03125 z m -156.5,0.59375 v 1.0625 c 1.74375,0.32125 2.437502,0.6475 2.4375,2.71875 v 13.53125 c 0,2.21 -0.785,2.36625 -2.4375,2.78125 v 1.09375 H 41.1875 V 30.625 C 39.3975,30.44 39.03125,29.4275 39.03125,28 V 10.53125 Z m 30.96875,0 v 1.0625 c 1.19375,0.23 1.431249,0.5725 2.625,3.5625 l 6.78125,17.1875 h 1.125 l 5.59375,-13.9375 h 0.21875 l 4.59375,13.9375 h 1.0625 l 7.125,-18.4375 c 0.78125,-2.02375 1.407496,-2.12875 2.28125,-2.3125 v -1.0625 h -6.1875 v 1.0625 c 1.2875,0.1375 2.187503,0.2475 2.1875,1.71875 0,1.0125 -2.323751,6.4725 -3.5625,9.96875 H 84.9375 c -0.825,-3.58875 -2.781248,-9.565 -2.78125,-10.53125 0,-0.96625 1.025001,-1.06375 2.21875,-1.15625 v -1.0625 h -10.75 v 1.0625 c 1.10125,0.1375 1.617504,0.15875 2.03125,1.125 0.23,0.5525 0.510001,1.46625 0.96875,3.03125 L 73.5,23.625 C 71.205,17.46 69.625001,13.96625 69.625,13 c 0,-1.19625 1.107499,-1.31375 1.75,-1.40625 v -1.0625 z m 102.78125,0 v 1.0625 c 1.745,0.32125 2.4375,0.6475 2.4375,2.71875 v 13.53125 c 0,2.21 -0.78375,2.36625 -2.4375,2.78125 v 1.09375 H 174.9375 V 30.625 C 173.1475,30.44 172.78125,29.4275 172.78125,28 V 10.53125 Z M 51.78125,11.375 c 1.605,0 2.19375,1.17125 2.46875,2.1875 0.36625,1.38375 0.36,3.7575 0.40625,5.1875 h -6.125 c -2e-6,-6.365 1.5525,-7.375 3.25,-7.375 z m 76.0625,0 c 2.80875,0 3.59375,2.73375 3.59375,9.8125 0,5.8375 -0.385,9.71875 -3.5625,9.71875 -3.68375,0 -3.65625,-4.755 -3.65625,-9.71875 0,-5.24 0.21625,-9.8125 3.625,-9.8125 z"
       transform="translate(245.42679,524.64799)"
       style="fill:#000000;fill-opacity:1;fill-rule:nonzero;stroke:none"
       id="path19945" />
  </g>
</svg>
