<?xml version="1.0" encoding="UTF-8" standalone="no"?>
<svg
   width="576"
   height="128"
   viewBox="0 0.026 235.9296 52.400941"
   version="1.1"
   id="svg4"
   sodipodi:docname="Wacom.WAC.svg"
   inkscape:version="1.2.2 (732a01da63, 2022-12-09)"
   xmlns:inkscape="http://www.inkscape.org/namespaces/inkscape"
   xmlns:sodipodi="http://sodipodi.sourceforge.net/DTD/sodipodi-0.dtd"
   xmlns="http://www.w3.org/2000/svg"
   xmlns:svg="http://www.w3.org/2000/svg">
  <defs
     id="defs8" />
  <sodipodi:namedview
     id="namedview6"
     pagecolor="#505050"
     bordercolor="#eeeeee"
     borderopacity="1"
     inkscape:pageshadow="0"
     inkscape:pageopacity="0"
     inkscape:pagecheckerboard="0"
     showgrid="false"
     inkscape:zoom="3.3782734"
     inkscape:cx="303.85345"
     inkscape:cy="84.066613"
     inkscape:window-width="3840"
     inkscape:window-height="2071"
     inkscape:window-x="2391"
     inkscape:window-y="-9"
     inkscape:window-maximized="1"
     inkscape:current-layer="svg4"
     inkscape:showpageshadow="2"
     inkscape:deskcolor="#505050" />
  <path
     d="m 73.872429,6.5658878 c -4.398524,0 -6.468379,0.4563461 -8.762713,1.3366593 l -0.408538,0.1486384 2.487738,4.4185165 0.297059,-0.111479 c 1.691957,-0.692777 3.560368,-0.927904 7.054893,-0.927904 h 3.712918 c 5.430083,0 8.54019,2.703307 8.54019,7.462996 v 14.629368 c 0,4.75643 -3.110107,7.463431 -8.54019,7.463431 h -6.052235 c -5.565249,0 -8.28029,-2.230663 -8.28029,-6.869095 0,-4.601924 2.714824,-6.831935 8.28029,-6.831935 h 8.428494 v -4.901373 h -8.688394 c -8.260298,0 -12.995649,4.296606 -12.995649,11.770469 0,7.226348 4.980257,11.733091 12.995649,11.733091 h 6.534875 c 9.121706,0 13.292709,-6.088308 13.292709,-11.733091 V 18.262471 c 0,-5.644131 -4.171003,-11.6963659 -13.292709,-11.6963659 h -4.604097 z m 36.759321,0 c -9.12279,0 -13.292921,6.0524522 -13.292921,11.6961482 v 15.891925 c 0,5.645002 4.169921,11.733093 13.292711,11.733093 h 5.64413 c 4.64691,0 7.69225,-0.678652 10.13653,-2.264998 l 0.29684,-0.22274 -2.82174,-4.121457 -0.29706,0.185581 c -1.82386,1.105009 -4.13188,1.522457 -7.94585,1.522457 h -4.79011 c -5.50723,0 -8.54019,-2.637028 -8.54019,-7.463431 v -14.62915 c 0,-4.829011 3.03426,-7.463431 8.54019,-7.463431 h 4.78989 c 3.80919,0 6.11504,0.453303 7.94586,1.559399 l 0.29706,0.185581 2.82174,-4.1586163 -0.29685,-0.1855807 C 123.96771,7.2456261 120.9267,6.5656705 116.27545,6.5656705 h -5.6437 z m 32.56334,0 c -9.15235,0 -13.32965,6.0524522 -13.32965,11.6961482 v 15.891925 c 0,5.645002 4.1697,11.733093 13.29271,11.733093 h 6.53487 c 9.12388,0 13.25555,-6.088308 13.25555,-11.733092 V 18.262254 c 0,-5.643045 -4.17144,-11.6963662 -13.32987,-11.6963662 z m 38.57862,0.074319 c -7.87175,0 -12.95849,4.46828 -12.95849,11.36193 V 45.70169 h 4.97548 V 18.63385 c 0,-4.789895 2.67614,-7.129211 8.20597,-7.129211 5.2445,0 8.13143,2.388211 8.13143,6.683513 v 27.513537 h 4.97548 v -27.51332 c 0,-4.29552 2.88693,-6.683731 8.13165,-6.683731 5.532,0 8.24292,2.339535 8.24292,7.128994 v 27.068057 h 4.93853 V 18.002137 c 0,-6.893868 -5.09043,-11.36193 -12.95849,-11.36193 -5.25189,0 -8.42306,1.2984132 -10.84235,4.418516 C 190.20003,7.9386202 187.0193,6.640207 181.77371,6.640207 Z M 6.70329,6.8257877 V 34.525123 c 0,6.892564 5.086954,11.36193 12.958706,11.36193 5.245807,0 8.426539,-1.294719 10.84213,-4.418517 2.416461,3.123798 5.595238,4.418517 10.842348,4.418517 7.868058,0 12.958489,-4.469149 12.958489,-11.36193 V 6.8257877 H 49.36643 V 33.894061 c 0,4.787289 -2.713086,7.092053 -8.242914,7.092053 -5.243633,0 -8.131652,-2.354746 -8.131652,-6.646572 V 6.8257877 H 28.053331 V 34.339325 c 0,4.290523 -2.886932,6.646572 -8.131652,6.646572 -5.52961,0 -8.242913,-2.304766 -8.242913,-7.092053 V 6.8260051 H 6.70329 Z m 218.73578,0 c -1.04329,0 -1.93664,0.3759423 -2.67353,1.113919 -0.74015,0.7414537 -1.1137,1.6265477 -1.1137,2.6733183 0,1.056333 0.38202,1.969242 1.1137,2.710479 0.73428,0.74254 1.62198,1.113918 2.67353,1.113918 1.04917,0 1.93317,-0.371161 2.67354,-1.113918 0.74254,-0.746235 1.1137,-1.658927 1.1137,-2.710479 0,-1.049161 -0.37116,-1.9344723 -1.1137,-2.6733183 -0.74015,-0.7377594 -1.62437,-1.113919 -2.67354,-1.113919 z m 0,0.5197999 c 0.90292,0 1.66523,0.3224846 2.30216,0.9654979 0.63193,0.6380152 0.96528,1.4337958 0.96528,2.3390995 0,0.908998 -0.33335,1.660448 -0.96528,2.302157 -0.63193,0.64171 -1.39555,0.965498 -2.30216,0.965498 -0.90421,0 -1.67022,-0.323788 -2.30215,-0.965498 -0.62976,-0.641709 -0.96528,-1.392942 -0.96528,-2.302157 0,-0.9039999 0.33204,-1.7013016 0.96528,-2.3390995 0.63671,-0.642796 1.40381,-0.9654979 2.30215,-0.9654979 z m -1.52245,1.1882382 v 4.1588332 h 0.7056 v -1.634153 h 0.5939 c 0.39224,0 0.66126,0.06085 0.81707,0.148638 0.26121,0.154506 0.37117,0.445916 0.37117,0.928121 v 0.334219 l 0.0369,0.148639 c 0.005,0.01891 -0.004,0.02282 0,0.03716 0.005,0.01412 -0.006,0.02173 0,0.03716 h 0.7056 l -0.037,-0.03694 c -0.0191,-0.03694 -0.0304,-0.111479 -0.0374,-0.222958 -0.008,-0.109305 0,-0.199705 0,-0.297059 v -0.33422 c 0,-0.211441 -0.0695,-0.410277 -0.22253,-0.631279 -0.15081,-0.222089 -0.38028,-0.357254 -0.70559,-0.408321 0.26011,-0.04129 0.45395,-0.09431 0.59411,-0.185581 0.27338,-0.177106 0.40833,-0.482206 0.40833,-0.854019 0,-0.5274057 -0.23948,-0.8614075 -0.66823,-1.0398171 -0.2399,-0.101048 -0.59694,-0.1484211 -1.11391,-0.1484211 z m 0.7056,0.4826403 h 0.63106 c 0.40636,0 0.70581,0.078665 0.89096,0.1855807 0.1858,0.101048 0.29597,0.2922788 0.29728,0.5939018 0,0.3209634 -0.15451,0.5532654 -0.4457,0.6684384 -0.1532,0.06085 -0.39398,0.07432 -0.70538,0.07432 h -0.66822 z m -81.24133,2.4136359 h 6.05201 c 5.43009,0 8.54019,2.703307 8.54019,7.463213 v 14.629368 c 0,4.75643 -3.1101,7.463431 -8.54019,7.463431 h -6.05201 c -5.50962,0 -8.54019,-2.637029 -8.54019,-7.463431 v -14.62915 c 0,-4.760124 3.11141,-7.463431 8.54019,-7.463431 z"
     id="path2"
     style="stroke-width:0.217308;fill:#000000" />
</svg>
