<?xml version="1.0" encoding="UTF-8" standalone="no"?>
<!-- Created with Inkscape (http://www.inkscape.org/) -->

<svg
   width="32"
   height="32"
   viewBox="0 0 32 32"
   version="1.1"
   id="svg5"
   inkscape:version="1.1.1 (3bf5ae0d25, 2021-09-20)"
   sodipodi:docname="MonitorInfo.svg"
   xmlns:inkscape="http://www.inkscape.org/namespaces/inkscape"
   xmlns:sodipodi="http://sodipodi.sourceforge.net/DTD/sodipodi-0.dtd"
   xmlns="http://www.w3.org/2000/svg"
   xmlns:svg="http://www.w3.org/2000/svg">
  <sodipodi:namedview
     id="namedview7"
     pagecolor="#505050"
     bordercolor="#eeeeee"
     borderopacity="1"
     inkscape:pageshadow="0"
     inkscape:pageopacity="0"
     inkscape:pagecheckerboard="0"
     inkscape:document-units="mm"
     showgrid="true"
     units="px"
     inkscape:zoom="32"
     inkscape:cx="7.875"
     inkscape:cy="15.9375"
     inkscape:window-width="3840"
     inkscape:window-height="2054"
     inkscape:window-x="-11"
     inkscape:window-y="1609"
     inkscape:window-maximized="1"
     inkscape:current-layer="layer1"
     inkscape:blackoutopacity="0.0">
    <inkscape:grid
       type="xygrid"
       id="grid824" />
  </sodipodi:namedview>
  <defs
     id="defs2" />
  <g
     inkscape:label="Calque 1"
     inkscape:groupmode="layer"
     id="layer1">
    <rect
       style="fill:none;stroke:#000000;stroke-width:2;stroke-linejoin:round;stroke-miterlimit:4;stroke-dasharray:none"
       id="rect1032"
       width="30"
       height="17"
       x="1"
       y="5.5"
       ry="2" />
    <rect
       style="fill:#0078d7;stroke:#000000;stroke-width:0;stroke-linejoin:round;stroke-miterlimit:4;stroke-dasharray:none"
       id="rect1032-2-8"
       width="4"
       height="2"
       x="14"
       y="21.5" />
    <path
       style="fill:none;stroke:#000000;stroke-width:2.3094px;stroke-linecap:round;stroke-linejoin:miter;stroke-opacity:1"
       d="m 12,26 h 8"
       id="path1150" />
    <g
       aria-label="?"
       transform="matrix(1.1029176,0,0,0.90668605,0.03386097,0.59668738)"
       id="text5593"
       style="font-size:16.0566px;line-height:1.25;stroke-width:0.401415;fill:#0078d7">
      <path
         d="m 15.862994,16.228062 h -2.898437 v -0.492188 q 0,-0.976562 0.21875,-1.4375 0.21875,-0.46875 0.796875,-0.726562 l 0.53125,-0.234375 q 0.601562,-0.265625 0.601562,-0.75 0,-0.28125 -0.195312,-0.476563 -0.195313,-0.195312 -0.476563,-0.195312 -0.765625,0 -0.765625,1.0625 h -2.695312 q 0,-1.421875 0.65625,-2.320313 0.484375,-0.6640623 1.257812,-1.0546873 0.773438,-0.390625 1.601563,-0.390625 1.46875,0 2.46875,0.9765623 1.007812,0.96875 1.007812,2.40625 0,1.773438 -1.4375,2.492188 -0.46875,0.234375 -0.570312,0.40625 -0.101563,0.171875 -0.101563,0.734375 z m -1.398437,0.414062 q 0.765625,0 1.3125,0.554688 0.554687,0.554687 0.554687,1.320312 0,0.765625 -0.546875,1.304688 -0.546875,0.53125 -1.320312,0.53125 -0.804688,0 -1.328125,-0.515625 -0.515625,-0.523438 -0.515625,-1.328125 0,-0.78125 0.539062,-1.320313 0.539063,-0.546875 1.304688,-0.546875 z"
         style="font-size:16px;font-family:'Bauhaus 93';-inkscape-font-specification:'Bauhaus 93, Normal';fill:#0078d7"
         id="path10554" />
    </g>
  </g>
</svg>
