<?xml version="1.0" encoding="utf-8"?>
<!-- Generator: Adobe Illustrator 14.0.0, SVG Export Plug-In . SVG Version: 6.00 Build 43363)  -->
<!DOCTYPE svg PUBLIC "-//W3C//DTD SVG 1.1//EN" "http://www.w3.org/Graphics/SVG/1.1/DTD/svg11.dtd">
<svg version="1.1" id="Layer_1" xmlns="http://www.w3.org/2000/svg" xmlns:xlink="http://www.w3.org/1999/xlink" x="0px" y="0px"
	 width="612px" height="792px" viewBox="0 0 612 792" enable-background="new 0 0 612 792" xml:space="preserve">
<g>
	<polygon fill-rule="evenodd" clip-rule="evenodd" fill="#FFFFFF" points="209,300 401.756,300 401.756,492.756 209,492.756 
		209,300 	"/>
	<path fill-rule="evenodd" clip-rule="evenodd" fill="#034EA2" d="M239.017,384.522v7.635c0,0,0,0,0.137,0
		c2.59,0,4.636,2.046,4.636,4.637c0,2.727-2.045,4.771-4.636,4.771c-0.137,0-0.137,0-0.137,0v7.5h7.636v-24.544H239.017
		L239.017,384.522z"/>
	<path fill-rule="evenodd" clip-rule="evenodd" fill="#034EA2" d="M235.472,393.931v-9.408H227.7v7.635c0.136,0,0.136,0,0.136,0
		c2.591,0,4.772,2.046,4.772,4.637c0,2.727-2.182,4.771-4.772,4.771c0,0,0,0-0.136,0v7.5h7.772v-9.273
		c0.818,1.092,2.182,1.773,3.545,1.773v-9.409C237.653,392.158,236.29,392.84,235.472,393.931L235.472,393.931z"/>
	<path fill-rule="evenodd" clip-rule="evenodd" fill="#034EA2" d="M223.063,396.795c0,2.59,2.182,4.771,4.636,4.771v-9.409
		C225.245,392.158,223.063,394.204,223.063,396.795L223.063,396.795z"/>
	<polygon fill-rule="evenodd" clip-rule="evenodd" fill="#034EA2" points="377.554,409.066 373.054,384.522 362.827,384.522 
		358.191,409.066 365.146,409.066 367.873,394.204 370.6,409.066 377.554,409.066 	"/>
	<polygon fill-rule="evenodd" clip-rule="evenodd" fill="#034EA2" points="385.326,384.522 392.144,384.522 392.144,409.066 
		385.326,409.066 385.326,384.522 	"/>
	<path fill-rule="evenodd" clip-rule="evenodd" fill="#034EA2" d="M221.836,396.795c0,2.727-2.182,4.771-4.772,4.771
		c-2.591,0-4.772-2.045-4.772-4.771c0-2.591,2.182-4.637,4.772-4.637C219.654,392.158,221.836,394.204,221.836,396.795
		L221.836,396.795z"/>
	<polygon fill-rule="evenodd" clip-rule="evenodd" fill="#034EA2" points="266.97,384.522 263.424,391.749 260.016,384.522 
		252.925,384.522 260.016,398.977 260.016,409.066 266.97,409.066 266.97,398.977 274.06,384.522 266.97,384.522 	"/>
	<path fill-rule="evenodd" clip-rule="evenodd" fill="#034EA2" d="M296.832,402.93v-18.407h-7.09v18.407h-3.545v-18.407h-6.954
		v18.407c0,0-0.409,5.592,5.317,6.137h6.954C297.104,408.521,296.832,402.93,296.832,402.93L296.832,402.93z"/>
	<polygon fill-rule="evenodd" clip-rule="evenodd" fill="#034EA2" points="316.876,384.522 316.876,393.794 312.239,384.522 
		306.513,384.522 306.513,409.066 313.467,409.066 313.467,400.066 316.876,408.793 316.876,409.066 323.83,409.066 323.83,384.522 
		316.876,384.522 	"/>
	<path fill-rule="evenodd" clip-rule="evenodd" fill="#034EA2" d="M344.828,384.522L344.828,384.522L344.828,384.522
		c-0.409,0-0.682,0-0.682,0h-10.499v24.544h10.499c0,0,6.682,0.408,6.954-5.318l0,0V389.84
		C350.828,385.34,346.601,384.659,344.828,384.522L344.828,384.522z M340.602,390.658h3.682v12.271h-3.682V390.658L340.602,390.658z
		"/>
</g>
</svg>
