<?xml version="1.0" encoding="UTF-8" standalone="no"?>
<!-- Created with Inkscape (http://www.inkscape.org/) -->

<svg
   width="128"
   height="128"
   viewBox="0 0 128 128"
   version="1.1"
   id="svg5"
   inkscape:version="1.2.2 (732a01da63, 2022-12-09)"
   sodipodi:docname="MonitorInfo.svg"
   xmlns:inkscape="http://www.inkscape.org/namespaces/inkscape"
   xmlns:sodipodi="http://sodipodi.sourceforge.net/DTD/sodipodi-0.dtd"
   xmlns="http://www.w3.org/2000/svg"
   xmlns:svg="http://www.w3.org/2000/svg">
  <sodipodi:namedview
     id="namedview7"
     pagecolor="#505050"
     bordercolor="#eeeeee"
     borderopacity="1"
     inkscape:pageshadow="0"
     inkscape:pageopacity="0"
     inkscape:pagecheckerboard="0"
     inkscape:document-units="mm"
     showgrid="true"
     units="px"
     inkscape:zoom="11.313709"
     inkscape:cx="61.650872"
     inkscape:cy="70.357125"
     inkscape:window-width="3840"
     inkscape:window-height="2071"
     inkscape:window-x="-9"
     inkscape:window-y="-9"
     inkscape:window-maximized="1"
     inkscape:current-layer="layer1"
     inkscape:blackoutopacity="0.0"
     inkscape:showpageshadow="2"
     inkscape:deskcolor="#505050">
    <inkscape:grid
       type="xygrid"
       id="grid824"
       dotted="false"
       empspacing="4"
       originx="0"
       originy="0" />
  </sodipodi:namedview>
  <defs
     id="defs2" />
  <g
     inkscape:label="Calque 1"
     inkscape:groupmode="layer"
     id="layer1">
    <rect
       style="fill:#0078d7;fill-opacity:1;stroke-width:2.79044;stroke-linecap:round;stroke-linejoin:round"
       id="rect763"
       width="112"
       height="63"
       x="8"
       y="25" />
    <path
       style="color:#000000;fill:#000000;stroke-width:4;stroke-linejoin:round;-inkscape-stroke:none"
       d="m 8,17 c -4,0 -8,4 -8,8 v 67 c 0,4 4,8 8,8 h 112 c 4,0 8,-4 8,-8 V 25 c 0,-4 -4,-8 -8,-8 z m 2,8 h 108 c 1,0 2,1 2,2 v 59 c 0,1 -1,2 -2,2 H 10 C 9,88 8,87 8,86 V 27 c 0,-1 1,-2 2,-2 z"
       id="rect1032"
       sodipodi:nodetypes="ssssssssssssssssss" />
    <rect
       style="fill:#0078d7;stroke:#000000;stroke-width:0;stroke-linejoin:round;stroke-miterlimit:4;stroke-dasharray:none"
       id="rect1032-2-8"
       width="16"
       height="3.9999998"
       x="56"
       y="92"
       ry="0.49999997" />
    <g
       aria-label="?"
       transform="matrix(1.1029176,0,0,0.90668605,0.03386097,0.59668738)"
       id="text5593"
       style="font-size:16.0566px;line-height:1.25;fill:#0078d7;stroke-width:0.401415" />
    <circle
       style="fill:#ffffff;fill-opacity:1;stroke-width:6.19844;stroke-linecap:round;stroke-linejoin:round;opacity:0.75"
       id="path446"
       cx="64"
       cy="41"
       r="4" />
    <rect
       style="fill:#ffffff;fill-opacity:1;stroke-width:6.19844;stroke-linecap:round;stroke-linejoin:round;opacity:0.75"
       id="rect500"
       width="8"
       height="24"
       x="60"
       y="49" />
    <rect
       style="fill:#000000;stroke-width:6.19844;stroke-linecap:round;stroke-linejoin:round"
       id="rect502"
       width="40"
       height="8"
       x="44"
       y="104"
       ry="1" />
    <circle
       style="fill:none;fill-opacity:1;stroke:#ffffff;stroke-width:4;stroke-linecap:round;stroke-linejoin:round;stroke-dasharray:none;stroke-opacity:1;opacity:0.75"
       id="path2906"
       cx="64"
       cy="56"
       r="24" />
  </g>
</svg>
