<?xml version="1.0" encoding="UTF-8" standalone="no"?>
<!-- Created with Inkscape (http://www.inkscape.org/) -->

<svg
   width="128"
   height="128"
   viewBox="0 0 128 128"
   version="1.1"
   id="svg5"
   inkscape:version="1.2.2 (732a01da63, 2022-12-09)"
   sodipodi:docname="MonitorLocation.svg"
   xmlns:inkscape="http://www.inkscape.org/namespaces/inkscape"
   xmlns:sodipodi="http://sodipodi.sourceforge.net/DTD/sodipodi-0.dtd"
   xmlns="http://www.w3.org/2000/svg"
   xmlns:svg="http://www.w3.org/2000/svg">
  <sodipodi:namedview
     id="namedview7"
     pagecolor="#505050"
     bordercolor="#eeeeee"
     borderopacity="1"
     inkscape:pageshadow="0"
     inkscape:pageopacity="0"
     inkscape:pagecheckerboard="0"
     inkscape:document-units="mm"
     showgrid="true"
     units="px"
     inkscape:zoom="9.455549"
     inkscape:cx="71.069379"
     inkscape:cy="48.542924"
     inkscape:window-width="3840"
     inkscape:window-height="2071"
     inkscape:window-x="-9"
     inkscape:window-y="-9"
     inkscape:window-maximized="1"
     inkscape:current-layer="layer1"
     inkscape:blackoutopacity="0.0"
     inkscape:showpageshadow="2"
     inkscape:deskcolor="#505050">
    <inkscape:grid
       type="xygrid"
       id="grid824"
       originx="0"
       originy="0"
       empspacing="4" />
  </sodipodi:namedview>
  <defs
     id="defs2" />
  <g
     inkscape:label="Calque 1"
     inkscape:groupmode="layer"
     id="layer1">
    <rect
       style="fill:#0078d7;fill-opacity:1;stroke:none;stroke-width:1.54961;stroke-linecap:round;stroke-linejoin:round"
       id="rect1746"
       width="76"
       height="36"
       x="44"
       y="68" />
    <rect
       style="fill:#0078d7;fill-opacity:1;stroke:none;stroke-width:1.54961;stroke-linecap:round;stroke-linejoin:round"
       id="rect1744"
       width="76"
       height="36"
       x="8"
       y="8" />
    <path
       style="color:#000000;fill:#000000;stroke-linejoin:round;-inkscape-stroke:none"
       d="M 8,0 C 4,0 0,4 0,8 v 40 c 0,4 4,8 8,8 h 76 c 4,0 8,-4 8,-8 V 8 C 92,4 88,0 84,0 Z m 2,8 h 72 c 1.177188,0 2,0.8228122 2,2 v 32 c 0,1.177188 -0.822812,2 -2,2 H 10 C 8.8228122,44 8,43.177188 8,42 V 10 C 8,8.8228122 8.8228122,8 10,8 Z"
       id="rect1032"
       sodipodi:nodetypes="ssssssssssssssssss" />
    <rect
       style="fill:#0078d7;stroke:#000000;stroke-width:0;stroke-linejoin:round;stroke-miterlimit:4;stroke-dasharray:none"
       id="rect1032-2-8"
       width="8"
       height="4"
       x="44"
       y="48"
       ry="1" />
    <path
       style="color:#000000;fill:#000000;stroke-linejoin:round;-inkscape-stroke:none"
       d="m 44,60 c -4,0 -8,4 -8,8 v 40 c 0,4 4,8 8,8 h 76 c 4,0 8,-4 8,-8 V 68 c 0,-4 -4,-8 -8,-8 z m 2,8 h 72 c 1.17719,0 2,0.822812 2,2 v 32 c 0,1.17719 -0.82281,2 -2,2 H 46 c -1.177188,0 -2,-0.82281 -2,-2 V 70 c 0,-1.177188 0.822812,-2 2,-2 z"
       id="rect1032-0"
       sodipodi:nodetypes="ssssssssssssssssss" />
    <rect
       style="fill:#0078d7;stroke:#000000;stroke-width:0;stroke-linejoin:round;stroke-miterlimit:4;stroke-dasharray:none"
       id="rect1032-2-8-7"
       width="8"
       height="4"
       x="80"
       y="108"
       ry="1" />
    <path
       style="fill:#0078d7;fill-opacity:1;stroke:#000000;stroke-width:4;stroke-linecap:butt;stroke-linejoin:round;stroke-miterlimit:4;stroke-dasharray:none;stroke-opacity:1"
       d="M 96,40 124,26 96,12 Z"
       id="path1093"
       sodipodi:nodetypes="cccc" />
    <path
       style="fill:#0078d7;fill-opacity:1;stroke:#000000;stroke-width:4;stroke-linecap:butt;stroke-linejoin:round;stroke-miterlimit:4;stroke-dasharray:none;stroke-opacity:1"
       d="M 32,100 4,86 32,72 Z"
       id="path1093-9"
       sodipodi:nodetypes="cccc" />
    <rect
       style="fill:#000000;stroke-width:1.38601;stroke-linecap:round;stroke-linejoin:round"
       id="rect1119"
       width="32"
       height="8"
       x="68"
       y="120"
       ry="1" />
  </g>
</svg>
