<?xml version="1.0" encoding="UTF-8" standalone="no"?>
<svg
   width="128"
   height="128"
   viewBox="0 0 128 128"
   fill="none"
   stroke="#000000"
   stroke-width="2"
   stroke-linecap="round"
   stroke-linejoin="round"
   version="1.1"
   id="svg6"
   sodipodi:docname="Options.svg"
   inkscape:version="1.2.2 (732a01da63, 2022-12-09)"
   xmlns:inkscape="http://www.inkscape.org/namespaces/inkscape"
   xmlns:sodipodi="http://sodipodi.sourceforge.net/DTD/sodipodi-0.dtd"
   xmlns="http://www.w3.org/2000/svg"
   xmlns:svg="http://www.w3.org/2000/svg"
   xmlns:rdf="http://www.w3.org/1999/02/22-rdf-syntax-ns#"
   xmlns:cc="http://creativecommons.org/ns#"
   xmlns:dc="http://purl.org/dc/elements/1.1/">
  <metadata
     id="metadata12">
    <rdf:RDF>
      <cc:Work
         rdf:about="">
        <dc:format>image/svg+xml</dc:format>
        <dc:type
           rdf:resource="http://purl.org/dc/dcmitype/StillImage" />
      </cc:Work>
    </rdf:RDF>
  </metadata>
  <defs
     id="defs10" />
  <sodipodi:namedview
     pagecolor="#a0a0a0"
     bordercolor="#666666"
     borderopacity="1"
     objecttolerance="10"
     gridtolerance="10"
     guidetolerance="10"
     inkscape:pageopacity="0"
     inkscape:pageshadow="2"
     inkscape:window-width="3840"
     inkscape:window-height="2054"
     id="namedview8"
     showgrid="true"
     inkscape:zoom="11.940779"
     inkscape:cx="63.396197"
     inkscape:cy="70.514661"
     inkscape:window-x="2869"
     inkscape:window-y="-11"
     inkscape:window-maximized="1"
     inkscape:current-layer="svg6"
     inkscape:showpageshadow="2"
     inkscape:pagecheckerboard="0"
     inkscape:deskcolor="#a0a0a0">
    <inkscape:grid
       type="xygrid"
       id="grid913" />
  </sodipodi:namedview>
  <g
     id="g10"
     transform="matrix(0.07248937,0,0,0.07248937,35.690502,-3.6340977)" />
  <g
     id="g12"
     transform="matrix(0.07248937,0,0,0.07248937,35.690502,-3.6340977)" />
  <g
     id="g14"
     transform="matrix(0.07248937,0,0,0.07248937,35.690502,-3.6340977)" />
  <g
     id="g16"
     transform="matrix(0.07248937,0,0,0.07248937,35.690502,-3.6340977)" />
  <g
     id="g18"
     transform="matrix(0.07248937,0,0,0.07248937,35.690502,-3.6340977)" />
  <g
     id="g20"
     transform="matrix(0.07248937,0,0,0.07248937,35.690502,-3.6340977)" />
  <g
     id="g22"
     transform="matrix(0.07248937,0,0,0.07248937,35.690502,-3.6340977)" />
  <g
     id="g24"
     transform="matrix(0.07248937,0,0,0.07248937,35.690502,-3.6340977)" />
  <g
     id="g26"
     transform="matrix(0.07248937,0,0,0.07248937,35.690502,-3.6340977)" />
  <g
     id="g28"
     transform="matrix(0.07248937,0,0,0.07248937,35.690502,-3.6340977)" />
  <g
     id="g30"
     transform="matrix(0.07248937,0,0,0.07248937,35.690502,-3.6340977)" />
  <g
     id="g32"
     transform="matrix(0.07248937,0,0,0.07248937,35.690502,-3.6340977)" />
  <g
     id="g34"
     transform="matrix(0.07248937,0,0,0.07248937,35.690502,-3.6340977)" />
  <g
     id="g36"
     transform="matrix(0.07248937,0,0,0.07248937,35.690502,-3.6340977)" />
  <g
     id="g38"
     transform="matrix(0.07248937,0,0,0.07248937,35.690502,-3.6340977)" />
  <g
     id="g955"
     transform="matrix(1.0315789,0,0,1,-2.0210496,7)"
     style="fill:#000000;fill-opacity:1;stroke:none">
    <rect
       style="fill:#000000;fill-opacity:1;stroke:none"
       id="rect915"
       width="95"
       height="20"
       x="16.5"
       y="17"
       rx="1"
       ry="1" />
    <rect
       style="fill:#000000;fill-opacity:1;stroke:none"
       id="rect915-8"
       width="95"
       height="20"
       x="16.5"
       y="47.5"
       rx="1"
       ry="1" />
    <rect
       style="fill:#000000;fill-opacity:1;stroke:none"
       id="rect915-7"
       width="95"
       height="20"
       x="16.5"
       y="78"
       rx="1"
       ry="1" />
  </g>
</svg>
