<?xml version="1.0" encoding="UTF-8" standalone="no"?>
<!-- Generator: Adobe Illustrator 19.0.0, SVG Export Plug-In . SVG Version: 6.00 Build 0)  -->

<svg
   version="1.1"
   id="Layer_1"
   x="0px"
   y="0px"
   viewBox="0 0 128 128"
   xml:space="preserve"
   sodipodi:docname="Undo.svg"
   width="128"
   height="128"
   inkscape:version="1.2.2 (732a01da63, 2022-12-09)"
   xmlns:inkscape="http://www.inkscape.org/namespaces/inkscape"
   xmlns:sodipodi="http://sodipodi.sourceforge.net/DTD/sodipodi-0.dtd"
   xmlns="http://www.w3.org/2000/svg"
   xmlns:svg="http://www.w3.org/2000/svg"
   xmlns:rdf="http://www.w3.org/1999/02/22-rdf-syntax-ns#"
   xmlns:cc="http://creativecommons.org/ns#"
   xmlns:dc="http://purl.org/dc/elements/1.1/"><metadata
     id="metadata39"><rdf:RDF><cc:Work
         rdf:about=""><dc:format>image/svg+xml</dc:format><dc:type
           rdf:resource="http://purl.org/dc/dcmitype/StillImage" /></cc:Work></rdf:RDF></metadata><defs
     id="defs37" /><sodipodi:namedview
     pagecolor="#ffffff"
     bordercolor="#666666"
     borderopacity="1"
     objecttolerance="10"
     gridtolerance="10"
     guidetolerance="10"
     inkscape:pageopacity="0"
     inkscape:pageshadow="2"
     inkscape:window-width="3840"
     inkscape:window-height="2071"
     id="namedview35"
     showgrid="false"
     fit-margin-top="0"
     fit-margin-left="0"
     fit-margin-right="0"
     fit-margin-bottom="0"
     inkscape:pagecheckerboard="true"
     inkscape:zoom="13.721432"
     inkscape:cx="33.779273"
     inkscape:cy="66.611123"
     inkscape:window-x="1341"
     inkscape:window-y="-9"
     inkscape:window-maximized="1"
     inkscape:current-layer="Layer_1"
     inkscape:showpageshadow="2"
     inkscape:deskcolor="#d1d1d1" /><g
     id="g4"
     transform="translate(1329.8174,509.75331)" /><g
     id="g6"
     transform="translate(1329.8174,509.75331)" /><g
     id="g8"
     transform="translate(1329.8174,509.75331)" /><g
     id="g10"
     transform="translate(1329.8174,509.75331)" /><g
     id="g12"
     transform="translate(1329.8174,509.75331)" /><g
     id="g14"
     transform="translate(1329.8174,509.75331)" /><g
     id="g16"
     transform="translate(1329.8174,509.75331)" /><g
     id="g18"
     transform="translate(1329.8174,509.75331)" /><g
     id="g20"
     transform="translate(1329.8174,509.75331)" /><g
     id="g22"
     transform="translate(1329.8174,509.75331)" /><g
     id="g24"
     transform="translate(1329.8174,509.75331)" /><g
     id="g26"
     transform="translate(1329.8174,509.75331)" /><g
     id="g28"
     transform="translate(1329.8174,509.75331)" /><g
     id="g30"
     transform="translate(1329.8174,509.75331)" /><g
     id="g32"
     transform="translate(1329.8174,509.75331)" /><path
     style="fill:#4654e4;fill-opacity:1;stroke:none;stroke-width:3.4939;stroke-miterlimit:4;stroke-dasharray:none;stroke-opacity:1"
     d="m 39.693001,42.285091 c -1.830833,-1.708877 -4.799969,-1.708877 -6.631328,0 -8.264398,7.713715 -12.815495,17.968818 -12.815495,28.876779 0,22.518124 19.62814,40.83813 43.754172,40.83813 24.125859,0 43.75347,-18.320006 43.75347,-40.83813 0,-14.181887 -7.786778,-26.69635 -19.577908,-34.020459 l 3.391096,-15.911019 c 0.369982,-1.736045 -0.417061,-3.509415 -1.993774,-4.492666 -1.577238,-0.983635 -3.633493,-0.983635 -5.210381,0 l -22.96778,14.324006 c -0.0016,9.41e-4 0,0.0019 0,0.0038 -0.106752,0.06662 -0.207569,0.139008 -0.306977,0.21264 -0.02101,0.01536 -0.04201,0.02822 -0.063,0.04358 -0.117255,0.09043 -0.229446,0.185664 -0.33673,0.28537 -0.03325,0.03053 -0.06125,0.0647 -0.0945,0.09638 -0.07175,0.07181 -0.145268,0.142848 -0.21247,0.219187 -0.02625,0.03034 -0.049,0.06336 -0.07526,0.09446 -0.06826,0.08141 -0.136512,0.1632 -0.197418,0.248813 -0.01747,0.0215 -0.02799,0.04493 -0.04376,0.06682 -0.06826,0.0983 -0.134764,0.197817 -0.193217,0.300749 0,0.01152 -0.01747,0.02419 -0.01926,0.0361 -0.06476,0.115008 -0.124263,0.231744 -0.178157,0.351936 0,0.0058 0,0.01152 0,0.01728 -0.05601,0.125952 -0.105005,0.254438 -0.148762,0.385688 0,0.01152 0,0.02419 -0.01747,0.03667 -0.04026,0.1248 -0.07352,0.251424 -0.10151,0.380237 -3.5e-4,0.0019 -10e-4,0.0038 -0.0016,0.0058 0,0.03994 -0.01747,0.08045 -0.01926,0.120768 -0.01926,0.09965 -0.03675,0.199315 -0.04725,0.299059 -0.01747,0.126912 -0.01926,0.255571 -0.02101,0.385498 -5.24e-4,0.01536 0,0.03206 0,0.04877 0,5.76e-4 0,9.4e-4 0,0.0011 3.49e-4,0.147072 0,0.292685 0.02275,0.436128 0.01747,0.08909 0.02625,0.176832 0.04201,0.264557 0.01747,0.05242 0.01747,0.106176 0.02625,0.158016 0.0245,0.11232 0.05601,0.222951 0.08926,0.333197 0,0.0263 0.01747,0.05395 0.02275,0.07987 0.0385,0.115392 0.08225,0.229114 0.13127,0.341434 0,0.01997 0.01747,0.04147 0.0245,0.06125 0.05075,0.112704 0.106752,0.22295 0.168019,0.331699 0.01747,0.0192 0.01926,0.03821 0.02976,0.05664 0.06302,0.11136 0.134765,0.219744 0.209493,0.326246 0.01747,0.01344 0.01747,0.02784 0.02625,0.04109 v 0.0058 l 0.01747,0.01728 15.330289,21.414316 c 0.880677,1.230374 2.35238,1.945114 3.898289,1.945114 0.303477,0 0.61028,-0.02784 0.915506,-0.08429 1.860063,-0.345389 3.314264,-1.702503 3.684071,-3.438739 l 2.204494,-10.344538 c 7.471401,5.890291 12.225342,14.693395 12.225342,24.515174 0,17.691705 -15.420771,32.085099 -34.375452,32.085099 -18.955032,0 -34.376154,-14.393394 -34.376154,-32.085099 0,-8.570035 3.575738,-16.627257 10.068805,-22.687238 1.831185,-1.709817 1.831185,-4.480876 -1.74e-4,-6.190291 z"
     id="path2"
     inkscape:connector-curvature="0" /></svg>
