<?xml version="1.0" encoding="UTF-8" standalone="no"?>
<!-- Created with Inkscape (http://www.inkscape.org/) -->

<svg
   xmlns:dc="http://purl.org/dc/elements/1.1/"
   xmlns:cc="http://creativecommons.org/ns#"
   xmlns:rdf="http://www.w3.org/1999/02/22-rdf-syntax-ns#"
   xmlns:svg="http://www.w3.org/2000/svg"
   xmlns="http://www.w3.org/2000/svg"
   xmlns:sodipodi="http://sodipodi.sourceforge.net/DTD/sodipodi-0.dtd"
   xmlns:inkscape="http://www.inkscape.org/namespaces/inkscape"
   width="708"
   height="413"
   id="svg2"
   version="1.1"
   inkscape:version="0.47 r22583"
   style="display:inline"
   sodipodi:docname="New document 1">
  <defs
     id="defs4">
    <inkscape:perspective
       sodipodi:type="inkscape:persp3d"
       inkscape:vp_x="0 : 526.18109 : 1"
       inkscape:vp_y="0 : 1000 : 0"
       inkscape:vp_z="744.09448 : 526.18109 : 1"
       inkscape:persp3d-origin="372.04724 : 350.78739 : 1"
       id="perspective10" />
    <inkscape:perspective
       id="perspective2824"
       inkscape:persp3d-origin="0.5 : 0.33333333 : 1"
       inkscape:vp_z="1 : 0.5 : 1"
       inkscape:vp_y="0 : 1000 : 0"
       inkscape:vp_x="0 : 0.5 : 1"
       sodipodi:type="inkscape:persp3d" />
    <inkscape:perspective
       id="perspective3615"
       inkscape:persp3d-origin="0.5 : 0.33333333 : 1"
       inkscape:vp_z="1 : 0.5 : 1"
       inkscape:vp_y="0 : 1000 : 0"
       inkscape:vp_x="0 : 0.5 : 1"
       sodipodi:type="inkscape:persp3d" />
    <inkscape:perspective
       id="perspective3645"
       inkscape:persp3d-origin="0.5 : 0.33333333 : 1"
       inkscape:vp_z="1 : 0.5 : 1"
       inkscape:vp_y="0 : 1000 : 0"
       inkscape:vp_x="0 : 0.5 : 1"
       sodipodi:type="inkscape:persp3d" />
    <inkscape:perspective
       id="perspective3677"
       inkscape:persp3d-origin="0.5 : 0.33333333 : 1"
       inkscape:vp_z="1 : 0.5 : 1"
       inkscape:vp_y="0 : 1000 : 0"
       inkscape:vp_x="0 : 0.5 : 1"
       sodipodi:type="inkscape:persp3d" />
  </defs>
  <sodipodi:namedview
     id="base"
     pagecolor="#ffffff"
     bordercolor="#666666"
     borderopacity="1.0"
     inkscape:pageopacity="0.0"
     inkscape:pageshadow="2"
     inkscape:zoom="0.7"
     inkscape:cx="586.97823"
     inkscape:cy="84.116884"
     inkscape:document-units="px"
     inkscape:current-layer="layer2"
     showgrid="false"
     inkscape:window-width="1440"
     inkscape:window-height="838"
     inkscape:window-x="-8"
     inkscape:window-y="-8"
     inkscape:window-maximized="1" />
  <metadata
     id="metadata7">
    <rdf:RDF>
      <cc:Work
         rdf:about="">
        <dc:format>image/svg+xml</dc:format>
        <dc:type
           rdf:resource="http://purl.org/dc/dcmitype/StillImage" />
        <dc:title></dc:title>
      </cc:Work>
    </rdf:RDF>
  </metadata>
  <g
     inkscape:groupmode="layer"
     id="layer2"
     inkscape:label="Layer"
     style="display:inline">
    <rect
       style="fill:#000000;fill-opacity:1;stroke:none;display:inline"
       id="rect2831"
       width="221.77519"
       height="413"
       x="0"
       y="0" />
    <rect
       style="fill:#000000;fill-opacity:1;stroke:none"
       id="rect3659"
       width="270.72089"
       height="406.08133"
       x="245.46707"
       y="2.8780665" />
    <path
       sodipodi:type="arc"
       style="fill:#000000;fill-opacity:1;stroke:none"
       id="path3661"
       sodipodi:cx="496.48999"
       sodipodi:cy="199.85782"
       sodipodi:rx="186.37314"
       sodipodi:ry="188.89853"
       d="m 682.86313,199.85782 a 186.37314,188.89853 0 1 1 -372.74628,0 186.37314,188.89853 0 1 1 372.74628,0 z"
       transform="matrix(1.0650407,0,0,1.0748663,-20.170202,-8.901702)" />
  </g>
  <g
     inkscape:groupmode="layer"
     id="layer3"
     inkscape:label="Layer#1"
     style="display:inline">
    <path
       style="fill:#ffffff;fill-opacity:1;stroke:none"
       d="m 29.795501,134.20312 62.625,0 0,61.625 38.374999,0 0,-61.625 60.625,0 0,-38.406245 -60.625,0 0,-63.625 -38.374999,0 0,63.625 -62.625,0 0,38.406245 z"
       id="rect3630" />
    <path
       style="fill:#ffffff;fill-opacity:1;stroke:none"
       d="m 29.795496,321.07619 62.625,0 0,61.625 38.375004,0 0,-61.625 60.625,0 0,-38.40624 -60.625,0 0,-63.625 -38.375004,0 0,63.625 -62.625,0 0,38.40624 z"
       id="rect3630-1" />
    <path
       style="fill:#ffffff;fill-opacity:1;stroke:none"
       d="m 328.3125,83.6875 0,325.28125 60.59375,0 0,-82.84375 95,0.25 16.125,0.28125 C 657.79366,313.08693 640.6892,94.944643 504.0625,83.78125 l 0,-0.09375 -1.15625,0 -114,0 -1,0 -59.59375,0 z m 60.59375,48.5 98,0 c 95.43046,10.64665 90.1644,140.94792 -1.3125,144.78125 l -2.15625,-0.0625 -94.53125,0.71875 0,-145.4375 z"
       id="rect3663" />
  </g>
</svg>
