<?xml version="1.0" encoding="UTF-8" standalone="no"?>
<!-- Created with Inkscape (http://www.inkscape.org/) -->
<svg
   xmlns:dc="http://purl.org/dc/elements/1.1/"
   xmlns:cc="http://web.resource.org/cc/"
   xmlns:rdf="http://www.w3.org/1999/02/22-rdf-syntax-ns#"
   xmlns:svg="http://www.w3.org/2000/svg"
   xmlns="http://www.w3.org/2000/svg"
   xmlns:sodipodi="http://sodipodi.sourceforge.net/DTD/sodipodi-0.dtd"
   xmlns:inkscape="http://www.inkscape.org/namespaces/inkscape"
   version="1.0"
   width="559.77167"
   height="382.97147"
   id="svg25611"
   sodipodi:version="0.32"
   inkscape:version="0.44"
   sodipodi:docname="DVI-Logo.svg"
   sodipodi:docbase="C:\Dokumente und Einstellungen\Andreas\Eigene Dateien\Eigene Bilder\sonstiges\Logos\Vektor\Computer, Electronics">
  <metadata
     id="metadata26317">
    <rdf:RDF>
      <cc:Work
         rdf:about="">
        <dc:format>image/svg+xml</dc:format>
        <dc:type
           rdf:resource="http://purl.org/dc/dcmitype/StillImage" />
      </cc:Work>
    </rdf:RDF>
  </metadata>
  <sodipodi:namedview
     inkscape:window-height="574"
     inkscape:window-width="904"
     inkscape:pageshadow="2"
     inkscape:pageopacity="0.0"
     guidetolerance="10.0"
     gridtolerance="10.0"
     objecttolerance="10.0"
     borderopacity="1.0"
     bordercolor="#666666"
     pagecolor="#ffffff"
     id="base"
     inkscape:zoom="0.98440754"
     inkscape:cx="279.88583"
     inkscape:cy="191.48573"
     inkscape:window-x="138"
     inkscape:window-y="138"
     inkscape:current-layer="svg25611" />
  <defs
     id="defs25613" />
  <g
     id="g26378">
    <path
       id="path25256"
       style="fill:black;fill-rule:nonzero;stroke:none"
       d="M 3.542,-2e-005 L 212.62649,-2e-005 L 212.62649,382.97146 L 3.542,382.97146 L 3.542,-2e-005 z " />
    <path
       id="path25258"
       style="fill:white;fill-rule:nonzero;stroke:none"
       d="M 68.78707,334.34564 C 64.04774,334.34564 61.12513,330.9491 61.12513,326.20974 C 61.12513,321.4783 64.04774,318.07387 68.78707,318.07387 C 73.526432,318.07387 76.449042,321.4783 76.449042,326.20974 C 76.449042,330.9491 73.526432,334.34564 68.78707,334.34564 z M 80.951438,300.62513 L 76.449042,300.62513 L 76.449042,317.87639 L 76.370044,317.87639 C 74.790285,315.46722 71.63068,313.93483 68.23414,313.93483 C 61.04613,313.93483 56.38579,319.2113 56.38579,326.20974 C 56.38579,333.11342 60.96713,338.48468 68.23414,338.48468 C 71.39375,338.48468 74.632289,337.05497 76.370044,334.54313 L 76.449042,334.54313 L 76.449042,337.89227 L 80.951438,337.89227 L 80.951438,300.62513" />
    <path
       id="path25260"
       style="fill:white;fill-rule:nonzero;stroke:none"
       d="M 87.981455,314.52725 L 92.404882,314.52725 L 92.404882,337.90015 L 87.981455,337.90015 L 87.981455,314.52725 z M 90.193197,302.89212 C 91.930923,302.89212 93.431741,304.36923 93.431741,306.14647 C 93.431741,307.92373 91.930923,309.40084 90.193197,309.40084 C 88.376388,309.40084 86.954596,307.92373 86.954596,306.14647 C 86.954596,304.36923 88.376388,302.89212 90.193197,302.89212" />
    <path
       id="path25262"
       style="fill:white;fill-rule:nonzero;stroke:none"
       d="M 110.73038,318.07387 C 115.46974,318.07387 118.47132,321.4783 118.47132,326.20974 C 118.47132,330.9491 115.46974,334.0534 110.73038,334.0534 C 105.99104,334.0534 103.06843,330.9491 103.06843,326.20974 C 103.06843,321.4783 105.99104,318.07387 110.73038,318.07387 z M 122.89474,314.52725 L 118.47132,314.52725 L 118.47132,317.87639 L 118.31332,317.87639 C 116.65459,315.36454 113.33705,313.93483 110.17745,313.93483 C 102.98943,313.93483 98.32907,319.30609 98.32907,326.20974 C 98.250072,333.01862 103.38437,338.19243 110.17745,338.19243 C 113.41599,338.19243 116.65459,336.85749 118.31332,334.0534 L 118.47132,334.0534 L 118.47132,337.50522 C 118.47132,341.44677 116.65459,345.58581 110.01951,345.58581 C 106.62297,345.58581 104.01629,344.25879 101.64661,341.79434 L 98.645005,345.53841 C 101.96255,348.5953 105.67511,349.72484 110.09845,349.72484 C 117.76039,349.72484 122.89474,344.74852 122.89474,337.69479 L 122.89474,314.52725" />
    <path
       id="path25264"
       style="fill:white;fill-rule:nonzero;stroke:none"
       d="M 129.92476,314.52725 L 134.34816,314.52725 L 134.34816,337.90015 L 129.92476,337.90015 L 129.92476,314.52725 z M 132.1365,302.89212 C 133.95322,302.89212 135.37505,304.36923 135.37505,306.14647 C 135.37505,307.92373 133.95322,309.40084 132.1365,309.40084 C 130.39869,309.40084 128.8979,307.92373 128.8979,306.14647 C 128.8979,304.36923 130.39869,302.89212 132.1365,302.89212" />
    <path
       id="path25266"
       style="fill:white;fill-rule:nonzero;stroke:none"
       d="M 153.93748,318.374 L 147.53938,318.374 L 147.53938,328.97438 C 147.53938,331.58892 147.53938,334.34564 150.93592,334.34564 C 151.96273,334.34564 153.22661,334.19556 154.09547,333.65843 L 154.09547,337.69479 C 153.06861,338.2872 150.93592,338.48468 150.067,338.48468 C 143.19498,338.48468 143.11599,334.29825 143.11599,330.54626 L 143.11599,318.374 L 137.98163,318.374 L 137.98163,314.52725 L 143.11599,314.52725 L 143.11599,307.97113 L 147.53938,307.97113 L 147.53938,314.52725 L 153.93748,314.52725 L 153.93748,318.374" />
    <path
       id="path25268"
       style="fill:white;fill-rule:nonzero;stroke:none"
       d="M 174.63265,326.6521 L 174.63265,328.13709 C 174.63265,331.28875 172.89492,334.93806 167.99756,334.93806 C 164.91704,334.93806 162.9423,333.80063 162.9423,331.13867 C 162.9423,327.3946 168.07656,326.6521 172.263,326.6521 L 174.63265,326.6521 z M 162.38937,320.15127 C 164.0481,318.91905 165.62791,317.48143 169.10345,317.48143 C 172.89492,317.48143 174.63265,320.00119 174.63265,322.41827 L 174.63265,323.40564 L 171.3941,323.40564 C 164.28509,323.40564 158.5189,325.47516 158.5189,331.48623 C 158.5189,336.0202 162.31037,338.48468 166.57577,338.48468 C 170.13031,338.48468 172.81592,337.35514 174.79064,334.34564 L 174.86964,334.34564 C 174.86964,335.53047 174.94867,336.71533 175.02767,337.89227 L 178.97708,337.89227 C 178.81914,336.66004 178.81914,335.28562 178.81914,333.65843 L 178.81914,321.72317 C 178.81914,317.67891 175.89653,313.93483 169.02445,313.93483 C 165.78591,313.93483 162.23137,315.07226 159.78269,317.38666 L 162.38937,320.15127" />
    <path
       id="path25270"
       style="fill:white;fill-rule:nonzero;stroke:none"
       d="M 185.61222,300.62513 L 190.03556,300.62513 L 190.03556,337.90015 L 185.61222,337.90015 L 185.61222,300.62513 z " />
    <path
       id="path25272"
       style="fill:black;fill-rule:nonzero;stroke:none"
       d="M 225.42278,314.48774 L 230.55704,314.48774 L 237.58712,332.3867 L 244.3012,314.48774 L 249.04056,314.48774 L 239.8778,337.85275 L 234.98047,337.85275 L 225.42278,314.48774" />
    <path
       id="path25274"
       style="fill:black;fill-rule:nonzero;stroke:none"
       d="M 253.22697,314.48774 L 257.72936,314.48774 L 257.72936,337.86067 L 253.22697,337.86067 L 253.22697,314.48774 z M 255.43871,302.85264 C 257.25543,302.85264 258.75625,304.32974 258.75625,306.10698 C 258.75625,307.88425 257.25543,309.36135 255.43871,309.36135 C 253.7009,309.36135 252.20011,307.88425 252.20011,306.10698 C 252.20011,304.32974 253.7009,302.85264 255.43871,302.85264" />
    <path
       id="path25276"
       style="fill:black;fill-rule:nonzero;stroke:none"
       d="M 277.16069,320.35664 C 276.13388,319.06913 274.63309,318.03436 272.34235,318.03436 C 270.28866,318.03436 268.47194,318.97433 268.47194,320.64892 C 268.47194,323.46093 272.50035,323.85586 274.47507,324.29822 C 278.26657,325.2382 281.26818,326.71527 281.26818,331.09919 C 281.26818,336.37568 276.44982,338.44519 271.78948,338.44519 C 267.91901,338.44519 265.0754,337.46571 262.78466,334.30616 L 266.1022,331.54152 C 267.52399,332.97914 269.2618,334.30616 271.78948,334.30616 C 274.08014,334.30616 276.52882,333.36618 276.52882,331.34404 C 276.52882,328.68211 272.81634,328.19238 270.92053,327.75005 C 267.12906,326.81007 263.73252,325.57785 263.73252,321.09125 C 263.73252,316.20972 268.23495,313.89532 272.65835,313.89532 C 275.73889,313.89532 278.97749,314.97749 280.63622,317.74211 L 277.16069,320.35664" />
    <path
       id="path25278"
       style="fill:black;fill-rule:nonzero;stroke:none"
       d="M 307.33461,337.85275 L 302.91121,337.85275 L 302.91121,334.25876 L 302.83221,334.25876 C 301.64742,336.72321 298.72481,338.44519 295.09127,338.44519 C 290.58891,338.44519 286.63944,335.73587 286.63944,329.52731 L 286.63944,314.48774 L 291.06286,314.48774 L 291.06286,328.29506 C 291.06286,332.67897 293.59046,334.30616 296.35513,334.30616 C 300.0676,334.30616 302.91121,331.93648 302.91121,326.51782 L 302.91121,314.48774 L 307.33461,314.48774 L 307.33461,337.85275" />
    <path
       id="path25280"
       style="fill:black;fill-rule:nonzero;stroke:none"
       d="M 329.05667,326.61259 L 329.05667,328.09758 C 329.05667,331.24927 327.31886,334.89857 322.34259,334.89857 C 319.34098,334.89857 317.36623,333.76112 317.36623,331.09919 C 317.36623,327.35508 322.50053,326.61259 326.68699,326.61259 L 329.05667,326.61259 z M 316.81331,320.11179 C 318.47212,318.87165 320.05185,317.44194 323.44839,317.44194 C 327.23992,317.44194 329.05667,319.96171 329.05667,322.37087 L 329.05667,323.36613 L 325.73913,323.36613 C 318.70906,323.36613 312.86384,325.43565 312.86384,331.44675 C 312.86384,335.98072 316.65531,338.44519 320.99971,338.44519 C 324.55428,338.44519 327.23992,337.31562 329.13567,334.30616 L 329.29361,334.30616 C 329.29361,335.49099 329.29361,336.67581 329.4516,337.85275 L 333.40107,337.85275 C 333.24308,336.62053 333.16408,335.24611 333.16408,333.61895 L 333.16408,321.68366 C 333.16408,317.63942 330.32047,313.89532 323.44839,313.89532 C 320.13085,313.89532 316.57637,315.03278 314.12769,317.34715 L 316.81331,320.11179" />
    <path
       id="path25282"
       style="fill:black;fill-rule:nonzero;stroke:none"
       d="M 339.95716,300.58564 L 344.38059,300.58564 L 344.38059,337.86067 L 339.95716,337.86067 L 339.95716,300.58564 z " />
    <path
       id="path25284"
       style="fill:black;fill-rule:nonzero;stroke:none"
       d="M 372.57971,315.15915 L 375.50232,315.15915 L 375.50232,337.93967 L 372.57971,337.93967 L 372.57971,315.15915 z M 374.0015,303.91898 C 375.26538,303.91898 376.21324,304.90636 376.21324,306.13858 C 376.21324,307.37081 375.26538,308.35818 374.0015,308.35818 C 372.8167,308.35818 371.78984,307.37081 371.78984,306.13858 C 371.78984,304.90636 372.8167,303.91898 374.0015,303.91898" />
    <path
       id="path25286"
       style="fill:black;fill-rule:nonzero;stroke:none"
       d="M 383.87518,321.57309 C 383.87518,319.89062 383.63819,316.344 383.63819,315.15915 L 386.6398,315.15915 C 386.6398,316.83373 386.71879,318.71368 386.79779,319.15601 L 386.95579,319.15601 C 388.14061,316.63625 391.06322,314.56673 394.6967,314.56673 C 401.80577,314.56673 403.3855,319.40086 403.3855,324.37719 L 403.3855,337.93967 L 400.46289,337.93967 L 400.46289,324.52727 C 400.46289,320.83057 399.43609,317.22866 394.6967,317.22866 C 390.35227,317.22866 386.87679,320.28555 386.87679,326.54942 L 386.87679,337.93967 L 383.87518,337.93967 L 383.87518,321.57309" />
    <path
       id="path25288"
       style="fill:black;fill-rule:nonzero;stroke:none"
       d="M 422.42195,317.8211 L 415.9448,317.8211 L 415.9448,332.66317 C 415.9448,334.68529 417.12966,335.87015 419.10441,335.87015 C 420.21021,335.87015 421.39509,335.52259 422.42195,335.08025 L 422.65888,337.74218 C 421.63208,338.13712 419.97327,338.53208 418.86741,338.53208 C 414.60201,338.53208 412.94325,335.91752 412.94325,332.66317 L 412.94325,317.8211 L 408.04592,317.8211 L 408.04592,315.15915 L 412.94325,315.15915 L 412.94325,308.60306 L 415.9448,308.60306 L 415.9448,315.15915 L 422.42195,315.15915 L 422.42195,317.8211" />
    <path
       id="path25290"
       style="fill:black;fill-rule:nonzero;stroke:none"
       d="M 429.37297,324.62207 C 429.37297,323.44513 431.18978,317.22866 437.66686,317.22866 C 442.09026,317.22866 445.5658,320.58572 445.5658,324.62207 L 429.37297,324.62207 z M 445.6448,331.82588 C 444.22301,334.29036 441.0634,335.87015 438.0618,335.87015 C 431.11078,335.87015 429.37297,329.75636 429.37297,327.284 L 448.48841,327.284 L 448.48841,325.21448 C 448.48841,319.94591 444.85488,314.56673 437.82486,314.56673 C 431.18978,314.56673 426.45041,319.69314 426.45041,326.50202 C 426.45041,333.54784 431.03178,338.53208 437.98286,338.53208 C 442.01126,338.53208 445.4868,337.10237 447.85648,333.65055 L 445.6448,331.82588" />
    <path
       id="path25292"
       style="fill:black;fill-rule:nonzero;stroke:none"
       d="M 455.12349,321.57309 C 455.12349,319.89062 454.8865,316.344 454.8865,315.15915 L 457.80911,315.15915 C 457.88811,316.83373 457.96711,318.71368 458.0461,319.15601 C 459.54689,316.49408 461.91657,314.56673 465.31311,314.56673 C 465.86604,314.56673 466.41897,314.66942 467.05084,314.81161 L 466.65591,317.72631 C 466.18198,317.57623 465.86604,317.52883 465.55005,317.52883 C 460.41576,317.52883 458.1251,321.07545 458.1251,325.51465 L 458.1251,337.93967 L 455.12349,337.93967 L 455.12349,321.57309" />
    <path
       id="path25294"
       style="fill:black;fill-rule:nonzero;stroke:none"
       d="M 473.21199,317.8211 L 468.47266,317.8211 L 468.47266,315.15915 L 473.21199,315.15915 L 473.21199,307.71837 C 473.21199,301.84947 477.08246,300.0722 480.00507,300.0722 C 481.42689,300.0722 482.53275,300.26968 483.40161,300.66464 L 482.84868,303.23177 C 482.13782,302.88424 481.26895,302.73416 480.16307,302.73416 C 477.47748,302.73416 476.2136,304.70888 476.2136,308.80051 L 476.2136,315.15915 L 481.50589,315.15915 L 481.50589,317.8211 L 476.2136,317.8211 L 476.2136,337.93967 L 473.21199,337.93967 L 473.21199,317.8211" />
    <path
       id="path25296"
       style="fill:black;fill-rule:nonzero;stroke:none"
       d="M 501.17421,326.50202 L 501.17421,328.0265 C 501.17421,331.82588 499.59445,335.87015 493.2753,335.87015 C 490.74765,335.87015 488.06203,334.44044 488.06203,331.6284 C 488.06203,327.73425 492.95931,326.50202 497.93566,326.50202 L 501.17421,326.50202 z M 503.85988,322.79743 C 503.85988,317.03121 500.30531,314.56673 494.77611,314.56673 C 491.85351,314.56673 488.29897,315.70419 486.08728,317.77371 L 487.82504,319.79582 C 489.87876,318.06596 492.09044,317.22866 494.77611,317.22866 C 498.40959,317.22866 501.17421,318.80845 501.17421,322.75003 L 501.17421,324.13234 L 497.69872,324.13234 C 493.2753,324.13234 485.13942,324.82744 485.13942,331.77848 C 485.13942,336.60473 489.24683,338.53208 493.1173,338.53208 C 496.98777,338.53208 499.43645,337.14977 501.17421,334.24296 L 501.2532,334.24296 C 501.2532,335.52259 501.3322,336.80221 501.4902,337.93967 L 504.25481,337.93967 C 503.93888,335.3251 503.85988,332.81326 503.85988,328.37406 L 503.85988,322.79743" />
    <path
       id="path25298"
       style="fill:black;fill-rule:nonzero;stroke:none"
       d="M 530.7952,334.58261 C 528.58346,337.24454 525.66091,338.53208 522.42231,338.53208 C 515.47129,338.53208 510.41594,333.50047 510.41594,326.54942 C 510.41594,319.59834 515.47129,314.56673 522.42231,314.56673 C 525.73985,314.56673 528.66246,315.99644 530.8742,318.5162 L 528.50452,320.28555 C 526.84571,318.41352 524.79199,317.22866 522.42231,317.22866 C 516.89311,317.22866 513.41754,321.42301 513.41754,326.54942 C 513.41754,331.6758 516.89311,335.87015 522.42231,335.87015 C 524.87099,335.87015 527.00373,334.58261 528.50452,332.71057 L 530.7952,334.58261" />
    <path
       id="path25300"
       style="fill:black;fill-rule:nonzero;stroke:none"
       d="M 537.11435,324.62207 C 537.11435,323.44513 538.93108,317.22866 545.40822,317.22866 C 549.75262,317.22866 553.3071,320.58572 553.3071,324.62207 L 537.11435,324.62207 z M 553.3861,331.82588 C 551.88531,334.29036 548.72576,335.87015 545.72416,335.87015 C 538.85208,335.87015 537.11435,329.75636 537.11435,327.284 L 556.22971,327.284 L 556.22971,325.21448 C 556.22971,319.94591 552.59623,314.56673 545.56616,314.56673 C 538.85208,314.56673 534.19174,319.69314 534.19174,326.50202 C 534.19174,333.54784 538.77308,338.53208 545.72416,338.53208 C 549.75262,338.53208 553.2281,337.10237 555.51884,333.65055 L 553.3861,331.82588" />
    <path
       id="path25302"
       style="fill:white;fill-rule:nonzero;stroke:none"
       d="M 43.5895,210.56159 C 43.5895,178.20761 64.60067,153.247 98.171074,153.247 C 131.42555,153.247 155.75428,178.20761 155.75428,210.56159 C 155.75428,242.92349 131.42555,267.8841 98.171074,267.8841 C 64.60067,267.8841 43.5895,242.92349 43.5895,210.56159 z M 175.18558,49.71579 L 154.88534,49.71579 L 154.88534,162.49665 L 154.25347,162.49665 C 140.98324,143.0811 117.28646,134.76352 98.171074,134.76352 C 53.14725,134.76352 21.39357,167.1175 21.39357,210.56159 C 21.39357,254.01357 53.14725,286.36758 98.171074,286.36758 C 117.28646,286.36758 140.98324,278.05 154.25347,258.63445 L 154.88534,258.63445 L 154.88534,282.67088 L 175.18558,282.67088 L 175.18558,49.71579" />
    <path
       id="path25304"
       style="fill:black;fill-rule:nonzero;stroke:none"
       d="M 306.07076,283.92682 L 283.2429,283.92682 L 224.71183,139.72404 L 249.04056,139.72404 L 295.01228,261.1305 L 295.5652,261.1305 L 341.53697,139.72404 L 364.60183,139.72404 L 306.07076,283.92682" />
    <path
       id="path25306"
       style="fill:black;fill-rule:nonzero;stroke:none"
       d="M 395.72356,139.72404 L 416.0238,139.72404 L 416.0238,283.92682 L 395.72356,283.92682 L 395.72356,139.72404 z M 405.91318,99.04459 C 398.48823,99.04459 391.14222,92.88341 391.14222,84.25781 C 391.14222,75.62426 398.48823,69.46311 405.91318,69.46311 C 413.33818,69.46311 420.68414,75.62426 420.68414,84.25781 C 420.68414,92.88341 413.33818,99.04459 405.91318,99.04459" />
    <path
       id="path25308"
       style="fill:black;fill-rule:nonzero;stroke:none"
       d="M 445.96073,82.42525 C 445.96073,104.31317 428.26717,122.04625 406.38711,122.04625 C 384.50714,122.04625 366.73454,104.31317 366.73454,82.42525 C 366.73454,60.54522 384.50714,42.81215 406.38711,42.81215 C 428.26717,42.81215 445.96073,60.54522 445.96073,82.42525" />
    <path
       id="path25310"
       style="fill:white;fill-rule:nonzero;stroke:none"
       d="M 415.23394,84.65274 C 415.23394,89.92923 410.81054,94.21043 405.28125,94.21043 C 399.75203,94.21043 395.24963,89.92923 395.24963,84.65274 C 395.24963,79.36836 399.75203,75.07925 405.28125,75.07925 C 410.81054,75.07925 415.23394,79.36836 415.23394,84.65274" />
    <path
       id="path25312"
       style="fill:red;fill-rule:nonzero;stroke:none"
       d="M 249.75143,79.005 C 290.82584,51.99068 347.93512,50.67945 394.8547,57.8517 C 422.10601,62.01442 484.3495,78.4363 470.6054,117.91513 C 472.81706,111.54858 483.32261,107.44114 485.69235,100.4743 C 500.38434,58.63368 431.90064,43.75212 404.25445,39.5262 C 358.9936,32.61464 303.38514,36.14543 264.12751,61.98284 C 258.51926,65.71112 253.7009,76.38258 249.75143,79.005" />
  </g>
</svg>
