<?xml version="1.0" encoding="UTF-8" standalone="no"?>
<!-- Created with Inkscape (http://www.inkscape.org/) -->
<svg
   xmlns:svg="http://www.w3.org/2000/svg"
   xmlns="http://www.w3.org/2000/svg"
   version="1.0"
   width="1133.8583"
   height="226.41731"
   id="svg10140">
  <defs
     id="defs10142" />
  <g
     transform="translate(-1027.2545,-6165.6178)"
     id="layer1">
    <g
       transform="matrix(1.6151785,0,0,1.6151785,-587.92098,-3847.6616)"
       id="g161995">
      <path
         d="M 1680.0624,6302.6515 L 1680.0624,6314.4996 L 1678.0751,6314.4996 L 1678.0751,6305.3681 L 1677.9494,6305.3681 L 1674.654,6314.4996 L 1672.9434,6314.4996 L 1669.6734,6305.3681 L 1669.6734,6314.4996 L 1667.6608,6314.4996 L 1667.6608,6302.6515 L 1670.6545,6302.6515 L 1673.9498,6311.9337 L 1677.0688,6302.6515 L 1680.0624,6302.6515"
         id="path151697"
         style="fill:#005e9d;fill-rule:nonzero;stroke:none" />
      <path
         d="M 1666.3782,6302.6515 L 1666.3782,6304.3621 L 1662.5294,6304.3621 L 1662.5294,6314.4996 L 1660.5421,6314.4996 L 1660.5421,6304.3621 L 1656.6933,6304.3621 L 1656.6933,6302.6515 L 1666.3782,6302.6515"
         id="path151699"
         style="fill:#005e9d;fill-rule:nonzero;stroke:none" />
      <path
         d="M 1616.6218,6284.9676 C 1619.6151,6275.2829 1619.6151,6269.573 1616.7476,6265.8499 C 1614.6094,6263.284 1611.4901,6262.0014 1606.7611,6262.0014 C 1596.2213,6262.0014 1590.3852,6267.9881 1585.6812,6282.9805 C 1582.6627,6292.816 1582.6627,6298.526 1585.5304,6302.2239 C 1587.5176,6304.6638 1590.813,6305.9467 1595.5169,6305.9467 C 1605.9058,6305.9467 1611.9179,6300.0859 1616.6218,6284.9676 z M 1657.8254,6263.284 C 1661.9507,6268.4408 1662.8311,6274.9813 1660.3912,6282.9805 C 1653.5491,6305.0916 1627.7402,6317.7694 1589.5048,6317.7694 C 1566.6893,6317.7694 1551.1689,6313.3423 1544.3015,6304.7896 C 1540.176,6299.6581 1539.4716,6292.9669 1541.8867,6284.9676 C 1548.7288,6262.8566 1574.5377,6250.1785 1612.773,6250.1785 C 1635.4375,6250.1785 1651.1341,6254.7315 1657.8254,6263.284"
         id="path151701"
         style="fill:#005e9d;fill-rule:nonzero;stroke:none" />
      <path
         d="M 1515.2225,6252.3165 C 1516.5055,6252.3165 1551.7221,6252.3165 1555.7217,6252.3165 C 1553.2819,6255.5868 1509.2356,6314.7761 1508.5062,6315.7825 C 1507.2233,6315.7825 1448.3358,6315.7825 1446.3485,6315.7825 C 1446.0466,6313.921 1438.6259,6254.6058 1438.3492,6252.3165 C 1440.764,6252.3165 1474.5722,6252.3165 1476.4337,6252.3165 C 1476.7104,6254.178 1481.9929,6296.8156 1481.9929,6296.8156 C 1481.9929,6296.8156 1514.6439,6253.172 1515.2225,6252.3165"
         id="path151703"
         style="fill:#005e9d;fill-rule:nonzero;stroke:none" />
      <path
         d="M 1389.5739,6284.9676 C 1392.5674,6275.2829 1392.7183,6269.573 1389.725,6265.8499 C 1387.7126,6263.284 1384.4424,6262.0014 1379.8893,6262.0014 C 1369.3244,6262.0014 1363.3375,6267.9881 1358.7843,6282.9805 C 1355.6401,6292.816 1355.6401,6298.526 1358.6335,6302.2239 C 1360.6207,6304.6638 1363.916,6305.9467 1368.469,6305.9467 C 1379.0341,6305.9467 1385.0211,6300.0859 1389.5739,6284.9676 z M 1430.9286,6263.284 C 1435.079,6268.4408 1435.9345,6274.9813 1433.3686,6282.9805 C 1426.5265,6305.0916 1400.6925,6317.7694 1362.6331,6317.7694 C 1339.8178,6317.7694 1324.2721,6313.3423 1317.4045,6304.7896 C 1313.2792,6299.6581 1312.4239,6292.9669 1314.839,6284.9676 C 1321.8319,6262.8566 1347.6409,6250.1785 1385.7253,6250.1785 C 1408.5407,6250.1785 1424.0864,6254.7315 1430.9286,6263.284"
         id="path151705"
         style="fill:#005e9d;fill-rule:nonzero;stroke:none" />
      <path
         d="M 1311.7194,6260.1658 C 1313.279,6262.153 1314.1342,6264.1402 1313.7066,6267.0079 L 1297.8842,6315.9089 L 1255.951,6315.9089 L 1270.7925,6270.278 C 1271.3459,6268.2907 1270.6415,6266.5802 1269.5096,6265.2973 C 1267.4972,6262.8573 1263.2209,6261.2978 1248.5304,6262.3039 C 1248.5304,6262.3039 1231.1484,6315.2045 1230.8466,6315.9089 L 1188.9386,6315.9089 C 1189.341,6314.7769 1208.6096,6255.8894 1208.8864,6255.3108 C 1223.4511,6252.745 1242.6945,6250.3302 1262.6674,6250.3302 C 1289.7592,6250.3302 1306.286,6253.6003 1311.7194,6260.1658"
         id="path151713"
         style="fill:#005e9d;fill-opacity:1" />
      <path
         d="M 1158.7024,6273.5733 C 1159.5577,6269.5736 1158.2748,6266.5802 1156.841,6264.8697 C 1155.2814,6262.8573 1151.8351,6260.2915 1144.7163,6260.2915 C 1134.6041,6260.2915 1127.0325,6265.1465 1124.4667,6273.2714 L 1119.486,6291.9615 L 1158.7024,6273.5733 z M 1193.9192,6273.4223 C 1193.9192,6276.4157 1193.2149,6278.9815 1192.6363,6280.1136 C 1191.3534,6280.4154 1118.2031,6296.6654 1118.2031,6296.6654 C 1118.2031,6296.6654 1117.4736,6300.2374 1120.1904,6302.0988 C 1123.7623,6304.6647 1127.611,6305.369 1134.1513,6305.6458 C 1150.2755,6306.3501 1172.11,6296.9422 1178.2226,6294.2506 C 1177.2415,6297.3698 1170.9528,6311.0792 1170.6761,6311.7835 C 1167.9594,6312.7897 1152.8413,6317.6195 1123.1838,6317.7703 C 1111.9144,6317.9213 1091.8156,6316.4874 1083.5397,6306.0734 C 1079.4143,6300.9418 1078.6848,6293.672 1081.5273,6284.5409 C 1088.2437,6262.7315 1113.3481,6250.1792 1150.1246,6250.1792 C 1170.6761,6250.1792 1184.0836,6254.0279 1190.2215,6261.5744 C 1192.6363,6264.7188 1193.9192,6268.7184 1193.9192,6273.4223"
         id="path151715"
         style="fill:#005e9d;fill-opacity:1" />
      <path
         d="M 1051.1657,6221.3762 C 1052.876,6221.3762 1089.8037,6221.3762 1092.6712,6221.3762 C 1091.816,6224.0677 1063.869,6314.1976 1063.4162,6315.7825 C 1061.7055,6315.7825 1024.7781,6315.7825 1021.9357,6315.7825 C 1022.7908,6313.0657 1050.738,6222.9357 1051.1657,6221.3762"
         id="path151717"
         style="fill:#005e9d;fill-rule:nonzero;stroke:none" />
    </g>
  </g>
</svg>
