<?xml version="1.0" encoding="UTF-8" standalone="no"?>
<!-- Created with Inkscape (http://www.inkscape.org/) -->

<svg
   xmlns:dc="http://purl.org/dc/elements/1.1/"
   xmlns:cc="http://creativecommons.org/ns#"
   xmlns:rdf="http://www.w3.org/1999/02/22-rdf-syntax-ns#"
   xmlns:svg="http://www.w3.org/2000/svg"
   xmlns="http://www.w3.org/2000/svg"
   xmlns:sodipodi="http://sodipodi.sourceforge.net/DTD/sodipodi-0.dtd"
   xmlns:inkscape="http://www.inkscape.org/namespaces/inkscape"
   width="41.610729mm"
   height="27.314032mm"
   viewBox="0 0 41.610729 27.314032"
   version="1.1"
   id="svg13152"
   inkscape:version="0.92.2 (5c3e80d, 2017-08-06)"
   sodipodi:docname="IconDebug.svg">
  <defs
     id="defs13146" />
  <sodipodi:namedview
     id="base"
     pagecolor="#ffffff"
     bordercolor="#666666"
     borderopacity="1.0"
     inkscape:pageopacity="0.0"
     inkscape:pageshadow="2"
     inkscape:zoom="3.959798"
     inkscape:cx="-19.035261"
     inkscape:cy="41.276274"
     inkscape:document-units="mm"
     inkscape:current-layer="layer1"
     showgrid="false"
     fit-margin-top="0"
     fit-margin-left="0"
     fit-margin-right="0"
     fit-margin-bottom="0"
     inkscape:window-width="3840"
     inkscape:window-height="2035"
     inkscape:window-x="3827"
     inkscape:window-y="-13"
     inkscape:window-maximized="1" />
  <metadata
     id="metadata13149">
    <rdf:RDF>
      <cc:Work
         rdf:about="">
        <dc:format>image/svg+xml</dc:format>
        <dc:type
           rdf:resource="http://purl.org/dc/dcmitype/StillImage" />
        <dc:title />
      </cc:Work>
    </rdf:RDF>
  </metadata>
  <g
     inkscape:label="Calque 1"
     inkscape:groupmode="layer"
     id="layer1"
     transform="translate(-112.24226,-219.08704)">
    <rect
       style="fill:#000000;fill-opacity:1;stroke:#d6d6d6;stroke-width:3;stroke-linejoin:round;stroke-miterlimit:4;stroke-dasharray:none;stroke-opacity:1"
       id="rect10-4-2"
       width="38.610729"
       height="24.314032"
       x="113.74226"
       y="220.58704"
       ry="2.0529363" />
    <g
       aria-label="?"
       transform="matrix(0.81009076,0,0,0.67474387,44.480303,41.926305)"
       style="font-style:normal;font-weight:normal;font-size:30.44945908px;line-height:1.25;font-family:sans-serif;letter-spacing:0px;word-spacing:0px;fill:#8fc1eb;fill-opacity:1;stroke:#000000;stroke-width:0.43799999;stroke-linejoin:round;stroke-miterlimit:4;stroke-dasharray:none;stroke-opacity:1"
       id="text12540">
      <path
         d="m 117.24154,276.76178 q 0,1.45706 -0.52038,2.60188 -0.52037,1.12996 -1.36784,2.00717 -0.83261,0.84747 -1.91796,1.59087 -1.08536,0.74339 -2.30453,1.44218 v 3.34528 h -2.66135 v -4.53471 q 0.96641,-0.55011 2.08151,-1.2043 1.12996,-0.65419 1.84362,-1.32324 0.86233,-0.77313 1.33811,-1.59087 0.47577,-0.8326 0.47577,-2.11124 0,-1.68007 -1.14483,-2.49781 -1.12996,-0.8326 -2.92898,-0.8326 -1.60573,0 -3.04792,0.50551 -1.42731,0.50551 -2.25992,1.02588 h -0.14867 v -3.03305 q 1.04075,-0.40143 2.63161,-0.71366 1.60574,-0.32709 3.03306,-0.32709 3.19659,0 5.04021,1.56113 1.85849,1.54626 1.85849,4.08867 z m -5.87282,16.93454 h -3.03305 v -3.13713 h 3.03305 z"
         style="fill:#8fc1eb;fill-opacity:1;stroke:#000000;stroke-width:0.43799999;stroke-linejoin:round;stroke-miterlimit:4;stroke-dasharray:none;stroke-opacity:1"
         id="path14"
         inkscape:connector-curvature="0" />
    </g>
  </g>
</svg>
