<svg xmlns="http://www.w3.org/2000/svg" viewBox="0 0 656.4 325.9"><path d="m402.1 130c-5.29-6.81-13.55-11.21-22.82-11.21h-108.7c-2.17 0-3.93-1.76-3.93-3.93v-67.5c0-2.16 1.76-3.93 3.93-3.93h98.4c2.16 0 3.93 1.76 3.93 3.93v30.1c0 24.93 38.2 24.93 38.2 0v-30.1c0-23.1-19-42.1-42.1-42.1h-98.4c-23.1 0-42.1 19-42.1 42.1v67.5c0 23.1 19 42.1 42.1 42.1h102.7c.87 0 1.65.4 2.15 1.04l18 23.1c15.34 19.67 45.51-3.76 30.2-23.41zm235.9 160.9c-2.7-3.47-6.91-5.72-11.65-5.72h-55.5c-1.11 0-2-.9-2-2v-34.42c0-1.1.9-2 2-2h50.2c1.11 0 2 .9 2 2v15.35c0 12.72 19.49 12.72 19.49 0v-15.35c0-11.79-9.7-21.5-21.5-21.5h-50.2c-11.8 0-21.5 9.7-21.5 21.5v34.42c0 11.78 9.71 21.5 21.5 21.5h52.4c.44 0 .84.2 1.1.53l9.17 11.78c7.82 10 23.2-1.92 15.45-11.97zm-299.9 4c0 12.73 19.5 12.73 19.5 0v-9.12h52.2c11.8 0 21.5-9.7 21.5-21.5v-15.55c0-11.8-9.7-21.5-21.5-21.5h-50.2c-11.79 0-21.5 9.7-21.5 21.49zm21.5-48.2h50.2c1.12 0 2 .9 2 2v15.55c0 1.11-.89 2-2 2h-52.2v-17.55c0-1.1.9-2 2-2m104.6-19.5c-11.8 0-21.49 9.71-21.49 21.5v46.2c0 12.74 19.49 12.73 19.49 0v-9.12h54.2v9.11c0 12.74 19.49 12.73 19.49 0v-46.2c0-11.61-9.65-21.5-21.5-21.5zm-1.97 21.55c0-1.1.9-2 2-2h50.2c1.1 0 2 .9 2 2v17.55h-54.2zm-181.5-21.55c-5.77 0-10.95 2.58-14.43 6.65-3.48-4.07-8.64-6.65-14.42-6.65h-22.55c-11.79 0-21.5 9.71-21.5 21.5v46.2c0 12.73 19.48 12.74 19.48 0v-46.2c0-1.1.91-2 2-2h25.2c1.1 0 2 .9 2 2v46.2c0 12.74 19.49 12.74 19.49 0v-46.2c0-1.1.9-2 2-2h25.2c1.11 0 2 .9 2 2v46.2c0 12.74 19.49 12.74 19.49 0v-46.2c0-11.62-9.64-21.5-21.5-21.5zm-157.9 0c-11.8 0-21.5 9.7-21.5 21.5v34.42c0 11.79 9.71 21.5 21.5 21.5h50.2c11.79 0 21.5-9.72 21.5-21.5v-34.42c0-11.79-9.7-21.5-21.5-21.5zm-2.1 21.58c0-1.1.9-2 2-2h50.2c1.1 0 2 .9 2 2v34.42c0 1.11-.91 2-2 2h-50.2c-1.27 0-2-.93-2-2.1zm-115.5-.08v34.42c0 11.78 9.72 21.5 21.5 21.5h56c12.72 0 12.72-19.5 0-19.5h-56c-1.1 0-2-.9-2-2v-34.42c0-1.1.91-2 2-2h56c12.72 0 12.72-19.49 0-19.49h-56c-11.78 0-21.5 9.71-21.5 21.5" fill="#c20e30"/></svg>